%TF.GenerationSoftware,KiCad,Pcbnew,7.0.10-7.0.10~ubuntu22.04.1*%
%TF.CreationDate,2024-02-12T01:26:09+01:00*%
%TF.ProjectId,screw_terminal_breakout_board_esp32,73637265-775f-4746-9572-6d696e616c5f,rev?*%
%TF.SameCoordinates,Original*%
%TF.FileFunction,Other,User*%
%FSLAX46Y46*%
G04 Gerber Fmt 4.6, Leading zero omitted, Abs format (unit mm)*
G04 Created by KiCad (PCBNEW 7.0.10-7.0.10~ubuntu22.04.1) date 2024-02-12 01:26:09*
%MOMM*%
%LPD*%
G01*
G04 APERTURE LIST*
%ADD10C,0.050000*%
G04 APERTURE END LIST*
D10*
%TO.C,H4*%
X113530000Y-60080000D02*
G75*
G03*
X106630000Y-60080000I-3450000J0D01*
G01*
X106630000Y-60080000D02*
G75*
G03*
X113530000Y-60080000I3450000J0D01*
G01*
%TO.C,H3*%
X172130000Y-60080000D02*
G75*
G03*
X165230000Y-60080000I-3450000J0D01*
G01*
X165230000Y-60080000D02*
G75*
G03*
X172130000Y-60080000I3450000J0D01*
G01*
%TO.C,H2*%
X113832944Y-124382944D02*
G75*
G03*
X106932944Y-124382944I-3450000J0D01*
G01*
X106932944Y-124382944D02*
G75*
G03*
X113832944Y-124382944I3450000J0D01*
G01*
%TO.C,H1*%
X173130000Y-124080000D02*
G75*
G03*
X166230000Y-124080000I-3450000J0D01*
G01*
X166230000Y-124080000D02*
G75*
G03*
X173130000Y-124080000I3450000J0D01*
G01*
%TO.C,J1*%
X106450000Y-118820000D02*
X114450000Y-118820000D01*
X114450000Y-118820000D02*
X114450000Y-64620000D01*
X106450000Y-64620000D02*
X106450000Y-118820000D01*
X114450000Y-64620000D02*
X106450000Y-64620000D01*
%TO.C,J2*%
X173378000Y-65382000D02*
X165378000Y-65382000D01*
X165378000Y-65382000D02*
X165378000Y-119582000D01*
X173378000Y-119582000D02*
X173378000Y-65382000D01*
X165378000Y-119582000D02*
X173378000Y-119582000D01*
%TO.C,J4*%
X155740000Y-65420000D02*
X155740000Y-104570000D01*
X155740000Y-104570000D02*
X159340000Y-104570000D01*
X159340000Y-65420000D02*
X155740000Y-65420000D01*
X159340000Y-104570000D02*
X159340000Y-65420000D01*
%TO.C,J3*%
X120180000Y-65420000D02*
X120180000Y-104570000D01*
X120180000Y-104570000D02*
X123780000Y-104570000D01*
X123780000Y-65420000D02*
X120180000Y-65420000D01*
X123780000Y-104570000D02*
X123780000Y-65420000D01*
%TD*%
M02*
