M48
; DRILL file {KiCad 7.0.10-7.0.10~ubuntu22.04.1} date ma 12 feb 2024 01:26:29
; FORMAT={-:-/ absolute / inch / decimal}
; #@! TF.CreationDate,2024-02-12T01:26:29+01:00
; #@! TF.GenerationSoftware,Kicad,Pcbnew,7.0.10-7.0.10~ubuntu22.04.1
; #@! TF.FileFunction,Plated,1,2,PTH
FMAT,2
INCH
; #@! TA.AperFunction,Plated,PTH,ViaDrill
T1C0.0157
; #@! TA.AperFunction,Plated,PTH,ComponentDrill
T2C0.0197
; #@! TA.AperFunction,Plated,PTH,ComponentDrill
T3C0.0300
; #@! TA.AperFunction,Plated,PTH,ComponentDrill
T4C0.0394
; #@! TA.AperFunction,Plated,PTH,ComponentDrill
T5C0.0472
; #@! TA.AperFunction,Plated,PTH,ComponentDrill
T6C0.1260
%
G90
G05
T1
X4.4126Y-2.7591
T2
X4.2394Y-2.3654
X4.2513Y-4.897
X4.267Y-2.2985
X4.267Y-2.4322
X4.279Y-4.8302
X4.279Y-4.9638
X4.3339Y-2.2709
X4.3339Y-2.4598
X4.3458Y-4.8025
X4.3458Y-4.9915
X4.4007Y-2.2985
X4.4007Y-2.4322
X4.4126Y-4.8302
X4.4126Y-4.9638
X4.4283Y-2.3654
X4.4403Y-4.897
X6.5465Y-2.3654
X6.5741Y-2.2985
X6.5741Y-2.4322
X6.5858Y-4.885
X6.6135Y-4.8182
X6.6135Y-4.9519
X6.6409Y-2.2709
X6.6409Y-2.4598
X6.6803Y-4.7906
X6.6803Y-4.9795
X6.7078Y-2.2985
X6.7078Y-2.4322
X6.7354Y-2.3654
X6.7471Y-4.8182
X6.7471Y-4.9519
X6.7748Y-4.885
T3
X5.0024Y-2.6465
X5.0024Y-2.7465
X5.0024Y-2.8465
X5.0024Y-2.9465
X5.0024Y-3.0465
X5.0024Y-3.1465
X5.0024Y-3.2465
X5.0024Y-3.3465
X5.0024Y-3.4465
X5.0024Y-3.5465
X5.0024Y-3.6465
X5.0024Y-3.7465
X5.0024Y-3.8465
X5.0024Y-3.9465
X5.0024Y-4.0465
X6.0024Y-2.6465
X6.0024Y-2.7465
X6.0024Y-2.8465
X6.0024Y-2.9465
X6.0024Y-3.0465
X6.0024Y-3.1465
X6.0024Y-3.2465
X6.0024Y-3.3465
X6.0024Y-3.4465
X6.0024Y-3.5465
X6.0024Y-3.6465
X6.0024Y-3.7465
X6.0024Y-3.8465
X6.0024Y-3.9465
X6.0024Y-4.0465
T4
X4.8024Y-2.6465
X4.8024Y-2.7465
X4.8024Y-2.8465
X4.8024Y-2.9465
X4.8024Y-3.0465
X4.8024Y-3.1465
X4.8024Y-3.2465
X4.8024Y-3.3465
X4.8024Y-3.4465
X4.8024Y-3.5465
X4.8024Y-3.6465
X4.8024Y-3.7465
X4.8024Y-3.8465
X4.8024Y-3.9465
X4.8024Y-4.0465
X6.2024Y-2.6465
X6.2024Y-2.7465
X6.2024Y-2.8465
X6.2024Y-2.9465
X6.2024Y-3.0465
X6.2024Y-3.1465
X6.2024Y-3.2465
X6.2024Y-3.3465
X6.2024Y-3.4465
X6.2024Y-3.5465
X6.2024Y-3.6465
X6.2024Y-3.7465
X6.2024Y-3.8465
X6.2024Y-3.9465
X6.2024Y-4.0465
T5
X4.3524Y-2.6465
X4.3524Y-2.7843
X4.3524Y-2.922
X4.3524Y-3.0598
X4.3524Y-3.1976
X4.3524Y-3.3354
X4.3524Y-3.4732
X4.3524Y-3.611
X4.3524Y-3.7488
X4.3524Y-3.8866
X4.3524Y-4.0244
X4.3524Y-4.1622
X4.3524Y-4.3
X4.3524Y-4.4378
X4.3524Y-4.5756
X6.6724Y-2.6765
X6.6724Y-2.8143
X6.6724Y-2.952
X6.6724Y-3.0898
X6.6724Y-3.2276
X6.6724Y-3.3654
X6.6724Y-3.5032
X6.6724Y-3.641
X6.6724Y-3.7788
X6.6724Y-3.9166
X6.6724Y-4.0544
X6.6724Y-4.1922
X6.6724Y-4.33
X6.6724Y-4.4678
X6.6724Y-4.6056
T6
X4.3339Y-2.3654
X4.3458Y-4.897
X6.6409Y-2.3654
X6.6803Y-4.885
M30
