%TF.GenerationSoftware,KiCad,Pcbnew,7.0.10-7.0.10~ubuntu22.04.1*%
%TF.CreationDate,2024-02-12T01:26:08+01:00*%
%TF.ProjectId,screw_terminal_breakout_board_esp32,73637265-775f-4746-9572-6d696e616c5f,rev?*%
%TF.SameCoordinates,Original*%
%TF.FileFunction,Legend,Top*%
%TF.FilePolarity,Positive*%
%FSLAX46Y46*%
G04 Gerber Fmt 4.6, Leading zero omitted, Abs format (unit mm)*
G04 Created by KiCad (PCBNEW 7.0.10-7.0.10~ubuntu22.04.1) date 2024-02-12 01:26:08*
%MOMM*%
%LPD*%
G01*
G04 APERTURE LIST*
%ADD10C,0.150000*%
%ADD11C,0.120000*%
%ADD12C,1.000000*%
%ADD13C,0.800000*%
G04 APERTURE END LIST*
D10*
X109318095Y-56334819D02*
X109318095Y-55334819D01*
X109318095Y-55811009D02*
X109889523Y-55811009D01*
X109889523Y-56334819D02*
X109889523Y-55334819D01*
X110794285Y-55668152D02*
X110794285Y-56334819D01*
X110556190Y-55287200D02*
X110318095Y-56001485D01*
X110318095Y-56001485D02*
X110937142Y-56001485D01*
X167918095Y-56334819D02*
X167918095Y-55334819D01*
X167918095Y-55811009D02*
X168489523Y-55811009D01*
X168489523Y-56334819D02*
X168489523Y-55334819D01*
X168870476Y-55334819D02*
X169489523Y-55334819D01*
X169489523Y-55334819D02*
X169156190Y-55715771D01*
X169156190Y-55715771D02*
X169299047Y-55715771D01*
X169299047Y-55715771D02*
X169394285Y-55763390D01*
X169394285Y-55763390D02*
X169441904Y-55811009D01*
X169441904Y-55811009D02*
X169489523Y-55906247D01*
X169489523Y-55906247D02*
X169489523Y-56144342D01*
X169489523Y-56144342D02*
X169441904Y-56239580D01*
X169441904Y-56239580D02*
X169394285Y-56287200D01*
X169394285Y-56287200D02*
X169299047Y-56334819D01*
X169299047Y-56334819D02*
X169013333Y-56334819D01*
X169013333Y-56334819D02*
X168918095Y-56287200D01*
X168918095Y-56287200D02*
X168870476Y-56239580D01*
X109621039Y-120637763D02*
X109621039Y-119637763D01*
X109621039Y-120113953D02*
X110192467Y-120113953D01*
X110192467Y-120637763D02*
X110192467Y-119637763D01*
X110621039Y-119733001D02*
X110668658Y-119685382D01*
X110668658Y-119685382D02*
X110763896Y-119637763D01*
X110763896Y-119637763D02*
X111001991Y-119637763D01*
X111001991Y-119637763D02*
X111097229Y-119685382D01*
X111097229Y-119685382D02*
X111144848Y-119733001D01*
X111144848Y-119733001D02*
X111192467Y-119828239D01*
X111192467Y-119828239D02*
X111192467Y-119923477D01*
X111192467Y-119923477D02*
X111144848Y-120066334D01*
X111144848Y-120066334D02*
X110573420Y-120637763D01*
X110573420Y-120637763D02*
X111192467Y-120637763D01*
X168918095Y-120334819D02*
X168918095Y-119334819D01*
X168918095Y-119811009D02*
X169489523Y-119811009D01*
X169489523Y-120334819D02*
X169489523Y-119334819D01*
X170489523Y-120334819D02*
X169918095Y-120334819D01*
X170203809Y-120334819D02*
X170203809Y-119334819D01*
X170203809Y-119334819D02*
X170108571Y-119477676D01*
X170108571Y-119477676D02*
X170013333Y-119572914D01*
X170013333Y-119572914D02*
X169918095Y-119620533D01*
X138998095Y-77144819D02*
X138998095Y-77954342D01*
X138998095Y-77954342D02*
X139045714Y-78049580D01*
X139045714Y-78049580D02*
X139093333Y-78097200D01*
X139093333Y-78097200D02*
X139188571Y-78144819D01*
X139188571Y-78144819D02*
X139379047Y-78144819D01*
X139379047Y-78144819D02*
X139474285Y-78097200D01*
X139474285Y-78097200D02*
X139521904Y-78049580D01*
X139521904Y-78049580D02*
X139569523Y-77954342D01*
X139569523Y-77954342D02*
X139569523Y-77144819D01*
X140569523Y-78144819D02*
X139998095Y-78144819D01*
X140283809Y-78144819D02*
X140283809Y-77144819D01*
X140283809Y-77144819D02*
X140188571Y-77287676D01*
X140188571Y-77287676D02*
X140093333Y-77382914D01*
X140093333Y-77382914D02*
X139998095Y-77430533D01*
X129878095Y-106831009D02*
X130211428Y-106831009D01*
X130354285Y-107354819D02*
X129878095Y-107354819D01*
X129878095Y-107354819D02*
X129878095Y-106354819D01*
X129878095Y-106354819D02*
X130354285Y-106354819D01*
X130782857Y-106688152D02*
X130782857Y-107354819D01*
X130782857Y-106783390D02*
X130830476Y-106735771D01*
X130830476Y-106735771D02*
X130925714Y-106688152D01*
X130925714Y-106688152D02*
X131068571Y-106688152D01*
X131068571Y-106688152D02*
X131163809Y-106735771D01*
X131163809Y-106735771D02*
X131211428Y-106831009D01*
X131211428Y-106831009D02*
X131211428Y-107354819D01*
X132116190Y-107354819D02*
X132116190Y-106831009D01*
X132116190Y-106831009D02*
X132068571Y-106735771D01*
X132068571Y-106735771D02*
X131973333Y-106688152D01*
X131973333Y-106688152D02*
X131782857Y-106688152D01*
X131782857Y-106688152D02*
X131687619Y-106735771D01*
X132116190Y-107307200D02*
X132020952Y-107354819D01*
X132020952Y-107354819D02*
X131782857Y-107354819D01*
X131782857Y-107354819D02*
X131687619Y-107307200D01*
X131687619Y-107307200D02*
X131640000Y-107211961D01*
X131640000Y-107211961D02*
X131640000Y-107116723D01*
X131640000Y-107116723D02*
X131687619Y-107021485D01*
X131687619Y-107021485D02*
X131782857Y-106973866D01*
X131782857Y-106973866D02*
X132020952Y-106973866D01*
X132020952Y-106973866D02*
X132116190Y-106926247D01*
X132592381Y-107354819D02*
X132592381Y-106354819D01*
X132592381Y-106735771D02*
X132687619Y-106688152D01*
X132687619Y-106688152D02*
X132878095Y-106688152D01*
X132878095Y-106688152D02*
X132973333Y-106735771D01*
X132973333Y-106735771D02*
X133020952Y-106783390D01*
X133020952Y-106783390D02*
X133068571Y-106878628D01*
X133068571Y-106878628D02*
X133068571Y-107164342D01*
X133068571Y-107164342D02*
X133020952Y-107259580D01*
X133020952Y-107259580D02*
X132973333Y-107307200D01*
X132973333Y-107307200D02*
X132878095Y-107354819D01*
X132878095Y-107354819D02*
X132687619Y-107354819D01*
X132687619Y-107354819D02*
X132592381Y-107307200D01*
X133640000Y-107354819D02*
X133544762Y-107307200D01*
X133544762Y-107307200D02*
X133497143Y-107211961D01*
X133497143Y-107211961D02*
X133497143Y-106354819D01*
X134401905Y-107307200D02*
X134306667Y-107354819D01*
X134306667Y-107354819D02*
X134116191Y-107354819D01*
X134116191Y-107354819D02*
X134020953Y-107307200D01*
X134020953Y-107307200D02*
X133973334Y-107211961D01*
X133973334Y-107211961D02*
X133973334Y-106831009D01*
X133973334Y-106831009D02*
X134020953Y-106735771D01*
X134020953Y-106735771D02*
X134116191Y-106688152D01*
X134116191Y-106688152D02*
X134306667Y-106688152D01*
X134306667Y-106688152D02*
X134401905Y-106735771D01*
X134401905Y-106735771D02*
X134449524Y-106831009D01*
X134449524Y-106831009D02*
X134449524Y-106926247D01*
X134449524Y-106926247D02*
X133973334Y-107021485D01*
X146260952Y-106831009D02*
X146403809Y-106878628D01*
X146403809Y-106878628D02*
X146451428Y-106926247D01*
X146451428Y-106926247D02*
X146499047Y-107021485D01*
X146499047Y-107021485D02*
X146499047Y-107164342D01*
X146499047Y-107164342D02*
X146451428Y-107259580D01*
X146451428Y-107259580D02*
X146403809Y-107307200D01*
X146403809Y-107307200D02*
X146308571Y-107354819D01*
X146308571Y-107354819D02*
X145927619Y-107354819D01*
X145927619Y-107354819D02*
X145927619Y-106354819D01*
X145927619Y-106354819D02*
X146260952Y-106354819D01*
X146260952Y-106354819D02*
X146356190Y-106402438D01*
X146356190Y-106402438D02*
X146403809Y-106450057D01*
X146403809Y-106450057D02*
X146451428Y-106545295D01*
X146451428Y-106545295D02*
X146451428Y-106640533D01*
X146451428Y-106640533D02*
X146403809Y-106735771D01*
X146403809Y-106735771D02*
X146356190Y-106783390D01*
X146356190Y-106783390D02*
X146260952Y-106831009D01*
X146260952Y-106831009D02*
X145927619Y-106831009D01*
X147070476Y-107354819D02*
X146975238Y-107307200D01*
X146975238Y-107307200D02*
X146927619Y-107259580D01*
X146927619Y-107259580D02*
X146880000Y-107164342D01*
X146880000Y-107164342D02*
X146880000Y-106878628D01*
X146880000Y-106878628D02*
X146927619Y-106783390D01*
X146927619Y-106783390D02*
X146975238Y-106735771D01*
X146975238Y-106735771D02*
X147070476Y-106688152D01*
X147070476Y-106688152D02*
X147213333Y-106688152D01*
X147213333Y-106688152D02*
X147308571Y-106735771D01*
X147308571Y-106735771D02*
X147356190Y-106783390D01*
X147356190Y-106783390D02*
X147403809Y-106878628D01*
X147403809Y-106878628D02*
X147403809Y-107164342D01*
X147403809Y-107164342D02*
X147356190Y-107259580D01*
X147356190Y-107259580D02*
X147308571Y-107307200D01*
X147308571Y-107307200D02*
X147213333Y-107354819D01*
X147213333Y-107354819D02*
X147070476Y-107354819D01*
X147975238Y-107354819D02*
X147880000Y-107307200D01*
X147880000Y-107307200D02*
X147832381Y-107259580D01*
X147832381Y-107259580D02*
X147784762Y-107164342D01*
X147784762Y-107164342D02*
X147784762Y-106878628D01*
X147784762Y-106878628D02*
X147832381Y-106783390D01*
X147832381Y-106783390D02*
X147880000Y-106735771D01*
X147880000Y-106735771D02*
X147975238Y-106688152D01*
X147975238Y-106688152D02*
X148118095Y-106688152D01*
X148118095Y-106688152D02*
X148213333Y-106735771D01*
X148213333Y-106735771D02*
X148260952Y-106783390D01*
X148260952Y-106783390D02*
X148308571Y-106878628D01*
X148308571Y-106878628D02*
X148308571Y-107164342D01*
X148308571Y-107164342D02*
X148260952Y-107259580D01*
X148260952Y-107259580D02*
X148213333Y-107307200D01*
X148213333Y-107307200D02*
X148118095Y-107354819D01*
X148118095Y-107354819D02*
X147975238Y-107354819D01*
X148594286Y-106688152D02*
X148975238Y-106688152D01*
X148737143Y-106354819D02*
X148737143Y-107211961D01*
X148737143Y-107211961D02*
X148784762Y-107307200D01*
X148784762Y-107307200D02*
X148880000Y-107354819D01*
X148880000Y-107354819D02*
X148975238Y-107354819D01*
X138498095Y-110164819D02*
X138498095Y-110974342D01*
X138498095Y-110974342D02*
X138545714Y-111069580D01*
X138545714Y-111069580D02*
X138593333Y-111117200D01*
X138593333Y-111117200D02*
X138688571Y-111164819D01*
X138688571Y-111164819D02*
X138879047Y-111164819D01*
X138879047Y-111164819D02*
X138974285Y-111117200D01*
X138974285Y-111117200D02*
X139021904Y-111069580D01*
X139021904Y-111069580D02*
X139069523Y-110974342D01*
X139069523Y-110974342D02*
X139069523Y-110164819D01*
X139498095Y-111117200D02*
X139640952Y-111164819D01*
X139640952Y-111164819D02*
X139879047Y-111164819D01*
X139879047Y-111164819D02*
X139974285Y-111117200D01*
X139974285Y-111117200D02*
X140021904Y-111069580D01*
X140021904Y-111069580D02*
X140069523Y-110974342D01*
X140069523Y-110974342D02*
X140069523Y-110879104D01*
X140069523Y-110879104D02*
X140021904Y-110783866D01*
X140021904Y-110783866D02*
X139974285Y-110736247D01*
X139974285Y-110736247D02*
X139879047Y-110688628D01*
X139879047Y-110688628D02*
X139688571Y-110641009D01*
X139688571Y-110641009D02*
X139593333Y-110593390D01*
X139593333Y-110593390D02*
X139545714Y-110545771D01*
X139545714Y-110545771D02*
X139498095Y-110450533D01*
X139498095Y-110450533D02*
X139498095Y-110355295D01*
X139498095Y-110355295D02*
X139545714Y-110260057D01*
X139545714Y-110260057D02*
X139593333Y-110212438D01*
X139593333Y-110212438D02*
X139688571Y-110164819D01*
X139688571Y-110164819D02*
X139926666Y-110164819D01*
X139926666Y-110164819D02*
X140069523Y-110212438D01*
X140831428Y-110641009D02*
X140974285Y-110688628D01*
X140974285Y-110688628D02*
X141021904Y-110736247D01*
X141021904Y-110736247D02*
X141069523Y-110831485D01*
X141069523Y-110831485D02*
X141069523Y-110974342D01*
X141069523Y-110974342D02*
X141021904Y-111069580D01*
X141021904Y-111069580D02*
X140974285Y-111117200D01*
X140974285Y-111117200D02*
X140879047Y-111164819D01*
X140879047Y-111164819D02*
X140498095Y-111164819D01*
X140498095Y-111164819D02*
X140498095Y-110164819D01*
X140498095Y-110164819D02*
X140831428Y-110164819D01*
X140831428Y-110164819D02*
X140926666Y-110212438D01*
X140926666Y-110212438D02*
X140974285Y-110260057D01*
X140974285Y-110260057D02*
X141021904Y-110355295D01*
X141021904Y-110355295D02*
X141021904Y-110450533D01*
X141021904Y-110450533D02*
X140974285Y-110545771D01*
X140974285Y-110545771D02*
X140926666Y-110593390D01*
X140926666Y-110593390D02*
X140831428Y-110641009D01*
X140831428Y-110641009D02*
X140498095Y-110641009D01*
X114464819Y-92053333D02*
X115179104Y-92053333D01*
X115179104Y-92053333D02*
X115321961Y-92100952D01*
X115321961Y-92100952D02*
X115417200Y-92196190D01*
X115417200Y-92196190D02*
X115464819Y-92339047D01*
X115464819Y-92339047D02*
X115464819Y-92434285D01*
X115464819Y-91053333D02*
X115464819Y-91624761D01*
X115464819Y-91339047D02*
X114464819Y-91339047D01*
X114464819Y-91339047D02*
X114607676Y-91434285D01*
X114607676Y-91434285D02*
X114702914Y-91529523D01*
X114702914Y-91529523D02*
X114750533Y-91624761D01*
X173392819Y-92815333D02*
X174107104Y-92815333D01*
X174107104Y-92815333D02*
X174249961Y-92862952D01*
X174249961Y-92862952D02*
X174345200Y-92958190D01*
X174345200Y-92958190D02*
X174392819Y-93101047D01*
X174392819Y-93101047D02*
X174392819Y-93196285D01*
X173488057Y-92386761D02*
X173440438Y-92339142D01*
X173440438Y-92339142D02*
X173392819Y-92243904D01*
X173392819Y-92243904D02*
X173392819Y-92005809D01*
X173392819Y-92005809D02*
X173440438Y-91910571D01*
X173440438Y-91910571D02*
X173488057Y-91862952D01*
X173488057Y-91862952D02*
X173583295Y-91815333D01*
X173583295Y-91815333D02*
X173678533Y-91815333D01*
X173678533Y-91815333D02*
X173821390Y-91862952D01*
X173821390Y-91862952D02*
X174392819Y-92434380D01*
X174392819Y-92434380D02*
X174392819Y-91815333D01*
X157206666Y-64344819D02*
X157206666Y-65059104D01*
X157206666Y-65059104D02*
X157159047Y-65201961D01*
X157159047Y-65201961D02*
X157063809Y-65297200D01*
X157063809Y-65297200D02*
X156920952Y-65344819D01*
X156920952Y-65344819D02*
X156825714Y-65344819D01*
X158111428Y-64678152D02*
X158111428Y-65344819D01*
X157873333Y-64297200D02*
X157635238Y-65011485D01*
X157635238Y-65011485D02*
X158254285Y-65011485D01*
X121646666Y-64344819D02*
X121646666Y-65059104D01*
X121646666Y-65059104D02*
X121599047Y-65201961D01*
X121599047Y-65201961D02*
X121503809Y-65297200D01*
X121503809Y-65297200D02*
X121360952Y-65344819D01*
X121360952Y-65344819D02*
X121265714Y-65344819D01*
X122027619Y-64344819D02*
X122646666Y-64344819D01*
X122646666Y-64344819D02*
X122313333Y-64725771D01*
X122313333Y-64725771D02*
X122456190Y-64725771D01*
X122456190Y-64725771D02*
X122551428Y-64773390D01*
X122551428Y-64773390D02*
X122599047Y-64821009D01*
X122599047Y-64821009D02*
X122646666Y-64916247D01*
X122646666Y-64916247D02*
X122646666Y-65154342D01*
X122646666Y-65154342D02*
X122599047Y-65249580D01*
X122599047Y-65249580D02*
X122551428Y-65297200D01*
X122551428Y-65297200D02*
X122456190Y-65344819D01*
X122456190Y-65344819D02*
X122170476Y-65344819D01*
X122170476Y-65344819D02*
X122075238Y-65297200D01*
X122075238Y-65297200D02*
X122027619Y-65249580D01*
D11*
%TO.C,U1*%
X125760000Y-63180000D02*
X125760000Y-110680000D01*
X127760000Y-61180000D02*
X151760000Y-61180000D01*
X127760000Y-112680000D02*
X151760000Y-112680000D01*
X130870000Y-62450000D02*
X148650000Y-62450000D01*
X130870000Y-67530000D02*
X130870000Y-62450000D01*
X130870000Y-108170000D02*
X133410000Y-108170000D01*
X130870000Y-111980000D02*
X130870000Y-108170000D01*
X132140000Y-63212000D02*
X134680000Y-63212000D01*
X132140000Y-66768000D02*
X132140000Y-63212000D01*
X132260000Y-68180000D02*
X147260000Y-68180000D01*
X132260000Y-86180000D02*
X132260000Y-68180000D01*
X133410000Y-108170000D02*
X133410000Y-111980000D01*
X133410000Y-111980000D02*
X130870000Y-111980000D01*
X134680000Y-63212000D02*
X134680000Y-65244000D01*
X134680000Y-65244000D02*
X137220000Y-65244000D01*
X135760000Y-106680000D02*
X135760000Y-112680000D01*
X135760000Y-106680000D02*
X143760000Y-106680000D01*
X137220000Y-63212000D02*
X139760000Y-63212000D01*
X137220000Y-65244000D02*
X137220000Y-63212000D01*
X139760000Y-63212000D02*
X139760000Y-65244000D01*
X139760000Y-65244000D02*
X142300000Y-65244000D01*
X142300000Y-63212000D02*
X147380000Y-63212000D01*
X142300000Y-65244000D02*
X142300000Y-63212000D01*
X143760000Y-106680000D02*
X143760000Y-112680000D01*
X144840000Y-63212000D02*
X144840000Y-66768000D01*
X146110000Y-108170000D02*
X148650000Y-108170000D01*
X146110000Y-111980000D02*
X146110000Y-108170000D01*
X147260000Y-68180000D02*
X147260000Y-86180000D01*
X147260000Y-86180000D02*
X132260000Y-86180000D01*
X147380000Y-63212000D02*
X147380000Y-66768000D01*
X148650000Y-62450000D02*
X148650000Y-67530000D01*
X148650000Y-67530000D02*
X130870000Y-67530000D01*
X148650000Y-108170000D02*
X148650000Y-111980000D01*
X148650000Y-111980000D02*
X146110000Y-111980000D01*
X153760000Y-110680000D02*
X153760000Y-63180000D01*
X127760000Y-61180000D02*
G75*
G03*
X125760000Y-63180000I-1J-1999999D01*
G01*
X125760000Y-110680000D02*
G75*
G03*
X127760000Y-112680000I1999999J-1D01*
G01*
X153760000Y-63180000D02*
G75*
G03*
X151760000Y-61180000I-2000000J0D01*
G01*
X151760000Y-112680000D02*
G75*
G03*
X153760000Y-110680000I0J2000000D01*
G01*
X129560000Y-63180000D02*
G75*
G03*
X126560000Y-63180000I-1500000J0D01*
G01*
X126560000Y-63180000D02*
G75*
G03*
X129560000Y-63180000I1500000J0D01*
G01*
X129560000Y-110680000D02*
G75*
G03*
X126560000Y-110680000I-1500000J0D01*
G01*
X126560000Y-110680000D02*
G75*
G03*
X129560000Y-110680000I1500000J0D01*
G01*
D12*
X132440000Y-110075000D02*
G75*
G03*
X131840000Y-110075000I-300000J0D01*
G01*
X131840000Y-110075000D02*
G75*
G03*
X132440000Y-110075000I300000J0D01*
G01*
D13*
X135080000Y-84040000D02*
G75*
G03*
X134280000Y-84040000I-400000J0D01*
G01*
X134280000Y-84040000D02*
G75*
G03*
X135080000Y-84040000I400000J0D01*
G01*
D12*
X147680000Y-110075000D02*
G75*
G03*
X147080000Y-110075000I-300000J0D01*
G01*
X147080000Y-110075000D02*
G75*
G03*
X147680000Y-110075000I300000J0D01*
G01*
D11*
X152960000Y-63180000D02*
G75*
G03*
X149960000Y-63180000I-1500000J0D01*
G01*
X149960000Y-63180000D02*
G75*
G03*
X152960000Y-63180000I1500000J0D01*
G01*
X152960000Y-110680000D02*
G75*
G03*
X149960000Y-110680000I-1500000J0D01*
G01*
X149960000Y-110680000D02*
G75*
G03*
X152960000Y-110680000I1500000J0D01*
G01*
%TO.C,J1*%
X112105000Y-116220000D02*
G75*
G03*
X108995000Y-116220000I-1555000J0D01*
G01*
X108995000Y-116220000D02*
G75*
G03*
X112105000Y-116220000I1555000J0D01*
G01*
X112105000Y-112720000D02*
G75*
G03*
X108995000Y-112720000I-1555000J0D01*
G01*
X108995000Y-112720000D02*
G75*
G03*
X112105000Y-112720000I1555000J0D01*
G01*
X112105000Y-109220000D02*
G75*
G03*
X108995000Y-109220000I-1555000J0D01*
G01*
X108995000Y-109220000D02*
G75*
G03*
X112105000Y-109220000I1555000J0D01*
G01*
X112105000Y-105720000D02*
G75*
G03*
X108995000Y-105720000I-1555000J0D01*
G01*
X108995000Y-105720000D02*
G75*
G03*
X112105000Y-105720000I1555000J0D01*
G01*
X112105000Y-102220000D02*
G75*
G03*
X108995000Y-102220000I-1555000J0D01*
G01*
X108995000Y-102220000D02*
G75*
G03*
X112105000Y-102220000I1555000J0D01*
G01*
X112105000Y-98720000D02*
G75*
G03*
X108995000Y-98720000I-1555000J0D01*
G01*
X108995000Y-98720000D02*
G75*
G03*
X112105000Y-98720000I1555000J0D01*
G01*
X112105000Y-95220000D02*
G75*
G03*
X108995000Y-95220000I-1555000J0D01*
G01*
X108995000Y-95220000D02*
G75*
G03*
X112105000Y-95220000I1555000J0D01*
G01*
X112105000Y-91720000D02*
G75*
G03*
X108995000Y-91720000I-1555000J0D01*
G01*
X108995000Y-91720000D02*
G75*
G03*
X112105000Y-91720000I1555000J0D01*
G01*
X112105000Y-88220000D02*
G75*
G03*
X108995000Y-88220000I-1555000J0D01*
G01*
X108995000Y-88220000D02*
G75*
G03*
X112105000Y-88220000I1555000J0D01*
G01*
X112105000Y-84720000D02*
G75*
G03*
X108995000Y-84720000I-1555000J0D01*
G01*
X108995000Y-84720000D02*
G75*
G03*
X112105000Y-84720000I1555000J0D01*
G01*
X112105000Y-81220000D02*
G75*
G03*
X108995000Y-81220000I-1555000J0D01*
G01*
X108995000Y-81220000D02*
G75*
G03*
X112105000Y-81220000I1555000J0D01*
G01*
X112105000Y-77720000D02*
G75*
G03*
X108995000Y-77720000I-1555000J0D01*
G01*
X108995000Y-77720000D02*
G75*
G03*
X112105000Y-77720000I1555000J0D01*
G01*
X112105000Y-74220000D02*
G75*
G03*
X108995000Y-74220000I-1555000J0D01*
G01*
X108995000Y-74220000D02*
G75*
G03*
X112105000Y-74220000I1555000J0D01*
G01*
X112105000Y-70720000D02*
G75*
G03*
X108995000Y-70720000I-1555000J0D01*
G01*
X108995000Y-70720000D02*
G75*
G03*
X112105000Y-70720000I1555000J0D01*
G01*
X109942000Y-68652000D02*
G75*
G03*
X111157742Y-68652109I607999J1432003D01*
G01*
X108995001Y-67220000D02*
G75*
G03*
X109118616Y-67827587I1554999J0D01*
G01*
X109118001Y-66612000D02*
G75*
G03*
X108994508Y-67247011I1431987J-607998D01*
G01*
X111982000Y-67828000D02*
G75*
G03*
X111982109Y-66612258I-1432000J608000D01*
G01*
X111158000Y-65788000D02*
G75*
G03*
X109942258Y-65787891I-608000J-1432000D01*
G01*
X114010000Y-118380000D02*
X106890000Y-118380000D01*
X106890000Y-65060000D02*
X106890000Y-118380000D01*
X108450000Y-65060000D02*
X108450000Y-118380000D01*
X114010000Y-65060000D02*
X114010000Y-118380000D01*
X114010000Y-65060000D02*
X106890000Y-65060000D01*
X106650000Y-64820000D02*
X106650000Y-66320000D01*
X108390000Y-64820000D02*
X106650000Y-64820000D01*
%TO.C,J2*%
X167318000Y-65582000D02*
X165578000Y-65582000D01*
X165578000Y-65582000D02*
X165578000Y-67082000D01*
X172938000Y-65822000D02*
X165818000Y-65822000D01*
X172938000Y-65822000D02*
X172938000Y-119142000D01*
X167378000Y-65822000D02*
X167378000Y-119142000D01*
X165818000Y-65822000D02*
X165818000Y-119142000D01*
X172938000Y-119142000D02*
X165818000Y-119142000D01*
X170086000Y-66550000D02*
G75*
G03*
X168870258Y-66549891I-608000J-1432000D01*
G01*
X170910000Y-68590000D02*
G75*
G03*
X170910109Y-67374258I-1432000J608000D01*
G01*
X168046001Y-67374000D02*
G75*
G03*
X167922508Y-68009011I1431987J-607998D01*
G01*
X167923001Y-67982000D02*
G75*
G03*
X168046616Y-68589587I1554999J0D01*
G01*
X168870000Y-69414000D02*
G75*
G03*
X170085742Y-69414109I607999J1432003D01*
G01*
X171033000Y-71482000D02*
G75*
G03*
X167923000Y-71482000I-1555000J0D01*
G01*
X167923000Y-71482000D02*
G75*
G03*
X171033000Y-71482000I1555000J0D01*
G01*
X171033000Y-74982000D02*
G75*
G03*
X167923000Y-74982000I-1555000J0D01*
G01*
X167923000Y-74982000D02*
G75*
G03*
X171033000Y-74982000I1555000J0D01*
G01*
X171033000Y-78482000D02*
G75*
G03*
X167923000Y-78482000I-1555000J0D01*
G01*
X167923000Y-78482000D02*
G75*
G03*
X171033000Y-78482000I1555000J0D01*
G01*
X171033000Y-81982000D02*
G75*
G03*
X167923000Y-81982000I-1555000J0D01*
G01*
X167923000Y-81982000D02*
G75*
G03*
X171033000Y-81982000I1555000J0D01*
G01*
X171033000Y-85482000D02*
G75*
G03*
X167923000Y-85482000I-1555000J0D01*
G01*
X167923000Y-85482000D02*
G75*
G03*
X171033000Y-85482000I1555000J0D01*
G01*
X171033000Y-88982000D02*
G75*
G03*
X167923000Y-88982000I-1555000J0D01*
G01*
X167923000Y-88982000D02*
G75*
G03*
X171033000Y-88982000I1555000J0D01*
G01*
X171033000Y-92482000D02*
G75*
G03*
X167923000Y-92482000I-1555000J0D01*
G01*
X167923000Y-92482000D02*
G75*
G03*
X171033000Y-92482000I1555000J0D01*
G01*
X171033000Y-95982000D02*
G75*
G03*
X167923000Y-95982000I-1555000J0D01*
G01*
X167923000Y-95982000D02*
G75*
G03*
X171033000Y-95982000I1555000J0D01*
G01*
X171033000Y-99482000D02*
G75*
G03*
X167923000Y-99482000I-1555000J0D01*
G01*
X167923000Y-99482000D02*
G75*
G03*
X171033000Y-99482000I1555000J0D01*
G01*
X171033000Y-102982000D02*
G75*
G03*
X167923000Y-102982000I-1555000J0D01*
G01*
X167923000Y-102982000D02*
G75*
G03*
X171033000Y-102982000I1555000J0D01*
G01*
X171033000Y-106482000D02*
G75*
G03*
X167923000Y-106482000I-1555000J0D01*
G01*
X167923000Y-106482000D02*
G75*
G03*
X171033000Y-106482000I1555000J0D01*
G01*
X171033000Y-109982000D02*
G75*
G03*
X167923000Y-109982000I-1555000J0D01*
G01*
X167923000Y-109982000D02*
G75*
G03*
X171033000Y-109982000I1555000J0D01*
G01*
X171033000Y-113482000D02*
G75*
G03*
X167923000Y-113482000I-1555000J0D01*
G01*
X167923000Y-113482000D02*
G75*
G03*
X171033000Y-113482000I1555000J0D01*
G01*
X171033000Y-116982000D02*
G75*
G03*
X167923000Y-116982000I-1555000J0D01*
G01*
X167923000Y-116982000D02*
G75*
G03*
X171033000Y-116982000I1555000J0D01*
G01*
%TO.C,J4*%
X156210000Y-65890000D02*
X157540000Y-65890000D01*
X156210000Y-67220000D02*
X156210000Y-65890000D01*
X156210000Y-68490000D02*
X156210000Y-104110000D01*
X156210000Y-68490000D02*
X158870000Y-68490000D01*
X156210000Y-104110000D02*
X158870000Y-104110000D01*
X158870000Y-68490000D02*
X158870000Y-104110000D01*
%TO.C,J3*%
X120650000Y-65890000D02*
X121980000Y-65890000D01*
X120650000Y-67220000D02*
X120650000Y-65890000D01*
X120650000Y-68490000D02*
X120650000Y-104110000D01*
X120650000Y-68490000D02*
X123310000Y-68490000D01*
X120650000Y-104110000D02*
X123310000Y-104110000D01*
X123310000Y-68490000D02*
X123310000Y-104110000D01*
%TD*%
M02*
