%TF.GenerationSoftware,KiCad,Pcbnew,7.0.10-7.0.10~ubuntu22.04.1*%
%TF.CreationDate,2024-02-12T01:26:08+01:00*%
%TF.ProjectId,screw_terminal_breakout_board_esp32,73637265-775f-4746-9572-6d696e616c5f,rev?*%
%TF.SameCoordinates,Original*%
%TF.FileFunction,Soldermask,Bot*%
%TF.FilePolarity,Negative*%
%FSLAX46Y46*%
G04 Gerber Fmt 4.6, Leading zero omitted, Abs format (unit mm)*
G04 Created by KiCad (PCBNEW 7.0.10-7.0.10~ubuntu22.04.1) date 2024-02-12 01:26:08*
%MOMM*%
%LPD*%
G01*
G04 APERTURE LIST*
%ADD10C,0.800000*%
%ADD11C,6.400000*%
%ADD12R,1.524000X1.524000*%
%ADD13C,1.524000*%
%ADD14C,2.400000*%
%ADD15R,2.400000X2.400000*%
%ADD16R,1.700000X1.700000*%
%ADD17O,1.700000X1.700000*%
G04 APERTURE END LIST*
D10*
%TO.C,H4*%
X110080000Y-57680000D03*
X111777056Y-61777056D03*
X111777056Y-58382944D03*
X112480000Y-60080000D03*
D11*
X110080000Y-60080000D03*
D10*
X110080000Y-62480000D03*
X108382944Y-58382944D03*
X108382944Y-61777056D03*
X107680000Y-60080000D03*
%TD*%
%TO.C,H3*%
X168680000Y-57680000D03*
X170377056Y-61777056D03*
X170377056Y-58382944D03*
X171080000Y-60080000D03*
D11*
X168680000Y-60080000D03*
D10*
X168680000Y-62480000D03*
X166982944Y-58382944D03*
X166982944Y-61777056D03*
X166280000Y-60080000D03*
%TD*%
%TO.C,H2*%
X110382944Y-121982944D03*
X112080000Y-126080000D03*
X112080000Y-122685888D03*
X112782944Y-124382944D03*
D11*
X110382944Y-124382944D03*
D10*
X110382944Y-126782944D03*
X108685888Y-122685888D03*
X108685888Y-126080000D03*
X107982944Y-124382944D03*
%TD*%
%TO.C,H1*%
X169680000Y-121680000D03*
X171377056Y-125777056D03*
X171377056Y-122382944D03*
X172080000Y-124080000D03*
D11*
X169680000Y-124080000D03*
D10*
X169680000Y-126480000D03*
X167982944Y-122382944D03*
X167982944Y-125777056D03*
X167280000Y-124080000D03*
%TD*%
D12*
%TO.C,U1*%
X127060000Y-67220000D03*
D13*
X127060000Y-69760000D03*
X127060000Y-72300000D03*
X127060000Y-74840000D03*
X127060000Y-77380000D03*
X127060000Y-79920000D03*
X127060000Y-82460000D03*
X127060000Y-85000000D03*
X127060000Y-87540000D03*
X127060000Y-90080000D03*
X127060000Y-92620000D03*
X127060000Y-95160000D03*
X127060000Y-97700000D03*
X127060000Y-100240000D03*
X127060000Y-102780000D03*
X152460000Y-102780000D03*
X152460000Y-100240000D03*
X152460000Y-97700000D03*
X152460000Y-95160000D03*
X152460000Y-92620000D03*
X152460000Y-90080000D03*
X152460000Y-87540000D03*
X152460000Y-85000000D03*
X152460000Y-82460000D03*
X152460000Y-79920000D03*
X152460000Y-77380000D03*
X152460000Y-74840000D03*
X152460000Y-72300000D03*
X152460000Y-69760000D03*
X152460000Y-67220000D03*
%TD*%
D14*
%TO.C,J1*%
X110550000Y-116220000D03*
X110550000Y-112720000D03*
X110550000Y-109220000D03*
X110550000Y-105720000D03*
X110550000Y-102220000D03*
X110550000Y-98720000D03*
X110550000Y-95220000D03*
X110550000Y-91720000D03*
X110550000Y-88220000D03*
X110550000Y-84720000D03*
X110550000Y-81220000D03*
X110550000Y-77720000D03*
X110550000Y-74220000D03*
X110550000Y-70720000D03*
D15*
X110550000Y-67220000D03*
%TD*%
%TO.C,J2*%
X169478000Y-67982000D03*
D14*
X169478000Y-71482000D03*
X169478000Y-74982000D03*
X169478000Y-78482000D03*
X169478000Y-81982000D03*
X169478000Y-85482000D03*
X169478000Y-88982000D03*
X169478000Y-92482000D03*
X169478000Y-95982000D03*
X169478000Y-99482000D03*
X169478000Y-102982000D03*
X169478000Y-106482000D03*
X169478000Y-109982000D03*
X169478000Y-113482000D03*
X169478000Y-116982000D03*
%TD*%
D16*
%TO.C,J4*%
X157540000Y-67220000D03*
D17*
X157540000Y-69760000D03*
X157540000Y-72300000D03*
X157540000Y-74840000D03*
X157540000Y-77380000D03*
X157540000Y-79920000D03*
X157540000Y-82460000D03*
X157540000Y-85000000D03*
X157540000Y-87540000D03*
X157540000Y-90080000D03*
X157540000Y-92620000D03*
X157540000Y-95160000D03*
X157540000Y-97700000D03*
X157540000Y-100240000D03*
X157540000Y-102780000D03*
%TD*%
D16*
%TO.C,J3*%
X121980000Y-67220000D03*
D17*
X121980000Y-69760000D03*
X121980000Y-72300000D03*
X121980000Y-74840000D03*
X121980000Y-77380000D03*
X121980000Y-79920000D03*
X121980000Y-82460000D03*
X121980000Y-85000000D03*
X121980000Y-87540000D03*
X121980000Y-90080000D03*
X121980000Y-92620000D03*
X121980000Y-95160000D03*
X121980000Y-97700000D03*
X121980000Y-100240000D03*
X121980000Y-102780000D03*
%TD*%
M02*
