%TF.GenerationSoftware,KiCad,Pcbnew,7.0.10-7.0.10~ubuntu22.04.1*%
%TF.CreationDate,2024-02-12T01:26:08+01:00*%
%TF.ProjectId,screw_terminal_breakout_board_esp32,73637265-775f-4746-9572-6d696e616c5f,rev?*%
%TF.SameCoordinates,Original*%
%TF.FileFunction,Glue,Top*%
%TF.FilePolarity,Positive*%
%FSLAX46Y46*%
G04 Gerber Fmt 4.6, Leading zero omitted, Abs format (unit mm)*
G04 Created by KiCad (PCBNEW 7.0.10-7.0.10~ubuntu22.04.1) date 2024-02-12 01:26:08*
%MOMM*%
%LPD*%
G01*
G04 APERTURE LIST*
%ADD10C,0.150000*%
G04 APERTURE END LIST*
D10*
G36*
X127633337Y-114865209D02*
G01*
X127688478Y-114867717D01*
X127742033Y-114871895D01*
X127794002Y-114877746D01*
X127844386Y-114885268D01*
X127893184Y-114894461D01*
X127940396Y-114905326D01*
X127986023Y-114917863D01*
X128030064Y-114932071D01*
X128072519Y-114947950D01*
X128113389Y-114965502D01*
X128152673Y-114984724D01*
X128190371Y-115005618D01*
X128226484Y-115028184D01*
X128261011Y-115052421D01*
X128293952Y-115078330D01*
X128325185Y-115105650D01*
X128354402Y-115134304D01*
X128381605Y-115164291D01*
X128406792Y-115195613D01*
X128429965Y-115228268D01*
X128451122Y-115262257D01*
X128470265Y-115297579D01*
X128487392Y-115334236D01*
X128502505Y-115372226D01*
X128515602Y-115411550D01*
X128526685Y-115452208D01*
X128535752Y-115494200D01*
X128542805Y-115537525D01*
X128547842Y-115582184D01*
X128550865Y-115628177D01*
X128551872Y-115675504D01*
X128551872Y-117256000D01*
X127940044Y-117256000D01*
X127940044Y-116857395D01*
X127930871Y-116895627D01*
X127919290Y-116932288D01*
X127905300Y-116967377D01*
X127888902Y-117000895D01*
X127870095Y-117032842D01*
X127848880Y-117063217D01*
X127825256Y-117092021D01*
X127799223Y-117119254D01*
X127770782Y-117144915D01*
X127739932Y-117169005D01*
X127718027Y-117184192D01*
X127683537Y-117205405D01*
X127647385Y-117224532D01*
X127609571Y-117241572D01*
X127570096Y-117256526D01*
X127528960Y-117269393D01*
X127486162Y-117280174D01*
X127456707Y-117286202D01*
X127426513Y-117291302D01*
X127395581Y-117295475D01*
X127363911Y-117298721D01*
X127331502Y-117301039D01*
X127298354Y-117302430D01*
X127264468Y-117302894D01*
X127221796Y-117302101D01*
X127180239Y-117299723D01*
X127139799Y-117295759D01*
X127100475Y-117290209D01*
X127062267Y-117283073D01*
X127025175Y-117274352D01*
X126989200Y-117264045D01*
X126954341Y-117252153D01*
X126920598Y-117238674D01*
X126887972Y-117223611D01*
X126856462Y-117206961D01*
X126826068Y-117188726D01*
X126796790Y-117168905D01*
X126768629Y-117147498D01*
X126741584Y-117124506D01*
X126715655Y-117099928D01*
X126691166Y-117074062D01*
X126668256Y-117047206D01*
X126646927Y-117019360D01*
X126627178Y-116990523D01*
X126609008Y-116960696D01*
X126592419Y-116929878D01*
X126577410Y-116898070D01*
X126563980Y-116865272D01*
X126552130Y-116831483D01*
X126541861Y-116796705D01*
X126533171Y-116760935D01*
X126526061Y-116724176D01*
X126520531Y-116686426D01*
X126516582Y-116647686D01*
X126514212Y-116607955D01*
X126513422Y-116567235D01*
X126514392Y-116523488D01*
X126517303Y-116480910D01*
X126517405Y-116480040D01*
X127125250Y-116480040D01*
X127126727Y-116512818D01*
X127131158Y-116544108D01*
X127138542Y-116573909D01*
X127148881Y-116602222D01*
X127162173Y-116629047D01*
X127178419Y-116654384D01*
X127197618Y-116678232D01*
X127219772Y-116700591D01*
X127244799Y-116720856D01*
X127272254Y-116738418D01*
X127302135Y-116753279D01*
X127334444Y-116765438D01*
X127369180Y-116774895D01*
X127406343Y-116781649D01*
X127435808Y-116784942D01*
X127466639Y-116786715D01*
X127487951Y-116787053D01*
X127524455Y-116786165D01*
X127559503Y-116783498D01*
X127593096Y-116779055D01*
X127625234Y-116772834D01*
X127655917Y-116764835D01*
X127685143Y-116755059D01*
X127712915Y-116743506D01*
X127739231Y-116730175D01*
X127772055Y-116709636D01*
X127802291Y-116685937D01*
X127829597Y-116659490D01*
X127853262Y-116631074D01*
X127873286Y-116600688D01*
X127889669Y-116568334D01*
X127902412Y-116534010D01*
X127911514Y-116497717D01*
X127916975Y-116459455D01*
X127918681Y-116429466D01*
X127918795Y-116419224D01*
X127918795Y-116177423D01*
X127475494Y-116177423D01*
X127444578Y-116178164D01*
X127415027Y-116180385D01*
X127377749Y-116185652D01*
X127342899Y-116193552D01*
X127310476Y-116204085D01*
X127280480Y-116217251D01*
X127252911Y-116233050D01*
X127227769Y-116251483D01*
X127216108Y-116261687D01*
X127194813Y-116283531D01*
X127176358Y-116306933D01*
X127160742Y-116331891D01*
X127147965Y-116358407D01*
X127138027Y-116386480D01*
X127130929Y-116416109D01*
X127126670Y-116447296D01*
X127125250Y-116480040D01*
X126517405Y-116480040D01*
X126522154Y-116439499D01*
X126528946Y-116399257D01*
X126537679Y-116360182D01*
X126548352Y-116322274D01*
X126560966Y-116285535D01*
X126575520Y-116249963D01*
X126592015Y-116215559D01*
X126610451Y-116182323D01*
X126630827Y-116150255D01*
X126653144Y-116119354D01*
X126677401Y-116089622D01*
X126703599Y-116061057D01*
X126731738Y-116033659D01*
X126761817Y-116007430D01*
X126793750Y-115982586D01*
X126827270Y-115959345D01*
X126862375Y-115937706D01*
X126899066Y-115917671D01*
X126937342Y-115899238D01*
X126977205Y-115882408D01*
X127018652Y-115867181D01*
X127061686Y-115853557D01*
X127106305Y-115841536D01*
X127152510Y-115831117D01*
X127200300Y-115822302D01*
X127249676Y-115815089D01*
X127300638Y-115809479D01*
X127353186Y-115805472D01*
X127407319Y-115803067D01*
X127463038Y-115802266D01*
X127918795Y-115802266D01*
X127918795Y-115655720D01*
X127917375Y-115624350D01*
X127913116Y-115594721D01*
X127903800Y-115560131D01*
X127890047Y-115528260D01*
X127871857Y-115499108D01*
X127849232Y-115472676D01*
X127827937Y-115453487D01*
X127804009Y-115436314D01*
X127777653Y-115421430D01*
X127748871Y-115408837D01*
X127717661Y-115398533D01*
X127684024Y-115390518D01*
X127647960Y-115384794D01*
X127609469Y-115381359D01*
X127579008Y-115380286D01*
X127568551Y-115380214D01*
X127539036Y-115380768D01*
X127501467Y-115383230D01*
X127465935Y-115387661D01*
X127432441Y-115394060D01*
X127400986Y-115402430D01*
X127371568Y-115412768D01*
X127344188Y-115425075D01*
X127312829Y-115443229D01*
X127285383Y-115464123D01*
X127262124Y-115487880D01*
X127243051Y-115514498D01*
X127228164Y-115543979D01*
X127217463Y-115576322D01*
X127210948Y-115611528D01*
X127209514Y-115626411D01*
X126610142Y-115626411D01*
X126612744Y-115583369D01*
X126617252Y-115541438D01*
X126623666Y-115500617D01*
X126631986Y-115460906D01*
X126642213Y-115422306D01*
X126654346Y-115384817D01*
X126668385Y-115348438D01*
X126684331Y-115313170D01*
X126702182Y-115279012D01*
X126721940Y-115245965D01*
X126743604Y-115214028D01*
X126767175Y-115183202D01*
X126792651Y-115153486D01*
X126820034Y-115124881D01*
X126849323Y-115097387D01*
X126880519Y-115071003D01*
X126913377Y-115045981D01*
X126947655Y-115022574D01*
X126983353Y-115000781D01*
X127020470Y-114980603D01*
X127059007Y-114962038D01*
X127098963Y-114945088D01*
X127140340Y-114929752D01*
X127183136Y-114916031D01*
X127227351Y-114903924D01*
X127272986Y-114893431D01*
X127320041Y-114884552D01*
X127368516Y-114877288D01*
X127418410Y-114871638D01*
X127469724Y-114867602D01*
X127522458Y-114865181D01*
X127576611Y-114864374D01*
X127633337Y-114865209D01*
G37*
G36*
X129178355Y-117256000D02*
G01*
X129178355Y-114911268D01*
X129790916Y-114911268D01*
X129790916Y-115351638D01*
X129801452Y-115310029D01*
X129814100Y-115270108D01*
X129828861Y-115231873D01*
X129845734Y-115195326D01*
X129864719Y-115160467D01*
X129885816Y-115127294D01*
X129909026Y-115095809D01*
X129934348Y-115066011D01*
X129961782Y-115037901D01*
X129991329Y-115011477D01*
X130012200Y-114994799D01*
X130044978Y-114971491D01*
X130079288Y-114950475D01*
X130115131Y-114931752D01*
X130152507Y-114915321D01*
X130191415Y-114901183D01*
X130231856Y-114889338D01*
X130273830Y-114879785D01*
X130317336Y-114872525D01*
X130347192Y-114868959D01*
X130377729Y-114866411D01*
X130408947Y-114864883D01*
X130440847Y-114864374D01*
X130484032Y-114865309D01*
X130526026Y-114868117D01*
X130566830Y-114872797D01*
X130606443Y-114879349D01*
X130644866Y-114887772D01*
X130682098Y-114898068D01*
X130718139Y-114910235D01*
X130752989Y-114924274D01*
X130786649Y-114940185D01*
X130819118Y-114957968D01*
X130850396Y-114977623D01*
X130880484Y-114999150D01*
X130909381Y-115022548D01*
X130937087Y-115047819D01*
X130963603Y-115074961D01*
X130988928Y-115103976D01*
X131012973Y-115134536D01*
X131035467Y-115166498D01*
X131056410Y-115199863D01*
X131075802Y-115234630D01*
X131093642Y-115270800D01*
X131109931Y-115308373D01*
X131124668Y-115347348D01*
X131137855Y-115387725D01*
X131149490Y-115429505D01*
X131159573Y-115472687D01*
X131168106Y-115517272D01*
X131175086Y-115563259D01*
X131180516Y-115610649D01*
X131184394Y-115659441D01*
X131186721Y-115709636D01*
X131187497Y-115761233D01*
X131187497Y-115996439D01*
X130554420Y-115996439D01*
X130554420Y-115804464D01*
X130553563Y-115770714D01*
X130550994Y-115738433D01*
X130546711Y-115707620D01*
X130540715Y-115678275D01*
X130530056Y-115641432D01*
X130516352Y-115607200D01*
X130499602Y-115575578D01*
X130479807Y-115546567D01*
X130456967Y-115520166D01*
X130431527Y-115496638D01*
X130403569Y-115476248D01*
X130373092Y-115458994D01*
X130340096Y-115444878D01*
X130304582Y-115433898D01*
X130266549Y-115426056D01*
X130236371Y-115422233D01*
X130204776Y-115420174D01*
X130182926Y-115419782D01*
X130150381Y-115420780D01*
X130119239Y-115423775D01*
X130089501Y-115428766D01*
X130052035Y-115438526D01*
X130017064Y-115451835D01*
X129984589Y-115468694D01*
X129954610Y-115489101D01*
X129927127Y-115513058D01*
X129908153Y-115533355D01*
X129885484Y-115563065D01*
X129865838Y-115595774D01*
X129853087Y-115622275D01*
X129842036Y-115650462D01*
X129832685Y-115680338D01*
X129825034Y-115711900D01*
X129819084Y-115745150D01*
X129814833Y-115780087D01*
X129812283Y-115816711D01*
X129811433Y-115855023D01*
X129811433Y-117256000D01*
X129178355Y-117256000D01*
G37*
G36*
X132637567Y-117302894D02*
G01*
X132599305Y-117302436D01*
X132561638Y-117301062D01*
X132524566Y-117298773D01*
X132488090Y-117295567D01*
X132452209Y-117291445D01*
X132416924Y-117286408D01*
X132382234Y-117280454D01*
X132348139Y-117273585D01*
X132314640Y-117265800D01*
X132281736Y-117257099D01*
X132249427Y-117247482D01*
X132217713Y-117236949D01*
X132186595Y-117225500D01*
X132156073Y-117213135D01*
X132126145Y-117199854D01*
X132096813Y-117185658D01*
X132068280Y-117170545D01*
X132040565Y-117154700D01*
X132013669Y-117138122D01*
X131987591Y-117120811D01*
X131962332Y-117102768D01*
X131937891Y-117083991D01*
X131914269Y-117064483D01*
X131891466Y-117044241D01*
X131869481Y-117023267D01*
X131848315Y-117001560D01*
X131827968Y-116979120D01*
X131808439Y-116955947D01*
X131789728Y-116932042D01*
X131771837Y-116907404D01*
X131754763Y-116882033D01*
X131738509Y-116855930D01*
X131723159Y-116829185D01*
X131708799Y-116801891D01*
X131695430Y-116774047D01*
X131683051Y-116745654D01*
X131671662Y-116716711D01*
X131661263Y-116687219D01*
X131651855Y-116657177D01*
X131643437Y-116626586D01*
X131636010Y-116595445D01*
X131629573Y-116563754D01*
X131624126Y-116531514D01*
X131619670Y-116498725D01*
X131616203Y-116465385D01*
X131613728Y-116431497D01*
X131612242Y-116397058D01*
X131611747Y-116362071D01*
X131611747Y-115805197D01*
X131612242Y-115769685D01*
X131613728Y-115734775D01*
X131616203Y-115700465D01*
X131619670Y-115666757D01*
X131624126Y-115633650D01*
X131629573Y-115601144D01*
X131636010Y-115569238D01*
X131643437Y-115537934D01*
X131651855Y-115507231D01*
X131661263Y-115477129D01*
X131671662Y-115447628D01*
X131683051Y-115418728D01*
X131695430Y-115390430D01*
X131708799Y-115362732D01*
X131723159Y-115335635D01*
X131738509Y-115309140D01*
X131754763Y-115283305D01*
X131771837Y-115258192D01*
X131789728Y-115233800D01*
X131808439Y-115210130D01*
X131827968Y-115187181D01*
X131848315Y-115164953D01*
X131869481Y-115143446D01*
X131891466Y-115122660D01*
X131914269Y-115102596D01*
X131937891Y-115083253D01*
X131962332Y-115064632D01*
X131987591Y-115046731D01*
X132013669Y-115029552D01*
X132040565Y-115013095D01*
X132068280Y-114997358D01*
X132096813Y-114982343D01*
X132126145Y-114968057D01*
X132156073Y-114954694D01*
X132186595Y-114942252D01*
X132217713Y-114930731D01*
X132249427Y-114920132D01*
X132281736Y-114910455D01*
X132314640Y-114901700D01*
X132348139Y-114893866D01*
X132382234Y-114886954D01*
X132416924Y-114880963D01*
X132452209Y-114875894D01*
X132488090Y-114871747D01*
X132524566Y-114868521D01*
X132561638Y-114866217D01*
X132599305Y-114864834D01*
X132637567Y-114864374D01*
X132694359Y-114865292D01*
X132749697Y-114868049D01*
X132803581Y-114872642D01*
X132856012Y-114879074D01*
X132906988Y-114887343D01*
X132956510Y-114897449D01*
X133004578Y-114909393D01*
X133051192Y-114923175D01*
X133096352Y-114938794D01*
X133140058Y-114956251D01*
X133182310Y-114975545D01*
X133223109Y-114996677D01*
X133262453Y-115019646D01*
X133300343Y-115044453D01*
X133336779Y-115071097D01*
X133371761Y-115099579D01*
X133405014Y-115129650D01*
X133436264Y-115161060D01*
X133465510Y-115193809D01*
X133492753Y-115227898D01*
X133517992Y-115263327D01*
X133541227Y-115300095D01*
X133562459Y-115338203D01*
X133581688Y-115377650D01*
X133598912Y-115418437D01*
X133614134Y-115460563D01*
X133627351Y-115504028D01*
X133638566Y-115548834D01*
X133647776Y-115594978D01*
X133654983Y-115642463D01*
X133660187Y-115691286D01*
X133663387Y-115741450D01*
X133047162Y-115741450D01*
X133042319Y-115704905D01*
X133034385Y-115670375D01*
X133023360Y-115637860D01*
X133009243Y-115607360D01*
X132992036Y-115578875D01*
X132971737Y-115552406D01*
X132948347Y-115527951D01*
X132921866Y-115505511D01*
X132893060Y-115485418D01*
X132862331Y-115468004D01*
X132829679Y-115453270D01*
X132795103Y-115441214D01*
X132758604Y-115431837D01*
X132720182Y-115425140D01*
X132690103Y-115421875D01*
X132658942Y-115420117D01*
X132637567Y-115419782D01*
X132602757Y-115420651D01*
X132569492Y-115423259D01*
X132537773Y-115427606D01*
X132507599Y-115433692D01*
X132478971Y-115441517D01*
X132443205Y-115454654D01*
X132410186Y-115470883D01*
X132379915Y-115490203D01*
X132352392Y-115512614D01*
X132345941Y-115518700D01*
X132322242Y-115544655D01*
X132301702Y-115573426D01*
X132284323Y-115605013D01*
X132270103Y-115639417D01*
X132259044Y-115676637D01*
X132252823Y-115706401D01*
X132248379Y-115737749D01*
X132245713Y-115770681D01*
X132244824Y-115805197D01*
X132244824Y-116362071D01*
X132245713Y-116395827D01*
X132248379Y-116428128D01*
X132252823Y-116458973D01*
X132259044Y-116488363D01*
X132270103Y-116525286D01*
X132284323Y-116559621D01*
X132301702Y-116591369D01*
X132322242Y-116620529D01*
X132345941Y-116647102D01*
X132372777Y-116670630D01*
X132402361Y-116691020D01*
X132434693Y-116708273D01*
X132469772Y-116722390D01*
X132497885Y-116730919D01*
X132527543Y-116737683D01*
X132558747Y-116742682D01*
X132591497Y-116745917D01*
X132625792Y-116747388D01*
X132637567Y-116747486D01*
X132669449Y-116746752D01*
X132700249Y-116744549D01*
X132729968Y-116740878D01*
X132767910Y-116733700D01*
X132803928Y-116723911D01*
X132838022Y-116711512D01*
X132870194Y-116696503D01*
X132900442Y-116678883D01*
X132921866Y-116663955D01*
X132948347Y-116641973D01*
X132971737Y-116617793D01*
X132992036Y-116591415D01*
X133009243Y-116562838D01*
X133023360Y-116532064D01*
X133034385Y-116499091D01*
X133042319Y-116463920D01*
X133047162Y-116426551D01*
X133663387Y-116426551D01*
X133660187Y-116476625D01*
X133654983Y-116525366D01*
X133647776Y-116572773D01*
X133638566Y-116618846D01*
X133627351Y-116663586D01*
X133614134Y-116706991D01*
X133598912Y-116749063D01*
X133581688Y-116789801D01*
X133562459Y-116829205D01*
X133541227Y-116867276D01*
X133517992Y-116904012D01*
X133492753Y-116939415D01*
X133465510Y-116973484D01*
X133436264Y-117006219D01*
X133405014Y-117037621D01*
X133371761Y-117067688D01*
X133336779Y-117096170D01*
X133300343Y-117122815D01*
X133262453Y-117147622D01*
X133223109Y-117170591D01*
X133182310Y-117191723D01*
X133140058Y-117211017D01*
X133096352Y-117228474D01*
X133051192Y-117244093D01*
X133004578Y-117257874D01*
X132956510Y-117269818D01*
X132906988Y-117279925D01*
X132856012Y-117288194D01*
X132803581Y-117294625D01*
X132749697Y-117299219D01*
X132694359Y-117301975D01*
X132637567Y-117302894D01*
G37*
G36*
X134129402Y-117256000D02*
G01*
X134129402Y-114160954D01*
X134762480Y-114160954D01*
X134762480Y-114914932D01*
X134741230Y-115329656D01*
X134752513Y-115290443D01*
X134765754Y-115252763D01*
X134780952Y-115216615D01*
X134798109Y-115182000D01*
X134817222Y-115148918D01*
X134838294Y-115117368D01*
X134861324Y-115087351D01*
X134886311Y-115058867D01*
X134913256Y-115031916D01*
X134942158Y-115006497D01*
X134962515Y-114990403D01*
X134994450Y-114967880D01*
X135027610Y-114947573D01*
X135061993Y-114929480D01*
X135097600Y-114913604D01*
X135134430Y-114899942D01*
X135172484Y-114888496D01*
X135211762Y-114879266D01*
X135252263Y-114872250D01*
X135293988Y-114867450D01*
X135336936Y-114864866D01*
X135366248Y-114864374D01*
X135407950Y-114865309D01*
X135448611Y-114868117D01*
X135488230Y-114872797D01*
X135526807Y-114879349D01*
X135564342Y-114887772D01*
X135600836Y-114898068D01*
X135636287Y-114910235D01*
X135670697Y-114924274D01*
X135704064Y-114940185D01*
X135736390Y-114957968D01*
X135767674Y-114977623D01*
X135797917Y-114999150D01*
X135827117Y-115022548D01*
X135855276Y-115047819D01*
X135882392Y-115074961D01*
X135908467Y-115103976D01*
X135933222Y-115134453D01*
X135956381Y-115166166D01*
X135977942Y-115199116D01*
X135997906Y-115233302D01*
X136016273Y-115268725D01*
X136033042Y-115305385D01*
X136048215Y-115343280D01*
X136061790Y-115382413D01*
X136073769Y-115422781D01*
X136084150Y-115464387D01*
X136092934Y-115507228D01*
X136100121Y-115551307D01*
X136105711Y-115596621D01*
X136109704Y-115643172D01*
X136112100Y-115690960D01*
X136112898Y-115739984D01*
X136112898Y-117256000D01*
X135479821Y-117256000D01*
X135479821Y-115804464D01*
X135478984Y-115770714D01*
X135476472Y-115738433D01*
X135472286Y-115707620D01*
X135466426Y-115678275D01*
X135456007Y-115641432D01*
X135442612Y-115607200D01*
X135426240Y-115575578D01*
X135406891Y-115546567D01*
X135384566Y-115520166D01*
X135359779Y-115496638D01*
X135332680Y-115476248D01*
X135303268Y-115458994D01*
X135271543Y-115444878D01*
X135237505Y-115433898D01*
X135201155Y-115426056D01*
X135162492Y-115421350D01*
X135131977Y-115419880D01*
X135121517Y-115419782D01*
X135090431Y-115420664D01*
X135060646Y-115423311D01*
X135022956Y-115429585D01*
X134987579Y-115438996D01*
X134954515Y-115451544D01*
X134923763Y-115467229D01*
X134895324Y-115486051D01*
X134869198Y-115508010D01*
X134857002Y-115520166D01*
X134834848Y-115546567D01*
X134815648Y-115575578D01*
X134799402Y-115607200D01*
X134786110Y-115641432D01*
X134775772Y-115678275D01*
X134769956Y-115707620D01*
X134765803Y-115738433D01*
X134763310Y-115770714D01*
X134762480Y-115804464D01*
X134762480Y-117256000D01*
X134129402Y-117256000D01*
G37*
G36*
X136663910Y-117256000D02*
G01*
X136663910Y-116700591D01*
X137432542Y-116700591D01*
X137432542Y-115466676D01*
X136748174Y-115466676D01*
X136748174Y-114911268D01*
X138065620Y-114911268D01*
X138065620Y-116700591D01*
X138732403Y-116700591D01*
X138732403Y-117256000D01*
X136663910Y-117256000D01*
G37*
G36*
X137719039Y-114536111D02*
G01*
X137687228Y-114535338D01*
X137656640Y-114533020D01*
X137627276Y-114529156D01*
X137590027Y-114521600D01*
X137554953Y-114511296D01*
X137522055Y-114498244D01*
X137491332Y-114482445D01*
X137462784Y-114463897D01*
X137442801Y-114448184D01*
X137418586Y-114425034D01*
X137397600Y-114399915D01*
X137379843Y-114372827D01*
X137365315Y-114343770D01*
X137354015Y-114312743D01*
X137345943Y-114279748D01*
X137341100Y-114244783D01*
X137339486Y-114207849D01*
X137341100Y-114170926D01*
X137345943Y-114135996D01*
X137354015Y-114103057D01*
X137365315Y-114072111D01*
X137379843Y-114043157D01*
X137397600Y-114016194D01*
X137418586Y-113991224D01*
X137442801Y-113968247D01*
X137469717Y-113947467D01*
X137498809Y-113929458D01*
X137530075Y-113914219D01*
X137563518Y-113901751D01*
X137599135Y-113892054D01*
X137636928Y-113885128D01*
X137666700Y-113881751D01*
X137697696Y-113879933D01*
X137719039Y-113879586D01*
X137750851Y-113880366D01*
X137781439Y-113882703D01*
X137810803Y-113886600D01*
X137848052Y-113894219D01*
X137883125Y-113904609D01*
X137916024Y-113917769D01*
X137946747Y-113933700D01*
X137975295Y-113952402D01*
X137995278Y-113968247D01*
X138019492Y-113991224D01*
X138040478Y-114016194D01*
X138058235Y-114043157D01*
X138072764Y-114072111D01*
X138084064Y-114103057D01*
X138092135Y-114135996D01*
X138096978Y-114170926D01*
X138098593Y-114207849D01*
X138096978Y-114244783D01*
X138092135Y-114279748D01*
X138084064Y-114312743D01*
X138072764Y-114343770D01*
X138058235Y-114372827D01*
X138040478Y-114399915D01*
X138019492Y-114425034D01*
X137995278Y-114448184D01*
X137968362Y-114468792D01*
X137939270Y-114486652D01*
X137908003Y-114501765D01*
X137874561Y-114514129D01*
X137838943Y-114523746D01*
X137801151Y-114530616D01*
X137771379Y-114533964D01*
X137740383Y-114535768D01*
X137719039Y-114536111D01*
G37*
G36*
X140169284Y-117302894D02*
G01*
X140131110Y-117302439D01*
X140093526Y-117301074D01*
X140056532Y-117298798D01*
X140020127Y-117295613D01*
X139984312Y-117291517D01*
X139949087Y-117286511D01*
X139914451Y-117280595D01*
X139880405Y-117273768D01*
X139846949Y-117266032D01*
X139814082Y-117257385D01*
X139781805Y-117247828D01*
X139750117Y-117237361D01*
X139719019Y-117225983D01*
X139688511Y-117213696D01*
X139658592Y-117200498D01*
X139629263Y-117186390D01*
X139600632Y-117171372D01*
X139572808Y-117155627D01*
X139545792Y-117139155D01*
X139519582Y-117121956D01*
X139494180Y-117104030D01*
X139469585Y-117085377D01*
X139445797Y-117065997D01*
X139422816Y-117045890D01*
X139400643Y-117025055D01*
X139379276Y-117003494D01*
X139358717Y-116981206D01*
X139338965Y-116958191D01*
X139320020Y-116934449D01*
X139301882Y-116909980D01*
X139284551Y-116884784D01*
X139268027Y-116858861D01*
X139252500Y-116832210D01*
X139237974Y-116805017D01*
X139224450Y-116777279D01*
X139211928Y-116748997D01*
X139200407Y-116720172D01*
X139189889Y-116690802D01*
X139180372Y-116660889D01*
X139171857Y-116630433D01*
X139164343Y-116599432D01*
X139157832Y-116567887D01*
X139152322Y-116535799D01*
X139147814Y-116503167D01*
X139144308Y-116469991D01*
X139141803Y-116436271D01*
X139140301Y-116402007D01*
X139139800Y-116367200D01*
X139139800Y-115049754D01*
X139140301Y-115014425D01*
X139141803Y-114979698D01*
X139144308Y-114945572D01*
X139147814Y-114912047D01*
X139152322Y-114879123D01*
X139157832Y-114846800D01*
X139164343Y-114815078D01*
X139171857Y-114783957D01*
X139180372Y-114753437D01*
X139189889Y-114723518D01*
X139200407Y-114694200D01*
X139211928Y-114665484D01*
X139224450Y-114637368D01*
X139237974Y-114609853D01*
X139252500Y-114582940D01*
X139268027Y-114556628D01*
X139284551Y-114530885D01*
X139301882Y-114505863D01*
X139320020Y-114481563D01*
X139338965Y-114457984D01*
X139358717Y-114435126D01*
X139379276Y-114412990D01*
X139400643Y-114391575D01*
X139422816Y-114370881D01*
X139445797Y-114350908D01*
X139469585Y-114331657D01*
X139494180Y-114313127D01*
X139519582Y-114295318D01*
X139545792Y-114278231D01*
X139572808Y-114261865D01*
X139600632Y-114246220D01*
X139629263Y-114231296D01*
X139658592Y-114217099D01*
X139688511Y-114203819D01*
X139719019Y-114191454D01*
X139750117Y-114180005D01*
X139781805Y-114169472D01*
X139814082Y-114159855D01*
X139846949Y-114151154D01*
X139880405Y-114143369D01*
X139914451Y-114136499D01*
X139949087Y-114130546D01*
X139984312Y-114125508D01*
X140020127Y-114121387D01*
X140056532Y-114118181D01*
X140093526Y-114115891D01*
X140131110Y-114114517D01*
X140169284Y-114114060D01*
X140207981Y-114114515D01*
X140246037Y-114115880D01*
X140283452Y-114118155D01*
X140320226Y-114121341D01*
X140356358Y-114125437D01*
X140391850Y-114130443D01*
X140426700Y-114136359D01*
X140460909Y-114143185D01*
X140494478Y-114150922D01*
X140527405Y-114159569D01*
X140559690Y-114169126D01*
X140591335Y-114179593D01*
X140622339Y-114190970D01*
X140652701Y-114203258D01*
X140682422Y-114216455D01*
X140711503Y-114230563D01*
X140739864Y-114245484D01*
X140767430Y-114261120D01*
X140794201Y-114277472D01*
X140820175Y-114294540D01*
X140845354Y-114312323D01*
X140869738Y-114330821D01*
X140893325Y-114350035D01*
X140916117Y-114369965D01*
X140938113Y-114390610D01*
X140959314Y-114411971D01*
X140979718Y-114434047D01*
X140999328Y-114456839D01*
X141018141Y-114480347D01*
X141036159Y-114504569D01*
X141053381Y-114529508D01*
X141069807Y-114555162D01*
X141085423Y-114581380D01*
X141100032Y-114608193D01*
X141113633Y-114635602D01*
X141126227Y-114663606D01*
X141137813Y-114692205D01*
X141148392Y-114721400D01*
X141157963Y-114751190D01*
X141166527Y-114781575D01*
X141174083Y-114812556D01*
X141180632Y-114844132D01*
X141186173Y-114876303D01*
X141190707Y-114909070D01*
X141194233Y-114942432D01*
X141196752Y-114976389D01*
X141198263Y-115010942D01*
X141198767Y-115046090D01*
X140565690Y-115046090D01*
X140564782Y-115012379D01*
X140562058Y-114980213D01*
X140557517Y-114949593D01*
X140551161Y-114920519D01*
X140539861Y-114884157D01*
X140525332Y-114850543D01*
X140507575Y-114819677D01*
X140486589Y-114791559D01*
X140462375Y-114766188D01*
X140435195Y-114743519D01*
X140405314Y-114723873D01*
X140372730Y-114707249D01*
X140337445Y-114693648D01*
X140309207Y-114685430D01*
X140279450Y-114678913D01*
X140248173Y-114674096D01*
X140215377Y-114670979D01*
X140181060Y-114669562D01*
X140169284Y-114669468D01*
X140134460Y-114670324D01*
X140101157Y-114672894D01*
X140069373Y-114677176D01*
X140039110Y-114683172D01*
X140010366Y-114690881D01*
X139974405Y-114703824D01*
X139941146Y-114719812D01*
X139910589Y-114738846D01*
X139882734Y-114760925D01*
X139876192Y-114766921D01*
X139851978Y-114792681D01*
X139830992Y-114821234D01*
X139813235Y-114852581D01*
X139798706Y-114886722D01*
X139787406Y-114923656D01*
X139781050Y-114953190D01*
X139776510Y-114984295D01*
X139773785Y-115016971D01*
X139772877Y-115051219D01*
X139772877Y-116365734D01*
X139773785Y-116399216D01*
X139776510Y-116431242D01*
X139781050Y-116461813D01*
X139787406Y-116490928D01*
X139798706Y-116527484D01*
X139813235Y-116561453D01*
X139830992Y-116592834D01*
X139851978Y-116621628D01*
X139876192Y-116647835D01*
X139903372Y-116671191D01*
X139933253Y-116691432D01*
X139965837Y-116708560D01*
X140001122Y-116722573D01*
X140029360Y-116731040D01*
X140059117Y-116737754D01*
X140090394Y-116742717D01*
X140123190Y-116745929D01*
X140157507Y-116747389D01*
X140169284Y-116747486D01*
X140204107Y-116746616D01*
X140237410Y-116744008D01*
X140269194Y-116739661D01*
X140299457Y-116733575D01*
X140328201Y-116725751D01*
X140364162Y-116712613D01*
X140397421Y-116696385D01*
X140427978Y-116677065D01*
X140455833Y-116654653D01*
X140462375Y-116648568D01*
X140486589Y-116622567D01*
X140507575Y-116594025D01*
X140525332Y-116562941D01*
X140539861Y-116529316D01*
X140551161Y-116493149D01*
X140557517Y-116464356D01*
X140562058Y-116434133D01*
X140564782Y-116402480D01*
X140565690Y-116369398D01*
X140565690Y-116083634D01*
X140109933Y-116083634D01*
X140109933Y-115528226D01*
X141198767Y-115528226D01*
X141198767Y-116362071D01*
X141198263Y-116397058D01*
X141196752Y-116431497D01*
X141194233Y-116465385D01*
X141190707Y-116498725D01*
X141186173Y-116531514D01*
X141180632Y-116563754D01*
X141174083Y-116595445D01*
X141166527Y-116626586D01*
X141157963Y-116657177D01*
X141148392Y-116687219D01*
X141137813Y-116716711D01*
X141126227Y-116745654D01*
X141113633Y-116774047D01*
X141100032Y-116801891D01*
X141085423Y-116829185D01*
X141069807Y-116855930D01*
X141053381Y-116882033D01*
X141036159Y-116907404D01*
X141018141Y-116932042D01*
X140999328Y-116955947D01*
X140979718Y-116979120D01*
X140959314Y-117001560D01*
X140938113Y-117023267D01*
X140916117Y-117044241D01*
X140893325Y-117064483D01*
X140869738Y-117083991D01*
X140845354Y-117102768D01*
X140820175Y-117120811D01*
X140794201Y-117138122D01*
X140767430Y-117154700D01*
X140739864Y-117170545D01*
X140711503Y-117185658D01*
X140682422Y-117199854D01*
X140652701Y-117213135D01*
X140622339Y-117225500D01*
X140591335Y-117236949D01*
X140559690Y-117247482D01*
X140527405Y-117257099D01*
X140494478Y-117265800D01*
X140460909Y-117273585D01*
X140426700Y-117280454D01*
X140391850Y-117286408D01*
X140356358Y-117291445D01*
X140320226Y-117295567D01*
X140283452Y-117298773D01*
X140246037Y-117301062D01*
X140207981Y-117302436D01*
X140169284Y-117302894D01*
G37*
G36*
X141766632Y-117256000D02*
G01*
X141766632Y-114911268D01*
X142379193Y-114911268D01*
X142379193Y-115351638D01*
X142389729Y-115310029D01*
X142402377Y-115270108D01*
X142417137Y-115231873D01*
X142434010Y-115195326D01*
X142452995Y-115160467D01*
X142474093Y-115127294D01*
X142497302Y-115095809D01*
X142522624Y-115066011D01*
X142550059Y-115037901D01*
X142579606Y-115011477D01*
X142600477Y-114994799D01*
X142633254Y-114971491D01*
X142667564Y-114950475D01*
X142703407Y-114931752D01*
X142740783Y-114915321D01*
X142779691Y-114901183D01*
X142820132Y-114889338D01*
X142862106Y-114879785D01*
X142905612Y-114872525D01*
X142935468Y-114868959D01*
X142966005Y-114866411D01*
X142997224Y-114864883D01*
X143029123Y-114864374D01*
X143072308Y-114865309D01*
X143114303Y-114868117D01*
X143155107Y-114872797D01*
X143194720Y-114879349D01*
X143233142Y-114887772D01*
X143270374Y-114898068D01*
X143306415Y-114910235D01*
X143341265Y-114924274D01*
X143374925Y-114940185D01*
X143407394Y-114957968D01*
X143438672Y-114977623D01*
X143468760Y-114999150D01*
X143497657Y-115022548D01*
X143525363Y-115047819D01*
X143551879Y-115074961D01*
X143577204Y-115103976D01*
X143601249Y-115134536D01*
X143623744Y-115166498D01*
X143644687Y-115199863D01*
X143664078Y-115234630D01*
X143681918Y-115270800D01*
X143698207Y-115308373D01*
X143712945Y-115347348D01*
X143726131Y-115387725D01*
X143737766Y-115429505D01*
X143747850Y-115472687D01*
X143756382Y-115517272D01*
X143763363Y-115563259D01*
X143768792Y-115610649D01*
X143772671Y-115659441D01*
X143774998Y-115709636D01*
X143775773Y-115761233D01*
X143775773Y-115996439D01*
X143142696Y-115996439D01*
X143142696Y-115804464D01*
X143141839Y-115770714D01*
X143139270Y-115738433D01*
X143134987Y-115707620D01*
X143128992Y-115678275D01*
X143118333Y-115641432D01*
X143104628Y-115607200D01*
X143087879Y-115575578D01*
X143068084Y-115546567D01*
X143045243Y-115520166D01*
X143019804Y-115496638D01*
X142991845Y-115476248D01*
X142961369Y-115458994D01*
X142928373Y-115444878D01*
X142892858Y-115433898D01*
X142854825Y-115426056D01*
X142824647Y-115422233D01*
X142793053Y-115420174D01*
X142771203Y-115419782D01*
X142738657Y-115420780D01*
X142707515Y-115423775D01*
X142677778Y-115428766D01*
X142640311Y-115438526D01*
X142605340Y-115451835D01*
X142572866Y-115468694D01*
X142542887Y-115489101D01*
X142515404Y-115513058D01*
X142496429Y-115533355D01*
X142473761Y-115563065D01*
X142454114Y-115595774D01*
X142441363Y-115622275D01*
X142430312Y-115650462D01*
X142420961Y-115680338D01*
X142413310Y-115711900D01*
X142407360Y-115745150D01*
X142403110Y-115780087D01*
X142400559Y-115816711D01*
X142399709Y-115855023D01*
X142399709Y-117256000D01*
X141766632Y-117256000D01*
G37*
G36*
X145256924Y-114865209D02*
G01*
X145312065Y-114867717D01*
X145365620Y-114871895D01*
X145417589Y-114877746D01*
X145467973Y-114885268D01*
X145516771Y-114894461D01*
X145563983Y-114905326D01*
X145609610Y-114917863D01*
X145653651Y-114932071D01*
X145696106Y-114947950D01*
X145736976Y-114965502D01*
X145776260Y-114984724D01*
X145813958Y-115005618D01*
X145850071Y-115028184D01*
X145884598Y-115052421D01*
X145917539Y-115078330D01*
X145948771Y-115105650D01*
X145977989Y-115134304D01*
X146005192Y-115164291D01*
X146030379Y-115195613D01*
X146053552Y-115228268D01*
X146074709Y-115262257D01*
X146093852Y-115297579D01*
X146110979Y-115334236D01*
X146126092Y-115372226D01*
X146139189Y-115411550D01*
X146150272Y-115452208D01*
X146159339Y-115494200D01*
X146166392Y-115537525D01*
X146171429Y-115582184D01*
X146174452Y-115628177D01*
X146175459Y-115675504D01*
X146175459Y-117256000D01*
X145563631Y-117256000D01*
X145563631Y-116857395D01*
X145554458Y-116895627D01*
X145542877Y-116932288D01*
X145528887Y-116967377D01*
X145512489Y-117000895D01*
X145493682Y-117032842D01*
X145472466Y-117063217D01*
X145448842Y-117092021D01*
X145422810Y-117119254D01*
X145394369Y-117144915D01*
X145363519Y-117169005D01*
X145341614Y-117184192D01*
X145307124Y-117205405D01*
X145270972Y-117224532D01*
X145233158Y-117241572D01*
X145193683Y-117256526D01*
X145152547Y-117269393D01*
X145109749Y-117280174D01*
X145080294Y-117286202D01*
X145050100Y-117291302D01*
X145019168Y-117295475D01*
X144987497Y-117298721D01*
X144955089Y-117301039D01*
X144921941Y-117302430D01*
X144888055Y-117302894D01*
X144845382Y-117302101D01*
X144803826Y-117299723D01*
X144763386Y-117295759D01*
X144724062Y-117290209D01*
X144685854Y-117283073D01*
X144648762Y-117274352D01*
X144612787Y-117264045D01*
X144577928Y-117252153D01*
X144544185Y-117238674D01*
X144511559Y-117223611D01*
X144480049Y-117206961D01*
X144449655Y-117188726D01*
X144420377Y-117168905D01*
X144392216Y-117147498D01*
X144365171Y-117124506D01*
X144339242Y-117099928D01*
X144314752Y-117074062D01*
X144291843Y-117047206D01*
X144270514Y-117019360D01*
X144250765Y-116990523D01*
X144232595Y-116960696D01*
X144216006Y-116929878D01*
X144200996Y-116898070D01*
X144187567Y-116865272D01*
X144175717Y-116831483D01*
X144165448Y-116796705D01*
X144156758Y-116760935D01*
X144149648Y-116724176D01*
X144144118Y-116686426D01*
X144140168Y-116647686D01*
X144137799Y-116607955D01*
X144137009Y-116567235D01*
X144137979Y-116523488D01*
X144140890Y-116480910D01*
X144140992Y-116480040D01*
X144748837Y-116480040D01*
X144750314Y-116512818D01*
X144754745Y-116544108D01*
X144762129Y-116573909D01*
X144772467Y-116602222D01*
X144785760Y-116629047D01*
X144802006Y-116654384D01*
X144821205Y-116678232D01*
X144843359Y-116700591D01*
X144868386Y-116720856D01*
X144895841Y-116738418D01*
X144925722Y-116753279D01*
X144958031Y-116765438D01*
X144992767Y-116774895D01*
X145029930Y-116781649D01*
X145059395Y-116784942D01*
X145090225Y-116786715D01*
X145111538Y-116787053D01*
X145148042Y-116786165D01*
X145183090Y-116783498D01*
X145216683Y-116779055D01*
X145248821Y-116772834D01*
X145279503Y-116764835D01*
X145308730Y-116755059D01*
X145336502Y-116743506D01*
X145362818Y-116730175D01*
X145395642Y-116709636D01*
X145425878Y-116685937D01*
X145453184Y-116659490D01*
X145476849Y-116631074D01*
X145496873Y-116600688D01*
X145513256Y-116568334D01*
X145525999Y-116534010D01*
X145535100Y-116497717D01*
X145540562Y-116459455D01*
X145542268Y-116429466D01*
X145542382Y-116419224D01*
X145542382Y-116177423D01*
X145099081Y-116177423D01*
X145068165Y-116178164D01*
X145038614Y-116180385D01*
X145001336Y-116185652D01*
X144966486Y-116193552D01*
X144934063Y-116204085D01*
X144904067Y-116217251D01*
X144876498Y-116233050D01*
X144851356Y-116251483D01*
X144839695Y-116261687D01*
X144818400Y-116283531D01*
X144799945Y-116306933D01*
X144784328Y-116331891D01*
X144771551Y-116358407D01*
X144761614Y-116386480D01*
X144754516Y-116416109D01*
X144750257Y-116447296D01*
X144748837Y-116480040D01*
X144140992Y-116480040D01*
X144145741Y-116439499D01*
X144152533Y-116399257D01*
X144161266Y-116360182D01*
X144171939Y-116322274D01*
X144184553Y-116285535D01*
X144199107Y-116249963D01*
X144215602Y-116215559D01*
X144234038Y-116182323D01*
X144254414Y-116150255D01*
X144276731Y-116119354D01*
X144300988Y-116089622D01*
X144327186Y-116061057D01*
X144355324Y-116033659D01*
X144385404Y-116007430D01*
X144417337Y-115982586D01*
X144450857Y-115959345D01*
X144485962Y-115937706D01*
X144522653Y-115917671D01*
X144560929Y-115899238D01*
X144600791Y-115882408D01*
X144642239Y-115867181D01*
X144685273Y-115853557D01*
X144729892Y-115841536D01*
X144776097Y-115831117D01*
X144823887Y-115822302D01*
X144873263Y-115815089D01*
X144924225Y-115809479D01*
X144976773Y-115805472D01*
X145030906Y-115803067D01*
X145086625Y-115802266D01*
X145542382Y-115802266D01*
X145542382Y-115655720D01*
X145540962Y-115624350D01*
X145536703Y-115594721D01*
X145527387Y-115560131D01*
X145513634Y-115528260D01*
X145495444Y-115499108D01*
X145472818Y-115472676D01*
X145451524Y-115453487D01*
X145427595Y-115436314D01*
X145401240Y-115421430D01*
X145372458Y-115408837D01*
X145341248Y-115398533D01*
X145307611Y-115390518D01*
X145271547Y-115384794D01*
X145233056Y-115381359D01*
X145202595Y-115380286D01*
X145192138Y-115380214D01*
X145162623Y-115380768D01*
X145125054Y-115383230D01*
X145089522Y-115387661D01*
X145056028Y-115394060D01*
X145024573Y-115402430D01*
X144995155Y-115412768D01*
X144967775Y-115425075D01*
X144936415Y-115443229D01*
X144908970Y-115464123D01*
X144885711Y-115487880D01*
X144866638Y-115514498D01*
X144851751Y-115543979D01*
X144841050Y-115576322D01*
X144834535Y-115611528D01*
X144833101Y-115626411D01*
X144233729Y-115626411D01*
X144236330Y-115583369D01*
X144240838Y-115541438D01*
X144247253Y-115500617D01*
X144255573Y-115460906D01*
X144265800Y-115422306D01*
X144277933Y-115384817D01*
X144291972Y-115348438D01*
X144307918Y-115313170D01*
X144325769Y-115279012D01*
X144345527Y-115245965D01*
X144367191Y-115214028D01*
X144390762Y-115183202D01*
X144416238Y-115153486D01*
X144443621Y-115124881D01*
X144472910Y-115097387D01*
X144504106Y-115071003D01*
X144536964Y-115045981D01*
X144571242Y-115022574D01*
X144606939Y-115000781D01*
X144644057Y-114980603D01*
X144682594Y-114962038D01*
X144722550Y-114945088D01*
X144763927Y-114929752D01*
X144806722Y-114916031D01*
X144850938Y-114903924D01*
X144896573Y-114893431D01*
X144943628Y-114884552D01*
X144992103Y-114877288D01*
X145041997Y-114871638D01*
X145093311Y-114867602D01*
X145146044Y-114865181D01*
X145200198Y-114864374D01*
X145256924Y-114865209D01*
G37*
G36*
X148693115Y-117256000D02*
G01*
X148081286Y-117256000D01*
X148081286Y-116840542D01*
X148066219Y-116881020D01*
X148049593Y-116919746D01*
X148031409Y-116956720D01*
X148011666Y-116991942D01*
X147990364Y-117025413D01*
X147967504Y-117057132D01*
X147943086Y-117087100D01*
X147917109Y-117115316D01*
X147889574Y-117141780D01*
X147860480Y-117166492D01*
X147840219Y-117181994D01*
X147808845Y-117203600D01*
X147776274Y-117223081D01*
X147742505Y-117240437D01*
X147707538Y-117255667D01*
X147671373Y-117268773D01*
X147634010Y-117279753D01*
X147595449Y-117288608D01*
X147555691Y-117295338D01*
X147514735Y-117299942D01*
X147472581Y-117302422D01*
X147443812Y-117302894D01*
X147402625Y-117301918D01*
X147362411Y-117298990D01*
X147323170Y-117294110D01*
X147284902Y-117287278D01*
X147247607Y-117278494D01*
X147211286Y-117267758D01*
X147175937Y-117255069D01*
X147141562Y-117240429D01*
X147108160Y-117223837D01*
X147075731Y-117205292D01*
X147044275Y-117184796D01*
X147013792Y-117162348D01*
X146984283Y-117137947D01*
X146955747Y-117111595D01*
X146928183Y-117083290D01*
X146901593Y-117053034D01*
X146876306Y-117021051D01*
X146852649Y-116987752D01*
X146830625Y-116953136D01*
X146810231Y-116917204D01*
X146791469Y-116879955D01*
X146774339Y-116841390D01*
X146758840Y-116801507D01*
X146744973Y-116760309D01*
X146732737Y-116717793D01*
X146722132Y-116673961D01*
X146713159Y-116628812D01*
X146705817Y-116582347D01*
X146700107Y-116534565D01*
X146696029Y-116485467D01*
X146693581Y-116435052D01*
X146692766Y-116383320D01*
X146692766Y-116362071D01*
X147325843Y-116362071D01*
X147326674Y-116395827D01*
X147329166Y-116428128D01*
X147333320Y-116458973D01*
X147339135Y-116488363D01*
X147349474Y-116525286D01*
X147362766Y-116559621D01*
X147379012Y-116591369D01*
X147398212Y-116620529D01*
X147420365Y-116647102D01*
X147445392Y-116670630D01*
X147472847Y-116691020D01*
X147502728Y-116708273D01*
X147535037Y-116722390D01*
X147569773Y-116733369D01*
X147606936Y-116741212D01*
X147636401Y-116745035D01*
X147667232Y-116747094D01*
X147688544Y-116747486D01*
X147721849Y-116746565D01*
X147753622Y-116743802D01*
X147783862Y-116739198D01*
X147812570Y-116732751D01*
X147848462Y-116721291D01*
X147881629Y-116706556D01*
X147912072Y-116688547D01*
X147939790Y-116667264D01*
X147964782Y-116642706D01*
X147987108Y-116615068D01*
X148006456Y-116584545D01*
X148022828Y-116551138D01*
X148036224Y-116514845D01*
X148044316Y-116485732D01*
X148050735Y-116454996D01*
X148055479Y-116422637D01*
X148058549Y-116388655D01*
X148059944Y-116353050D01*
X148060037Y-116340822D01*
X148060037Y-115826446D01*
X148059200Y-115790301D01*
X148056688Y-115755778D01*
X148052502Y-115722878D01*
X148046642Y-115691601D01*
X148039107Y-115661947D01*
X148029898Y-115633916D01*
X148015014Y-115599066D01*
X147997154Y-115567100D01*
X147976317Y-115538020D01*
X147964782Y-115524562D01*
X147939790Y-115500004D01*
X147912072Y-115478721D01*
X147881629Y-115460712D01*
X147848462Y-115445977D01*
X147812570Y-115434516D01*
X147783862Y-115428070D01*
X147753622Y-115423465D01*
X147721849Y-115420703D01*
X147688544Y-115419782D01*
X147656803Y-115420651D01*
X147626428Y-115423259D01*
X147597418Y-115427606D01*
X147560862Y-115436107D01*
X147526732Y-115447699D01*
X147495030Y-115462382D01*
X147465756Y-115480157D01*
X147438908Y-115501022D01*
X147420365Y-115518700D01*
X147398212Y-115544655D01*
X147379012Y-115573426D01*
X147362766Y-115605013D01*
X147349474Y-115639417D01*
X147339135Y-115676637D01*
X147333320Y-115706401D01*
X147329166Y-115737749D01*
X147326674Y-115770681D01*
X147325843Y-115805197D01*
X147325843Y-116362071D01*
X146692766Y-116362071D01*
X146692766Y-115783948D01*
X146693581Y-115732219D01*
X146696029Y-115681812D01*
X146700107Y-115632728D01*
X146705817Y-115584966D01*
X146713159Y-115538527D01*
X146722132Y-115493410D01*
X146732737Y-115449615D01*
X146744973Y-115407142D01*
X146758840Y-115365992D01*
X146774339Y-115326164D01*
X146791469Y-115287659D01*
X146810231Y-115250476D01*
X146830625Y-115214615D01*
X146852649Y-115180077D01*
X146876306Y-115146860D01*
X146901593Y-115114967D01*
X146928183Y-115084621D01*
X146955747Y-115056234D01*
X146984283Y-115029804D01*
X147013792Y-115005332D01*
X147044275Y-114982818D01*
X147075731Y-114962261D01*
X147108160Y-114943663D01*
X147141562Y-114927022D01*
X147175937Y-114912339D01*
X147211286Y-114899613D01*
X147247607Y-114888846D01*
X147284902Y-114880036D01*
X147323170Y-114873183D01*
X147362411Y-114868289D01*
X147402625Y-114865352D01*
X147443812Y-114864374D01*
X147486746Y-114865410D01*
X147528443Y-114868521D01*
X147568903Y-114873705D01*
X147608127Y-114880963D01*
X147646114Y-114890295D01*
X147682865Y-114901700D01*
X147718380Y-114915179D01*
X147752658Y-114930731D01*
X147785699Y-114948358D01*
X147817504Y-114968057D01*
X147838020Y-114982343D01*
X147867760Y-115005207D01*
X147895980Y-115029836D01*
X147922681Y-115056229D01*
X147947861Y-115084387D01*
X147971522Y-115114309D01*
X147993662Y-115145996D01*
X148014283Y-115179448D01*
X148033384Y-115214664D01*
X148050965Y-115251644D01*
X148067027Y-115290389D01*
X148076890Y-115317200D01*
X148060037Y-114789635D01*
X148060037Y-114160954D01*
X148693115Y-114160954D01*
X148693115Y-117256000D01*
G37*
G36*
X150223052Y-117302894D02*
G01*
X150188093Y-117301870D01*
X150154384Y-117298798D01*
X150121925Y-117293678D01*
X150090714Y-117286511D01*
X150060753Y-117277295D01*
X150032042Y-117266032D01*
X150004579Y-117252720D01*
X149978366Y-117237361D01*
X149953403Y-117219953D01*
X149929689Y-117200498D01*
X149914573Y-117186390D01*
X149893491Y-117163784D01*
X149874482Y-117139928D01*
X149857547Y-117114823D01*
X149842686Y-117088468D01*
X149829898Y-117060864D01*
X149819184Y-117032011D01*
X149810544Y-117001908D01*
X149803977Y-116970556D01*
X149799484Y-116937955D01*
X149797065Y-116904104D01*
X149796604Y-116880842D01*
X149797641Y-116846165D01*
X149800751Y-116812750D01*
X149805935Y-116780597D01*
X149813193Y-116749707D01*
X149822525Y-116720079D01*
X149833930Y-116691713D01*
X149847409Y-116664609D01*
X149862962Y-116638767D01*
X149880588Y-116614188D01*
X149900288Y-116590871D01*
X149914573Y-116576027D01*
X149937454Y-116555076D01*
X149961585Y-116536185D01*
X149986965Y-116519355D01*
X150013595Y-116504586D01*
X150041473Y-116491878D01*
X150070601Y-116481231D01*
X150100979Y-116472644D01*
X150132606Y-116466118D01*
X150165482Y-116461653D01*
X150199607Y-116459249D01*
X150223052Y-116458791D01*
X150258004Y-116459821D01*
X150291694Y-116462912D01*
X150324121Y-116468064D01*
X150355286Y-116475277D01*
X150385189Y-116484551D01*
X150413830Y-116495885D01*
X150441209Y-116509280D01*
X150467325Y-116524736D01*
X150492179Y-116542253D01*
X150515771Y-116561831D01*
X150530798Y-116576027D01*
X150552011Y-116598503D01*
X150571138Y-116622241D01*
X150588178Y-116647241D01*
X150603132Y-116673503D01*
X150615999Y-116701028D01*
X150626780Y-116729815D01*
X150635474Y-116759864D01*
X150642081Y-116791175D01*
X150646602Y-116823748D01*
X150649036Y-116857584D01*
X150649500Y-116880842D01*
X150648457Y-116915526D01*
X150645327Y-116948960D01*
X150640110Y-116981145D01*
X150632807Y-117012081D01*
X150623418Y-117041767D01*
X150611942Y-117070204D01*
X150598379Y-117097392D01*
X150582730Y-117123330D01*
X150564994Y-117148019D01*
X150545172Y-117171458D01*
X150530798Y-117186390D01*
X150508047Y-117207211D01*
X150484035Y-117225983D01*
X150458760Y-117242708D01*
X150432223Y-117257385D01*
X150404424Y-117270014D01*
X150375362Y-117280595D01*
X150345038Y-117289128D01*
X150313452Y-117295613D01*
X150280604Y-117300050D01*
X150246493Y-117302439D01*
X150223052Y-117302894D01*
G37*
G36*
X151769842Y-117256000D02*
G01*
X151769842Y-116700591D01*
X152538474Y-116700591D01*
X152538474Y-115466676D01*
X151854106Y-115466676D01*
X151854106Y-114911268D01*
X153171551Y-114911268D01*
X153171551Y-116700591D01*
X153838334Y-116700591D01*
X153838334Y-117256000D01*
X151769842Y-117256000D01*
G37*
G36*
X152824971Y-114536111D02*
G01*
X152793159Y-114535338D01*
X152762572Y-114533020D01*
X152733207Y-114529156D01*
X152695958Y-114521600D01*
X152660885Y-114511296D01*
X152627986Y-114498244D01*
X152597263Y-114482445D01*
X152568716Y-114463897D01*
X152548732Y-114448184D01*
X152524518Y-114425034D01*
X152503532Y-114399915D01*
X152485775Y-114372827D01*
X152471246Y-114343770D01*
X152459946Y-114312743D01*
X152451875Y-114279748D01*
X152447032Y-114244783D01*
X152445418Y-114207849D01*
X152447032Y-114170926D01*
X152451875Y-114135996D01*
X152459946Y-114103057D01*
X152471246Y-114072111D01*
X152485775Y-114043157D01*
X152503532Y-114016194D01*
X152524518Y-113991224D01*
X152548732Y-113968247D01*
X152575649Y-113947467D01*
X152604740Y-113929458D01*
X152636007Y-113914219D01*
X152669449Y-113901751D01*
X152705067Y-113892054D01*
X152742859Y-113885128D01*
X152772632Y-113881751D01*
X152803627Y-113879933D01*
X152824971Y-113879586D01*
X152856782Y-113880366D01*
X152887370Y-113882703D01*
X152916734Y-113886600D01*
X152953983Y-113894219D01*
X152989057Y-113904609D01*
X153021955Y-113917769D01*
X153052678Y-113933700D01*
X153081226Y-113952402D01*
X153101210Y-113968247D01*
X153125424Y-113991224D01*
X153146410Y-114016194D01*
X153164167Y-114043157D01*
X153178696Y-114072111D01*
X153189996Y-114103057D01*
X153198067Y-114135996D01*
X153202910Y-114170926D01*
X153204524Y-114207849D01*
X153202910Y-114244783D01*
X153198067Y-114279748D01*
X153189996Y-114312743D01*
X153178696Y-114343770D01*
X153164167Y-114372827D01*
X153146410Y-114399915D01*
X153125424Y-114425034D01*
X153101210Y-114448184D01*
X153074293Y-114468792D01*
X153045202Y-114486652D01*
X153013935Y-114501765D01*
X152980493Y-114514129D01*
X152944875Y-114523746D01*
X152907082Y-114530616D01*
X152877310Y-114533964D01*
X152846314Y-114535768D01*
X152824971Y-114536111D01*
G37*
G36*
X155297042Y-114864834D02*
G01*
X155335047Y-114866217D01*
X155372376Y-114868521D01*
X155409030Y-114871747D01*
X155445008Y-114875894D01*
X155480310Y-114880963D01*
X155514938Y-114886954D01*
X155548889Y-114893866D01*
X155582165Y-114901700D01*
X155614766Y-114910455D01*
X155646691Y-114920132D01*
X155677941Y-114930731D01*
X155708515Y-114942252D01*
X155738414Y-114954694D01*
X155767637Y-114968057D01*
X155796185Y-114982343D01*
X155824086Y-114997367D01*
X155851186Y-115013129D01*
X155877484Y-115029630D01*
X155902980Y-115046869D01*
X155927676Y-115064846D01*
X155951569Y-115083562D01*
X155974662Y-115103017D01*
X155996953Y-115123210D01*
X156018442Y-115144141D01*
X156039130Y-115165811D01*
X156059017Y-115188220D01*
X156078102Y-115211366D01*
X156096386Y-115235252D01*
X156113869Y-115259875D01*
X156130550Y-115285237D01*
X156146429Y-115311338D01*
X156161513Y-115338083D01*
X156175624Y-115365377D01*
X156188762Y-115393220D01*
X156200926Y-115421614D01*
X156212117Y-115450556D01*
X156222335Y-115480049D01*
X156231580Y-115510091D01*
X156239852Y-115540682D01*
X156247151Y-115571823D01*
X156253476Y-115603513D01*
X156258829Y-115635754D01*
X156263208Y-115668543D01*
X156266614Y-115701882D01*
X156269047Y-115735771D01*
X156270507Y-115770209D01*
X156270993Y-115805197D01*
X156270993Y-116362071D01*
X156270507Y-116397058D01*
X156269047Y-116431497D01*
X156266614Y-116465385D01*
X156263208Y-116498725D01*
X156258829Y-116531514D01*
X156253476Y-116563754D01*
X156247151Y-116595445D01*
X156239852Y-116626586D01*
X156231580Y-116657177D01*
X156222335Y-116687219D01*
X156212117Y-116716711D01*
X156200926Y-116745654D01*
X156188762Y-116774047D01*
X156175624Y-116801891D01*
X156161513Y-116829185D01*
X156146429Y-116855930D01*
X156130550Y-116882033D01*
X156113869Y-116907404D01*
X156096386Y-116932042D01*
X156078102Y-116955947D01*
X156059017Y-116979120D01*
X156039130Y-117001560D01*
X156018442Y-117023267D01*
X155996953Y-117044241D01*
X155974662Y-117064483D01*
X155951569Y-117083991D01*
X155927676Y-117102768D01*
X155902980Y-117120811D01*
X155877484Y-117138122D01*
X155851186Y-117154700D01*
X155824086Y-117170545D01*
X155796185Y-117185658D01*
X155767637Y-117199854D01*
X155738414Y-117213135D01*
X155708515Y-117225500D01*
X155677941Y-117236949D01*
X155646691Y-117247482D01*
X155614766Y-117257099D01*
X155582165Y-117265800D01*
X155548889Y-117273585D01*
X155514938Y-117280454D01*
X155480310Y-117286408D01*
X155445008Y-117291445D01*
X155409030Y-117295567D01*
X155372376Y-117298773D01*
X155335047Y-117301062D01*
X155297042Y-117302436D01*
X155258362Y-117302894D01*
X155220203Y-117302436D01*
X155182662Y-117301062D01*
X155145740Y-117298773D01*
X155109435Y-117295567D01*
X155073749Y-117291445D01*
X155038681Y-117286408D01*
X155004232Y-117280454D01*
X154970400Y-117273585D01*
X154937187Y-117265800D01*
X154904592Y-117257099D01*
X154872615Y-117247482D01*
X154841257Y-117236949D01*
X154810516Y-117225500D01*
X154780394Y-117213135D01*
X154750891Y-117199854D01*
X154722005Y-117185658D01*
X154693924Y-117170545D01*
X154666650Y-117154700D01*
X154640183Y-117138122D01*
X154614523Y-117120811D01*
X154589670Y-117102768D01*
X154565625Y-117083991D01*
X154542386Y-117064483D01*
X154519955Y-117044241D01*
X154498331Y-117023267D01*
X154477514Y-117001560D01*
X154457504Y-116979120D01*
X154438302Y-116955947D01*
X154419906Y-116932042D01*
X154402318Y-116907404D01*
X154385537Y-116882033D01*
X154369563Y-116855930D01*
X154354567Y-116829185D01*
X154340540Y-116801891D01*
X154327479Y-116774047D01*
X154315387Y-116745654D01*
X154304261Y-116716711D01*
X154294103Y-116687219D01*
X154284912Y-116657177D01*
X154276689Y-116626586D01*
X154269434Y-116595445D01*
X154263145Y-116563754D01*
X154257824Y-116531514D01*
X154253471Y-116498725D01*
X154250085Y-116465385D01*
X154247666Y-116431497D01*
X154246215Y-116397058D01*
X154245732Y-116362071D01*
X154878809Y-116362071D01*
X154879678Y-116395827D01*
X154882287Y-116428128D01*
X154886634Y-116458973D01*
X154892719Y-116488363D01*
X154903539Y-116525286D01*
X154917449Y-116559621D01*
X154934451Y-116591369D01*
X154954543Y-116620529D01*
X154977727Y-116647102D01*
X155003751Y-116670630D01*
X155032361Y-116691020D01*
X155063560Y-116708273D01*
X155097345Y-116722390D01*
X155133718Y-116733369D01*
X155162696Y-116739545D01*
X155193129Y-116743957D01*
X155225018Y-116746604D01*
X155258362Y-116747486D01*
X155292342Y-116746604D01*
X155324763Y-116743957D01*
X155355626Y-116739545D01*
X155384930Y-116733369D01*
X155421578Y-116722390D01*
X155455455Y-116708273D01*
X155486562Y-116691020D01*
X155514898Y-116670630D01*
X155540463Y-116647102D01*
X155563303Y-116620529D01*
X155583099Y-116591369D01*
X155599848Y-116559621D01*
X155613553Y-116525286D01*
X155624211Y-116488363D01*
X155630207Y-116458973D01*
X155634490Y-116428128D01*
X155637059Y-116395827D01*
X155637916Y-116362071D01*
X155637916Y-115805197D01*
X155637059Y-115770681D01*
X155634490Y-115737749D01*
X155630207Y-115706401D01*
X155624211Y-115676637D01*
X155613553Y-115639417D01*
X155599848Y-115605013D01*
X155583099Y-115573426D01*
X155563303Y-115544655D01*
X155540463Y-115518700D01*
X155514898Y-115495516D01*
X155486562Y-115475423D01*
X155455455Y-115458422D01*
X155421578Y-115444511D01*
X155384930Y-115433692D01*
X155355626Y-115427606D01*
X155324763Y-115423259D01*
X155292342Y-115420651D01*
X155258362Y-115419782D01*
X155225018Y-115420651D01*
X155193129Y-115423259D01*
X155162696Y-115427606D01*
X155133718Y-115433692D01*
X155097345Y-115444511D01*
X155063560Y-115458422D01*
X155032361Y-115475423D01*
X155003751Y-115495516D01*
X154977727Y-115518700D01*
X154954543Y-115544655D01*
X154934451Y-115573426D01*
X154917449Y-115605013D01*
X154903539Y-115639417D01*
X154892719Y-115676637D01*
X154886634Y-115706401D01*
X154882287Y-115737749D01*
X154879678Y-115770681D01*
X154878809Y-115805197D01*
X154878809Y-116362071D01*
X154245732Y-116362071D01*
X154245732Y-115805197D01*
X154246215Y-115770209D01*
X154247666Y-115735771D01*
X154250085Y-115701882D01*
X154253471Y-115668543D01*
X154257824Y-115635754D01*
X154263145Y-115603513D01*
X154269434Y-115571823D01*
X154276689Y-115540682D01*
X154284912Y-115510091D01*
X154294103Y-115480049D01*
X154304261Y-115450556D01*
X154315387Y-115421614D01*
X154327479Y-115393220D01*
X154340540Y-115365377D01*
X154354567Y-115338083D01*
X154369563Y-115311338D01*
X154385537Y-115285237D01*
X154402318Y-115259875D01*
X154419906Y-115235252D01*
X154438302Y-115211366D01*
X154457504Y-115188220D01*
X154477514Y-115165811D01*
X154498331Y-115144141D01*
X154519955Y-115123210D01*
X154542386Y-115103017D01*
X154565625Y-115083562D01*
X154589670Y-115064846D01*
X154614523Y-115046869D01*
X154640183Y-115029630D01*
X154666650Y-115013129D01*
X154693924Y-114997367D01*
X154722005Y-114982343D01*
X154750891Y-114968057D01*
X154780394Y-114954694D01*
X154810516Y-114942252D01*
X154841257Y-114930731D01*
X154872615Y-114920132D01*
X154904592Y-114910455D01*
X154937187Y-114901700D01*
X154970400Y-114893866D01*
X155004232Y-114886954D01*
X155038681Y-114880963D01*
X155073749Y-114875894D01*
X155109435Y-114871747D01*
X155145740Y-114868521D01*
X155182662Y-114866217D01*
X155220203Y-114864834D01*
X155258362Y-114864374D01*
X155297042Y-114864834D01*
G37*
M02*
