%TF.GenerationSoftware,KiCad,Pcbnew,7.0.10-7.0.10~ubuntu22.04.1*%
%TF.CreationDate,2024-02-12T01:26:08+01:00*%
%TF.ProjectId,screw_terminal_breakout_board_esp32,73637265-775f-4746-9572-6d696e616c5f,rev?*%
%TF.SameCoordinates,Original*%
%TF.FileFunction,Legend,Bot*%
%TF.FilePolarity,Positive*%
%FSLAX46Y46*%
G04 Gerber Fmt 4.6, Leading zero omitted, Abs format (unit mm)*
G04 Created by KiCad (PCBNEW 7.0.10-7.0.10~ubuntu22.04.1) date 2024-02-12 01:26:08*
%MOMM*%
%LPD*%
G01*
G04 APERTURE LIST*
%ADD10C,0.300000*%
G04 APERTURE END LIST*
D10*
X163819774Y-112074257D02*
X163962632Y-112002828D01*
X163962632Y-112002828D02*
X164176917Y-112002828D01*
X164176917Y-112002828D02*
X164391203Y-112074257D01*
X164391203Y-112074257D02*
X164534060Y-112217114D01*
X164534060Y-112217114D02*
X164605489Y-112359971D01*
X164605489Y-112359971D02*
X164676917Y-112645685D01*
X164676917Y-112645685D02*
X164676917Y-112859971D01*
X164676917Y-112859971D02*
X164605489Y-113145685D01*
X164605489Y-113145685D02*
X164534060Y-113288542D01*
X164534060Y-113288542D02*
X164391203Y-113431400D01*
X164391203Y-113431400D02*
X164176917Y-113502828D01*
X164176917Y-113502828D02*
X164034060Y-113502828D01*
X164034060Y-113502828D02*
X163819774Y-113431400D01*
X163819774Y-113431400D02*
X163748346Y-113359971D01*
X163748346Y-113359971D02*
X163748346Y-112859971D01*
X163748346Y-112859971D02*
X164034060Y-112859971D01*
X163105489Y-113502828D02*
X163105489Y-112002828D01*
X163105489Y-112002828D02*
X162248346Y-113502828D01*
X162248346Y-113502828D02*
X162248346Y-112002828D01*
X161534060Y-113502828D02*
X161534060Y-112002828D01*
X161534060Y-112002828D02*
X161176917Y-112002828D01*
X161176917Y-112002828D02*
X160962631Y-112074257D01*
X160962631Y-112074257D02*
X160819774Y-112217114D01*
X160819774Y-112217114D02*
X160748345Y-112359971D01*
X160748345Y-112359971D02*
X160676917Y-112645685D01*
X160676917Y-112645685D02*
X160676917Y-112859971D01*
X160676917Y-112859971D02*
X160748345Y-113145685D01*
X160748345Y-113145685D02*
X160819774Y-113288542D01*
X160819774Y-113288542D02*
X160962631Y-113431400D01*
X160962631Y-113431400D02*
X161176917Y-113502828D01*
X161176917Y-113502828D02*
X161534060Y-113502828D01*
X164605489Y-89118828D02*
X164605489Y-87618828D01*
X164605489Y-87618828D02*
X164248346Y-87618828D01*
X164248346Y-87618828D02*
X164034060Y-87690257D01*
X164034060Y-87690257D02*
X163891203Y-87833114D01*
X163891203Y-87833114D02*
X163819774Y-87975971D01*
X163819774Y-87975971D02*
X163748346Y-88261685D01*
X163748346Y-88261685D02*
X163748346Y-88475971D01*
X163748346Y-88475971D02*
X163819774Y-88761685D01*
X163819774Y-88761685D02*
X163891203Y-88904542D01*
X163891203Y-88904542D02*
X164034060Y-89047400D01*
X164034060Y-89047400D02*
X164248346Y-89118828D01*
X164248346Y-89118828D02*
X164605489Y-89118828D01*
X162319774Y-89118828D02*
X163176917Y-89118828D01*
X162748346Y-89118828D02*
X162748346Y-87618828D01*
X162748346Y-87618828D02*
X162891203Y-87833114D01*
X162891203Y-87833114D02*
X163034060Y-87975971D01*
X163034060Y-87975971D02*
X163176917Y-88047400D01*
X161462632Y-88261685D02*
X161605489Y-88190257D01*
X161605489Y-88190257D02*
X161676918Y-88118828D01*
X161676918Y-88118828D02*
X161748346Y-87975971D01*
X161748346Y-87975971D02*
X161748346Y-87904542D01*
X161748346Y-87904542D02*
X161676918Y-87761685D01*
X161676918Y-87761685D02*
X161605489Y-87690257D01*
X161605489Y-87690257D02*
X161462632Y-87618828D01*
X161462632Y-87618828D02*
X161176918Y-87618828D01*
X161176918Y-87618828D02*
X161034061Y-87690257D01*
X161034061Y-87690257D02*
X160962632Y-87761685D01*
X160962632Y-87761685D02*
X160891203Y-87904542D01*
X160891203Y-87904542D02*
X160891203Y-87975971D01*
X160891203Y-87975971D02*
X160962632Y-88118828D01*
X160962632Y-88118828D02*
X161034061Y-88190257D01*
X161034061Y-88190257D02*
X161176918Y-88261685D01*
X161176918Y-88261685D02*
X161462632Y-88261685D01*
X161462632Y-88261685D02*
X161605489Y-88333114D01*
X161605489Y-88333114D02*
X161676918Y-88404542D01*
X161676918Y-88404542D02*
X161748346Y-88547400D01*
X161748346Y-88547400D02*
X161748346Y-88833114D01*
X161748346Y-88833114D02*
X161676918Y-88975971D01*
X161676918Y-88975971D02*
X161605489Y-89047400D01*
X161605489Y-89047400D02*
X161462632Y-89118828D01*
X161462632Y-89118828D02*
X161176918Y-89118828D01*
X161176918Y-89118828D02*
X161034061Y-89047400D01*
X161034061Y-89047400D02*
X160962632Y-88975971D01*
X160962632Y-88975971D02*
X160891203Y-88833114D01*
X160891203Y-88833114D02*
X160891203Y-88547400D01*
X160891203Y-88547400D02*
X160962632Y-88404542D01*
X160962632Y-88404542D02*
X161034061Y-88333114D01*
X161034061Y-88333114D02*
X161176918Y-88261685D01*
X164605489Y-71592828D02*
X164605489Y-70092828D01*
X164605489Y-70092828D02*
X164248346Y-70092828D01*
X164248346Y-70092828D02*
X164034060Y-70164257D01*
X164034060Y-70164257D02*
X163891203Y-70307114D01*
X163891203Y-70307114D02*
X163819774Y-70449971D01*
X163819774Y-70449971D02*
X163748346Y-70735685D01*
X163748346Y-70735685D02*
X163748346Y-70949971D01*
X163748346Y-70949971D02*
X163819774Y-71235685D01*
X163819774Y-71235685D02*
X163891203Y-71378542D01*
X163891203Y-71378542D02*
X164034060Y-71521400D01*
X164034060Y-71521400D02*
X164248346Y-71592828D01*
X164248346Y-71592828D02*
X164605489Y-71592828D01*
X163176917Y-70235685D02*
X163105489Y-70164257D01*
X163105489Y-70164257D02*
X162962632Y-70092828D01*
X162962632Y-70092828D02*
X162605489Y-70092828D01*
X162605489Y-70092828D02*
X162462632Y-70164257D01*
X162462632Y-70164257D02*
X162391203Y-70235685D01*
X162391203Y-70235685D02*
X162319774Y-70378542D01*
X162319774Y-70378542D02*
X162319774Y-70521400D01*
X162319774Y-70521400D02*
X162391203Y-70735685D01*
X162391203Y-70735685D02*
X163248346Y-71592828D01*
X163248346Y-71592828D02*
X162319774Y-71592828D01*
X161748346Y-70235685D02*
X161676918Y-70164257D01*
X161676918Y-70164257D02*
X161534061Y-70092828D01*
X161534061Y-70092828D02*
X161176918Y-70092828D01*
X161176918Y-70092828D02*
X161034061Y-70164257D01*
X161034061Y-70164257D02*
X160962632Y-70235685D01*
X160962632Y-70235685D02*
X160891203Y-70378542D01*
X160891203Y-70378542D02*
X160891203Y-70521400D01*
X160891203Y-70521400D02*
X160962632Y-70735685D01*
X160962632Y-70735685D02*
X161819775Y-71592828D01*
X161819775Y-71592828D02*
X160891203Y-71592828D01*
X164819774Y-73648828D02*
X163962632Y-73648828D01*
X164391203Y-75148828D02*
X164391203Y-73648828D01*
X163605489Y-73648828D02*
X162605489Y-75148828D01*
X162605489Y-73648828D02*
X163605489Y-75148828D01*
X161748346Y-73648828D02*
X161605489Y-73648828D01*
X161605489Y-73648828D02*
X161462632Y-73720257D01*
X161462632Y-73720257D02*
X161391204Y-73791685D01*
X161391204Y-73791685D02*
X161319775Y-73934542D01*
X161319775Y-73934542D02*
X161248346Y-74220257D01*
X161248346Y-74220257D02*
X161248346Y-74577400D01*
X161248346Y-74577400D02*
X161319775Y-74863114D01*
X161319775Y-74863114D02*
X161391204Y-75005971D01*
X161391204Y-75005971D02*
X161462632Y-75077400D01*
X161462632Y-75077400D02*
X161605489Y-75148828D01*
X161605489Y-75148828D02*
X161748346Y-75148828D01*
X161748346Y-75148828D02*
X161891204Y-75077400D01*
X161891204Y-75077400D02*
X161962632Y-75005971D01*
X161962632Y-75005971D02*
X162034061Y-74863114D01*
X162034061Y-74863114D02*
X162105489Y-74577400D01*
X162105489Y-74577400D02*
X162105489Y-74220257D01*
X162105489Y-74220257D02*
X162034061Y-73934542D01*
X162034061Y-73934542D02*
X161962632Y-73791685D01*
X161962632Y-73791685D02*
X161891204Y-73720257D01*
X161891204Y-73720257D02*
X161748346Y-73648828D01*
X164605489Y-85562828D02*
X164605489Y-84062828D01*
X164605489Y-84062828D02*
X164248346Y-84062828D01*
X164248346Y-84062828D02*
X164034060Y-84134257D01*
X164034060Y-84134257D02*
X163891203Y-84277114D01*
X163891203Y-84277114D02*
X163819774Y-84419971D01*
X163819774Y-84419971D02*
X163748346Y-84705685D01*
X163748346Y-84705685D02*
X163748346Y-84919971D01*
X163748346Y-84919971D02*
X163819774Y-85205685D01*
X163819774Y-85205685D02*
X163891203Y-85348542D01*
X163891203Y-85348542D02*
X164034060Y-85491400D01*
X164034060Y-85491400D02*
X164248346Y-85562828D01*
X164248346Y-85562828D02*
X164605489Y-85562828D01*
X162319774Y-85562828D02*
X163176917Y-85562828D01*
X162748346Y-85562828D02*
X162748346Y-84062828D01*
X162748346Y-84062828D02*
X162891203Y-84277114D01*
X162891203Y-84277114D02*
X163034060Y-84419971D01*
X163034060Y-84419971D02*
X163176917Y-84491400D01*
X161605489Y-85562828D02*
X161319775Y-85562828D01*
X161319775Y-85562828D02*
X161176918Y-85491400D01*
X161176918Y-85491400D02*
X161105489Y-85419971D01*
X161105489Y-85419971D02*
X160962632Y-85205685D01*
X160962632Y-85205685D02*
X160891203Y-84919971D01*
X160891203Y-84919971D02*
X160891203Y-84348542D01*
X160891203Y-84348542D02*
X160962632Y-84205685D01*
X160962632Y-84205685D02*
X161034061Y-84134257D01*
X161034061Y-84134257D02*
X161176918Y-84062828D01*
X161176918Y-84062828D02*
X161462632Y-84062828D01*
X161462632Y-84062828D02*
X161605489Y-84134257D01*
X161605489Y-84134257D02*
X161676918Y-84205685D01*
X161676918Y-84205685D02*
X161748346Y-84348542D01*
X161748346Y-84348542D02*
X161748346Y-84705685D01*
X161748346Y-84705685D02*
X161676918Y-84848542D01*
X161676918Y-84848542D02*
X161605489Y-84919971D01*
X161605489Y-84919971D02*
X161462632Y-84991400D01*
X161462632Y-84991400D02*
X161176918Y-84991400D01*
X161176918Y-84991400D02*
X161034061Y-84919971D01*
X161034061Y-84919971D02*
X160962632Y-84848542D01*
X160962632Y-84848542D02*
X160891203Y-84705685D01*
X117271653Y-73648828D02*
X116771653Y-75148828D01*
X116771653Y-75148828D02*
X116271653Y-73648828D01*
X115771654Y-75148828D02*
X115771654Y-73648828D01*
X115771654Y-73648828D02*
X114914511Y-75148828D01*
X114914511Y-75148828D02*
X114914511Y-73648828D01*
X118557367Y-95976828D02*
X118557367Y-94476828D01*
X118557367Y-94476828D02*
X118200224Y-94476828D01*
X118200224Y-94476828D02*
X117985938Y-94548257D01*
X117985938Y-94548257D02*
X117843081Y-94691114D01*
X117843081Y-94691114D02*
X117771652Y-94833971D01*
X117771652Y-94833971D02*
X117700224Y-95119685D01*
X117700224Y-95119685D02*
X117700224Y-95333971D01*
X117700224Y-95333971D02*
X117771652Y-95619685D01*
X117771652Y-95619685D02*
X117843081Y-95762542D01*
X117843081Y-95762542D02*
X117985938Y-95905400D01*
X117985938Y-95905400D02*
X118200224Y-95976828D01*
X118200224Y-95976828D02*
X118557367Y-95976828D01*
X117128795Y-94619685D02*
X117057367Y-94548257D01*
X117057367Y-94548257D02*
X116914510Y-94476828D01*
X116914510Y-94476828D02*
X116557367Y-94476828D01*
X116557367Y-94476828D02*
X116414510Y-94548257D01*
X116414510Y-94548257D02*
X116343081Y-94619685D01*
X116343081Y-94619685D02*
X116271652Y-94762542D01*
X116271652Y-94762542D02*
X116271652Y-94905400D01*
X116271652Y-94905400D02*
X116343081Y-95119685D01*
X116343081Y-95119685D02*
X117200224Y-95976828D01*
X117200224Y-95976828D02*
X116271652Y-95976828D01*
X114985939Y-94476828D02*
X115271653Y-94476828D01*
X115271653Y-94476828D02*
X115414510Y-94548257D01*
X115414510Y-94548257D02*
X115485939Y-94619685D01*
X115485939Y-94619685D02*
X115628796Y-94833971D01*
X115628796Y-94833971D02*
X115700224Y-95119685D01*
X115700224Y-95119685D02*
X115700224Y-95691114D01*
X115700224Y-95691114D02*
X115628796Y-95833971D01*
X115628796Y-95833971D02*
X115557367Y-95905400D01*
X115557367Y-95905400D02*
X115414510Y-95976828D01*
X115414510Y-95976828D02*
X115128796Y-95976828D01*
X115128796Y-95976828D02*
X114985939Y-95905400D01*
X114985939Y-95905400D02*
X114914510Y-95833971D01*
X114914510Y-95833971D02*
X114843081Y-95691114D01*
X114843081Y-95691114D02*
X114843081Y-95333971D01*
X114843081Y-95333971D02*
X114914510Y-95191114D01*
X114914510Y-95191114D02*
X114985939Y-95119685D01*
X114985939Y-95119685D02*
X115128796Y-95048257D01*
X115128796Y-95048257D02*
X115414510Y-95048257D01*
X115414510Y-95048257D02*
X115557367Y-95119685D01*
X115557367Y-95119685D02*
X115628796Y-95191114D01*
X115628796Y-95191114D02*
X115700224Y-95333971D01*
X118557367Y-78450828D02*
X118557367Y-76950828D01*
X118557367Y-76950828D02*
X118200224Y-76950828D01*
X118200224Y-76950828D02*
X117985938Y-77022257D01*
X117985938Y-77022257D02*
X117843081Y-77165114D01*
X117843081Y-77165114D02*
X117771652Y-77307971D01*
X117771652Y-77307971D02*
X117700224Y-77593685D01*
X117700224Y-77593685D02*
X117700224Y-77807971D01*
X117700224Y-77807971D02*
X117771652Y-78093685D01*
X117771652Y-78093685D02*
X117843081Y-78236542D01*
X117843081Y-78236542D02*
X117985938Y-78379400D01*
X117985938Y-78379400D02*
X118200224Y-78450828D01*
X118200224Y-78450828D02*
X118557367Y-78450828D01*
X117200224Y-76950828D02*
X116271652Y-76950828D01*
X116271652Y-76950828D02*
X116771652Y-77522257D01*
X116771652Y-77522257D02*
X116557367Y-77522257D01*
X116557367Y-77522257D02*
X116414510Y-77593685D01*
X116414510Y-77593685D02*
X116343081Y-77665114D01*
X116343081Y-77665114D02*
X116271652Y-77807971D01*
X116271652Y-77807971D02*
X116271652Y-78165114D01*
X116271652Y-78165114D02*
X116343081Y-78307971D01*
X116343081Y-78307971D02*
X116414510Y-78379400D01*
X116414510Y-78379400D02*
X116557367Y-78450828D01*
X116557367Y-78450828D02*
X116985938Y-78450828D01*
X116985938Y-78450828D02*
X117128795Y-78379400D01*
X117128795Y-78379400D02*
X117200224Y-78307971D01*
X114985939Y-77450828D02*
X114985939Y-78450828D01*
X115343081Y-76879400D02*
X115700224Y-77950828D01*
X115700224Y-77950828D02*
X114771653Y-77950828D01*
X163748346Y-99532828D02*
X164248346Y-98818542D01*
X164605489Y-99532828D02*
X164605489Y-98032828D01*
X164605489Y-98032828D02*
X164034060Y-98032828D01*
X164034060Y-98032828D02*
X163891203Y-98104257D01*
X163891203Y-98104257D02*
X163819774Y-98175685D01*
X163819774Y-98175685D02*
X163748346Y-98318542D01*
X163748346Y-98318542D02*
X163748346Y-98532828D01*
X163748346Y-98532828D02*
X163819774Y-98675685D01*
X163819774Y-98675685D02*
X163891203Y-98747114D01*
X163891203Y-98747114D02*
X164034060Y-98818542D01*
X164034060Y-98818542D02*
X164605489Y-98818542D01*
X163248346Y-98032828D02*
X162248346Y-99532828D01*
X162248346Y-98032828D02*
X163248346Y-99532828D01*
X161748346Y-98175685D02*
X161676918Y-98104257D01*
X161676918Y-98104257D02*
X161534061Y-98032828D01*
X161534061Y-98032828D02*
X161176918Y-98032828D01*
X161176918Y-98032828D02*
X161034061Y-98104257D01*
X161034061Y-98104257D02*
X160962632Y-98175685D01*
X160962632Y-98175685D02*
X160891203Y-98318542D01*
X160891203Y-98318542D02*
X160891203Y-98461400D01*
X160891203Y-98461400D02*
X160962632Y-98675685D01*
X160962632Y-98675685D02*
X161819775Y-99532828D01*
X161819775Y-99532828D02*
X160891203Y-99532828D01*
X164605489Y-106644828D02*
X164605489Y-105144828D01*
X164605489Y-105144828D02*
X164248346Y-105144828D01*
X164248346Y-105144828D02*
X164034060Y-105216257D01*
X164034060Y-105216257D02*
X163891203Y-105359114D01*
X163891203Y-105359114D02*
X163819774Y-105501971D01*
X163819774Y-105501971D02*
X163748346Y-105787685D01*
X163748346Y-105787685D02*
X163748346Y-106001971D01*
X163748346Y-106001971D02*
X163819774Y-106287685D01*
X163819774Y-106287685D02*
X163891203Y-106430542D01*
X163891203Y-106430542D02*
X164034060Y-106573400D01*
X164034060Y-106573400D02*
X164248346Y-106644828D01*
X164248346Y-106644828D02*
X164605489Y-106644828D01*
X163176917Y-105287685D02*
X163105489Y-105216257D01*
X163105489Y-105216257D02*
X162962632Y-105144828D01*
X162962632Y-105144828D02*
X162605489Y-105144828D01*
X162605489Y-105144828D02*
X162462632Y-105216257D01*
X162462632Y-105216257D02*
X162391203Y-105287685D01*
X162391203Y-105287685D02*
X162319774Y-105430542D01*
X162319774Y-105430542D02*
X162319774Y-105573400D01*
X162319774Y-105573400D02*
X162391203Y-105787685D01*
X162391203Y-105787685D02*
X163248346Y-106644828D01*
X163248346Y-106644828D02*
X162319774Y-106644828D01*
X118557367Y-89118828D02*
X118557367Y-87618828D01*
X118557367Y-87618828D02*
X118200224Y-87618828D01*
X118200224Y-87618828D02*
X117985938Y-87690257D01*
X117985938Y-87690257D02*
X117843081Y-87833114D01*
X117843081Y-87833114D02*
X117771652Y-87975971D01*
X117771652Y-87975971D02*
X117700224Y-88261685D01*
X117700224Y-88261685D02*
X117700224Y-88475971D01*
X117700224Y-88475971D02*
X117771652Y-88761685D01*
X117771652Y-88761685D02*
X117843081Y-88904542D01*
X117843081Y-88904542D02*
X117985938Y-89047400D01*
X117985938Y-89047400D02*
X118200224Y-89118828D01*
X118200224Y-89118828D02*
X118557367Y-89118828D01*
X117200224Y-87618828D02*
X116271652Y-87618828D01*
X116271652Y-87618828D02*
X116771652Y-88190257D01*
X116771652Y-88190257D02*
X116557367Y-88190257D01*
X116557367Y-88190257D02*
X116414510Y-88261685D01*
X116414510Y-88261685D02*
X116343081Y-88333114D01*
X116343081Y-88333114D02*
X116271652Y-88475971D01*
X116271652Y-88475971D02*
X116271652Y-88833114D01*
X116271652Y-88833114D02*
X116343081Y-88975971D01*
X116343081Y-88975971D02*
X116414510Y-89047400D01*
X116414510Y-89047400D02*
X116557367Y-89118828D01*
X116557367Y-89118828D02*
X116985938Y-89118828D01*
X116985938Y-89118828D02*
X117128795Y-89047400D01*
X117128795Y-89047400D02*
X117200224Y-88975971D01*
X115771653Y-87618828D02*
X114843081Y-87618828D01*
X114843081Y-87618828D02*
X115343081Y-88190257D01*
X115343081Y-88190257D02*
X115128796Y-88190257D01*
X115128796Y-88190257D02*
X114985939Y-88261685D01*
X114985939Y-88261685D02*
X114914510Y-88333114D01*
X114914510Y-88333114D02*
X114843081Y-88475971D01*
X114843081Y-88475971D02*
X114843081Y-88833114D01*
X114843081Y-88833114D02*
X114914510Y-88975971D01*
X114914510Y-88975971D02*
X114985939Y-89047400D01*
X114985939Y-89047400D02*
X115128796Y-89118828D01*
X115128796Y-89118828D02*
X115557367Y-89118828D01*
X115557367Y-89118828D02*
X115700224Y-89047400D01*
X115700224Y-89047400D02*
X115771653Y-88975971D01*
X164605489Y-82006828D02*
X164605489Y-80506828D01*
X164605489Y-80506828D02*
X164248346Y-80506828D01*
X164248346Y-80506828D02*
X164034060Y-80578257D01*
X164034060Y-80578257D02*
X163891203Y-80721114D01*
X163891203Y-80721114D02*
X163819774Y-80863971D01*
X163819774Y-80863971D02*
X163748346Y-81149685D01*
X163748346Y-81149685D02*
X163748346Y-81363971D01*
X163748346Y-81363971D02*
X163819774Y-81649685D01*
X163819774Y-81649685D02*
X163891203Y-81792542D01*
X163891203Y-81792542D02*
X164034060Y-81935400D01*
X164034060Y-81935400D02*
X164248346Y-82006828D01*
X164248346Y-82006828D02*
X164605489Y-82006828D01*
X163176917Y-80649685D02*
X163105489Y-80578257D01*
X163105489Y-80578257D02*
X162962632Y-80506828D01*
X162962632Y-80506828D02*
X162605489Y-80506828D01*
X162605489Y-80506828D02*
X162462632Y-80578257D01*
X162462632Y-80578257D02*
X162391203Y-80649685D01*
X162391203Y-80649685D02*
X162319774Y-80792542D01*
X162319774Y-80792542D02*
X162319774Y-80935400D01*
X162319774Y-80935400D02*
X162391203Y-81149685D01*
X162391203Y-81149685D02*
X163248346Y-82006828D01*
X163248346Y-82006828D02*
X162319774Y-82006828D01*
X160891203Y-82006828D02*
X161748346Y-82006828D01*
X161319775Y-82006828D02*
X161319775Y-80506828D01*
X161319775Y-80506828D02*
X161462632Y-80721114D01*
X161462632Y-80721114D02*
X161605489Y-80863971D01*
X161605489Y-80863971D02*
X161748346Y-80935400D01*
X118557367Y-92674828D02*
X118557367Y-91174828D01*
X118557367Y-91174828D02*
X118200224Y-91174828D01*
X118200224Y-91174828D02*
X117985938Y-91246257D01*
X117985938Y-91246257D02*
X117843081Y-91389114D01*
X117843081Y-91389114D02*
X117771652Y-91531971D01*
X117771652Y-91531971D02*
X117700224Y-91817685D01*
X117700224Y-91817685D02*
X117700224Y-92031971D01*
X117700224Y-92031971D02*
X117771652Y-92317685D01*
X117771652Y-92317685D02*
X117843081Y-92460542D01*
X117843081Y-92460542D02*
X117985938Y-92603400D01*
X117985938Y-92603400D02*
X118200224Y-92674828D01*
X118200224Y-92674828D02*
X118557367Y-92674828D01*
X117128795Y-91317685D02*
X117057367Y-91246257D01*
X117057367Y-91246257D02*
X116914510Y-91174828D01*
X116914510Y-91174828D02*
X116557367Y-91174828D01*
X116557367Y-91174828D02*
X116414510Y-91246257D01*
X116414510Y-91246257D02*
X116343081Y-91317685D01*
X116343081Y-91317685D02*
X116271652Y-91460542D01*
X116271652Y-91460542D02*
X116271652Y-91603400D01*
X116271652Y-91603400D02*
X116343081Y-91817685D01*
X116343081Y-91817685D02*
X117200224Y-92674828D01*
X117200224Y-92674828D02*
X116271652Y-92674828D01*
X114914510Y-91174828D02*
X115628796Y-91174828D01*
X115628796Y-91174828D02*
X115700224Y-91889114D01*
X115700224Y-91889114D02*
X115628796Y-91817685D01*
X115628796Y-91817685D02*
X115485939Y-91746257D01*
X115485939Y-91746257D02*
X115128796Y-91746257D01*
X115128796Y-91746257D02*
X114985939Y-91817685D01*
X114985939Y-91817685D02*
X114914510Y-91889114D01*
X114914510Y-91889114D02*
X114843081Y-92031971D01*
X114843081Y-92031971D02*
X114843081Y-92389114D01*
X114843081Y-92389114D02*
X114914510Y-92531971D01*
X114914510Y-92531971D02*
X114985939Y-92603400D01*
X114985939Y-92603400D02*
X115128796Y-92674828D01*
X115128796Y-92674828D02*
X115485939Y-92674828D01*
X115485939Y-92674828D02*
X115628796Y-92603400D01*
X115628796Y-92603400D02*
X115700224Y-92531971D01*
X118557367Y-82006828D02*
X118557367Y-80506828D01*
X118557367Y-80506828D02*
X118200224Y-80506828D01*
X118200224Y-80506828D02*
X117985938Y-80578257D01*
X117985938Y-80578257D02*
X117843081Y-80721114D01*
X117843081Y-80721114D02*
X117771652Y-80863971D01*
X117771652Y-80863971D02*
X117700224Y-81149685D01*
X117700224Y-81149685D02*
X117700224Y-81363971D01*
X117700224Y-81363971D02*
X117771652Y-81649685D01*
X117771652Y-81649685D02*
X117843081Y-81792542D01*
X117843081Y-81792542D02*
X117985938Y-81935400D01*
X117985938Y-81935400D02*
X118200224Y-82006828D01*
X118200224Y-82006828D02*
X118557367Y-82006828D01*
X117200224Y-80506828D02*
X116271652Y-80506828D01*
X116271652Y-80506828D02*
X116771652Y-81078257D01*
X116771652Y-81078257D02*
X116557367Y-81078257D01*
X116557367Y-81078257D02*
X116414510Y-81149685D01*
X116414510Y-81149685D02*
X116343081Y-81221114D01*
X116343081Y-81221114D02*
X116271652Y-81363971D01*
X116271652Y-81363971D02*
X116271652Y-81721114D01*
X116271652Y-81721114D02*
X116343081Y-81863971D01*
X116343081Y-81863971D02*
X116414510Y-81935400D01*
X116414510Y-81935400D02*
X116557367Y-82006828D01*
X116557367Y-82006828D02*
X116985938Y-82006828D01*
X116985938Y-82006828D02*
X117128795Y-81935400D01*
X117128795Y-81935400D02*
X117200224Y-81863971D01*
X114914510Y-80506828D02*
X115628796Y-80506828D01*
X115628796Y-80506828D02*
X115700224Y-81221114D01*
X115700224Y-81221114D02*
X115628796Y-81149685D01*
X115628796Y-81149685D02*
X115485939Y-81078257D01*
X115485939Y-81078257D02*
X115128796Y-81078257D01*
X115128796Y-81078257D02*
X114985939Y-81149685D01*
X114985939Y-81149685D02*
X114914510Y-81221114D01*
X114914510Y-81221114D02*
X114843081Y-81363971D01*
X114843081Y-81363971D02*
X114843081Y-81721114D01*
X114843081Y-81721114D02*
X114914510Y-81863971D01*
X114914510Y-81863971D02*
X114985939Y-81935400D01*
X114985939Y-81935400D02*
X115128796Y-82006828D01*
X115128796Y-82006828D02*
X115485939Y-82006828D01*
X115485939Y-82006828D02*
X115628796Y-81935400D01*
X115628796Y-81935400D02*
X115700224Y-81863971D01*
X118557367Y-109946828D02*
X118557367Y-108446828D01*
X118557367Y-108446828D02*
X118200224Y-108446828D01*
X118200224Y-108446828D02*
X117985938Y-108518257D01*
X117985938Y-108518257D02*
X117843081Y-108661114D01*
X117843081Y-108661114D02*
X117771652Y-108803971D01*
X117771652Y-108803971D02*
X117700224Y-109089685D01*
X117700224Y-109089685D02*
X117700224Y-109303971D01*
X117700224Y-109303971D02*
X117771652Y-109589685D01*
X117771652Y-109589685D02*
X117843081Y-109732542D01*
X117843081Y-109732542D02*
X117985938Y-109875400D01*
X117985938Y-109875400D02*
X118200224Y-109946828D01*
X118200224Y-109946828D02*
X118557367Y-109946828D01*
X116271652Y-109946828D02*
X117128795Y-109946828D01*
X116700224Y-109946828D02*
X116700224Y-108446828D01*
X116700224Y-108446828D02*
X116843081Y-108661114D01*
X116843081Y-108661114D02*
X116985938Y-108803971D01*
X116985938Y-108803971D02*
X117128795Y-108875400D01*
X115771653Y-108446828D02*
X114843081Y-108446828D01*
X114843081Y-108446828D02*
X115343081Y-109018257D01*
X115343081Y-109018257D02*
X115128796Y-109018257D01*
X115128796Y-109018257D02*
X114985939Y-109089685D01*
X114985939Y-109089685D02*
X114914510Y-109161114D01*
X114914510Y-109161114D02*
X114843081Y-109303971D01*
X114843081Y-109303971D02*
X114843081Y-109661114D01*
X114843081Y-109661114D02*
X114914510Y-109803971D01*
X114914510Y-109803971D02*
X114985939Y-109875400D01*
X114985939Y-109875400D02*
X115128796Y-109946828D01*
X115128796Y-109946828D02*
X115557367Y-109946828D01*
X115557367Y-109946828D02*
X115700224Y-109875400D01*
X115700224Y-109875400D02*
X115771653Y-109803971D01*
X164748346Y-115558828D02*
X163819774Y-115558828D01*
X163819774Y-115558828D02*
X164319774Y-116130257D01*
X164319774Y-116130257D02*
X164105489Y-116130257D01*
X164105489Y-116130257D02*
X163962632Y-116201685D01*
X163962632Y-116201685D02*
X163891203Y-116273114D01*
X163891203Y-116273114D02*
X163819774Y-116415971D01*
X163819774Y-116415971D02*
X163819774Y-116773114D01*
X163819774Y-116773114D02*
X163891203Y-116915971D01*
X163891203Y-116915971D02*
X163962632Y-116987400D01*
X163962632Y-116987400D02*
X164105489Y-117058828D01*
X164105489Y-117058828D02*
X164534060Y-117058828D01*
X164534060Y-117058828D02*
X164676917Y-116987400D01*
X164676917Y-116987400D02*
X164748346Y-116915971D01*
X163391203Y-115558828D02*
X162891203Y-117058828D01*
X162891203Y-117058828D02*
X162391203Y-115558828D01*
X162034061Y-115558828D02*
X161105489Y-115558828D01*
X161105489Y-115558828D02*
X161605489Y-116130257D01*
X161605489Y-116130257D02*
X161391204Y-116130257D01*
X161391204Y-116130257D02*
X161248347Y-116201685D01*
X161248347Y-116201685D02*
X161176918Y-116273114D01*
X161176918Y-116273114D02*
X161105489Y-116415971D01*
X161105489Y-116415971D02*
X161105489Y-116773114D01*
X161105489Y-116773114D02*
X161176918Y-116915971D01*
X161176918Y-116915971D02*
X161248347Y-116987400D01*
X161248347Y-116987400D02*
X161391204Y-117058828D01*
X161391204Y-117058828D02*
X161819775Y-117058828D01*
X161819775Y-117058828D02*
X161962632Y-116987400D01*
X161962632Y-116987400D02*
X162034061Y-116915971D01*
X164605489Y-67782828D02*
X164605489Y-66282828D01*
X164605489Y-66282828D02*
X164248346Y-66282828D01*
X164248346Y-66282828D02*
X164034060Y-66354257D01*
X164034060Y-66354257D02*
X163891203Y-66497114D01*
X163891203Y-66497114D02*
X163819774Y-66639971D01*
X163819774Y-66639971D02*
X163748346Y-66925685D01*
X163748346Y-66925685D02*
X163748346Y-67139971D01*
X163748346Y-67139971D02*
X163819774Y-67425685D01*
X163819774Y-67425685D02*
X163891203Y-67568542D01*
X163891203Y-67568542D02*
X164034060Y-67711400D01*
X164034060Y-67711400D02*
X164248346Y-67782828D01*
X164248346Y-67782828D02*
X164605489Y-67782828D01*
X163176917Y-66425685D02*
X163105489Y-66354257D01*
X163105489Y-66354257D02*
X162962632Y-66282828D01*
X162962632Y-66282828D02*
X162605489Y-66282828D01*
X162605489Y-66282828D02*
X162462632Y-66354257D01*
X162462632Y-66354257D02*
X162391203Y-66425685D01*
X162391203Y-66425685D02*
X162319774Y-66568542D01*
X162319774Y-66568542D02*
X162319774Y-66711400D01*
X162319774Y-66711400D02*
X162391203Y-66925685D01*
X162391203Y-66925685D02*
X163248346Y-67782828D01*
X163248346Y-67782828D02*
X162319774Y-67782828D01*
X161819775Y-66282828D02*
X160891203Y-66282828D01*
X160891203Y-66282828D02*
X161391203Y-66854257D01*
X161391203Y-66854257D02*
X161176918Y-66854257D01*
X161176918Y-66854257D02*
X161034061Y-66925685D01*
X161034061Y-66925685D02*
X160962632Y-66997114D01*
X160962632Y-66997114D02*
X160891203Y-67139971D01*
X160891203Y-67139971D02*
X160891203Y-67497114D01*
X160891203Y-67497114D02*
X160962632Y-67639971D01*
X160962632Y-67639971D02*
X161034061Y-67711400D01*
X161034061Y-67711400D02*
X161176918Y-67782828D01*
X161176918Y-67782828D02*
X161605489Y-67782828D01*
X161605489Y-67782828D02*
X161748346Y-67711400D01*
X161748346Y-67711400D02*
X161819775Y-67639971D01*
X164605489Y-103088828D02*
X164605489Y-101588828D01*
X164605489Y-101588828D02*
X164248346Y-101588828D01*
X164248346Y-101588828D02*
X164034060Y-101660257D01*
X164034060Y-101660257D02*
X163891203Y-101803114D01*
X163891203Y-101803114D02*
X163819774Y-101945971D01*
X163819774Y-101945971D02*
X163748346Y-102231685D01*
X163748346Y-102231685D02*
X163748346Y-102445971D01*
X163748346Y-102445971D02*
X163819774Y-102731685D01*
X163819774Y-102731685D02*
X163891203Y-102874542D01*
X163891203Y-102874542D02*
X164034060Y-103017400D01*
X164034060Y-103017400D02*
X164248346Y-103088828D01*
X164248346Y-103088828D02*
X164605489Y-103088828D01*
X162462632Y-102088828D02*
X162462632Y-103088828D01*
X162819774Y-101517400D02*
X163176917Y-102588828D01*
X163176917Y-102588828D02*
X162248346Y-102588828D01*
X117128797Y-66997114D02*
X116628797Y-66997114D01*
X116414511Y-67782828D02*
X117128797Y-67782828D01*
X117128797Y-67782828D02*
X117128797Y-66282828D01*
X117128797Y-66282828D02*
X116414511Y-66282828D01*
X115771654Y-67782828D02*
X115771654Y-66282828D01*
X115771654Y-66282828D02*
X114914511Y-67782828D01*
X114914511Y-67782828D02*
X114914511Y-66282828D01*
X118557367Y-103088828D02*
X118557367Y-101588828D01*
X118557367Y-101588828D02*
X118200224Y-101588828D01*
X118200224Y-101588828D02*
X117985938Y-101660257D01*
X117985938Y-101660257D02*
X117843081Y-101803114D01*
X117843081Y-101803114D02*
X117771652Y-101945971D01*
X117771652Y-101945971D02*
X117700224Y-102231685D01*
X117700224Y-102231685D02*
X117700224Y-102445971D01*
X117700224Y-102445971D02*
X117771652Y-102731685D01*
X117771652Y-102731685D02*
X117843081Y-102874542D01*
X117843081Y-102874542D02*
X117985938Y-103017400D01*
X117985938Y-103017400D02*
X118200224Y-103088828D01*
X118200224Y-103088828D02*
X118557367Y-103088828D01*
X116271652Y-103088828D02*
X117128795Y-103088828D01*
X116700224Y-103088828D02*
X116700224Y-101588828D01*
X116700224Y-101588828D02*
X116843081Y-101803114D01*
X116843081Y-101803114D02*
X116985938Y-101945971D01*
X116985938Y-101945971D02*
X117128795Y-102017400D01*
X114985939Y-102088828D02*
X114985939Y-103088828D01*
X115343081Y-101517400D02*
X115700224Y-102588828D01*
X115700224Y-102588828D02*
X114771653Y-102588828D01*
X118557367Y-106644828D02*
X118557367Y-105144828D01*
X118557367Y-105144828D02*
X118200224Y-105144828D01*
X118200224Y-105144828D02*
X117985938Y-105216257D01*
X117985938Y-105216257D02*
X117843081Y-105359114D01*
X117843081Y-105359114D02*
X117771652Y-105501971D01*
X117771652Y-105501971D02*
X117700224Y-105787685D01*
X117700224Y-105787685D02*
X117700224Y-106001971D01*
X117700224Y-106001971D02*
X117771652Y-106287685D01*
X117771652Y-106287685D02*
X117843081Y-106430542D01*
X117843081Y-106430542D02*
X117985938Y-106573400D01*
X117985938Y-106573400D02*
X118200224Y-106644828D01*
X118200224Y-106644828D02*
X118557367Y-106644828D01*
X116271652Y-106644828D02*
X117128795Y-106644828D01*
X116700224Y-106644828D02*
X116700224Y-105144828D01*
X116700224Y-105144828D02*
X116843081Y-105359114D01*
X116843081Y-105359114D02*
X116985938Y-105501971D01*
X116985938Y-105501971D02*
X117128795Y-105573400D01*
X115700224Y-105287685D02*
X115628796Y-105216257D01*
X115628796Y-105216257D02*
X115485939Y-105144828D01*
X115485939Y-105144828D02*
X115128796Y-105144828D01*
X115128796Y-105144828D02*
X114985939Y-105216257D01*
X114985939Y-105216257D02*
X114914510Y-105287685D01*
X114914510Y-105287685D02*
X114843081Y-105430542D01*
X114843081Y-105430542D02*
X114843081Y-105573400D01*
X114843081Y-105573400D02*
X114914510Y-105787685D01*
X114914510Y-105787685D02*
X115771653Y-106644828D01*
X115771653Y-106644828D02*
X114843081Y-106644828D01*
X164605489Y-109946828D02*
X164605489Y-108446828D01*
X164605489Y-108446828D02*
X164248346Y-108446828D01*
X164248346Y-108446828D02*
X164034060Y-108518257D01*
X164034060Y-108518257D02*
X163891203Y-108661114D01*
X163891203Y-108661114D02*
X163819774Y-108803971D01*
X163819774Y-108803971D02*
X163748346Y-109089685D01*
X163748346Y-109089685D02*
X163748346Y-109303971D01*
X163748346Y-109303971D02*
X163819774Y-109589685D01*
X163819774Y-109589685D02*
X163891203Y-109732542D01*
X163891203Y-109732542D02*
X164034060Y-109875400D01*
X164034060Y-109875400D02*
X164248346Y-109946828D01*
X164248346Y-109946828D02*
X164605489Y-109946828D01*
X162319774Y-109946828D02*
X163176917Y-109946828D01*
X162748346Y-109946828D02*
X162748346Y-108446828D01*
X162748346Y-108446828D02*
X162891203Y-108661114D01*
X162891203Y-108661114D02*
X163034060Y-108803971D01*
X163034060Y-108803971D02*
X163176917Y-108875400D01*
X160962632Y-108446828D02*
X161676918Y-108446828D01*
X161676918Y-108446828D02*
X161748346Y-109161114D01*
X161748346Y-109161114D02*
X161676918Y-109089685D01*
X161676918Y-109089685D02*
X161534061Y-109018257D01*
X161534061Y-109018257D02*
X161176918Y-109018257D01*
X161176918Y-109018257D02*
X161034061Y-109089685D01*
X161034061Y-109089685D02*
X160962632Y-109161114D01*
X160962632Y-109161114D02*
X160891203Y-109303971D01*
X160891203Y-109303971D02*
X160891203Y-109661114D01*
X160891203Y-109661114D02*
X160962632Y-109803971D01*
X160962632Y-109803971D02*
X161034061Y-109875400D01*
X161034061Y-109875400D02*
X161176918Y-109946828D01*
X161176918Y-109946828D02*
X161534061Y-109946828D01*
X161534061Y-109946828D02*
X161676918Y-109875400D01*
X161676918Y-109875400D02*
X161748346Y-109803971D01*
X117985939Y-115558828D02*
X117485939Y-117058828D01*
X117485939Y-117058828D02*
X116985939Y-115558828D01*
X116485940Y-117058828D02*
X116485940Y-115558828D01*
X115771654Y-117058828D02*
X115771654Y-115558828D01*
X115771654Y-115558828D02*
X114914511Y-117058828D01*
X114914511Y-117058828D02*
X114914511Y-115558828D01*
X118557367Y-85562828D02*
X118557367Y-84062828D01*
X118557367Y-84062828D02*
X118200224Y-84062828D01*
X118200224Y-84062828D02*
X117985938Y-84134257D01*
X117985938Y-84134257D02*
X117843081Y-84277114D01*
X117843081Y-84277114D02*
X117771652Y-84419971D01*
X117771652Y-84419971D02*
X117700224Y-84705685D01*
X117700224Y-84705685D02*
X117700224Y-84919971D01*
X117700224Y-84919971D02*
X117771652Y-85205685D01*
X117771652Y-85205685D02*
X117843081Y-85348542D01*
X117843081Y-85348542D02*
X117985938Y-85491400D01*
X117985938Y-85491400D02*
X118200224Y-85562828D01*
X118200224Y-85562828D02*
X118557367Y-85562828D01*
X117200224Y-84062828D02*
X116271652Y-84062828D01*
X116271652Y-84062828D02*
X116771652Y-84634257D01*
X116771652Y-84634257D02*
X116557367Y-84634257D01*
X116557367Y-84634257D02*
X116414510Y-84705685D01*
X116414510Y-84705685D02*
X116343081Y-84777114D01*
X116343081Y-84777114D02*
X116271652Y-84919971D01*
X116271652Y-84919971D02*
X116271652Y-85277114D01*
X116271652Y-85277114D02*
X116343081Y-85419971D01*
X116343081Y-85419971D02*
X116414510Y-85491400D01*
X116414510Y-85491400D02*
X116557367Y-85562828D01*
X116557367Y-85562828D02*
X116985938Y-85562828D01*
X116985938Y-85562828D02*
X117128795Y-85491400D01*
X117128795Y-85491400D02*
X117200224Y-85419971D01*
X115700224Y-84205685D02*
X115628796Y-84134257D01*
X115628796Y-84134257D02*
X115485939Y-84062828D01*
X115485939Y-84062828D02*
X115128796Y-84062828D01*
X115128796Y-84062828D02*
X114985939Y-84134257D01*
X114985939Y-84134257D02*
X114914510Y-84205685D01*
X114914510Y-84205685D02*
X114843081Y-84348542D01*
X114843081Y-84348542D02*
X114843081Y-84491400D01*
X114843081Y-84491400D02*
X114914510Y-84705685D01*
X114914510Y-84705685D02*
X115771653Y-85562828D01*
X115771653Y-85562828D02*
X114843081Y-85562828D01*
X117985939Y-112074257D02*
X118128797Y-112002828D01*
X118128797Y-112002828D02*
X118343082Y-112002828D01*
X118343082Y-112002828D02*
X118557368Y-112074257D01*
X118557368Y-112074257D02*
X118700225Y-112217114D01*
X118700225Y-112217114D02*
X118771654Y-112359971D01*
X118771654Y-112359971D02*
X118843082Y-112645685D01*
X118843082Y-112645685D02*
X118843082Y-112859971D01*
X118843082Y-112859971D02*
X118771654Y-113145685D01*
X118771654Y-113145685D02*
X118700225Y-113288542D01*
X118700225Y-113288542D02*
X118557368Y-113431400D01*
X118557368Y-113431400D02*
X118343082Y-113502828D01*
X118343082Y-113502828D02*
X118200225Y-113502828D01*
X118200225Y-113502828D02*
X117985939Y-113431400D01*
X117985939Y-113431400D02*
X117914511Y-113359971D01*
X117914511Y-113359971D02*
X117914511Y-112859971D01*
X117914511Y-112859971D02*
X118200225Y-112859971D01*
X117271654Y-113502828D02*
X117271654Y-112002828D01*
X117271654Y-112002828D02*
X116414511Y-113502828D01*
X116414511Y-113502828D02*
X116414511Y-112002828D01*
X115700225Y-113502828D02*
X115700225Y-112002828D01*
X115700225Y-112002828D02*
X115343082Y-112002828D01*
X115343082Y-112002828D02*
X115128796Y-112074257D01*
X115128796Y-112074257D02*
X114985939Y-112217114D01*
X114985939Y-112217114D02*
X114914510Y-112359971D01*
X114914510Y-112359971D02*
X114843082Y-112645685D01*
X114843082Y-112645685D02*
X114843082Y-112859971D01*
X114843082Y-112859971D02*
X114914510Y-113145685D01*
X114914510Y-113145685D02*
X114985939Y-113288542D01*
X114985939Y-113288542D02*
X115128796Y-113431400D01*
X115128796Y-113431400D02*
X115343082Y-113502828D01*
X115343082Y-113502828D02*
X115700225Y-113502828D01*
X164819774Y-94476828D02*
X163962632Y-94476828D01*
X164391203Y-95976828D02*
X164391203Y-94476828D01*
X163605489Y-94476828D02*
X162605489Y-95976828D01*
X162605489Y-94476828D02*
X163605489Y-95976828D01*
X162105489Y-94619685D02*
X162034061Y-94548257D01*
X162034061Y-94548257D02*
X161891204Y-94476828D01*
X161891204Y-94476828D02*
X161534061Y-94476828D01*
X161534061Y-94476828D02*
X161391204Y-94548257D01*
X161391204Y-94548257D02*
X161319775Y-94619685D01*
X161319775Y-94619685D02*
X161248346Y-94762542D01*
X161248346Y-94762542D02*
X161248346Y-94905400D01*
X161248346Y-94905400D02*
X161319775Y-95119685D01*
X161319775Y-95119685D02*
X162176918Y-95976828D01*
X162176918Y-95976828D02*
X161248346Y-95976828D01*
X163748346Y-78450828D02*
X164248346Y-77736542D01*
X164605489Y-78450828D02*
X164605489Y-76950828D01*
X164605489Y-76950828D02*
X164034060Y-76950828D01*
X164034060Y-76950828D02*
X163891203Y-77022257D01*
X163891203Y-77022257D02*
X163819774Y-77093685D01*
X163819774Y-77093685D02*
X163748346Y-77236542D01*
X163748346Y-77236542D02*
X163748346Y-77450828D01*
X163748346Y-77450828D02*
X163819774Y-77593685D01*
X163819774Y-77593685D02*
X163891203Y-77665114D01*
X163891203Y-77665114D02*
X164034060Y-77736542D01*
X164034060Y-77736542D02*
X164605489Y-77736542D01*
X163248346Y-76950828D02*
X162248346Y-78450828D01*
X162248346Y-76950828D02*
X163248346Y-78450828D01*
X161391203Y-76950828D02*
X161248346Y-76950828D01*
X161248346Y-76950828D02*
X161105489Y-77022257D01*
X161105489Y-77022257D02*
X161034061Y-77093685D01*
X161034061Y-77093685D02*
X160962632Y-77236542D01*
X160962632Y-77236542D02*
X160891203Y-77522257D01*
X160891203Y-77522257D02*
X160891203Y-77879400D01*
X160891203Y-77879400D02*
X160962632Y-78165114D01*
X160962632Y-78165114D02*
X161034061Y-78307971D01*
X161034061Y-78307971D02*
X161105489Y-78379400D01*
X161105489Y-78379400D02*
X161248346Y-78450828D01*
X161248346Y-78450828D02*
X161391203Y-78450828D01*
X161391203Y-78450828D02*
X161534061Y-78379400D01*
X161534061Y-78379400D02*
X161605489Y-78307971D01*
X161605489Y-78307971D02*
X161676918Y-78165114D01*
X161676918Y-78165114D02*
X161748346Y-77879400D01*
X161748346Y-77879400D02*
X161748346Y-77522257D01*
X161748346Y-77522257D02*
X161676918Y-77236542D01*
X161676918Y-77236542D02*
X161605489Y-77093685D01*
X161605489Y-77093685D02*
X161534061Y-77022257D01*
X161534061Y-77022257D02*
X161391203Y-76950828D01*
X118557367Y-99532828D02*
X118557367Y-98032828D01*
X118557367Y-98032828D02*
X118200224Y-98032828D01*
X118200224Y-98032828D02*
X117985938Y-98104257D01*
X117985938Y-98104257D02*
X117843081Y-98247114D01*
X117843081Y-98247114D02*
X117771652Y-98389971D01*
X117771652Y-98389971D02*
X117700224Y-98675685D01*
X117700224Y-98675685D02*
X117700224Y-98889971D01*
X117700224Y-98889971D02*
X117771652Y-99175685D01*
X117771652Y-99175685D02*
X117843081Y-99318542D01*
X117843081Y-99318542D02*
X117985938Y-99461400D01*
X117985938Y-99461400D02*
X118200224Y-99532828D01*
X118200224Y-99532828D02*
X118557367Y-99532828D01*
X117128795Y-98175685D02*
X117057367Y-98104257D01*
X117057367Y-98104257D02*
X116914510Y-98032828D01*
X116914510Y-98032828D02*
X116557367Y-98032828D01*
X116557367Y-98032828D02*
X116414510Y-98104257D01*
X116414510Y-98104257D02*
X116343081Y-98175685D01*
X116343081Y-98175685D02*
X116271652Y-98318542D01*
X116271652Y-98318542D02*
X116271652Y-98461400D01*
X116271652Y-98461400D02*
X116343081Y-98675685D01*
X116343081Y-98675685D02*
X117200224Y-99532828D01*
X117200224Y-99532828D02*
X116271652Y-99532828D01*
X115771653Y-98032828D02*
X114771653Y-98032828D01*
X114771653Y-98032828D02*
X115414510Y-99532828D01*
X117200224Y-70092828D02*
X116700224Y-71592828D01*
X116700224Y-71592828D02*
X116200224Y-70092828D01*
X115700225Y-71592828D02*
X115700225Y-70092828D01*
X115700225Y-70092828D02*
X115128796Y-70092828D01*
X115128796Y-70092828D02*
X114985939Y-70164257D01*
X114985939Y-70164257D02*
X114914510Y-70235685D01*
X114914510Y-70235685D02*
X114843082Y-70378542D01*
X114843082Y-70378542D02*
X114843082Y-70592828D01*
X114843082Y-70592828D02*
X114914510Y-70735685D01*
X114914510Y-70735685D02*
X114985939Y-70807114D01*
X114985939Y-70807114D02*
X115128796Y-70878542D01*
X115128796Y-70878542D02*
X115700225Y-70878542D01*
X164605489Y-92674828D02*
X164605489Y-91174828D01*
X164605489Y-91174828D02*
X164248346Y-91174828D01*
X164248346Y-91174828D02*
X164034060Y-91246257D01*
X164034060Y-91246257D02*
X163891203Y-91389114D01*
X163891203Y-91389114D02*
X163819774Y-91531971D01*
X163819774Y-91531971D02*
X163748346Y-91817685D01*
X163748346Y-91817685D02*
X163748346Y-92031971D01*
X163748346Y-92031971D02*
X163819774Y-92317685D01*
X163819774Y-92317685D02*
X163891203Y-92460542D01*
X163891203Y-92460542D02*
X164034060Y-92603400D01*
X164034060Y-92603400D02*
X164248346Y-92674828D01*
X164248346Y-92674828D02*
X164605489Y-92674828D01*
X162391203Y-91174828D02*
X163105489Y-91174828D01*
X163105489Y-91174828D02*
X163176917Y-91889114D01*
X163176917Y-91889114D02*
X163105489Y-91817685D01*
X163105489Y-91817685D02*
X162962632Y-91746257D01*
X162962632Y-91746257D02*
X162605489Y-91746257D01*
X162605489Y-91746257D02*
X162462632Y-91817685D01*
X162462632Y-91817685D02*
X162391203Y-91889114D01*
X162391203Y-91889114D02*
X162319774Y-92031971D01*
X162319774Y-92031971D02*
X162319774Y-92389114D01*
X162319774Y-92389114D02*
X162391203Y-92531971D01*
X162391203Y-92531971D02*
X162462632Y-92603400D01*
X162462632Y-92603400D02*
X162605489Y-92674828D01*
X162605489Y-92674828D02*
X162962632Y-92674828D01*
X162962632Y-92674828D02*
X163105489Y-92603400D01*
X163105489Y-92603400D02*
X163176917Y-92531971D01*
M02*
