%TF.GenerationSoftware,KiCad,Pcbnew,7.0.10-7.0.10~ubuntu22.04.1*%
%TF.CreationDate,2024-02-12T01:26:08+01:00*%
%TF.ProjectId,screw_terminal_breakout_board_esp32,73637265-775f-4746-9572-6d696e616c5f,rev?*%
%TF.SameCoordinates,Original*%
%TF.FileFunction,Copper,L2,Bot*%
%TF.FilePolarity,Positive*%
%FSLAX46Y46*%
G04 Gerber Fmt 4.6, Leading zero omitted, Abs format (unit mm)*
G04 Created by KiCad (PCBNEW 7.0.10-7.0.10~ubuntu22.04.1) date 2024-02-12 01:26:08*
%MOMM*%
%LPD*%
G01*
G04 APERTURE LIST*
%TA.AperFunction,ComponentPad*%
%ADD10C,0.800000*%
%TD*%
%TA.AperFunction,ComponentPad*%
%ADD11C,6.400000*%
%TD*%
%TA.AperFunction,ComponentPad*%
%ADD12R,1.524000X1.524000*%
%TD*%
%TA.AperFunction,ComponentPad*%
%ADD13C,1.524000*%
%TD*%
%TA.AperFunction,ComponentPad*%
%ADD14C,2.400000*%
%TD*%
%TA.AperFunction,ComponentPad*%
%ADD15R,2.400000X2.400000*%
%TD*%
%TA.AperFunction,ComponentPad*%
%ADD16R,1.700000X1.700000*%
%TD*%
%TA.AperFunction,ComponentPad*%
%ADD17O,1.700000X1.700000*%
%TD*%
%TA.AperFunction,ViaPad*%
%ADD18C,0.800000*%
%TD*%
G04 APERTURE END LIST*
D10*
%TO.P,H4,1*%
%TO.N,N/C*%
X110080000Y-57680000D03*
X111777056Y-61777056D03*
X111777056Y-58382944D03*
X112480000Y-60080000D03*
D11*
X110080000Y-60080000D03*
D10*
X110080000Y-62480000D03*
X108382944Y-58382944D03*
X108382944Y-61777056D03*
X107680000Y-60080000D03*
%TD*%
%TO.P,H3,1*%
%TO.N,N/C*%
X168680000Y-57680000D03*
X170377056Y-61777056D03*
X170377056Y-58382944D03*
X171080000Y-60080000D03*
D11*
X168680000Y-60080000D03*
D10*
X168680000Y-62480000D03*
X166982944Y-58382944D03*
X166982944Y-61777056D03*
X166280000Y-60080000D03*
%TD*%
%TO.P,H2,1*%
%TO.N,N/C*%
X110382944Y-121982944D03*
X112080000Y-126080000D03*
X112080000Y-122685888D03*
X112782944Y-124382944D03*
D11*
X110382944Y-124382944D03*
D10*
X110382944Y-126782944D03*
X108685888Y-122685888D03*
X108685888Y-126080000D03*
X107982944Y-124382944D03*
%TD*%
%TO.P,H1,1*%
%TO.N,N/C*%
X169680000Y-121680000D03*
X171377056Y-125777056D03*
X171377056Y-122382944D03*
X172080000Y-124080000D03*
D11*
X169680000Y-124080000D03*
D10*
X169680000Y-126480000D03*
X167982944Y-122382944D03*
X167982944Y-125777056D03*
X167280000Y-124080000D03*
%TD*%
D12*
%TO.P,U1,1,EN*%
%TO.N,EN*%
X127060000Y-67220000D03*
D13*
%TO.P,U1,2,SENSOR_VP*%
%TO.N,VP*%
X127060000Y-69760000D03*
%TO.P,U1,3,SENSOR_VN*%
%TO.N,VN*%
X127060000Y-72300000D03*
%TO.P,U1,4,IO34*%
%TO.N,D34*%
X127060000Y-74840000D03*
%TO.P,U1,5,IO35*%
%TO.N,D35*%
X127060000Y-77380000D03*
%TO.P,U1,6,IO32*%
%TO.N,D32*%
X127060000Y-79920000D03*
%TO.P,U1,7,IO33*%
%TO.N,D33*%
X127060000Y-82460000D03*
%TO.P,U1,8,IO25*%
%TO.N,D25*%
X127060000Y-85000000D03*
%TO.P,U1,9,IO26*%
%TO.N,D26*%
X127060000Y-87540000D03*
%TO.P,U1,10,IO27*%
%TO.N,D27*%
X127060000Y-90080000D03*
%TO.P,U1,11,IO14*%
%TO.N,D14*%
X127060000Y-92620000D03*
%TO.P,U1,12,IO12*%
%TO.N,D12*%
X127060000Y-95160000D03*
%TO.P,U1,13,IO13*%
%TO.N,D13*%
X127060000Y-97700000D03*
%TO.P,U1,14,GND*%
%TO.N,GND*%
X127060000Y-100240000D03*
%TO.P,U1,15,VIN*%
%TO.N,VIN*%
X127060000Y-102780000D03*
%TO.P,U1,16,3V3*%
%TO.N,3V3*%
X152460000Y-102780000D03*
%TO.P,U1,17,GND*%
%TO.N,GND*%
X152460000Y-100240000D03*
%TO.P,U1,18,IO15*%
%TO.N,D15*%
X152460000Y-97700000D03*
%TO.P,U1,19,IO2*%
%TO.N,D2*%
X152460000Y-95160000D03*
%TO.P,U1,20,IO4*%
%TO.N,D4*%
X152460000Y-92620000D03*
%TO.P,U1,21,IO16*%
%TO.N,RX2*%
X152460000Y-90080000D03*
%TO.P,U1,22,IO17*%
%TO.N,TX2*%
X152460000Y-87540000D03*
%TO.P,U1,23,IO5*%
%TO.N,D5*%
X152460000Y-85000000D03*
%TO.P,U1,24,IO18*%
%TO.N,D18*%
X152460000Y-82460000D03*
%TO.P,U1,25,IO19*%
%TO.N,D19*%
X152460000Y-79920000D03*
%TO.P,U1,26,IO21*%
%TO.N,D21*%
X152460000Y-77380000D03*
%TO.P,U1,27,RXD0/IO3*%
%TO.N,RX0*%
X152460000Y-74840000D03*
%TO.P,U1,28,TXD0/IO1*%
%TO.N,TX0*%
X152460000Y-72300000D03*
%TO.P,U1,29,IO22*%
%TO.N,D22*%
X152460000Y-69760000D03*
%TO.P,U1,30,IO23*%
%TO.N,D23*%
X152460000Y-67220000D03*
%TD*%
D14*
%TO.P,J1,15,Pin_15*%
%TO.N,VIN*%
X110550000Y-116220000D03*
%TO.P,J1,14,Pin_14*%
%TO.N,GND*%
X110550000Y-112720000D03*
%TO.P,J1,13,Pin_13*%
%TO.N,D13*%
X110550000Y-109220000D03*
%TO.P,J1,12,Pin_12*%
%TO.N,D12*%
X110550000Y-105720000D03*
%TO.P,J1,11,Pin_11*%
%TO.N,D14*%
X110550000Y-102220000D03*
%TO.P,J1,10,Pin_10*%
%TO.N,D27*%
X110550000Y-98720000D03*
%TO.P,J1,9,Pin_9*%
%TO.N,D26*%
X110550000Y-95220000D03*
%TO.P,J1,8,Pin_8*%
%TO.N,D25*%
X110550000Y-91720000D03*
%TO.P,J1,7,Pin_7*%
%TO.N,D33*%
X110550000Y-88220000D03*
%TO.P,J1,6,Pin_6*%
%TO.N,D32*%
X110550000Y-84720000D03*
%TO.P,J1,5,Pin_5*%
%TO.N,D35*%
X110550000Y-81220000D03*
%TO.P,J1,4,Pin_4*%
%TO.N,D34*%
X110550000Y-77720000D03*
%TO.P,J1,3,Pin_3*%
%TO.N,VN*%
X110550000Y-74220000D03*
%TO.P,J1,2,Pin_2*%
%TO.N,VP*%
X110550000Y-70720000D03*
D15*
%TO.P,J1,1,Pin_1*%
%TO.N,EN*%
X110550000Y-67220000D03*
%TD*%
%TO.P,J2,1,Pin_1*%
%TO.N,D23*%
X169478000Y-67982000D03*
D14*
%TO.P,J2,2,Pin_2*%
%TO.N,D22*%
X169478000Y-71482000D03*
%TO.P,J2,3,Pin_3*%
%TO.N,TX0*%
X169478000Y-74982000D03*
%TO.P,J2,4,Pin_4*%
%TO.N,RX0*%
X169478000Y-78482000D03*
%TO.P,J2,5,Pin_5*%
%TO.N,D21*%
X169478000Y-81982000D03*
%TO.P,J2,6,Pin_6*%
%TO.N,D19*%
X169478000Y-85482000D03*
%TO.P,J2,7,Pin_7*%
%TO.N,D18*%
X169478000Y-88982000D03*
%TO.P,J2,8,Pin_8*%
%TO.N,D5*%
X169478000Y-92482000D03*
%TO.P,J2,9,Pin_9*%
%TO.N,TX2*%
X169478000Y-95982000D03*
%TO.P,J2,10,Pin_10*%
%TO.N,RX2*%
X169478000Y-99482000D03*
%TO.P,J2,11,Pin_11*%
%TO.N,D4*%
X169478000Y-102982000D03*
%TO.P,J2,12,Pin_12*%
%TO.N,D2*%
X169478000Y-106482000D03*
%TO.P,J2,13,Pin_13*%
%TO.N,D15*%
X169478000Y-109982000D03*
%TO.P,J2,14,Pin_14*%
%TO.N,GND*%
X169478000Y-113482000D03*
%TO.P,J2,15,Pin_15*%
%TO.N,3V3*%
X169478000Y-116982000D03*
%TD*%
D16*
%TO.P,J4,1,Pin_1*%
%TO.N,D23*%
X157540000Y-67220000D03*
D17*
%TO.P,J4,2,Pin_2*%
%TO.N,D22*%
X157540000Y-69760000D03*
%TO.P,J4,3,Pin_3*%
%TO.N,TX0*%
X157540000Y-72300000D03*
%TO.P,J4,4,Pin_4*%
%TO.N,RX0*%
X157540000Y-74840000D03*
%TO.P,J4,5,Pin_5*%
%TO.N,D21*%
X157540000Y-77380000D03*
%TO.P,J4,6,Pin_6*%
%TO.N,D19*%
X157540000Y-79920000D03*
%TO.P,J4,7,Pin_7*%
%TO.N,D18*%
X157540000Y-82460000D03*
%TO.P,J4,8,Pin_8*%
%TO.N,D5*%
X157540000Y-85000000D03*
%TO.P,J4,9,Pin_9*%
%TO.N,TX2*%
X157540000Y-87540000D03*
%TO.P,J4,10,Pin_10*%
%TO.N,RX2*%
X157540000Y-90080000D03*
%TO.P,J4,11,Pin_11*%
%TO.N,D4*%
X157540000Y-92620000D03*
%TO.P,J4,12,Pin_12*%
%TO.N,D2*%
X157540000Y-95160000D03*
%TO.P,J4,13,Pin_13*%
%TO.N,D15*%
X157540000Y-97700000D03*
%TO.P,J4,14,Pin_14*%
%TO.N,GND*%
X157540000Y-100240000D03*
%TO.P,J4,15,Pin_15*%
%TO.N,3V3*%
X157540000Y-102780000D03*
%TD*%
D16*
%TO.P,J3,1,Pin_1*%
%TO.N,EN*%
X121980000Y-67220000D03*
D17*
%TO.P,J3,2,Pin_2*%
%TO.N,VP*%
X121980000Y-69760000D03*
%TO.P,J3,3,Pin_3*%
%TO.N,VN*%
X121980000Y-72300000D03*
%TO.P,J3,4,Pin_4*%
%TO.N,D34*%
X121980000Y-74840000D03*
%TO.P,J3,5,Pin_5*%
%TO.N,D35*%
X121980000Y-77380000D03*
%TO.P,J3,6,Pin_6*%
%TO.N,D32*%
X121980000Y-79920000D03*
%TO.P,J3,7,Pin_7*%
%TO.N,D33*%
X121980000Y-82460000D03*
%TO.P,J3,8,Pin_8*%
%TO.N,D25*%
X121980000Y-85000000D03*
%TO.P,J3,9,Pin_9*%
%TO.N,D26*%
X121980000Y-87540000D03*
%TO.P,J3,10,Pin_10*%
%TO.N,D27*%
X121980000Y-90080000D03*
%TO.P,J3,11,Pin_11*%
%TO.N,D14*%
X121980000Y-92620000D03*
%TO.P,J3,12,Pin_12*%
%TO.N,D12*%
X121980000Y-95160000D03*
%TO.P,J3,13,Pin_13*%
%TO.N,D13*%
X121980000Y-97700000D03*
%TO.P,J3,14,Pin_14*%
%TO.N,GND*%
X121980000Y-100240000D03*
%TO.P,J3,15,Pin_15*%
%TO.N,VIN*%
X121980000Y-102780000D03*
%TD*%
D18*
%TO.N,VP*%
X112080000Y-70080000D03*
%TD*%
%TA.AperFunction,Conductor*%
%TO.N,GND*%
G36*
X177022539Y-50100185D02*
G01*
X177068294Y-50152989D01*
X177079500Y-50204500D01*
X177079500Y-130955500D01*
X177059815Y-131022539D01*
X177007011Y-131068294D01*
X176955500Y-131079500D01*
X102204500Y-131079500D01*
X102137461Y-131059815D01*
X102091706Y-131007011D01*
X102080500Y-130955500D01*
X102080500Y-124382944D01*
X106677366Y-124382944D01*
X106697666Y-124770283D01*
X106758341Y-125153371D01*
X106758342Y-125153377D01*
X106777558Y-125225094D01*
X106858732Y-125528038D01*
X106997731Y-125890141D01*
X107173821Y-126235737D01*
X107385066Y-126561026D01*
X107385068Y-126561028D01*
X107629163Y-126862460D01*
X107903428Y-127136725D01*
X107903432Y-127136728D01*
X108204861Y-127380821D01*
X108334812Y-127465212D01*
X108530155Y-127592069D01*
X108875750Y-127768158D01*
X109237857Y-127907158D01*
X109612511Y-128007546D01*
X109995606Y-128068222D01*
X110361520Y-128087399D01*
X110382943Y-128088522D01*
X110382944Y-128088522D01*
X110382945Y-128088522D01*
X110403245Y-128087458D01*
X110770282Y-128068222D01*
X111153377Y-128007546D01*
X111528031Y-127907158D01*
X111890138Y-127768158D01*
X112235733Y-127592069D01*
X112561028Y-127380820D01*
X112862460Y-127136725D01*
X113136725Y-126862460D01*
X113380820Y-126561028D01*
X113592069Y-126235733D01*
X113768158Y-125890138D01*
X113907158Y-125528031D01*
X114007546Y-125153377D01*
X114068222Y-124770282D01*
X114088522Y-124382944D01*
X114072645Y-124080000D01*
X165974422Y-124080000D01*
X165994722Y-124467339D01*
X166055397Y-124850427D01*
X166055398Y-124850433D01*
X166136571Y-125153377D01*
X166155788Y-125225094D01*
X166294787Y-125587197D01*
X166470877Y-125932793D01*
X166682122Y-126258082D01*
X166682124Y-126258084D01*
X166926219Y-126559516D01*
X167200484Y-126833781D01*
X167368375Y-126969737D01*
X167501917Y-127077877D01*
X167592540Y-127136728D01*
X167827211Y-127289125D01*
X168172806Y-127465214D01*
X168534913Y-127604214D01*
X168909567Y-127704602D01*
X169292662Y-127765278D01*
X169658576Y-127784455D01*
X169679999Y-127785578D01*
X169680000Y-127785578D01*
X169680001Y-127785578D01*
X169700301Y-127784514D01*
X170067338Y-127765278D01*
X170450433Y-127704602D01*
X170825087Y-127604214D01*
X171187194Y-127465214D01*
X171532789Y-127289125D01*
X171858084Y-127077876D01*
X172159516Y-126833781D01*
X172433781Y-126559516D01*
X172677876Y-126258084D01*
X172889125Y-125932789D01*
X173065214Y-125587194D01*
X173204214Y-125225087D01*
X173304602Y-124850433D01*
X173365278Y-124467338D01*
X173385578Y-124080000D01*
X173365278Y-123692662D01*
X173304602Y-123309567D01*
X173204214Y-122934913D01*
X173065214Y-122572806D01*
X172889125Y-122227211D01*
X172678858Y-121903428D01*
X172677877Y-121901917D01*
X172457005Y-121629163D01*
X172433781Y-121600484D01*
X172159516Y-121326219D01*
X172125164Y-121298401D01*
X171858082Y-121082122D01*
X171532793Y-120870877D01*
X171187197Y-120694787D01*
X170825094Y-120555788D01*
X170825087Y-120555786D01*
X170450433Y-120455398D01*
X170450429Y-120455397D01*
X170450428Y-120455397D01*
X170067339Y-120394722D01*
X169680001Y-120374422D01*
X169679999Y-120374422D01*
X169292660Y-120394722D01*
X168909572Y-120455397D01*
X168909570Y-120455397D01*
X168534905Y-120555788D01*
X168172802Y-120694787D01*
X167827206Y-120870877D01*
X167501917Y-121082122D01*
X167200488Y-121326215D01*
X167200480Y-121326222D01*
X166926222Y-121600480D01*
X166926215Y-121600488D01*
X166682122Y-121901917D01*
X166470877Y-122227206D01*
X166294787Y-122572802D01*
X166155788Y-122934905D01*
X166055397Y-123309570D01*
X166055397Y-123309572D01*
X165994722Y-123692660D01*
X165974422Y-124079999D01*
X165974422Y-124080000D01*
X114072645Y-124080000D01*
X114068222Y-123995606D01*
X114007546Y-123612511D01*
X113907158Y-123237857D01*
X113768158Y-122875750D01*
X113592069Y-122530155D01*
X113380820Y-122204860D01*
X113136725Y-121903428D01*
X112862460Y-121629163D01*
X112561028Y-121385068D01*
X112561026Y-121385066D01*
X112235737Y-121173821D01*
X111890141Y-120997731D01*
X111528038Y-120858732D01*
X111528031Y-120858730D01*
X111153377Y-120758342D01*
X111153373Y-120758341D01*
X111153372Y-120758341D01*
X110770283Y-120697666D01*
X110382945Y-120677366D01*
X110382943Y-120677366D01*
X109995604Y-120697666D01*
X109612516Y-120758341D01*
X109612514Y-120758341D01*
X109237849Y-120858732D01*
X108875746Y-120997731D01*
X108530150Y-121173821D01*
X108204861Y-121385066D01*
X107903432Y-121629159D01*
X107903424Y-121629166D01*
X107629166Y-121903424D01*
X107629159Y-121903432D01*
X107385066Y-122204861D01*
X107173821Y-122530150D01*
X106997731Y-122875746D01*
X106858732Y-123237849D01*
X106758341Y-123612514D01*
X106758341Y-123612516D01*
X106697666Y-123995604D01*
X106677366Y-124382943D01*
X106677366Y-124382944D01*
X102080500Y-124382944D01*
X102080500Y-116220004D01*
X108844732Y-116220004D01*
X108863777Y-116474154D01*
X108920490Y-116722630D01*
X108920492Y-116722637D01*
X109013608Y-116959890D01*
X109040536Y-117006531D01*
X109141041Y-117180612D01*
X109299950Y-117379877D01*
X109486783Y-117553232D01*
X109697366Y-117696805D01*
X109697371Y-117696807D01*
X109697372Y-117696808D01*
X109697373Y-117696809D01*
X109819328Y-117755538D01*
X109926992Y-117807387D01*
X109926993Y-117807387D01*
X109926996Y-117807389D01*
X110170542Y-117882513D01*
X110422565Y-117920500D01*
X110677435Y-117920500D01*
X110929458Y-117882513D01*
X111173004Y-117807389D01*
X111402634Y-117696805D01*
X111613217Y-117553232D01*
X111800050Y-117379877D01*
X111958959Y-117180612D01*
X112073624Y-116982004D01*
X167772732Y-116982004D01*
X167791777Y-117236154D01*
X167791778Y-117236157D01*
X167848492Y-117484637D01*
X167941607Y-117721888D01*
X168069041Y-117942612D01*
X168227950Y-118141877D01*
X168414783Y-118315232D01*
X168625366Y-118458805D01*
X168625371Y-118458807D01*
X168625372Y-118458808D01*
X168625373Y-118458809D01*
X168747328Y-118517538D01*
X168854992Y-118569387D01*
X168854993Y-118569387D01*
X168854996Y-118569389D01*
X169098542Y-118644513D01*
X169350565Y-118682500D01*
X169605435Y-118682500D01*
X169857458Y-118644513D01*
X170101004Y-118569389D01*
X170330634Y-118458805D01*
X170541217Y-118315232D01*
X170728050Y-118141877D01*
X170886959Y-117942612D01*
X171014393Y-117721888D01*
X171107508Y-117484637D01*
X171164222Y-117236157D01*
X171183268Y-116982000D01*
X171164222Y-116727843D01*
X171107508Y-116479363D01*
X171014393Y-116242112D01*
X170886959Y-116021388D01*
X170728050Y-115822123D01*
X170541217Y-115648768D01*
X170330634Y-115505195D01*
X170330630Y-115505193D01*
X170330627Y-115505191D01*
X170330626Y-115505190D01*
X170101009Y-115394613D01*
X170101006Y-115394612D01*
X170101004Y-115394611D01*
X170011241Y-115366922D01*
X169957122Y-115350229D01*
X169898864Y-115311658D01*
X169870706Y-115247713D01*
X169881590Y-115178697D01*
X169928059Y-115126520D01*
X169957124Y-115113247D01*
X170100822Y-115068922D01*
X170100823Y-115068921D01*
X170330376Y-114958376D01*
X170330377Y-114958375D01*
X170491185Y-114848738D01*
X169687220Y-114044772D01*
X169780588Y-114006099D01*
X169905925Y-113909925D01*
X170002099Y-113784589D01*
X170040773Y-113691220D01*
X170844545Y-114494992D01*
X170844546Y-114494991D01*
X170886544Y-114442330D01*
X171013941Y-114221671D01*
X171107026Y-113984494D01*
X171107031Y-113984477D01*
X171163726Y-113736079D01*
X171182767Y-113482004D01*
X171182767Y-113481995D01*
X171163726Y-113227920D01*
X171107031Y-112979522D01*
X171107026Y-112979505D01*
X171013941Y-112742328D01*
X171013942Y-112742328D01*
X170886545Y-112521672D01*
X170844545Y-112469006D01*
X170040772Y-113272779D01*
X170002099Y-113179412D01*
X169905925Y-113054075D01*
X169780588Y-112957901D01*
X169687219Y-112919226D01*
X170491185Y-112115260D01*
X170330384Y-112005628D01*
X170330376Y-112005623D01*
X170100823Y-111895078D01*
X170100825Y-111895078D01*
X169957123Y-111850752D01*
X169898864Y-111812181D01*
X169870706Y-111748237D01*
X169881590Y-111679220D01*
X169928059Y-111627043D01*
X169957120Y-111613771D01*
X170101004Y-111569389D01*
X170330634Y-111458805D01*
X170541217Y-111315232D01*
X170728050Y-111141877D01*
X170886959Y-110942612D01*
X171014393Y-110721888D01*
X171107508Y-110484637D01*
X171164222Y-110236157D01*
X171183268Y-109982000D01*
X171164222Y-109727843D01*
X171107508Y-109479363D01*
X171014393Y-109242112D01*
X170886959Y-109021388D01*
X170728050Y-108822123D01*
X170541217Y-108648768D01*
X170330634Y-108505195D01*
X170330630Y-108505193D01*
X170330627Y-108505191D01*
X170330626Y-108505190D01*
X170101006Y-108394612D01*
X170101008Y-108394612D01*
X169957970Y-108350491D01*
X169899711Y-108311921D01*
X169871553Y-108247976D01*
X169882437Y-108178959D01*
X169928906Y-108126782D01*
X169957970Y-108113509D01*
X170101004Y-108069389D01*
X170330634Y-107958805D01*
X170541217Y-107815232D01*
X170728050Y-107641877D01*
X170886959Y-107442612D01*
X171014393Y-107221888D01*
X171107508Y-106984637D01*
X171164222Y-106736157D01*
X171183268Y-106482000D01*
X171164222Y-106227843D01*
X171107508Y-105979363D01*
X171014393Y-105742112D01*
X170886959Y-105521388D01*
X170728050Y-105322123D01*
X170541217Y-105148768D01*
X170330634Y-105005195D01*
X170330630Y-105005193D01*
X170330627Y-105005191D01*
X170330626Y-105005190D01*
X170101006Y-104894612D01*
X170101008Y-104894612D01*
X169957970Y-104850491D01*
X169899711Y-104811921D01*
X169871553Y-104747976D01*
X169882437Y-104678959D01*
X169928906Y-104626782D01*
X169957970Y-104613509D01*
X170101004Y-104569389D01*
X170330634Y-104458805D01*
X170541217Y-104315232D01*
X170728050Y-104141877D01*
X170886959Y-103942612D01*
X171014393Y-103721888D01*
X171107508Y-103484637D01*
X171164222Y-103236157D01*
X171180764Y-103015413D01*
X171183268Y-102982004D01*
X171183268Y-102981995D01*
X171168131Y-102780002D01*
X171164222Y-102727843D01*
X171107508Y-102479363D01*
X171014393Y-102242112D01*
X170886959Y-102021388D01*
X170728050Y-101822123D01*
X170541217Y-101648768D01*
X170330634Y-101505195D01*
X170330630Y-101505193D01*
X170330627Y-101505191D01*
X170330626Y-101505190D01*
X170101006Y-101394612D01*
X170101008Y-101394612D01*
X169957970Y-101350491D01*
X169899711Y-101311921D01*
X169871553Y-101247976D01*
X169882437Y-101178959D01*
X169928906Y-101126782D01*
X169957970Y-101113509D01*
X170101004Y-101069389D01*
X170330634Y-100958805D01*
X170541217Y-100815232D01*
X170728050Y-100641877D01*
X170886959Y-100442612D01*
X171014393Y-100221888D01*
X171107508Y-99984637D01*
X171164222Y-99736157D01*
X171172384Y-99627232D01*
X171183268Y-99482004D01*
X171183268Y-99481995D01*
X171164222Y-99227845D01*
X171163033Y-99222637D01*
X171107508Y-98979363D01*
X171014393Y-98742112D01*
X170886959Y-98521388D01*
X170728050Y-98322123D01*
X170541217Y-98148768D01*
X170330634Y-98005195D01*
X170330630Y-98005193D01*
X170330627Y-98005191D01*
X170330626Y-98005190D01*
X170101006Y-97894612D01*
X170101008Y-97894612D01*
X169957970Y-97850491D01*
X169899711Y-97811921D01*
X169871553Y-97747976D01*
X169882437Y-97678959D01*
X169928906Y-97626782D01*
X169957970Y-97613509D01*
X170101004Y-97569389D01*
X170330634Y-97458805D01*
X170541217Y-97315232D01*
X170728050Y-97141877D01*
X170886959Y-96942612D01*
X171014393Y-96721888D01*
X171107508Y-96484637D01*
X171164222Y-96236157D01*
X171179566Y-96031401D01*
X171183268Y-95982004D01*
X171183268Y-95981995D01*
X171164222Y-95727845D01*
X171163033Y-95722637D01*
X171107508Y-95479363D01*
X171014393Y-95242112D01*
X170886959Y-95021388D01*
X170728050Y-94822123D01*
X170541217Y-94648768D01*
X170330634Y-94505195D01*
X170330630Y-94505193D01*
X170330627Y-94505191D01*
X170330626Y-94505190D01*
X170101006Y-94394612D01*
X170101008Y-94394612D01*
X169957970Y-94350491D01*
X169899711Y-94311921D01*
X169871553Y-94247976D01*
X169882437Y-94178959D01*
X169928906Y-94126782D01*
X169957970Y-94113509D01*
X170101004Y-94069389D01*
X170330634Y-93958805D01*
X170541217Y-93815232D01*
X170728050Y-93641877D01*
X170886959Y-93442612D01*
X171014393Y-93221888D01*
X171107508Y-92984637D01*
X171164222Y-92736157D01*
X171183268Y-92482000D01*
X171177118Y-92399937D01*
X171164222Y-92227845D01*
X171163033Y-92222637D01*
X171107508Y-91979363D01*
X171014393Y-91742112D01*
X170886959Y-91521388D01*
X170728050Y-91322123D01*
X170541217Y-91148768D01*
X170330634Y-91005195D01*
X170330630Y-91005193D01*
X170330627Y-91005191D01*
X170330626Y-91005190D01*
X170101006Y-90894612D01*
X170101008Y-90894612D01*
X169957970Y-90850491D01*
X169899711Y-90811921D01*
X169871553Y-90747976D01*
X169882437Y-90678959D01*
X169928906Y-90626782D01*
X169957970Y-90613509D01*
X170101004Y-90569389D01*
X170330634Y-90458805D01*
X170541217Y-90315232D01*
X170728050Y-90141877D01*
X170886959Y-89942612D01*
X171014393Y-89721888D01*
X171107508Y-89484637D01*
X171164222Y-89236157D01*
X171183233Y-88982465D01*
X171183268Y-88982004D01*
X171183268Y-88981995D01*
X171165293Y-88742135D01*
X171164222Y-88727843D01*
X171107508Y-88479363D01*
X171014393Y-88242112D01*
X170886959Y-88021388D01*
X170728050Y-87822123D01*
X170541217Y-87648768D01*
X170330634Y-87505195D01*
X170330630Y-87505193D01*
X170330627Y-87505191D01*
X170330626Y-87505190D01*
X170101006Y-87394612D01*
X170101008Y-87394612D01*
X169957970Y-87350491D01*
X169899711Y-87311921D01*
X169871553Y-87247976D01*
X169882437Y-87178959D01*
X169928906Y-87126782D01*
X169957970Y-87113509D01*
X170101004Y-87069389D01*
X170330634Y-86958805D01*
X170541217Y-86815232D01*
X170728050Y-86641877D01*
X170886959Y-86442612D01*
X171014393Y-86221888D01*
X171107508Y-85984637D01*
X171164222Y-85736157D01*
X171183268Y-85482000D01*
X171181893Y-85463655D01*
X171164789Y-85235408D01*
X171164222Y-85227843D01*
X171107508Y-84979363D01*
X171014393Y-84742112D01*
X170886959Y-84521388D01*
X170728050Y-84322123D01*
X170541217Y-84148768D01*
X170330634Y-84005195D01*
X170330630Y-84005193D01*
X170330627Y-84005191D01*
X170330626Y-84005190D01*
X170101006Y-83894612D01*
X170101008Y-83894612D01*
X169957970Y-83850491D01*
X169899711Y-83811921D01*
X169871553Y-83747976D01*
X169882437Y-83678959D01*
X169928906Y-83626782D01*
X169957970Y-83613509D01*
X170101004Y-83569389D01*
X170330634Y-83458805D01*
X170541217Y-83315232D01*
X170728050Y-83141877D01*
X170886959Y-82942612D01*
X171014393Y-82721888D01*
X171107508Y-82484637D01*
X171164222Y-82236157D01*
X171183268Y-81982000D01*
X171164222Y-81727843D01*
X171107508Y-81479363D01*
X171014393Y-81242112D01*
X170886959Y-81021388D01*
X170728050Y-80822123D01*
X170541217Y-80648768D01*
X170330634Y-80505195D01*
X170330630Y-80505193D01*
X170330627Y-80505191D01*
X170330626Y-80505190D01*
X170101006Y-80394612D01*
X170101008Y-80394612D01*
X170014020Y-80367780D01*
X169957969Y-80350490D01*
X169899711Y-80311921D01*
X169871553Y-80247976D01*
X169882437Y-80178959D01*
X169928906Y-80126782D01*
X169957970Y-80113509D01*
X170101004Y-80069389D01*
X170330634Y-79958805D01*
X170541217Y-79815232D01*
X170728050Y-79641877D01*
X170886959Y-79442612D01*
X171014393Y-79221888D01*
X171107508Y-78984637D01*
X171164222Y-78736157D01*
X171175764Y-78582135D01*
X171183268Y-78482004D01*
X171183268Y-78481995D01*
X171164222Y-78227845D01*
X171163033Y-78222637D01*
X171107508Y-77979363D01*
X171014393Y-77742112D01*
X170886959Y-77521388D01*
X170728050Y-77322123D01*
X170541217Y-77148768D01*
X170330634Y-77005195D01*
X170330630Y-77005193D01*
X170330627Y-77005191D01*
X170330626Y-77005190D01*
X170101006Y-76894612D01*
X170101008Y-76894612D01*
X169957970Y-76850491D01*
X169899711Y-76811921D01*
X169871553Y-76747976D01*
X169882437Y-76678959D01*
X169928906Y-76626782D01*
X169957970Y-76613509D01*
X170101004Y-76569389D01*
X170330634Y-76458805D01*
X170541217Y-76315232D01*
X170728050Y-76141877D01*
X170886959Y-75942612D01*
X171014393Y-75721888D01*
X171107508Y-75484637D01*
X171164222Y-75236157D01*
X171183268Y-74982000D01*
X171164222Y-74727843D01*
X171107508Y-74479363D01*
X171014393Y-74242112D01*
X170886959Y-74021388D01*
X170728050Y-73822123D01*
X170541217Y-73648768D01*
X170330634Y-73505195D01*
X170330630Y-73505193D01*
X170330627Y-73505191D01*
X170330626Y-73505190D01*
X170101006Y-73394612D01*
X170101008Y-73394612D01*
X169957970Y-73350491D01*
X169899711Y-73311921D01*
X169871553Y-73247976D01*
X169882437Y-73178959D01*
X169928906Y-73126782D01*
X169957970Y-73113509D01*
X170101004Y-73069389D01*
X170330634Y-72958805D01*
X170541217Y-72815232D01*
X170728050Y-72641877D01*
X170886959Y-72442612D01*
X171014393Y-72221888D01*
X171107508Y-71984637D01*
X171164222Y-71736157D01*
X171183268Y-71482000D01*
X171179266Y-71428599D01*
X171166745Y-71261506D01*
X171164222Y-71227843D01*
X171107508Y-70979363D01*
X171014393Y-70742112D01*
X170886959Y-70521388D01*
X170728050Y-70322123D01*
X170541217Y-70148768D01*
X170330634Y-70005195D01*
X170330628Y-70005192D01*
X170330627Y-70005191D01*
X170330625Y-70005190D01*
X170150027Y-69918219D01*
X170098167Y-69871397D01*
X170079854Y-69803970D01*
X170100902Y-69737346D01*
X170154628Y-69692677D01*
X170203826Y-69682499D01*
X170725872Y-69682499D01*
X170785483Y-69676091D01*
X170920331Y-69625796D01*
X171035546Y-69539546D01*
X171121796Y-69424331D01*
X171172091Y-69289483D01*
X171178500Y-69229873D01*
X171178499Y-66734128D01*
X171172091Y-66674517D01*
X171139202Y-66586338D01*
X171121797Y-66539671D01*
X171121793Y-66539664D01*
X171035547Y-66424455D01*
X171035544Y-66424452D01*
X170920335Y-66338206D01*
X170920328Y-66338202D01*
X170785482Y-66287908D01*
X170785483Y-66287908D01*
X170725883Y-66281501D01*
X170725881Y-66281500D01*
X170725873Y-66281500D01*
X170725864Y-66281500D01*
X168230129Y-66281500D01*
X168230123Y-66281501D01*
X168170516Y-66287908D01*
X168035671Y-66338202D01*
X168035664Y-66338206D01*
X167920455Y-66424452D01*
X167920452Y-66424455D01*
X167834206Y-66539664D01*
X167834202Y-66539671D01*
X167783908Y-66674517D01*
X167777501Y-66734116D01*
X167777501Y-66734123D01*
X167777500Y-66734135D01*
X167777500Y-69229870D01*
X167777501Y-69229876D01*
X167783908Y-69289483D01*
X167834202Y-69424328D01*
X167834206Y-69424335D01*
X167920452Y-69539544D01*
X167920455Y-69539547D01*
X168035664Y-69625793D01*
X168035671Y-69625797D01*
X168170517Y-69676091D01*
X168170516Y-69676091D01*
X168177444Y-69676835D01*
X168230127Y-69682500D01*
X168752172Y-69682499D01*
X168819209Y-69702183D01*
X168864964Y-69754987D01*
X168874908Y-69824146D01*
X168845883Y-69887702D01*
X168805972Y-69918219D01*
X168625370Y-70005192D01*
X168414782Y-70148768D01*
X168227952Y-70322121D01*
X168227950Y-70322123D01*
X168069041Y-70521388D01*
X167941608Y-70742109D01*
X167848492Y-70979362D01*
X167848490Y-70979369D01*
X167791777Y-71227845D01*
X167772732Y-71481995D01*
X167772732Y-71482004D01*
X167791777Y-71736154D01*
X167791778Y-71736157D01*
X167848492Y-71984637D01*
X167941607Y-72221888D01*
X168069041Y-72442612D01*
X168227950Y-72641877D01*
X168414783Y-72815232D01*
X168625366Y-72958805D01*
X168625371Y-72958807D01*
X168625372Y-72958808D01*
X168625373Y-72958809D01*
X168747328Y-73017538D01*
X168854992Y-73069387D01*
X168854993Y-73069387D01*
X168854996Y-73069389D01*
X168961360Y-73102197D01*
X168998029Y-73113509D01*
X169056288Y-73152080D01*
X169084446Y-73216024D01*
X169073562Y-73285041D01*
X169027093Y-73337218D01*
X168998029Y-73350491D01*
X168854992Y-73394612D01*
X168625373Y-73505190D01*
X168625372Y-73505191D01*
X168414782Y-73648768D01*
X168227952Y-73822121D01*
X168227950Y-73822123D01*
X168069041Y-74021388D01*
X167941608Y-74242109D01*
X167848492Y-74479362D01*
X167848490Y-74479369D01*
X167791777Y-74727845D01*
X167772732Y-74981995D01*
X167772732Y-74982004D01*
X167791777Y-75236154D01*
X167807185Y-75303663D01*
X167848492Y-75484637D01*
X167941607Y-75721888D01*
X168069041Y-75942612D01*
X168227950Y-76141877D01*
X168414783Y-76315232D01*
X168625366Y-76458805D01*
X168625371Y-76458807D01*
X168625372Y-76458808D01*
X168625373Y-76458809D01*
X168728760Y-76508597D01*
X168854992Y-76569387D01*
X168854993Y-76569387D01*
X168854996Y-76569389D01*
X168961360Y-76602197D01*
X168998029Y-76613509D01*
X169056288Y-76652080D01*
X169084446Y-76716024D01*
X169073562Y-76785041D01*
X169027093Y-76837218D01*
X168998029Y-76850491D01*
X168854992Y-76894612D01*
X168625373Y-77005190D01*
X168625372Y-77005191D01*
X168414782Y-77148768D01*
X168227952Y-77322121D01*
X168227950Y-77322123D01*
X168069041Y-77521388D01*
X167941608Y-77742109D01*
X167848492Y-77979362D01*
X167848490Y-77979369D01*
X167791777Y-78227845D01*
X167772732Y-78481995D01*
X167772732Y-78482004D01*
X167791777Y-78736154D01*
X167840397Y-78949174D01*
X167848492Y-78984637D01*
X167941607Y-79221888D01*
X168069041Y-79442612D01*
X168227950Y-79641877D01*
X168414783Y-79815232D01*
X168625366Y-79958805D01*
X168625371Y-79958807D01*
X168625372Y-79958808D01*
X168625373Y-79958809D01*
X168747328Y-80017538D01*
X168854992Y-80069387D01*
X168854993Y-80069387D01*
X168854996Y-80069389D01*
X168961360Y-80102197D01*
X168998029Y-80113509D01*
X169056288Y-80152080D01*
X169084446Y-80216024D01*
X169073562Y-80285041D01*
X169027093Y-80337218D01*
X168998029Y-80350491D01*
X168854992Y-80394612D01*
X168625373Y-80505190D01*
X168625372Y-80505191D01*
X168414782Y-80648768D01*
X168227952Y-80822121D01*
X168227950Y-80822123D01*
X168069041Y-81021388D01*
X167941608Y-81242109D01*
X167848492Y-81479362D01*
X167848490Y-81479369D01*
X167791777Y-81727845D01*
X167772732Y-81981995D01*
X167772732Y-81982004D01*
X167791777Y-82236154D01*
X167842868Y-82460000D01*
X167848492Y-82484637D01*
X167941607Y-82721888D01*
X168069041Y-82942612D01*
X168227950Y-83141877D01*
X168414783Y-83315232D01*
X168625366Y-83458805D01*
X168625371Y-83458807D01*
X168625372Y-83458808D01*
X168625373Y-83458809D01*
X168707779Y-83498493D01*
X168854992Y-83569387D01*
X168854993Y-83569387D01*
X168854996Y-83569389D01*
X168961360Y-83602197D01*
X168998029Y-83613509D01*
X169056288Y-83652080D01*
X169084446Y-83716024D01*
X169073562Y-83785041D01*
X169027093Y-83837218D01*
X168998029Y-83850491D01*
X168854992Y-83894612D01*
X168625373Y-84005190D01*
X168625372Y-84005191D01*
X168414782Y-84148768D01*
X168227952Y-84322121D01*
X168227950Y-84322123D01*
X168069041Y-84521388D01*
X167941608Y-84742109D01*
X167848492Y-84979362D01*
X167848490Y-84979369D01*
X167791777Y-85227845D01*
X167772732Y-85481995D01*
X167772732Y-85482004D01*
X167791777Y-85736154D01*
X167845339Y-85970826D01*
X167848492Y-85984637D01*
X167941607Y-86221888D01*
X168069041Y-86442612D01*
X168227950Y-86641877D01*
X168414783Y-86815232D01*
X168625366Y-86958805D01*
X168625371Y-86958807D01*
X168625372Y-86958808D01*
X168625373Y-86958809D01*
X168747328Y-87017538D01*
X168854992Y-87069387D01*
X168854993Y-87069387D01*
X168854996Y-87069389D01*
X168961360Y-87102197D01*
X168998029Y-87113509D01*
X169056288Y-87152080D01*
X169084446Y-87216024D01*
X169073562Y-87285041D01*
X169027093Y-87337218D01*
X168998029Y-87350491D01*
X168854992Y-87394612D01*
X168625373Y-87505190D01*
X168625372Y-87505191D01*
X168414782Y-87648768D01*
X168227952Y-87822121D01*
X168227950Y-87822123D01*
X168069041Y-88021388D01*
X167941608Y-88242109D01*
X167848492Y-88479362D01*
X167848490Y-88479369D01*
X167791777Y-88727845D01*
X167772732Y-88981995D01*
X167772732Y-88982004D01*
X167791777Y-89236154D01*
X167839750Y-89446339D01*
X167848492Y-89484637D01*
X167941607Y-89721888D01*
X168069041Y-89942612D01*
X168227950Y-90141877D01*
X168414783Y-90315232D01*
X168625366Y-90458805D01*
X168625371Y-90458807D01*
X168625372Y-90458808D01*
X168625373Y-90458809D01*
X168747328Y-90517538D01*
X168854992Y-90569387D01*
X168854993Y-90569387D01*
X168854996Y-90569389D01*
X168961360Y-90602197D01*
X168998029Y-90613509D01*
X169056288Y-90652080D01*
X169084446Y-90716024D01*
X169073562Y-90785041D01*
X169027093Y-90837218D01*
X168998029Y-90850491D01*
X168854992Y-90894612D01*
X168625373Y-91005190D01*
X168625372Y-91005191D01*
X168414782Y-91148768D01*
X168227952Y-91322121D01*
X168227950Y-91322123D01*
X168069041Y-91521388D01*
X167941608Y-91742109D01*
X167848492Y-91979362D01*
X167848490Y-91979369D01*
X167791777Y-92227845D01*
X167772732Y-92481995D01*
X167772732Y-92482004D01*
X167791777Y-92736154D01*
X167815493Y-92840062D01*
X167848492Y-92984637D01*
X167941607Y-93221888D01*
X168069041Y-93442612D01*
X168227950Y-93641877D01*
X168414783Y-93815232D01*
X168625366Y-93958805D01*
X168625371Y-93958807D01*
X168625372Y-93958808D01*
X168625373Y-93958809D01*
X168747328Y-94017538D01*
X168854992Y-94069387D01*
X168854993Y-94069387D01*
X168854996Y-94069389D01*
X168961360Y-94102197D01*
X168998029Y-94113509D01*
X169056288Y-94152080D01*
X169084446Y-94216024D01*
X169073562Y-94285041D01*
X169027093Y-94337218D01*
X168998029Y-94350491D01*
X168854992Y-94394612D01*
X168625373Y-94505190D01*
X168625372Y-94505191D01*
X168414782Y-94648768D01*
X168227952Y-94822121D01*
X168227950Y-94822123D01*
X168069041Y-95021388D01*
X167941608Y-95242109D01*
X167848492Y-95479362D01*
X167848490Y-95479369D01*
X167791777Y-95727845D01*
X167772732Y-95981995D01*
X167772732Y-95982004D01*
X167791777Y-96236154D01*
X167841026Y-96451930D01*
X167848492Y-96484637D01*
X167871155Y-96542382D01*
X167941608Y-96721890D01*
X167945814Y-96729175D01*
X168069041Y-96942612D01*
X168227950Y-97141877D01*
X168414783Y-97315232D01*
X168625366Y-97458805D01*
X168625371Y-97458807D01*
X168625372Y-97458808D01*
X168625373Y-97458809D01*
X168747328Y-97517538D01*
X168854992Y-97569387D01*
X168854993Y-97569387D01*
X168854996Y-97569389D01*
X168961360Y-97602197D01*
X168998029Y-97613509D01*
X169056288Y-97652080D01*
X169084446Y-97716024D01*
X169073562Y-97785041D01*
X169027093Y-97837218D01*
X168998029Y-97850491D01*
X168854992Y-97894612D01*
X168625373Y-98005190D01*
X168625372Y-98005191D01*
X168414782Y-98148768D01*
X168227952Y-98322121D01*
X168227950Y-98322123D01*
X168069041Y-98521388D01*
X167941608Y-98742109D01*
X167848492Y-98979362D01*
X167848490Y-98979369D01*
X167791777Y-99227845D01*
X167772732Y-99481995D01*
X167772732Y-99482004D01*
X167791777Y-99736154D01*
X167847065Y-99978388D01*
X167848492Y-99984637D01*
X167941607Y-100221888D01*
X168069041Y-100442612D01*
X168227950Y-100641877D01*
X168414783Y-100815232D01*
X168625366Y-100958805D01*
X168625371Y-100958807D01*
X168625372Y-100958808D01*
X168625373Y-100958809D01*
X168747328Y-101017538D01*
X168854992Y-101069387D01*
X168854993Y-101069387D01*
X168854996Y-101069389D01*
X168961360Y-101102197D01*
X168998029Y-101113509D01*
X169056288Y-101152080D01*
X169084446Y-101216024D01*
X169073562Y-101285041D01*
X169027093Y-101337218D01*
X168998029Y-101350491D01*
X168854992Y-101394612D01*
X168625373Y-101505190D01*
X168625372Y-101505191D01*
X168414782Y-101648768D01*
X168227952Y-101822121D01*
X168227950Y-101822123D01*
X168069041Y-102021388D01*
X167941608Y-102242109D01*
X167848492Y-102479362D01*
X167848490Y-102479369D01*
X167791777Y-102727845D01*
X167772732Y-102981995D01*
X167772732Y-102982004D01*
X167791777Y-103236154D01*
X167791778Y-103236157D01*
X167848492Y-103484637D01*
X167941607Y-103721888D01*
X168069041Y-103942612D01*
X168227950Y-104141877D01*
X168414783Y-104315232D01*
X168625366Y-104458805D01*
X168625371Y-104458807D01*
X168625372Y-104458808D01*
X168625373Y-104458809D01*
X168747328Y-104517538D01*
X168854992Y-104569387D01*
X168854993Y-104569387D01*
X168854996Y-104569389D01*
X168961360Y-104602197D01*
X168998029Y-104613509D01*
X169056288Y-104652080D01*
X169084446Y-104716024D01*
X169073562Y-104785041D01*
X169027093Y-104837218D01*
X168998029Y-104850491D01*
X168854992Y-104894612D01*
X168625373Y-105005190D01*
X168625372Y-105005191D01*
X168414782Y-105148768D01*
X168227952Y-105322121D01*
X168227950Y-105322123D01*
X168069041Y-105521388D01*
X167941608Y-105742109D01*
X167848492Y-105979362D01*
X167848490Y-105979369D01*
X167791777Y-106227845D01*
X167772732Y-106481995D01*
X167772732Y-106482004D01*
X167791777Y-106736154D01*
X167791778Y-106736157D01*
X167848492Y-106984637D01*
X167941607Y-107221888D01*
X168069041Y-107442612D01*
X168227950Y-107641877D01*
X168414783Y-107815232D01*
X168625366Y-107958805D01*
X168625371Y-107958807D01*
X168625372Y-107958808D01*
X168625373Y-107958809D01*
X168747328Y-108017538D01*
X168854992Y-108069387D01*
X168854993Y-108069387D01*
X168854996Y-108069389D01*
X168961360Y-108102197D01*
X168998029Y-108113509D01*
X169056288Y-108152080D01*
X169084446Y-108216024D01*
X169073562Y-108285041D01*
X169027093Y-108337218D01*
X168998029Y-108350491D01*
X168854992Y-108394612D01*
X168625373Y-108505190D01*
X168625372Y-108505191D01*
X168414782Y-108648768D01*
X168227952Y-108822121D01*
X168227950Y-108822123D01*
X168069041Y-109021388D01*
X167941608Y-109242109D01*
X167848492Y-109479362D01*
X167848490Y-109479369D01*
X167791777Y-109727845D01*
X167772732Y-109981995D01*
X167772732Y-109982004D01*
X167791777Y-110236154D01*
X167791778Y-110236157D01*
X167848492Y-110484637D01*
X167941607Y-110721888D01*
X168069041Y-110942612D01*
X168227950Y-111141877D01*
X168414783Y-111315232D01*
X168625366Y-111458805D01*
X168625371Y-111458807D01*
X168625372Y-111458808D01*
X168625373Y-111458809D01*
X168747328Y-111517538D01*
X168854992Y-111569387D01*
X168854993Y-111569387D01*
X168854996Y-111569389D01*
X168998876Y-111613770D01*
X169057135Y-111652341D01*
X169085293Y-111716285D01*
X169074409Y-111785302D01*
X169027940Y-111837479D01*
X168998876Y-111850752D01*
X168855175Y-111895078D01*
X168625622Y-112005625D01*
X168625609Y-112005632D01*
X168464813Y-112115259D01*
X169268780Y-112919226D01*
X169175412Y-112957901D01*
X169050075Y-113054075D01*
X168953901Y-113179411D01*
X168915226Y-113272780D01*
X168111452Y-112469006D01*
X168069457Y-112521667D01*
X167942058Y-112742328D01*
X167848973Y-112979505D01*
X167848968Y-112979522D01*
X167792273Y-113227920D01*
X167773233Y-113481995D01*
X167773233Y-113482004D01*
X167792273Y-113736079D01*
X167848968Y-113984477D01*
X167848973Y-113984494D01*
X167942058Y-114221671D01*
X167942057Y-114221671D01*
X168069454Y-114442327D01*
X168069461Y-114442338D01*
X168111452Y-114494991D01*
X168111453Y-114494992D01*
X168915226Y-113691219D01*
X168953901Y-113784588D01*
X169050075Y-113909925D01*
X169175412Y-114006099D01*
X169268779Y-114044772D01*
X168464813Y-114848738D01*
X168625616Y-114958371D01*
X168625624Y-114958376D01*
X168855175Y-115068921D01*
X168998876Y-115113247D01*
X169057135Y-115151817D01*
X169085292Y-115215762D01*
X169074409Y-115284779D01*
X169027941Y-115336955D01*
X168998877Y-115350229D01*
X168854990Y-115394613D01*
X168625373Y-115505190D01*
X168625372Y-115505191D01*
X168414782Y-115648768D01*
X168227952Y-115822121D01*
X168227950Y-115822123D01*
X168069041Y-116021388D01*
X167941608Y-116242109D01*
X167848492Y-116479362D01*
X167848490Y-116479369D01*
X167791777Y-116727845D01*
X167772732Y-116981995D01*
X167772732Y-116982004D01*
X112073624Y-116982004D01*
X112086393Y-116959888D01*
X112179508Y-116722637D01*
X112236222Y-116474157D01*
X112255268Y-116220000D01*
X112236222Y-115965843D01*
X112179508Y-115717363D01*
X112086393Y-115480112D01*
X111958959Y-115259388D01*
X111800050Y-115060123D01*
X111613217Y-114886768D01*
X111402634Y-114743195D01*
X111402630Y-114743193D01*
X111402627Y-114743191D01*
X111402626Y-114743190D01*
X111173009Y-114632613D01*
X111173006Y-114632612D01*
X111173004Y-114632611D01*
X111083241Y-114604922D01*
X111029122Y-114588229D01*
X110970864Y-114549658D01*
X110942706Y-114485713D01*
X110953590Y-114416697D01*
X111000059Y-114364520D01*
X111029124Y-114351247D01*
X111172822Y-114306922D01*
X111172823Y-114306921D01*
X111402376Y-114196376D01*
X111402377Y-114196375D01*
X111563185Y-114086738D01*
X110759220Y-113282772D01*
X110852588Y-113244099D01*
X110977925Y-113147925D01*
X111074099Y-113022589D01*
X111112773Y-112929220D01*
X111916544Y-113732992D01*
X111916546Y-113732991D01*
X111958544Y-113680330D01*
X112085941Y-113459671D01*
X112179026Y-113222494D01*
X112179031Y-113222477D01*
X112235726Y-112974079D01*
X112254767Y-112720004D01*
X112254767Y-112719995D01*
X112235726Y-112465920D01*
X112179031Y-112217522D01*
X112179026Y-112217505D01*
X112085941Y-111980328D01*
X112085942Y-111980328D01*
X111958545Y-111759672D01*
X111916545Y-111707006D01*
X111112772Y-112510779D01*
X111074099Y-112417412D01*
X110977925Y-112292075D01*
X110852588Y-112195901D01*
X110759219Y-112157226D01*
X111563185Y-111353260D01*
X111402384Y-111243628D01*
X111402376Y-111243623D01*
X111172823Y-111133078D01*
X111172825Y-111133078D01*
X111029123Y-111088752D01*
X110970864Y-111050181D01*
X110942706Y-110986237D01*
X110953590Y-110917220D01*
X111000059Y-110865043D01*
X111029120Y-110851771D01*
X111173004Y-110807389D01*
X111402634Y-110696805D01*
X111613217Y-110553232D01*
X111800050Y-110379877D01*
X111958959Y-110180612D01*
X112086393Y-109959888D01*
X112179508Y-109722637D01*
X112236222Y-109474157D01*
X112255268Y-109220000D01*
X112236222Y-108965843D01*
X112179508Y-108717363D01*
X112086393Y-108480112D01*
X111958959Y-108259388D01*
X111800050Y-108060123D01*
X111613217Y-107886768D01*
X111402634Y-107743195D01*
X111402630Y-107743193D01*
X111402627Y-107743191D01*
X111402626Y-107743190D01*
X111173006Y-107632612D01*
X111173008Y-107632612D01*
X111029970Y-107588491D01*
X110971711Y-107549921D01*
X110943553Y-107485976D01*
X110954437Y-107416959D01*
X111000906Y-107364782D01*
X111029970Y-107351509D01*
X111173004Y-107307389D01*
X111402634Y-107196805D01*
X111613217Y-107053232D01*
X111800050Y-106879877D01*
X111958959Y-106680612D01*
X112086393Y-106459888D01*
X112179508Y-106222637D01*
X112236222Y-105974157D01*
X112255268Y-105720000D01*
X112236222Y-105465843D01*
X112179508Y-105217363D01*
X112086393Y-104980112D01*
X111958959Y-104759388D01*
X111800050Y-104560123D01*
X111613217Y-104386768D01*
X111402634Y-104243195D01*
X111402630Y-104243193D01*
X111402627Y-104243191D01*
X111402626Y-104243190D01*
X111173006Y-104132612D01*
X111173008Y-104132612D01*
X111029970Y-104088491D01*
X110971711Y-104049921D01*
X110943553Y-103985976D01*
X110954437Y-103916959D01*
X111000906Y-103864782D01*
X111029970Y-103851509D01*
X111173004Y-103807389D01*
X111402634Y-103696805D01*
X111613217Y-103553232D01*
X111800050Y-103379877D01*
X111958959Y-103180612D01*
X112086393Y-102959888D01*
X112156994Y-102780000D01*
X120624341Y-102780000D01*
X120644936Y-103015403D01*
X120644938Y-103015413D01*
X120706094Y-103243655D01*
X120706096Y-103243659D01*
X120706097Y-103243663D01*
X120769615Y-103379877D01*
X120805965Y-103457830D01*
X120805967Y-103457834D01*
X120872766Y-103553232D01*
X120941505Y-103651401D01*
X121108599Y-103818495D01*
X121155748Y-103851509D01*
X121302165Y-103954032D01*
X121302167Y-103954033D01*
X121302170Y-103954035D01*
X121516337Y-104053903D01*
X121516343Y-104053904D01*
X121516344Y-104053905D01*
X121571285Y-104068626D01*
X121744592Y-104115063D01*
X121932918Y-104131539D01*
X121979999Y-104135659D01*
X121980000Y-104135659D01*
X121980001Y-104135659D01*
X122019234Y-104132226D01*
X122215408Y-104115063D01*
X122443663Y-104053903D01*
X122657830Y-103954035D01*
X122851401Y-103818495D01*
X123018495Y-103651401D01*
X123154035Y-103457830D01*
X123253903Y-103243663D01*
X123315063Y-103015408D01*
X123335659Y-102780002D01*
X125792677Y-102780002D01*
X125811929Y-103000062D01*
X125811930Y-103000070D01*
X125869104Y-103213445D01*
X125869105Y-103213447D01*
X125869106Y-103213450D01*
X125883195Y-103243664D01*
X125962466Y-103413662D01*
X125962468Y-103413666D01*
X126089170Y-103594615D01*
X126089175Y-103594621D01*
X126245378Y-103750824D01*
X126245384Y-103750829D01*
X126426333Y-103877531D01*
X126426335Y-103877532D01*
X126426338Y-103877534D01*
X126626550Y-103970894D01*
X126839932Y-104028070D01*
X126997123Y-104041822D01*
X127059998Y-104047323D01*
X127060000Y-104047323D01*
X127060002Y-104047323D01*
X127115017Y-104042509D01*
X127280068Y-104028070D01*
X127493450Y-103970894D01*
X127693662Y-103877534D01*
X127874620Y-103750826D01*
X128030826Y-103594620D01*
X128157534Y-103413662D01*
X128250894Y-103213450D01*
X128308070Y-103000068D01*
X128327323Y-102780002D01*
X151192677Y-102780002D01*
X151211929Y-103000062D01*
X151211930Y-103000070D01*
X151269104Y-103213445D01*
X151269105Y-103213447D01*
X151269106Y-103213450D01*
X151283195Y-103243664D01*
X151362466Y-103413662D01*
X151362468Y-103413666D01*
X151489170Y-103594615D01*
X151489175Y-103594621D01*
X151645378Y-103750824D01*
X151645384Y-103750829D01*
X151826333Y-103877531D01*
X151826335Y-103877532D01*
X151826338Y-103877534D01*
X152026550Y-103970894D01*
X152239932Y-104028070D01*
X152397123Y-104041822D01*
X152459998Y-104047323D01*
X152460000Y-104047323D01*
X152460002Y-104047323D01*
X152515017Y-104042509D01*
X152680068Y-104028070D01*
X152893450Y-103970894D01*
X153093662Y-103877534D01*
X153274620Y-103750826D01*
X153430826Y-103594620D01*
X153557534Y-103413662D01*
X153650894Y-103213450D01*
X153708070Y-103000068D01*
X153727323Y-102780000D01*
X156184341Y-102780000D01*
X156204936Y-103015403D01*
X156204938Y-103015413D01*
X156266094Y-103243655D01*
X156266096Y-103243659D01*
X156266097Y-103243663D01*
X156329615Y-103379877D01*
X156365965Y-103457830D01*
X156365967Y-103457834D01*
X156432766Y-103553232D01*
X156501505Y-103651401D01*
X156668599Y-103818495D01*
X156715748Y-103851509D01*
X156862165Y-103954032D01*
X156862167Y-103954033D01*
X156862170Y-103954035D01*
X157076337Y-104053903D01*
X157076343Y-104053904D01*
X157076344Y-104053905D01*
X157131285Y-104068626D01*
X157304592Y-104115063D01*
X157492918Y-104131539D01*
X157539999Y-104135659D01*
X157540000Y-104135659D01*
X157540001Y-104135659D01*
X157579234Y-104132226D01*
X157775408Y-104115063D01*
X158003663Y-104053903D01*
X158217830Y-103954035D01*
X158411401Y-103818495D01*
X158578495Y-103651401D01*
X158714035Y-103457830D01*
X158813903Y-103243663D01*
X158875063Y-103015408D01*
X158895659Y-102780000D01*
X158875063Y-102544592D01*
X158822000Y-102346554D01*
X158813905Y-102316344D01*
X158813904Y-102316343D01*
X158813903Y-102316337D01*
X158714035Y-102102171D01*
X158657471Y-102021388D01*
X158578494Y-101908597D01*
X158411402Y-101741506D01*
X158411401Y-101741505D01*
X158225405Y-101611269D01*
X158181781Y-101556692D01*
X158174588Y-101487193D01*
X158206110Y-101424839D01*
X158225405Y-101408119D01*
X158411082Y-101278105D01*
X158578105Y-101111082D01*
X158713600Y-100917578D01*
X158813429Y-100703492D01*
X158813432Y-100703486D01*
X158870636Y-100490000D01*
X157973686Y-100490000D01*
X157999493Y-100449844D01*
X158040000Y-100311889D01*
X158040000Y-100168111D01*
X157999493Y-100030156D01*
X157973686Y-99990000D01*
X158870636Y-99990000D01*
X158870635Y-99989999D01*
X158813432Y-99776513D01*
X158813429Y-99776507D01*
X158713600Y-99562422D01*
X158713599Y-99562420D01*
X158578113Y-99368926D01*
X158578108Y-99368920D01*
X158411078Y-99201890D01*
X158225405Y-99071879D01*
X158181780Y-99017302D01*
X158174588Y-98947804D01*
X158206110Y-98885449D01*
X158225406Y-98868730D01*
X158411401Y-98738495D01*
X158578495Y-98571401D01*
X158714035Y-98377830D01*
X158813903Y-98163663D01*
X158875063Y-97935408D01*
X158895659Y-97700000D01*
X158875063Y-97464592D01*
X158822000Y-97266554D01*
X158813905Y-97236344D01*
X158813904Y-97236343D01*
X158813903Y-97236337D01*
X158714035Y-97022171D01*
X158666319Y-96954024D01*
X158578494Y-96828597D01*
X158411402Y-96661506D01*
X158411396Y-96661501D01*
X158225842Y-96531575D01*
X158182217Y-96476998D01*
X158175023Y-96407500D01*
X158206546Y-96345145D01*
X158225842Y-96328425D01*
X158327083Y-96257535D01*
X158411401Y-96198495D01*
X158578495Y-96031401D01*
X158714035Y-95837830D01*
X158813903Y-95623663D01*
X158875063Y-95395408D01*
X158895659Y-95160000D01*
X158875063Y-94924592D01*
X158822000Y-94726554D01*
X158813905Y-94696344D01*
X158813904Y-94696343D01*
X158813903Y-94696337D01*
X158714035Y-94482171D01*
X158712594Y-94480112D01*
X158578494Y-94288597D01*
X158411402Y-94121506D01*
X158411396Y-94121501D01*
X158225842Y-93991575D01*
X158182217Y-93936998D01*
X158175023Y-93867500D01*
X158206546Y-93805145D01*
X158225842Y-93788425D01*
X158327083Y-93717535D01*
X158411401Y-93658495D01*
X158578495Y-93491401D01*
X158714035Y-93297830D01*
X158813903Y-93083663D01*
X158875063Y-92855408D01*
X158895659Y-92620000D01*
X158875063Y-92384592D01*
X158822000Y-92186554D01*
X158813905Y-92156344D01*
X158813904Y-92156343D01*
X158813903Y-92156337D01*
X158714035Y-91942171D01*
X158618254Y-91805380D01*
X158578494Y-91748597D01*
X158411402Y-91581506D01*
X158411396Y-91581501D01*
X158225842Y-91451575D01*
X158182217Y-91396998D01*
X158175023Y-91327500D01*
X158206546Y-91265145D01*
X158225842Y-91248425D01*
X158327083Y-91177535D01*
X158411401Y-91118495D01*
X158578495Y-90951401D01*
X158714035Y-90757830D01*
X158813903Y-90543663D01*
X158875063Y-90315408D01*
X158895659Y-90080000D01*
X158875063Y-89844592D01*
X158822000Y-89646554D01*
X158813905Y-89616344D01*
X158813904Y-89616343D01*
X158813903Y-89616337D01*
X158714035Y-89402171D01*
X158698426Y-89379878D01*
X158578494Y-89208597D01*
X158411402Y-89041506D01*
X158411396Y-89041501D01*
X158225842Y-88911575D01*
X158182217Y-88856998D01*
X158175023Y-88787500D01*
X158206546Y-88725145D01*
X158225842Y-88708425D01*
X158327083Y-88637535D01*
X158411401Y-88578495D01*
X158578495Y-88411401D01*
X158714035Y-88217830D01*
X158813903Y-88003663D01*
X158875063Y-87775408D01*
X158895659Y-87540000D01*
X158875063Y-87304592D01*
X158822000Y-87106554D01*
X158813905Y-87076344D01*
X158813904Y-87076343D01*
X158813903Y-87076337D01*
X158714035Y-86862171D01*
X158681168Y-86815231D01*
X158578494Y-86668597D01*
X158411402Y-86501506D01*
X158411396Y-86501501D01*
X158225842Y-86371575D01*
X158182217Y-86316998D01*
X158175023Y-86247500D01*
X158206546Y-86185145D01*
X158225842Y-86168425D01*
X158327083Y-86097535D01*
X158411401Y-86038495D01*
X158578495Y-85871401D01*
X158714035Y-85677830D01*
X158813903Y-85463663D01*
X158875063Y-85235408D01*
X158895659Y-85000000D01*
X158893853Y-84979363D01*
X158891539Y-84952918D01*
X158875063Y-84764592D01*
X158822000Y-84566554D01*
X158813905Y-84536344D01*
X158813904Y-84536343D01*
X158813903Y-84536337D01*
X158714035Y-84322171D01*
X158714002Y-84322123D01*
X158578494Y-84128597D01*
X158411402Y-83961506D01*
X158411396Y-83961501D01*
X158225842Y-83831575D01*
X158182217Y-83776998D01*
X158175023Y-83707500D01*
X158206546Y-83645145D01*
X158225842Y-83628425D01*
X158327083Y-83557535D01*
X158411401Y-83498495D01*
X158578495Y-83331401D01*
X158714035Y-83137830D01*
X158813903Y-82923663D01*
X158875063Y-82695408D01*
X158895659Y-82460000D01*
X158875063Y-82224592D01*
X158822000Y-82026554D01*
X158813905Y-81996344D01*
X158813904Y-81996343D01*
X158813903Y-81996337D01*
X158714035Y-81782171D01*
X158675995Y-81727843D01*
X158578494Y-81588597D01*
X158411402Y-81421506D01*
X158411396Y-81421501D01*
X158225842Y-81291575D01*
X158182217Y-81236998D01*
X158175023Y-81167500D01*
X158206546Y-81105145D01*
X158225842Y-81088425D01*
X158248026Y-81072891D01*
X158411401Y-80958495D01*
X158578495Y-80791401D01*
X158714035Y-80597830D01*
X158813903Y-80383663D01*
X158875063Y-80155408D01*
X158895659Y-79920000D01*
X158875063Y-79684592D01*
X158822000Y-79486554D01*
X158813905Y-79456344D01*
X158813904Y-79456343D01*
X158813903Y-79456337D01*
X158714035Y-79242171D01*
X158699835Y-79221890D01*
X158578494Y-79048597D01*
X158411402Y-78881506D01*
X158411396Y-78881501D01*
X158225842Y-78751575D01*
X158182217Y-78696998D01*
X158175023Y-78627500D01*
X158206546Y-78565145D01*
X158225842Y-78548425D01*
X158320701Y-78482004D01*
X158411401Y-78418495D01*
X158578495Y-78251401D01*
X158714035Y-78057830D01*
X158813903Y-77843663D01*
X158875063Y-77615408D01*
X158895659Y-77380000D01*
X158875063Y-77144592D01*
X158822000Y-76946554D01*
X158813905Y-76916344D01*
X158813904Y-76916343D01*
X158813903Y-76916337D01*
X158714035Y-76702171D01*
X158700262Y-76682500D01*
X158578494Y-76508597D01*
X158411402Y-76341506D01*
X158411396Y-76341501D01*
X158225842Y-76211575D01*
X158182217Y-76156998D01*
X158175023Y-76087500D01*
X158206546Y-76025145D01*
X158225842Y-76008425D01*
X158257902Y-75985976D01*
X158411401Y-75878495D01*
X158578495Y-75711401D01*
X158714035Y-75517830D01*
X158813903Y-75303663D01*
X158875063Y-75075408D01*
X158895659Y-74840000D01*
X158875063Y-74604592D01*
X158822000Y-74406554D01*
X158813905Y-74376344D01*
X158813904Y-74376343D01*
X158813903Y-74376337D01*
X158714035Y-74162171D01*
X158618254Y-74025380D01*
X158578494Y-73968597D01*
X158411402Y-73801506D01*
X158411396Y-73801501D01*
X158225842Y-73671575D01*
X158182217Y-73616998D01*
X158175023Y-73547500D01*
X158206546Y-73485145D01*
X158225842Y-73468425D01*
X158327083Y-73397535D01*
X158411401Y-73338495D01*
X158578495Y-73171401D01*
X158714035Y-72977830D01*
X158813903Y-72763663D01*
X158875063Y-72535408D01*
X158895659Y-72300000D01*
X158875063Y-72064592D01*
X158822000Y-71866554D01*
X158813905Y-71836344D01*
X158813904Y-71836343D01*
X158813903Y-71836337D01*
X158714035Y-71622171D01*
X158618254Y-71485380D01*
X158578494Y-71428597D01*
X158411402Y-71261506D01*
X158411396Y-71261501D01*
X158225842Y-71131575D01*
X158182217Y-71076998D01*
X158175023Y-71007500D01*
X158206546Y-70945145D01*
X158225842Y-70928425D01*
X158248026Y-70912891D01*
X158411401Y-70798495D01*
X158578495Y-70631401D01*
X158714035Y-70437830D01*
X158813903Y-70223663D01*
X158875063Y-69995408D01*
X158895659Y-69760000D01*
X158895605Y-69759388D01*
X158883917Y-69625793D01*
X158875063Y-69524592D01*
X158822000Y-69326554D01*
X158813905Y-69296344D01*
X158813904Y-69296343D01*
X158813903Y-69296337D01*
X158714035Y-69082171D01*
X158700013Y-69062146D01*
X158578496Y-68888600D01*
X158553689Y-68863793D01*
X158456567Y-68766671D01*
X158423084Y-68705351D01*
X158428068Y-68635659D01*
X158469939Y-68579725D01*
X158500915Y-68562810D01*
X158632331Y-68513796D01*
X158747546Y-68427546D01*
X158833796Y-68312331D01*
X158884091Y-68177483D01*
X158890500Y-68117873D01*
X158890499Y-66322128D01*
X158884091Y-66262517D01*
X158879114Y-66249174D01*
X158833797Y-66127671D01*
X158833793Y-66127664D01*
X158747547Y-66012455D01*
X158747544Y-66012452D01*
X158632335Y-65926206D01*
X158632328Y-65926202D01*
X158497482Y-65875908D01*
X158497483Y-65875908D01*
X158437883Y-65869501D01*
X158437881Y-65869500D01*
X158437873Y-65869500D01*
X158437864Y-65869500D01*
X156642129Y-65869500D01*
X156642123Y-65869501D01*
X156582516Y-65875908D01*
X156447671Y-65926202D01*
X156447664Y-65926206D01*
X156332455Y-66012452D01*
X156332452Y-66012455D01*
X156246206Y-66127664D01*
X156246202Y-66127671D01*
X156195908Y-66262517D01*
X156189501Y-66322116D01*
X156189501Y-66322123D01*
X156189500Y-66322135D01*
X156189500Y-68117870D01*
X156189501Y-68117876D01*
X156195908Y-68177483D01*
X156246202Y-68312328D01*
X156246206Y-68312335D01*
X156332452Y-68427544D01*
X156332455Y-68427547D01*
X156447664Y-68513793D01*
X156447671Y-68513797D01*
X156579081Y-68562810D01*
X156635015Y-68604681D01*
X156659432Y-68670145D01*
X156644580Y-68738418D01*
X156623430Y-68766673D01*
X156501503Y-68888600D01*
X156365965Y-69082169D01*
X156365964Y-69082171D01*
X156266098Y-69296335D01*
X156266094Y-69296344D01*
X156204938Y-69524586D01*
X156204936Y-69524596D01*
X156184341Y-69759999D01*
X156184341Y-69760000D01*
X156204936Y-69995403D01*
X156204938Y-69995413D01*
X156266094Y-70223655D01*
X156266096Y-70223659D01*
X156266097Y-70223663D01*
X156286893Y-70268259D01*
X156365965Y-70437830D01*
X156365967Y-70437834D01*
X156501501Y-70631395D01*
X156501506Y-70631402D01*
X156668597Y-70798493D01*
X156668603Y-70798498D01*
X156854158Y-70928425D01*
X156897783Y-70983002D01*
X156904977Y-71052500D01*
X156873454Y-71114855D01*
X156854158Y-71131575D01*
X156668597Y-71261505D01*
X156501505Y-71428597D01*
X156365965Y-71622169D01*
X156365964Y-71622171D01*
X156266098Y-71836335D01*
X156266094Y-71836344D01*
X156204938Y-72064586D01*
X156204936Y-72064596D01*
X156184341Y-72299999D01*
X156184341Y-72300000D01*
X156204936Y-72535403D01*
X156204938Y-72535413D01*
X156266094Y-72763655D01*
X156266096Y-72763659D01*
X156266097Y-72763663D01*
X156357095Y-72958808D01*
X156365965Y-72977830D01*
X156365967Y-72977834D01*
X156501501Y-73171395D01*
X156501506Y-73171402D01*
X156668597Y-73338493D01*
X156668603Y-73338498D01*
X156854158Y-73468425D01*
X156897783Y-73523002D01*
X156904977Y-73592500D01*
X156873454Y-73654855D01*
X156854158Y-73671575D01*
X156668597Y-73801505D01*
X156501505Y-73968597D01*
X156365965Y-74162169D01*
X156365964Y-74162171D01*
X156266098Y-74376335D01*
X156266094Y-74376344D01*
X156204938Y-74604586D01*
X156204936Y-74604596D01*
X156184341Y-74839999D01*
X156184341Y-74840000D01*
X156204936Y-75075403D01*
X156204938Y-75075413D01*
X156266094Y-75303655D01*
X156266096Y-75303659D01*
X156266097Y-75303663D01*
X156301637Y-75379878D01*
X156365965Y-75517830D01*
X156365967Y-75517834D01*
X156501501Y-75711395D01*
X156501506Y-75711402D01*
X156668597Y-75878493D01*
X156668603Y-75878498D01*
X156854158Y-76008425D01*
X156897783Y-76063002D01*
X156904977Y-76132500D01*
X156873454Y-76194855D01*
X156854158Y-76211575D01*
X156668597Y-76341505D01*
X156501505Y-76508597D01*
X156365965Y-76702169D01*
X156365964Y-76702171D01*
X156266098Y-76916335D01*
X156266094Y-76916344D01*
X156204938Y-77144586D01*
X156204936Y-77144596D01*
X156184341Y-77379999D01*
X156184341Y-77380000D01*
X156204936Y-77615403D01*
X156204938Y-77615413D01*
X156266094Y-77843655D01*
X156266096Y-77843659D01*
X156266097Y-77843663D01*
X156326946Y-77974154D01*
X156365965Y-78057830D01*
X156365967Y-78057834D01*
X156461743Y-78194615D01*
X156485009Y-78227843D01*
X156501501Y-78251395D01*
X156501506Y-78251402D01*
X156668597Y-78418493D01*
X156668603Y-78418498D01*
X156854158Y-78548425D01*
X156897783Y-78603002D01*
X156904977Y-78672500D01*
X156873454Y-78734855D01*
X156854158Y-78751575D01*
X156668597Y-78881505D01*
X156501505Y-79048597D01*
X156365965Y-79242169D01*
X156365964Y-79242171D01*
X156266098Y-79456335D01*
X156266094Y-79456344D01*
X156204938Y-79684586D01*
X156204936Y-79684596D01*
X156184341Y-79919999D01*
X156184341Y-79920000D01*
X156204936Y-80155403D01*
X156204938Y-80155413D01*
X156266094Y-80383655D01*
X156266096Y-80383659D01*
X156266097Y-80383663D01*
X156345369Y-80553662D01*
X156365965Y-80597830D01*
X156365967Y-80597834D01*
X156501501Y-80791395D01*
X156501506Y-80791402D01*
X156668597Y-80958493D01*
X156668603Y-80958498D01*
X156854158Y-81088425D01*
X156897783Y-81143002D01*
X156904977Y-81212500D01*
X156873454Y-81274855D01*
X156854158Y-81291575D01*
X156668597Y-81421505D01*
X156501505Y-81588597D01*
X156365965Y-81782169D01*
X156365964Y-81782171D01*
X156266098Y-81996335D01*
X156266094Y-81996344D01*
X156204938Y-82224586D01*
X156204936Y-82224596D01*
X156184341Y-82459999D01*
X156184341Y-82460000D01*
X156204936Y-82695403D01*
X156204938Y-82695413D01*
X156266094Y-82923655D01*
X156266096Y-82923659D01*
X156266097Y-82923663D01*
X156342958Y-83088491D01*
X156365965Y-83137830D01*
X156365967Y-83137834D01*
X156501501Y-83331395D01*
X156501506Y-83331402D01*
X156668597Y-83498493D01*
X156668603Y-83498498D01*
X156854158Y-83628425D01*
X156897783Y-83683002D01*
X156904977Y-83752500D01*
X156873454Y-83814855D01*
X156854158Y-83831575D01*
X156668597Y-83961505D01*
X156501505Y-84128597D01*
X156365965Y-84322169D01*
X156365964Y-84322171D01*
X156266098Y-84536335D01*
X156266094Y-84536344D01*
X156204938Y-84764586D01*
X156204936Y-84764596D01*
X156184341Y-84999999D01*
X156184341Y-85000000D01*
X156204936Y-85235403D01*
X156204938Y-85235413D01*
X156266094Y-85463655D01*
X156266096Y-85463659D01*
X156266097Y-85463663D01*
X156274648Y-85482000D01*
X156365965Y-85677830D01*
X156365967Y-85677834D01*
X156501501Y-85871395D01*
X156501506Y-85871402D01*
X156668597Y-86038493D01*
X156668603Y-86038498D01*
X156854158Y-86168425D01*
X156897783Y-86223002D01*
X156904977Y-86292500D01*
X156873454Y-86354855D01*
X156854158Y-86371575D01*
X156668597Y-86501505D01*
X156501505Y-86668597D01*
X156365965Y-86862169D01*
X156365964Y-86862171D01*
X156266098Y-87076335D01*
X156266094Y-87076344D01*
X156204938Y-87304586D01*
X156204936Y-87304596D01*
X156184341Y-87539999D01*
X156184341Y-87540000D01*
X156204936Y-87775403D01*
X156204938Y-87775413D01*
X156266094Y-88003655D01*
X156266096Y-88003659D01*
X156266097Y-88003663D01*
X156345369Y-88173662D01*
X156365965Y-88217830D01*
X156365967Y-88217834D01*
X156501501Y-88411395D01*
X156501506Y-88411402D01*
X156668597Y-88578493D01*
X156668603Y-88578498D01*
X156854158Y-88708425D01*
X156897783Y-88763002D01*
X156904977Y-88832500D01*
X156873454Y-88894855D01*
X156854158Y-88911575D01*
X156668597Y-89041505D01*
X156501505Y-89208597D01*
X156365965Y-89402169D01*
X156365964Y-89402171D01*
X156266098Y-89616335D01*
X156266094Y-89616344D01*
X156204938Y-89844586D01*
X156204936Y-89844596D01*
X156184341Y-90079999D01*
X156184341Y-90080000D01*
X156204936Y-90315403D01*
X156204938Y-90315413D01*
X156266094Y-90543655D01*
X156266096Y-90543659D01*
X156266097Y-90543663D01*
X156361370Y-90747976D01*
X156365965Y-90757830D01*
X156365967Y-90757834D01*
X156501501Y-90951395D01*
X156501506Y-90951402D01*
X156668597Y-91118493D01*
X156668603Y-91118498D01*
X156854158Y-91248425D01*
X156897783Y-91303002D01*
X156904977Y-91372500D01*
X156873454Y-91434855D01*
X156854158Y-91451575D01*
X156668597Y-91581505D01*
X156501505Y-91748597D01*
X156365965Y-91942169D01*
X156365964Y-91942171D01*
X156266098Y-92156335D01*
X156266094Y-92156344D01*
X156204938Y-92384586D01*
X156204936Y-92384596D01*
X156184341Y-92619999D01*
X156184341Y-92620000D01*
X156204936Y-92855403D01*
X156204938Y-92855413D01*
X156266094Y-93083655D01*
X156266096Y-93083659D01*
X156266097Y-93083663D01*
X156345369Y-93253662D01*
X156365965Y-93297830D01*
X156365967Y-93297834D01*
X156474281Y-93452521D01*
X156497706Y-93485976D01*
X156501501Y-93491395D01*
X156501506Y-93491402D01*
X156668597Y-93658493D01*
X156668603Y-93658498D01*
X156854158Y-93788425D01*
X156897783Y-93843002D01*
X156904977Y-93912500D01*
X156873454Y-93974855D01*
X156854158Y-93991575D01*
X156668597Y-94121505D01*
X156501505Y-94288597D01*
X156365965Y-94482169D01*
X156365964Y-94482171D01*
X156266098Y-94696335D01*
X156266094Y-94696344D01*
X156204938Y-94924586D01*
X156204936Y-94924596D01*
X156184341Y-95159999D01*
X156184341Y-95160000D01*
X156204936Y-95395403D01*
X156204938Y-95395413D01*
X156266094Y-95623655D01*
X156266096Y-95623659D01*
X156266097Y-95623663D01*
X156314677Y-95727843D01*
X156365965Y-95837830D01*
X156365967Y-95837834D01*
X156501501Y-96031395D01*
X156501506Y-96031402D01*
X156668597Y-96198493D01*
X156668603Y-96198498D01*
X156854158Y-96328425D01*
X156897783Y-96383002D01*
X156904977Y-96452500D01*
X156873454Y-96514855D01*
X156854158Y-96531575D01*
X156668597Y-96661505D01*
X156501505Y-96828597D01*
X156365965Y-97022169D01*
X156365964Y-97022171D01*
X156266098Y-97236335D01*
X156266094Y-97236344D01*
X156204938Y-97464586D01*
X156204936Y-97464596D01*
X156184341Y-97699999D01*
X156184341Y-97700000D01*
X156204936Y-97935403D01*
X156204938Y-97935413D01*
X156266094Y-98163655D01*
X156266096Y-98163659D01*
X156266097Y-98163663D01*
X156339988Y-98322123D01*
X156365965Y-98377830D01*
X156365967Y-98377834D01*
X156501501Y-98571395D01*
X156501506Y-98571402D01*
X156668597Y-98738493D01*
X156668603Y-98738498D01*
X156752911Y-98797531D01*
X156839118Y-98857894D01*
X156854594Y-98868730D01*
X156898219Y-98923307D01*
X156905413Y-98992805D01*
X156873890Y-99055160D01*
X156854595Y-99071880D01*
X156668922Y-99201890D01*
X156668920Y-99201891D01*
X156501891Y-99368920D01*
X156501886Y-99368926D01*
X156366400Y-99562420D01*
X156366399Y-99562422D01*
X156266570Y-99776507D01*
X156266567Y-99776513D01*
X156209364Y-99989999D01*
X156209364Y-99990000D01*
X157106314Y-99990000D01*
X157080507Y-100030156D01*
X157040000Y-100168111D01*
X157040000Y-100311889D01*
X157080507Y-100449844D01*
X157106314Y-100490000D01*
X156209364Y-100490000D01*
X156266567Y-100703486D01*
X156266570Y-100703492D01*
X156366399Y-100917578D01*
X156501894Y-101111082D01*
X156668917Y-101278105D01*
X156854595Y-101408119D01*
X156898219Y-101462696D01*
X156905412Y-101532195D01*
X156873890Y-101594549D01*
X156854595Y-101611269D01*
X156668594Y-101741508D01*
X156501505Y-101908597D01*
X156365965Y-102102169D01*
X156365964Y-102102171D01*
X156266098Y-102316335D01*
X156266094Y-102316344D01*
X156204938Y-102544586D01*
X156204936Y-102544596D01*
X156184341Y-102779999D01*
X156184341Y-102780000D01*
X153727323Y-102780000D01*
X153708070Y-102559932D01*
X153650894Y-102346550D01*
X153557534Y-102146339D01*
X153430826Y-101965380D01*
X153274620Y-101809174D01*
X153274616Y-101809171D01*
X153274615Y-101809170D01*
X153093666Y-101682468D01*
X153093662Y-101682466D01*
X152964218Y-101622105D01*
X152911779Y-101575932D01*
X152892627Y-101508739D01*
X152912843Y-101441858D01*
X152964219Y-101397340D01*
X153093416Y-101337095D01*
X153093417Y-101337094D01*
X153158188Y-101291741D01*
X152487448Y-100621000D01*
X152491569Y-100621000D01*
X152585421Y-100605339D01*
X152697251Y-100544820D01*
X152783371Y-100451269D01*
X152834448Y-100334823D01*
X152840105Y-100266552D01*
X153511741Y-100938188D01*
X153557094Y-100873417D01*
X153557100Y-100873407D01*
X153650419Y-100673284D01*
X153650424Y-100673270D01*
X153707573Y-100459986D01*
X153707575Y-100459976D01*
X153726821Y-100240000D01*
X153726821Y-100239999D01*
X153707575Y-100020023D01*
X153707573Y-100020013D01*
X153650424Y-99806729D01*
X153650420Y-99806720D01*
X153557096Y-99606586D01*
X153511741Y-99541811D01*
X153511740Y-99541810D01*
X152844903Y-100208648D01*
X152844949Y-100208102D01*
X152813734Y-100084838D01*
X152744187Y-99978388D01*
X152643843Y-99900287D01*
X152523578Y-99859000D01*
X152487448Y-99859000D01*
X153158188Y-99188259D01*
X153158187Y-99188258D01*
X153093411Y-99142901D01*
X153093405Y-99142898D01*
X152964219Y-99082658D01*
X152911779Y-99036486D01*
X152892627Y-98969293D01*
X152912843Y-98902411D01*
X152964219Y-98857894D01*
X153093662Y-98797534D01*
X153274620Y-98670826D01*
X153430826Y-98514620D01*
X153557534Y-98333662D01*
X153650894Y-98133450D01*
X153708070Y-97920068D01*
X153727323Y-97700000D01*
X153708070Y-97479932D01*
X153650894Y-97266550D01*
X153557534Y-97066339D01*
X153430826Y-96885380D01*
X153274620Y-96729174D01*
X153274616Y-96729171D01*
X153274615Y-96729170D01*
X153093666Y-96602468D01*
X153093658Y-96602464D01*
X152964811Y-96542382D01*
X152912371Y-96496210D01*
X152893219Y-96429017D01*
X152913435Y-96362135D01*
X152964811Y-96317618D01*
X152970802Y-96314824D01*
X153093662Y-96257534D01*
X153274620Y-96130826D01*
X153430826Y-95974620D01*
X153557534Y-95793662D01*
X153650894Y-95593450D01*
X153708070Y-95380068D01*
X153727323Y-95160000D01*
X153708070Y-94939932D01*
X153650894Y-94726550D01*
X153557534Y-94526339D01*
X153494180Y-94435859D01*
X153430827Y-94345381D01*
X153366946Y-94281500D01*
X153274620Y-94189174D01*
X153274616Y-94189171D01*
X153274615Y-94189170D01*
X153093666Y-94062468D01*
X153093658Y-94062464D01*
X152964811Y-94002382D01*
X152912371Y-93956210D01*
X152893219Y-93889017D01*
X152913435Y-93822135D01*
X152964811Y-93777618D01*
X152970802Y-93774824D01*
X153093662Y-93717534D01*
X153274620Y-93590826D01*
X153430826Y-93434620D01*
X153557534Y-93253662D01*
X153650894Y-93053450D01*
X153708070Y-92840068D01*
X153727323Y-92620000D01*
X153708070Y-92399932D01*
X153650894Y-92186550D01*
X153557534Y-91986339D01*
X153430826Y-91805380D01*
X153274620Y-91649174D01*
X153274616Y-91649171D01*
X153274615Y-91649170D01*
X153093666Y-91522468D01*
X153093658Y-91522464D01*
X152964811Y-91462382D01*
X152912371Y-91416210D01*
X152893219Y-91349017D01*
X152913435Y-91282135D01*
X152964811Y-91237618D01*
X153008250Y-91217362D01*
X153093662Y-91177534D01*
X153274620Y-91050826D01*
X153430826Y-90894620D01*
X153557534Y-90713662D01*
X153650894Y-90513450D01*
X153708070Y-90300068D01*
X153727323Y-90080000D01*
X153725353Y-90057487D01*
X153713059Y-89916959D01*
X153708070Y-89859932D01*
X153650894Y-89646550D01*
X153557534Y-89446339D01*
X153430826Y-89265380D01*
X153274620Y-89109174D01*
X153274616Y-89109171D01*
X153274615Y-89109170D01*
X153093666Y-88982468D01*
X153093658Y-88982464D01*
X152964811Y-88922382D01*
X152912371Y-88876210D01*
X152893219Y-88809017D01*
X152913435Y-88742135D01*
X152964811Y-88697618D01*
X152970802Y-88694824D01*
X153093662Y-88637534D01*
X153274620Y-88510826D01*
X153430826Y-88354620D01*
X153557534Y-88173662D01*
X153650894Y-87973450D01*
X153708070Y-87760068D01*
X153727323Y-87540000D01*
X153708070Y-87319932D01*
X153650894Y-87106550D01*
X153557534Y-86906339D01*
X153443300Y-86743195D01*
X153430827Y-86725381D01*
X153374043Y-86668597D01*
X153274620Y-86569174D01*
X153274616Y-86569171D01*
X153274615Y-86569170D01*
X153093666Y-86442468D01*
X153093658Y-86442464D01*
X152964811Y-86382382D01*
X152912371Y-86336210D01*
X152893219Y-86269017D01*
X152913435Y-86202135D01*
X152964811Y-86157618D01*
X152970802Y-86154824D01*
X153093662Y-86097534D01*
X153274620Y-85970826D01*
X153430826Y-85814620D01*
X153557534Y-85633662D01*
X153650894Y-85433450D01*
X153708070Y-85220068D01*
X153727323Y-85000000D01*
X153725517Y-84979362D01*
X153708070Y-84779937D01*
X153708070Y-84779932D01*
X153650894Y-84566550D01*
X153557534Y-84366339D01*
X153430826Y-84185380D01*
X153274620Y-84029174D01*
X153274616Y-84029171D01*
X153274615Y-84029170D01*
X153093666Y-83902468D01*
X153093658Y-83902464D01*
X152964811Y-83842382D01*
X152912371Y-83796210D01*
X152893219Y-83729017D01*
X152913435Y-83662135D01*
X152964811Y-83617618D01*
X152973623Y-83613509D01*
X153093662Y-83557534D01*
X153274620Y-83430826D01*
X153430826Y-83274620D01*
X153557534Y-83093662D01*
X153650894Y-82893450D01*
X153708070Y-82680068D01*
X153727323Y-82460000D01*
X153708070Y-82239932D01*
X153650894Y-82026550D01*
X153557534Y-81826339D01*
X153430826Y-81645380D01*
X153274620Y-81489174D01*
X153274616Y-81489171D01*
X153274615Y-81489170D01*
X153093666Y-81362468D01*
X153093658Y-81362464D01*
X152964811Y-81302382D01*
X152912371Y-81256210D01*
X152893219Y-81189017D01*
X152913435Y-81122135D01*
X152964811Y-81077618D01*
X152970802Y-81074824D01*
X153093662Y-81017534D01*
X153274620Y-80890826D01*
X153430826Y-80734620D01*
X153557534Y-80553662D01*
X153650894Y-80353450D01*
X153708070Y-80140068D01*
X153727323Y-79920000D01*
X153708070Y-79699932D01*
X153650894Y-79486550D01*
X153557534Y-79286339D01*
X153430826Y-79105380D01*
X153274620Y-78949174D01*
X153274616Y-78949171D01*
X153274615Y-78949170D01*
X153093666Y-78822468D01*
X153093658Y-78822464D01*
X152964811Y-78762382D01*
X152912371Y-78716210D01*
X152893219Y-78649017D01*
X152913435Y-78582135D01*
X152964811Y-78537618D01*
X152970802Y-78534824D01*
X153093662Y-78477534D01*
X153274620Y-78350826D01*
X153430826Y-78194620D01*
X153557534Y-78013662D01*
X153650894Y-77813450D01*
X153708070Y-77600068D01*
X153727323Y-77380000D01*
X153708070Y-77159932D01*
X153650894Y-76946550D01*
X153557534Y-76746339D01*
X153430826Y-76565380D01*
X153274620Y-76409174D01*
X153274616Y-76409171D01*
X153274615Y-76409170D01*
X153093666Y-76282468D01*
X153093658Y-76282464D01*
X152964811Y-76222382D01*
X152912371Y-76176210D01*
X152893219Y-76109017D01*
X152913435Y-76042135D01*
X152964811Y-75997618D01*
X152989777Y-75985976D01*
X153093662Y-75937534D01*
X153274620Y-75810826D01*
X153430826Y-75654620D01*
X153557534Y-75473662D01*
X153650894Y-75273450D01*
X153708070Y-75060068D01*
X153727323Y-74840000D01*
X153708070Y-74619932D01*
X153650894Y-74406550D01*
X153557534Y-74206339D01*
X153430826Y-74025380D01*
X153274620Y-73869174D01*
X153274616Y-73869171D01*
X153274615Y-73869170D01*
X153093666Y-73742468D01*
X153093658Y-73742464D01*
X152964811Y-73682382D01*
X152912371Y-73636210D01*
X152893219Y-73569017D01*
X152913435Y-73502135D01*
X152964811Y-73457618D01*
X152970802Y-73454824D01*
X153093662Y-73397534D01*
X153274620Y-73270826D01*
X153430826Y-73114620D01*
X153557534Y-72933662D01*
X153650894Y-72733450D01*
X153708070Y-72520068D01*
X153727323Y-72300000D01*
X153708070Y-72079932D01*
X153650894Y-71866550D01*
X153557534Y-71666339D01*
X153430826Y-71485380D01*
X153274620Y-71329174D01*
X153274616Y-71329171D01*
X153274615Y-71329170D01*
X153093666Y-71202468D01*
X153093658Y-71202464D01*
X152964811Y-71142382D01*
X152912371Y-71096210D01*
X152893219Y-71029017D01*
X152913435Y-70962135D01*
X152964811Y-70917618D01*
X152970802Y-70914824D01*
X153093662Y-70857534D01*
X153274620Y-70730826D01*
X153430826Y-70574620D01*
X153557534Y-70393662D01*
X153650894Y-70193450D01*
X153708070Y-69980068D01*
X153727323Y-69760000D01*
X153727269Y-69759388D01*
X153708070Y-69539937D01*
X153708070Y-69539932D01*
X153650894Y-69326550D01*
X153557534Y-69126339D01*
X153430826Y-68945380D01*
X153274620Y-68789174D01*
X153274616Y-68789171D01*
X153274615Y-68789170D01*
X153093666Y-68662468D01*
X153093658Y-68662464D01*
X152964811Y-68602382D01*
X152912371Y-68556210D01*
X152893219Y-68489017D01*
X152913435Y-68422135D01*
X152964811Y-68377618D01*
X152970802Y-68374824D01*
X153093662Y-68317534D01*
X153274620Y-68190826D01*
X153430826Y-68034620D01*
X153557534Y-67853662D01*
X153650894Y-67653450D01*
X153708070Y-67440068D01*
X153727323Y-67220000D01*
X153708070Y-66999932D01*
X153650894Y-66786550D01*
X153557534Y-66586339D01*
X153494180Y-66495859D01*
X153430827Y-66405381D01*
X153363648Y-66338202D01*
X153274620Y-66249174D01*
X153274616Y-66249171D01*
X153274615Y-66249170D01*
X153093666Y-66122468D01*
X153093662Y-66122466D01*
X153046457Y-66100454D01*
X152893450Y-66029106D01*
X152893447Y-66029105D01*
X152893445Y-66029104D01*
X152680070Y-65971930D01*
X152680062Y-65971929D01*
X152460002Y-65952677D01*
X152459998Y-65952677D01*
X152239937Y-65971929D01*
X152239929Y-65971930D01*
X152026554Y-66029104D01*
X152026548Y-66029107D01*
X151826340Y-66122465D01*
X151826338Y-66122466D01*
X151645377Y-66249175D01*
X151489175Y-66405377D01*
X151362466Y-66586338D01*
X151362465Y-66586340D01*
X151269107Y-66786548D01*
X151269104Y-66786554D01*
X151211930Y-66999929D01*
X151211929Y-66999937D01*
X151192677Y-67219997D01*
X151192677Y-67220002D01*
X151211929Y-67440062D01*
X151211930Y-67440070D01*
X151269104Y-67653445D01*
X151269105Y-67653447D01*
X151269106Y-67653450D01*
X151362466Y-67853662D01*
X151362468Y-67853666D01*
X151489170Y-68034615D01*
X151489175Y-68034621D01*
X151645378Y-68190824D01*
X151645384Y-68190829D01*
X151826333Y-68317531D01*
X151826335Y-68317532D01*
X151826338Y-68317534D01*
X151945748Y-68373215D01*
X151955189Y-68377618D01*
X152007628Y-68423790D01*
X152026780Y-68490984D01*
X152006564Y-68557865D01*
X151955189Y-68602382D01*
X151826340Y-68662465D01*
X151826338Y-68662466D01*
X151645377Y-68789175D01*
X151489175Y-68945377D01*
X151362466Y-69126338D01*
X151362465Y-69126340D01*
X151269107Y-69326548D01*
X151269104Y-69326554D01*
X151211930Y-69539929D01*
X151211929Y-69539937D01*
X151192677Y-69759997D01*
X151192677Y-69760002D01*
X151211929Y-69980062D01*
X151211930Y-69980070D01*
X151269104Y-70193445D01*
X151269105Y-70193447D01*
X151269106Y-70193450D01*
X151303990Y-70268259D01*
X151362466Y-70393662D01*
X151362468Y-70393666D01*
X151489170Y-70574615D01*
X151489175Y-70574621D01*
X151645378Y-70730824D01*
X151645384Y-70730829D01*
X151826333Y-70857531D01*
X151826335Y-70857532D01*
X151826338Y-70857534D01*
X151945748Y-70913215D01*
X151955189Y-70917618D01*
X152007628Y-70963790D01*
X152026780Y-71030984D01*
X152006564Y-71097865D01*
X151955189Y-71142382D01*
X151826340Y-71202465D01*
X151826338Y-71202466D01*
X151645377Y-71329175D01*
X151489175Y-71485377D01*
X151362466Y-71666338D01*
X151362465Y-71666340D01*
X151269107Y-71866548D01*
X151269104Y-71866554D01*
X151211930Y-72079929D01*
X151211929Y-72079937D01*
X151192677Y-72299997D01*
X151192677Y-72300002D01*
X151211929Y-72520062D01*
X151211930Y-72520070D01*
X151269104Y-72733445D01*
X151269105Y-72733447D01*
X151269106Y-72733450D01*
X151340599Y-72886768D01*
X151362466Y-72933662D01*
X151362468Y-72933666D01*
X151489170Y-73114615D01*
X151489175Y-73114621D01*
X151645378Y-73270824D01*
X151645384Y-73270829D01*
X151826333Y-73397531D01*
X151826335Y-73397532D01*
X151826338Y-73397534D01*
X151945748Y-73453215D01*
X151955189Y-73457618D01*
X152007628Y-73503790D01*
X152026780Y-73570984D01*
X152006564Y-73637865D01*
X151955189Y-73682382D01*
X151826340Y-73742465D01*
X151826338Y-73742466D01*
X151645377Y-73869175D01*
X151489175Y-74025377D01*
X151362466Y-74206338D01*
X151362465Y-74206340D01*
X151269107Y-74406548D01*
X151269104Y-74406554D01*
X151211930Y-74619929D01*
X151211929Y-74619937D01*
X151192677Y-74839997D01*
X151192677Y-74840002D01*
X151211929Y-75060062D01*
X151211930Y-75060070D01*
X151269104Y-75273445D01*
X151269105Y-75273447D01*
X151269106Y-75273450D01*
X151283195Y-75303664D01*
X151362466Y-75473662D01*
X151362468Y-75473666D01*
X151489170Y-75654615D01*
X151489175Y-75654621D01*
X151645378Y-75810824D01*
X151645384Y-75810829D01*
X151826333Y-75937531D01*
X151826335Y-75937532D01*
X151826338Y-75937534D01*
X151930223Y-75985976D01*
X151955189Y-75997618D01*
X152007628Y-76043790D01*
X152026780Y-76110984D01*
X152006564Y-76177865D01*
X151955189Y-76222382D01*
X151826340Y-76282465D01*
X151826338Y-76282466D01*
X151645377Y-76409175D01*
X151489175Y-76565377D01*
X151362466Y-76746338D01*
X151362465Y-76746340D01*
X151269107Y-76946548D01*
X151269104Y-76946554D01*
X151211930Y-77159929D01*
X151211929Y-77159937D01*
X151192677Y-77379997D01*
X151192677Y-77380002D01*
X151211929Y-77600062D01*
X151211930Y-77600070D01*
X151269104Y-77813445D01*
X151269105Y-77813447D01*
X151269106Y-77813450D01*
X151283195Y-77843664D01*
X151362466Y-78013662D01*
X151362468Y-78013666D01*
X151489170Y-78194615D01*
X151489175Y-78194621D01*
X151645378Y-78350824D01*
X151645384Y-78350829D01*
X151826333Y-78477531D01*
X151826335Y-78477532D01*
X151826338Y-78477534D01*
X151945748Y-78533215D01*
X151955189Y-78537618D01*
X152007628Y-78583790D01*
X152026780Y-78650984D01*
X152006564Y-78717865D01*
X151955189Y-78762382D01*
X151826340Y-78822465D01*
X151826338Y-78822466D01*
X151645377Y-78949175D01*
X151489175Y-79105377D01*
X151362466Y-79286338D01*
X151362465Y-79286340D01*
X151269107Y-79486548D01*
X151269104Y-79486554D01*
X151211930Y-79699929D01*
X151211929Y-79699937D01*
X151192677Y-79919997D01*
X151192677Y-79920002D01*
X151211929Y-80140062D01*
X151211930Y-80140070D01*
X151269104Y-80353445D01*
X151269105Y-80353447D01*
X151269106Y-80353450D01*
X151283195Y-80383664D01*
X151362466Y-80553662D01*
X151362468Y-80553666D01*
X151489170Y-80734615D01*
X151489175Y-80734621D01*
X151645378Y-80890824D01*
X151645384Y-80890829D01*
X151826333Y-81017531D01*
X151826335Y-81017532D01*
X151826338Y-81017534D01*
X151945748Y-81073215D01*
X151955189Y-81077618D01*
X152007628Y-81123790D01*
X152026780Y-81190984D01*
X152006564Y-81257865D01*
X151955189Y-81302382D01*
X151826340Y-81362465D01*
X151826338Y-81362466D01*
X151645377Y-81489175D01*
X151489175Y-81645377D01*
X151362466Y-81826338D01*
X151362465Y-81826340D01*
X151269107Y-82026548D01*
X151269104Y-82026554D01*
X151211930Y-82239929D01*
X151211929Y-82239937D01*
X151192677Y-82459997D01*
X151192677Y-82460002D01*
X151211929Y-82680062D01*
X151211930Y-82680070D01*
X151269104Y-82893445D01*
X151269105Y-82893447D01*
X151269106Y-82893450D01*
X151360055Y-83088491D01*
X151362466Y-83093662D01*
X151362468Y-83093666D01*
X151489170Y-83274615D01*
X151489175Y-83274621D01*
X151645378Y-83430824D01*
X151645384Y-83430829D01*
X151826333Y-83557531D01*
X151826335Y-83557532D01*
X151826338Y-83557534D01*
X151945748Y-83613215D01*
X151955189Y-83617618D01*
X152007628Y-83663790D01*
X152026780Y-83730984D01*
X152006564Y-83797865D01*
X151955189Y-83842382D01*
X151826340Y-83902465D01*
X151826338Y-83902466D01*
X151645377Y-84029175D01*
X151489175Y-84185377D01*
X151362466Y-84366338D01*
X151362465Y-84366340D01*
X151269107Y-84566548D01*
X151269104Y-84566554D01*
X151211930Y-84779929D01*
X151211929Y-84779937D01*
X151192677Y-84999997D01*
X151192677Y-85000002D01*
X151211929Y-85220062D01*
X151211930Y-85220070D01*
X151269104Y-85433445D01*
X151269105Y-85433447D01*
X151269106Y-85433450D01*
X151291747Y-85482004D01*
X151362466Y-85633662D01*
X151362468Y-85633666D01*
X151489170Y-85814615D01*
X151489175Y-85814621D01*
X151645378Y-85970824D01*
X151645384Y-85970829D01*
X151826333Y-86097531D01*
X151826335Y-86097532D01*
X151826338Y-86097534D01*
X151945748Y-86153215D01*
X151955189Y-86157618D01*
X152007628Y-86203790D01*
X152026780Y-86270984D01*
X152006564Y-86337865D01*
X151955189Y-86382382D01*
X151826340Y-86442465D01*
X151826338Y-86442466D01*
X151645377Y-86569175D01*
X151489175Y-86725377D01*
X151362466Y-86906338D01*
X151362465Y-86906340D01*
X151269107Y-87106548D01*
X151269104Y-87106554D01*
X151211930Y-87319929D01*
X151211929Y-87319937D01*
X151192677Y-87539997D01*
X151192677Y-87540002D01*
X151211929Y-87760062D01*
X151211930Y-87760070D01*
X151269104Y-87973445D01*
X151269105Y-87973447D01*
X151269106Y-87973450D01*
X151283195Y-88003664D01*
X151362466Y-88173662D01*
X151362468Y-88173666D01*
X151489170Y-88354615D01*
X151489175Y-88354621D01*
X151645378Y-88510824D01*
X151645384Y-88510829D01*
X151826333Y-88637531D01*
X151826335Y-88637532D01*
X151826338Y-88637534D01*
X151945748Y-88693215D01*
X151955189Y-88697618D01*
X152007628Y-88743790D01*
X152026780Y-88810984D01*
X152006564Y-88877865D01*
X151955189Y-88922382D01*
X151826340Y-88982465D01*
X151826338Y-88982466D01*
X151645377Y-89109175D01*
X151489175Y-89265377D01*
X151362466Y-89446338D01*
X151362465Y-89446340D01*
X151269107Y-89646548D01*
X151269104Y-89646554D01*
X151211930Y-89859929D01*
X151211929Y-89859937D01*
X151192677Y-90079997D01*
X151192677Y-90080002D01*
X151211929Y-90300062D01*
X151211930Y-90300070D01*
X151269104Y-90513445D01*
X151269105Y-90513447D01*
X151269106Y-90513450D01*
X151333750Y-90652080D01*
X151362466Y-90713662D01*
X151362468Y-90713666D01*
X151489170Y-90894615D01*
X151489175Y-90894621D01*
X151645378Y-91050824D01*
X151645384Y-91050829D01*
X151826333Y-91177531D01*
X151826335Y-91177532D01*
X151826338Y-91177534D01*
X151911750Y-91217362D01*
X151955189Y-91237618D01*
X152007628Y-91283790D01*
X152026780Y-91350984D01*
X152006564Y-91417865D01*
X151955189Y-91462382D01*
X151826340Y-91522465D01*
X151826338Y-91522466D01*
X151645377Y-91649175D01*
X151489175Y-91805377D01*
X151362466Y-91986338D01*
X151362465Y-91986340D01*
X151269107Y-92186548D01*
X151269104Y-92186554D01*
X151211930Y-92399929D01*
X151211929Y-92399937D01*
X151192677Y-92619997D01*
X151192677Y-92620002D01*
X151211929Y-92840062D01*
X151211930Y-92840070D01*
X151269104Y-93053445D01*
X151269105Y-93053447D01*
X151269106Y-93053450D01*
X151283195Y-93083664D01*
X151362466Y-93253662D01*
X151362468Y-93253666D01*
X151489170Y-93434615D01*
X151489175Y-93434621D01*
X151645378Y-93590824D01*
X151645384Y-93590829D01*
X151826333Y-93717531D01*
X151826335Y-93717532D01*
X151826338Y-93717534D01*
X151945748Y-93773215D01*
X151955189Y-93777618D01*
X152007628Y-93823790D01*
X152026780Y-93890984D01*
X152006564Y-93957865D01*
X151955189Y-94002382D01*
X151826340Y-94062465D01*
X151826338Y-94062466D01*
X151645377Y-94189175D01*
X151489175Y-94345377D01*
X151362466Y-94526338D01*
X151362465Y-94526340D01*
X151269107Y-94726548D01*
X151269104Y-94726554D01*
X151211930Y-94939929D01*
X151211929Y-94939937D01*
X151192677Y-95159997D01*
X151192677Y-95160002D01*
X151211929Y-95380062D01*
X151211930Y-95380070D01*
X151269104Y-95593445D01*
X151269105Y-95593447D01*
X151269106Y-95593450D01*
X151329347Y-95722637D01*
X151362466Y-95793662D01*
X151362468Y-95793666D01*
X151489170Y-95974615D01*
X151489175Y-95974621D01*
X151645378Y-96130824D01*
X151645384Y-96130829D01*
X151826333Y-96257531D01*
X151826335Y-96257532D01*
X151826338Y-96257534D01*
X151945748Y-96313215D01*
X151955189Y-96317618D01*
X152007628Y-96363790D01*
X152026780Y-96430984D01*
X152006564Y-96497865D01*
X151955189Y-96542382D01*
X151826340Y-96602465D01*
X151826338Y-96602466D01*
X151645377Y-96729175D01*
X151489175Y-96885377D01*
X151362466Y-97066338D01*
X151362465Y-97066340D01*
X151269107Y-97266548D01*
X151269104Y-97266554D01*
X151211930Y-97479929D01*
X151211929Y-97479937D01*
X151192677Y-97699997D01*
X151192677Y-97700002D01*
X151211929Y-97920062D01*
X151211930Y-97920070D01*
X151269104Y-98133445D01*
X151269105Y-98133447D01*
X151269106Y-98133450D01*
X151283195Y-98163664D01*
X151362466Y-98333662D01*
X151362468Y-98333666D01*
X151489170Y-98514615D01*
X151489175Y-98514621D01*
X151645378Y-98670824D01*
X151645384Y-98670829D01*
X151826333Y-98797531D01*
X151826335Y-98797532D01*
X151826338Y-98797534D01*
X151955781Y-98857894D01*
X152008220Y-98904066D01*
X152027372Y-98971260D01*
X152007156Y-99038141D01*
X151955781Y-99082658D01*
X151826590Y-99142901D01*
X151761811Y-99188258D01*
X152432553Y-99859000D01*
X152428431Y-99859000D01*
X152334579Y-99874661D01*
X152222749Y-99935180D01*
X152136629Y-100028731D01*
X152085552Y-100145177D01*
X152079894Y-100213447D01*
X151408258Y-99541811D01*
X151362901Y-99606590D01*
X151269579Y-99806720D01*
X151269575Y-99806729D01*
X151212426Y-100020013D01*
X151212424Y-100020023D01*
X151193179Y-100239999D01*
X151193179Y-100240000D01*
X151212424Y-100459976D01*
X151212426Y-100459986D01*
X151269575Y-100673270D01*
X151269580Y-100673284D01*
X151362898Y-100873405D01*
X151362901Y-100873411D01*
X151408258Y-100938187D01*
X151408259Y-100938188D01*
X152075096Y-100271350D01*
X152075051Y-100271898D01*
X152106266Y-100395162D01*
X152175813Y-100501612D01*
X152276157Y-100579713D01*
X152396422Y-100621000D01*
X152432553Y-100621000D01*
X151761810Y-101291740D01*
X151826589Y-101337098D01*
X151955781Y-101397342D01*
X152008220Y-101443514D01*
X152027372Y-101510708D01*
X152007156Y-101577589D01*
X151955781Y-101622106D01*
X151826340Y-101682465D01*
X151826338Y-101682466D01*
X151645377Y-101809175D01*
X151489175Y-101965377D01*
X151362466Y-102146338D01*
X151362465Y-102146340D01*
X151269107Y-102346548D01*
X151269104Y-102346554D01*
X151211930Y-102559929D01*
X151211929Y-102559937D01*
X151192677Y-102779997D01*
X151192677Y-102780002D01*
X128327323Y-102780002D01*
X128327323Y-102780000D01*
X128308070Y-102559932D01*
X128250894Y-102346550D01*
X128157534Y-102146339D01*
X128030826Y-101965380D01*
X127874620Y-101809174D01*
X127874616Y-101809171D01*
X127874615Y-101809170D01*
X127693666Y-101682468D01*
X127693662Y-101682466D01*
X127564218Y-101622105D01*
X127511779Y-101575932D01*
X127492627Y-101508739D01*
X127512843Y-101441858D01*
X127564219Y-101397340D01*
X127693416Y-101337095D01*
X127693417Y-101337094D01*
X127758188Y-101291741D01*
X127087448Y-100621000D01*
X127091569Y-100621000D01*
X127185421Y-100605339D01*
X127297251Y-100544820D01*
X127383371Y-100451269D01*
X127434448Y-100334823D01*
X127440105Y-100266552D01*
X128111741Y-100938188D01*
X128157094Y-100873417D01*
X128157100Y-100873407D01*
X128250419Y-100673284D01*
X128250424Y-100673270D01*
X128307573Y-100459986D01*
X128307575Y-100459976D01*
X128326821Y-100240000D01*
X128326821Y-100239999D01*
X128307575Y-100020023D01*
X128307573Y-100020013D01*
X128250424Y-99806729D01*
X128250420Y-99806720D01*
X128157096Y-99606586D01*
X128111741Y-99541811D01*
X128111740Y-99541810D01*
X127444903Y-100208648D01*
X127444949Y-100208102D01*
X127413734Y-100084838D01*
X127344187Y-99978388D01*
X127243843Y-99900287D01*
X127123578Y-99859000D01*
X127087448Y-99859000D01*
X127758188Y-99188259D01*
X127758187Y-99188258D01*
X127693411Y-99142901D01*
X127693405Y-99142898D01*
X127564219Y-99082658D01*
X127511779Y-99036486D01*
X127492627Y-98969293D01*
X127512843Y-98902411D01*
X127564219Y-98857894D01*
X127693662Y-98797534D01*
X127874620Y-98670826D01*
X128030826Y-98514620D01*
X128157534Y-98333662D01*
X128250894Y-98133450D01*
X128308070Y-97920068D01*
X128327323Y-97700000D01*
X128308070Y-97479932D01*
X128250894Y-97266550D01*
X128157534Y-97066339D01*
X128030826Y-96885380D01*
X127874620Y-96729174D01*
X127874616Y-96729171D01*
X127874615Y-96729170D01*
X127693666Y-96602468D01*
X127693658Y-96602464D01*
X127564811Y-96542382D01*
X127512371Y-96496210D01*
X127493219Y-96429017D01*
X127513435Y-96362135D01*
X127564811Y-96317618D01*
X127570802Y-96314824D01*
X127693662Y-96257534D01*
X127874620Y-96130826D01*
X128030826Y-95974620D01*
X128157534Y-95793662D01*
X128250894Y-95593450D01*
X128308070Y-95380068D01*
X128327323Y-95160000D01*
X128308070Y-94939932D01*
X128250894Y-94726550D01*
X128157534Y-94526339D01*
X128094180Y-94435859D01*
X128030827Y-94345381D01*
X127966946Y-94281500D01*
X127874620Y-94189174D01*
X127874616Y-94189171D01*
X127874615Y-94189170D01*
X127693666Y-94062468D01*
X127693658Y-94062464D01*
X127564811Y-94002382D01*
X127512371Y-93956210D01*
X127493219Y-93889017D01*
X127513435Y-93822135D01*
X127564811Y-93777618D01*
X127570802Y-93774824D01*
X127693662Y-93717534D01*
X127874620Y-93590826D01*
X128030826Y-93434620D01*
X128157534Y-93253662D01*
X128250894Y-93053450D01*
X128308070Y-92840068D01*
X128327323Y-92620000D01*
X128308070Y-92399932D01*
X128250894Y-92186550D01*
X128157534Y-91986339D01*
X128030826Y-91805380D01*
X127874620Y-91649174D01*
X127874616Y-91649171D01*
X127874615Y-91649170D01*
X127693666Y-91522468D01*
X127693658Y-91522464D01*
X127564811Y-91462382D01*
X127512371Y-91416210D01*
X127493219Y-91349017D01*
X127513435Y-91282135D01*
X127564811Y-91237618D01*
X127608250Y-91217362D01*
X127693662Y-91177534D01*
X127874620Y-91050826D01*
X128030826Y-90894620D01*
X128157534Y-90713662D01*
X128250894Y-90513450D01*
X128308070Y-90300068D01*
X128327323Y-90080000D01*
X128325353Y-90057487D01*
X128313059Y-89916959D01*
X128308070Y-89859932D01*
X128250894Y-89646550D01*
X128157534Y-89446339D01*
X128030826Y-89265380D01*
X127874620Y-89109174D01*
X127874616Y-89109171D01*
X127874615Y-89109170D01*
X127693666Y-88982468D01*
X127693658Y-88982464D01*
X127564811Y-88922382D01*
X127512371Y-88876210D01*
X127493219Y-88809017D01*
X127513435Y-88742135D01*
X127564811Y-88697618D01*
X127570802Y-88694824D01*
X127693662Y-88637534D01*
X127874620Y-88510826D01*
X128030826Y-88354620D01*
X128157534Y-88173662D01*
X128250894Y-87973450D01*
X128308070Y-87760068D01*
X128327323Y-87540000D01*
X128308070Y-87319932D01*
X128250894Y-87106550D01*
X128157534Y-86906339D01*
X128043300Y-86743195D01*
X128030827Y-86725381D01*
X127974043Y-86668597D01*
X127874620Y-86569174D01*
X127874616Y-86569171D01*
X127874615Y-86569170D01*
X127693666Y-86442468D01*
X127693658Y-86442464D01*
X127564811Y-86382382D01*
X127512371Y-86336210D01*
X127493219Y-86269017D01*
X127513435Y-86202135D01*
X127564811Y-86157618D01*
X127570802Y-86154824D01*
X127693662Y-86097534D01*
X127874620Y-85970826D01*
X128030826Y-85814620D01*
X128157534Y-85633662D01*
X128250894Y-85433450D01*
X128308070Y-85220068D01*
X128327323Y-85000000D01*
X128325517Y-84979362D01*
X128308070Y-84779937D01*
X128308070Y-84779932D01*
X128250894Y-84566550D01*
X128157534Y-84366339D01*
X128030826Y-84185380D01*
X127874620Y-84029174D01*
X127874616Y-84029171D01*
X127874615Y-84029170D01*
X127693666Y-83902468D01*
X127693658Y-83902464D01*
X127564811Y-83842382D01*
X127512371Y-83796210D01*
X127493219Y-83729017D01*
X127513435Y-83662135D01*
X127564811Y-83617618D01*
X127573623Y-83613509D01*
X127693662Y-83557534D01*
X127874620Y-83430826D01*
X128030826Y-83274620D01*
X128157534Y-83093662D01*
X128250894Y-82893450D01*
X128308070Y-82680068D01*
X128327323Y-82460000D01*
X128308070Y-82239932D01*
X128250894Y-82026550D01*
X128157534Y-81826339D01*
X128030826Y-81645380D01*
X127874620Y-81489174D01*
X127874616Y-81489171D01*
X127874615Y-81489170D01*
X127693666Y-81362468D01*
X127693658Y-81362464D01*
X127564811Y-81302382D01*
X127512371Y-81256210D01*
X127493219Y-81189017D01*
X127513435Y-81122135D01*
X127564811Y-81077618D01*
X127570802Y-81074824D01*
X127693662Y-81017534D01*
X127874620Y-80890826D01*
X128030826Y-80734620D01*
X128157534Y-80553662D01*
X128250894Y-80353450D01*
X128308070Y-80140068D01*
X128327323Y-79920000D01*
X128308070Y-79699932D01*
X128250894Y-79486550D01*
X128157534Y-79286339D01*
X128030826Y-79105380D01*
X127874620Y-78949174D01*
X127874616Y-78949171D01*
X127874615Y-78949170D01*
X127693666Y-78822468D01*
X127693658Y-78822464D01*
X127564811Y-78762382D01*
X127512371Y-78716210D01*
X127493219Y-78649017D01*
X127513435Y-78582135D01*
X127564811Y-78537618D01*
X127570802Y-78534824D01*
X127693662Y-78477534D01*
X127874620Y-78350826D01*
X128030826Y-78194620D01*
X128157534Y-78013662D01*
X128250894Y-77813450D01*
X128308070Y-77600068D01*
X128327323Y-77380000D01*
X128308070Y-77159932D01*
X128250894Y-76946550D01*
X128157534Y-76746339D01*
X128030826Y-76565380D01*
X127874620Y-76409174D01*
X127874616Y-76409171D01*
X127874615Y-76409170D01*
X127693666Y-76282468D01*
X127693658Y-76282464D01*
X127564811Y-76222382D01*
X127512371Y-76176210D01*
X127493219Y-76109017D01*
X127513435Y-76042135D01*
X127564811Y-75997618D01*
X127589777Y-75985976D01*
X127693662Y-75937534D01*
X127874620Y-75810826D01*
X128030826Y-75654620D01*
X128157534Y-75473662D01*
X128250894Y-75273450D01*
X128308070Y-75060068D01*
X128327323Y-74840000D01*
X128308070Y-74619932D01*
X128250894Y-74406550D01*
X128157534Y-74206339D01*
X128030826Y-74025380D01*
X127874620Y-73869174D01*
X127874616Y-73869171D01*
X127874615Y-73869170D01*
X127693666Y-73742468D01*
X127693658Y-73742464D01*
X127564811Y-73682382D01*
X127512371Y-73636210D01*
X127493219Y-73569017D01*
X127513435Y-73502135D01*
X127564811Y-73457618D01*
X127570802Y-73454824D01*
X127693662Y-73397534D01*
X127874620Y-73270826D01*
X128030826Y-73114620D01*
X128157534Y-72933662D01*
X128250894Y-72733450D01*
X128308070Y-72520068D01*
X128327323Y-72300000D01*
X128308070Y-72079932D01*
X128250894Y-71866550D01*
X128157534Y-71666339D01*
X128030826Y-71485380D01*
X127874620Y-71329174D01*
X127874616Y-71329171D01*
X127874615Y-71329170D01*
X127693666Y-71202468D01*
X127693658Y-71202464D01*
X127564811Y-71142382D01*
X127512371Y-71096210D01*
X127493219Y-71029017D01*
X127513435Y-70962135D01*
X127564811Y-70917618D01*
X127570802Y-70914824D01*
X127693662Y-70857534D01*
X127874620Y-70730826D01*
X128030826Y-70574620D01*
X128157534Y-70393662D01*
X128250894Y-70193450D01*
X128308070Y-69980068D01*
X128327323Y-69760000D01*
X128327269Y-69759388D01*
X128308070Y-69539937D01*
X128308070Y-69539932D01*
X128250894Y-69326550D01*
X128157534Y-69126339D01*
X128030826Y-68945380D01*
X127874620Y-68789174D01*
X127874616Y-68789171D01*
X127874615Y-68789170D01*
X127758797Y-68708074D01*
X127715172Y-68653497D01*
X127707978Y-68583999D01*
X127739501Y-68521644D01*
X127799730Y-68486230D01*
X127829919Y-68482499D01*
X127869872Y-68482499D01*
X127929483Y-68476091D01*
X128064331Y-68425796D01*
X128179546Y-68339546D01*
X128265796Y-68224331D01*
X128316091Y-68089483D01*
X128322500Y-68029873D01*
X128322499Y-66410128D01*
X128316091Y-66350517D01*
X128311499Y-66338206D01*
X128265797Y-66215671D01*
X128265793Y-66215664D01*
X128179547Y-66100455D01*
X128179544Y-66100452D01*
X128064335Y-66014206D01*
X128064328Y-66014202D01*
X127929482Y-65963908D01*
X127929483Y-65963908D01*
X127869883Y-65957501D01*
X127869881Y-65957500D01*
X127869873Y-65957500D01*
X127869864Y-65957500D01*
X126250129Y-65957500D01*
X126250123Y-65957501D01*
X126190516Y-65963908D01*
X126055671Y-66014202D01*
X126055664Y-66014206D01*
X125940455Y-66100452D01*
X125940452Y-66100455D01*
X125854206Y-66215664D01*
X125854202Y-66215671D01*
X125803908Y-66350517D01*
X125798010Y-66405380D01*
X125797501Y-66410123D01*
X125797500Y-66410135D01*
X125797500Y-68029870D01*
X125797501Y-68029876D01*
X125803908Y-68089483D01*
X125854202Y-68224328D01*
X125854206Y-68224335D01*
X125940452Y-68339544D01*
X125940455Y-68339547D01*
X126055664Y-68425793D01*
X126055671Y-68425797D01*
X126190517Y-68476091D01*
X126190516Y-68476091D01*
X126197444Y-68476835D01*
X126250127Y-68482500D01*
X126290079Y-68482499D01*
X126357116Y-68502182D01*
X126402872Y-68554985D01*
X126412817Y-68624143D01*
X126383794Y-68687700D01*
X126361203Y-68708074D01*
X126245375Y-68789177D01*
X126089175Y-68945377D01*
X125962466Y-69126338D01*
X125962465Y-69126340D01*
X125869107Y-69326548D01*
X125869104Y-69326554D01*
X125811930Y-69539929D01*
X125811929Y-69539937D01*
X125792677Y-69759997D01*
X125792677Y-69760002D01*
X125811929Y-69980062D01*
X125811930Y-69980070D01*
X125869104Y-70193445D01*
X125869105Y-70193447D01*
X125869106Y-70193450D01*
X125903990Y-70268259D01*
X125962466Y-70393662D01*
X125962468Y-70393666D01*
X126089170Y-70574615D01*
X126089175Y-70574621D01*
X126245378Y-70730824D01*
X126245384Y-70730829D01*
X126426333Y-70857531D01*
X126426335Y-70857532D01*
X126426338Y-70857534D01*
X126545748Y-70913215D01*
X126555189Y-70917618D01*
X126607628Y-70963790D01*
X126626780Y-71030984D01*
X126606564Y-71097865D01*
X126555189Y-71142382D01*
X126426340Y-71202465D01*
X126426338Y-71202466D01*
X126245377Y-71329175D01*
X126089175Y-71485377D01*
X125962466Y-71666338D01*
X125962465Y-71666340D01*
X125869107Y-71866548D01*
X125869104Y-71866554D01*
X125811930Y-72079929D01*
X125811929Y-72079937D01*
X125792677Y-72299997D01*
X125792677Y-72300002D01*
X125811929Y-72520062D01*
X125811930Y-72520070D01*
X125869104Y-72733445D01*
X125869105Y-72733447D01*
X125869106Y-72733450D01*
X125940599Y-72886768D01*
X125962466Y-72933662D01*
X125962468Y-72933666D01*
X126089170Y-73114615D01*
X126089175Y-73114621D01*
X126245378Y-73270824D01*
X126245384Y-73270829D01*
X126426333Y-73397531D01*
X126426335Y-73397532D01*
X126426338Y-73397534D01*
X126545748Y-73453215D01*
X126555189Y-73457618D01*
X126607628Y-73503790D01*
X126626780Y-73570984D01*
X126606564Y-73637865D01*
X126555189Y-73682382D01*
X126426340Y-73742465D01*
X126426338Y-73742466D01*
X126245377Y-73869175D01*
X126089175Y-74025377D01*
X125962466Y-74206338D01*
X125962465Y-74206340D01*
X125869107Y-74406548D01*
X125869104Y-74406554D01*
X125811930Y-74619929D01*
X125811929Y-74619937D01*
X125792677Y-74839997D01*
X125792677Y-74840002D01*
X125811929Y-75060062D01*
X125811930Y-75060070D01*
X125869104Y-75273445D01*
X125869105Y-75273447D01*
X125869106Y-75273450D01*
X125883195Y-75303664D01*
X125962466Y-75473662D01*
X125962468Y-75473666D01*
X126089170Y-75654615D01*
X126089175Y-75654621D01*
X126245378Y-75810824D01*
X126245384Y-75810829D01*
X126426333Y-75937531D01*
X126426335Y-75937532D01*
X126426338Y-75937534D01*
X126530223Y-75985976D01*
X126555189Y-75997618D01*
X126607628Y-76043790D01*
X126626780Y-76110984D01*
X126606564Y-76177865D01*
X126555189Y-76222382D01*
X126426340Y-76282465D01*
X126426338Y-76282466D01*
X126245377Y-76409175D01*
X126089175Y-76565377D01*
X125962466Y-76746338D01*
X125962465Y-76746340D01*
X125869107Y-76946548D01*
X125869104Y-76946554D01*
X125811930Y-77159929D01*
X125811929Y-77159937D01*
X125792677Y-77379997D01*
X125792677Y-77380002D01*
X125811929Y-77600062D01*
X125811930Y-77600070D01*
X125869104Y-77813445D01*
X125869105Y-77813447D01*
X125869106Y-77813450D01*
X125883195Y-77843664D01*
X125962466Y-78013662D01*
X125962468Y-78013666D01*
X126089170Y-78194615D01*
X126089175Y-78194621D01*
X126245378Y-78350824D01*
X126245384Y-78350829D01*
X126426333Y-78477531D01*
X126426335Y-78477532D01*
X126426338Y-78477534D01*
X126545748Y-78533215D01*
X126555189Y-78537618D01*
X126607628Y-78583790D01*
X126626780Y-78650984D01*
X126606564Y-78717865D01*
X126555189Y-78762382D01*
X126426340Y-78822465D01*
X126426338Y-78822466D01*
X126245377Y-78949175D01*
X126089175Y-79105377D01*
X125962466Y-79286338D01*
X125962465Y-79286340D01*
X125869107Y-79486548D01*
X125869104Y-79486554D01*
X125811930Y-79699929D01*
X125811929Y-79699937D01*
X125792677Y-79919997D01*
X125792677Y-79920002D01*
X125811929Y-80140062D01*
X125811930Y-80140070D01*
X125869104Y-80353445D01*
X125869105Y-80353447D01*
X125869106Y-80353450D01*
X125883195Y-80383664D01*
X125962466Y-80553662D01*
X125962468Y-80553666D01*
X126089170Y-80734615D01*
X126089175Y-80734621D01*
X126245378Y-80890824D01*
X126245384Y-80890829D01*
X126426333Y-81017531D01*
X126426335Y-81017532D01*
X126426338Y-81017534D01*
X126545748Y-81073215D01*
X126555189Y-81077618D01*
X126607628Y-81123790D01*
X126626780Y-81190984D01*
X126606564Y-81257865D01*
X126555189Y-81302382D01*
X126426340Y-81362465D01*
X126426338Y-81362466D01*
X126245377Y-81489175D01*
X126089175Y-81645377D01*
X125962466Y-81826338D01*
X125962465Y-81826340D01*
X125869107Y-82026548D01*
X125869104Y-82026554D01*
X125811930Y-82239929D01*
X125811929Y-82239937D01*
X125792677Y-82459997D01*
X125792677Y-82460002D01*
X125811929Y-82680062D01*
X125811930Y-82680070D01*
X125869104Y-82893445D01*
X125869105Y-82893447D01*
X125869106Y-82893450D01*
X125960055Y-83088491D01*
X125962466Y-83093662D01*
X125962468Y-83093666D01*
X126089170Y-83274615D01*
X126089175Y-83274621D01*
X126245378Y-83430824D01*
X126245384Y-83430829D01*
X126426333Y-83557531D01*
X126426335Y-83557532D01*
X126426338Y-83557534D01*
X126545748Y-83613215D01*
X126555189Y-83617618D01*
X126607628Y-83663790D01*
X126626780Y-83730984D01*
X126606564Y-83797865D01*
X126555189Y-83842382D01*
X126426340Y-83902465D01*
X126426338Y-83902466D01*
X126245377Y-84029175D01*
X126089175Y-84185377D01*
X125962466Y-84366338D01*
X125962465Y-84366340D01*
X125869107Y-84566548D01*
X125869104Y-84566554D01*
X125811930Y-84779929D01*
X125811929Y-84779937D01*
X125792677Y-84999997D01*
X125792677Y-85000002D01*
X125811929Y-85220062D01*
X125811930Y-85220070D01*
X125869104Y-85433445D01*
X125869105Y-85433447D01*
X125869106Y-85433450D01*
X125891747Y-85482004D01*
X125962466Y-85633662D01*
X125962468Y-85633666D01*
X126089170Y-85814615D01*
X126089175Y-85814621D01*
X126245378Y-85970824D01*
X126245384Y-85970829D01*
X126426333Y-86097531D01*
X126426335Y-86097532D01*
X126426338Y-86097534D01*
X126545748Y-86153215D01*
X126555189Y-86157618D01*
X126607628Y-86203790D01*
X126626780Y-86270984D01*
X126606564Y-86337865D01*
X126555189Y-86382382D01*
X126426340Y-86442465D01*
X126426338Y-86442466D01*
X126245377Y-86569175D01*
X126089175Y-86725377D01*
X125962466Y-86906338D01*
X125962465Y-86906340D01*
X125869107Y-87106548D01*
X125869104Y-87106554D01*
X125811930Y-87319929D01*
X125811929Y-87319937D01*
X125792677Y-87539997D01*
X125792677Y-87540002D01*
X125811929Y-87760062D01*
X125811930Y-87760070D01*
X125869104Y-87973445D01*
X125869105Y-87973447D01*
X125869106Y-87973450D01*
X125883195Y-88003664D01*
X125962466Y-88173662D01*
X125962468Y-88173666D01*
X126089170Y-88354615D01*
X126089175Y-88354621D01*
X126245378Y-88510824D01*
X126245384Y-88510829D01*
X126426333Y-88637531D01*
X126426335Y-88637532D01*
X126426338Y-88637534D01*
X126545748Y-88693215D01*
X126555189Y-88697618D01*
X126607628Y-88743790D01*
X126626780Y-88810984D01*
X126606564Y-88877865D01*
X126555189Y-88922382D01*
X126426340Y-88982465D01*
X126426338Y-88982466D01*
X126245377Y-89109175D01*
X126089175Y-89265377D01*
X125962466Y-89446338D01*
X125962465Y-89446340D01*
X125869107Y-89646548D01*
X125869104Y-89646554D01*
X125811930Y-89859929D01*
X125811929Y-89859937D01*
X125792677Y-90079997D01*
X125792677Y-90080002D01*
X125811929Y-90300062D01*
X125811930Y-90300070D01*
X125869104Y-90513445D01*
X125869105Y-90513447D01*
X125869106Y-90513450D01*
X125933750Y-90652080D01*
X125962466Y-90713662D01*
X125962468Y-90713666D01*
X126089170Y-90894615D01*
X126089175Y-90894621D01*
X126245378Y-91050824D01*
X126245384Y-91050829D01*
X126426333Y-91177531D01*
X126426335Y-91177532D01*
X126426338Y-91177534D01*
X126511750Y-91217362D01*
X126555189Y-91237618D01*
X126607628Y-91283790D01*
X126626780Y-91350984D01*
X126606564Y-91417865D01*
X126555189Y-91462382D01*
X126426340Y-91522465D01*
X126426338Y-91522466D01*
X126245377Y-91649175D01*
X126089175Y-91805377D01*
X125962466Y-91986338D01*
X125962465Y-91986340D01*
X125869107Y-92186548D01*
X125869104Y-92186554D01*
X125811930Y-92399929D01*
X125811929Y-92399937D01*
X125792677Y-92619997D01*
X125792677Y-92620002D01*
X125811929Y-92840062D01*
X125811930Y-92840070D01*
X125869104Y-93053445D01*
X125869105Y-93053447D01*
X125869106Y-93053450D01*
X125883195Y-93083664D01*
X125962466Y-93253662D01*
X125962468Y-93253666D01*
X126089170Y-93434615D01*
X126089175Y-93434621D01*
X126245378Y-93590824D01*
X126245384Y-93590829D01*
X126426333Y-93717531D01*
X126426335Y-93717532D01*
X126426338Y-93717534D01*
X126545748Y-93773215D01*
X126555189Y-93777618D01*
X126607628Y-93823790D01*
X126626780Y-93890984D01*
X126606564Y-93957865D01*
X126555189Y-94002382D01*
X126426340Y-94062465D01*
X126426338Y-94062466D01*
X126245377Y-94189175D01*
X126089175Y-94345377D01*
X125962466Y-94526338D01*
X125962465Y-94526340D01*
X125869107Y-94726548D01*
X125869104Y-94726554D01*
X125811930Y-94939929D01*
X125811929Y-94939937D01*
X125792677Y-95159997D01*
X125792677Y-95160002D01*
X125811929Y-95380062D01*
X125811930Y-95380070D01*
X125869104Y-95593445D01*
X125869105Y-95593447D01*
X125869106Y-95593450D01*
X125929347Y-95722637D01*
X125962466Y-95793662D01*
X125962468Y-95793666D01*
X126089170Y-95974615D01*
X126089175Y-95974621D01*
X126245378Y-96130824D01*
X126245384Y-96130829D01*
X126426333Y-96257531D01*
X126426335Y-96257532D01*
X126426338Y-96257534D01*
X126545748Y-96313215D01*
X126555189Y-96317618D01*
X126607628Y-96363790D01*
X126626780Y-96430984D01*
X126606564Y-96497865D01*
X126555189Y-96542382D01*
X126426340Y-96602465D01*
X126426338Y-96602466D01*
X126245377Y-96729175D01*
X126089175Y-96885377D01*
X125962466Y-97066338D01*
X125962465Y-97066340D01*
X125869107Y-97266548D01*
X125869104Y-97266554D01*
X125811930Y-97479929D01*
X125811929Y-97479937D01*
X125792677Y-97699997D01*
X125792677Y-97700002D01*
X125811929Y-97920062D01*
X125811930Y-97920070D01*
X125869104Y-98133445D01*
X125869105Y-98133447D01*
X125869106Y-98133450D01*
X125883195Y-98163664D01*
X125962466Y-98333662D01*
X125962468Y-98333666D01*
X126089170Y-98514615D01*
X126089175Y-98514621D01*
X126245378Y-98670824D01*
X126245384Y-98670829D01*
X126426333Y-98797531D01*
X126426335Y-98797532D01*
X126426338Y-98797534D01*
X126555781Y-98857894D01*
X126608220Y-98904066D01*
X126627372Y-98971260D01*
X126607156Y-99038141D01*
X126555781Y-99082658D01*
X126426590Y-99142901D01*
X126361811Y-99188258D01*
X127032553Y-99859000D01*
X127028431Y-99859000D01*
X126934579Y-99874661D01*
X126822749Y-99935180D01*
X126736629Y-100028731D01*
X126685552Y-100145177D01*
X126679894Y-100213447D01*
X126008258Y-99541811D01*
X125962901Y-99606590D01*
X125869579Y-99806720D01*
X125869575Y-99806729D01*
X125812426Y-100020013D01*
X125812424Y-100020023D01*
X125793179Y-100239999D01*
X125793179Y-100240000D01*
X125812424Y-100459976D01*
X125812426Y-100459986D01*
X125869575Y-100673270D01*
X125869580Y-100673284D01*
X125962898Y-100873405D01*
X125962901Y-100873411D01*
X126008258Y-100938187D01*
X126008259Y-100938188D01*
X126675096Y-100271350D01*
X126675051Y-100271898D01*
X126706266Y-100395162D01*
X126775813Y-100501612D01*
X126876157Y-100579713D01*
X126996422Y-100621000D01*
X127032553Y-100621000D01*
X126361810Y-101291740D01*
X126426589Y-101337098D01*
X126555781Y-101397342D01*
X126608220Y-101443514D01*
X126627372Y-101510708D01*
X126607156Y-101577589D01*
X126555781Y-101622106D01*
X126426340Y-101682465D01*
X126426338Y-101682466D01*
X126245377Y-101809175D01*
X126089175Y-101965377D01*
X125962466Y-102146338D01*
X125962465Y-102146340D01*
X125869107Y-102346548D01*
X125869104Y-102346554D01*
X125811930Y-102559929D01*
X125811929Y-102559937D01*
X125792677Y-102779997D01*
X125792677Y-102780002D01*
X123335659Y-102780002D01*
X123335659Y-102780000D01*
X123315063Y-102544592D01*
X123262000Y-102346554D01*
X123253905Y-102316344D01*
X123253904Y-102316343D01*
X123253903Y-102316337D01*
X123154035Y-102102171D01*
X123097471Y-102021388D01*
X123018494Y-101908597D01*
X122851402Y-101741506D01*
X122851401Y-101741505D01*
X122665405Y-101611269D01*
X122621781Y-101556692D01*
X122614588Y-101487193D01*
X122646110Y-101424839D01*
X122665405Y-101408119D01*
X122851082Y-101278105D01*
X123018105Y-101111082D01*
X123153600Y-100917578D01*
X123253429Y-100703492D01*
X123253432Y-100703486D01*
X123310636Y-100490000D01*
X122413686Y-100490000D01*
X122439493Y-100449844D01*
X122480000Y-100311889D01*
X122480000Y-100168111D01*
X122439493Y-100030156D01*
X122413686Y-99990000D01*
X123310636Y-99990000D01*
X123310635Y-99989999D01*
X123253432Y-99776513D01*
X123253429Y-99776507D01*
X123153600Y-99562422D01*
X123153599Y-99562420D01*
X123018113Y-99368926D01*
X123018108Y-99368920D01*
X122851078Y-99201890D01*
X122665405Y-99071879D01*
X122621780Y-99017302D01*
X122614588Y-98947804D01*
X122646110Y-98885449D01*
X122665406Y-98868730D01*
X122851401Y-98738495D01*
X123018495Y-98571401D01*
X123154035Y-98377830D01*
X123253903Y-98163663D01*
X123315063Y-97935408D01*
X123335659Y-97700000D01*
X123315063Y-97464592D01*
X123262000Y-97266554D01*
X123253905Y-97236344D01*
X123253904Y-97236343D01*
X123253903Y-97236337D01*
X123154035Y-97022171D01*
X123106319Y-96954024D01*
X123018494Y-96828597D01*
X122851402Y-96661506D01*
X122851396Y-96661501D01*
X122665842Y-96531575D01*
X122622217Y-96476998D01*
X122615023Y-96407500D01*
X122646546Y-96345145D01*
X122665842Y-96328425D01*
X122767083Y-96257535D01*
X122851401Y-96198495D01*
X123018495Y-96031401D01*
X123154035Y-95837830D01*
X123253903Y-95623663D01*
X123315063Y-95395408D01*
X123335659Y-95160000D01*
X123315063Y-94924592D01*
X123262000Y-94726554D01*
X123253905Y-94696344D01*
X123253904Y-94696343D01*
X123253903Y-94696337D01*
X123154035Y-94482171D01*
X123152594Y-94480112D01*
X123018494Y-94288597D01*
X122851402Y-94121506D01*
X122851396Y-94121501D01*
X122665842Y-93991575D01*
X122622217Y-93936998D01*
X122615023Y-93867500D01*
X122646546Y-93805145D01*
X122665842Y-93788425D01*
X122767083Y-93717535D01*
X122851401Y-93658495D01*
X123018495Y-93491401D01*
X123154035Y-93297830D01*
X123253903Y-93083663D01*
X123315063Y-92855408D01*
X123335659Y-92620000D01*
X123315063Y-92384592D01*
X123262000Y-92186554D01*
X123253905Y-92156344D01*
X123253904Y-92156343D01*
X123253903Y-92156337D01*
X123154035Y-91942171D01*
X123058254Y-91805380D01*
X123018494Y-91748597D01*
X122851402Y-91581506D01*
X122851396Y-91581501D01*
X122665842Y-91451575D01*
X122622217Y-91396998D01*
X122615023Y-91327500D01*
X122646546Y-91265145D01*
X122665842Y-91248425D01*
X122767083Y-91177535D01*
X122851401Y-91118495D01*
X123018495Y-90951401D01*
X123154035Y-90757830D01*
X123253903Y-90543663D01*
X123315063Y-90315408D01*
X123335659Y-90080000D01*
X123315063Y-89844592D01*
X123262000Y-89646554D01*
X123253905Y-89616344D01*
X123253904Y-89616343D01*
X123253903Y-89616337D01*
X123154035Y-89402171D01*
X123138426Y-89379878D01*
X123018494Y-89208597D01*
X122851402Y-89041506D01*
X122851396Y-89041501D01*
X122665842Y-88911575D01*
X122622217Y-88856998D01*
X122615023Y-88787500D01*
X122646546Y-88725145D01*
X122665842Y-88708425D01*
X122767083Y-88637535D01*
X122851401Y-88578495D01*
X123018495Y-88411401D01*
X123154035Y-88217830D01*
X123253903Y-88003663D01*
X123315063Y-87775408D01*
X123335659Y-87540000D01*
X123315063Y-87304592D01*
X123262000Y-87106554D01*
X123253905Y-87076344D01*
X123253904Y-87076343D01*
X123253903Y-87076337D01*
X123154035Y-86862171D01*
X123121168Y-86815231D01*
X123018494Y-86668597D01*
X122851402Y-86501506D01*
X122851396Y-86501501D01*
X122665842Y-86371575D01*
X122622217Y-86316998D01*
X122615023Y-86247500D01*
X122646546Y-86185145D01*
X122665842Y-86168425D01*
X122767083Y-86097535D01*
X122851401Y-86038495D01*
X123018495Y-85871401D01*
X123154035Y-85677830D01*
X123253903Y-85463663D01*
X123315063Y-85235408D01*
X123335659Y-85000000D01*
X123333853Y-84979363D01*
X123331539Y-84952918D01*
X123315063Y-84764592D01*
X123262000Y-84566554D01*
X123253905Y-84536344D01*
X123253904Y-84536343D01*
X123253903Y-84536337D01*
X123154035Y-84322171D01*
X123154002Y-84322123D01*
X123018494Y-84128597D01*
X122851402Y-83961506D01*
X122851396Y-83961501D01*
X122665842Y-83831575D01*
X122622217Y-83776998D01*
X122615023Y-83707500D01*
X122646546Y-83645145D01*
X122665842Y-83628425D01*
X122767083Y-83557535D01*
X122851401Y-83498495D01*
X123018495Y-83331401D01*
X123154035Y-83137830D01*
X123253903Y-82923663D01*
X123315063Y-82695408D01*
X123335659Y-82460000D01*
X123315063Y-82224592D01*
X123262000Y-82026554D01*
X123253905Y-81996344D01*
X123253904Y-81996343D01*
X123253903Y-81996337D01*
X123154035Y-81782171D01*
X123115995Y-81727843D01*
X123018494Y-81588597D01*
X122851402Y-81421506D01*
X122851396Y-81421501D01*
X122665842Y-81291575D01*
X122622217Y-81236998D01*
X122615023Y-81167500D01*
X122646546Y-81105145D01*
X122665842Y-81088425D01*
X122688026Y-81072891D01*
X122851401Y-80958495D01*
X123018495Y-80791401D01*
X123154035Y-80597830D01*
X123253903Y-80383663D01*
X123315063Y-80155408D01*
X123335659Y-79920000D01*
X123315063Y-79684592D01*
X123262000Y-79486554D01*
X123253905Y-79456344D01*
X123253904Y-79456343D01*
X123253903Y-79456337D01*
X123154035Y-79242171D01*
X123139835Y-79221890D01*
X123018494Y-79048597D01*
X122851402Y-78881506D01*
X122851396Y-78881501D01*
X122665842Y-78751575D01*
X122622217Y-78696998D01*
X122615023Y-78627500D01*
X122646546Y-78565145D01*
X122665842Y-78548425D01*
X122760701Y-78482004D01*
X122851401Y-78418495D01*
X123018495Y-78251401D01*
X123154035Y-78057830D01*
X123253903Y-77843663D01*
X123315063Y-77615408D01*
X123335659Y-77380000D01*
X123315063Y-77144592D01*
X123262000Y-76946554D01*
X123253905Y-76916344D01*
X123253904Y-76916343D01*
X123253903Y-76916337D01*
X123154035Y-76702171D01*
X123140262Y-76682500D01*
X123018494Y-76508597D01*
X122851402Y-76341506D01*
X122851396Y-76341501D01*
X122665842Y-76211575D01*
X122622217Y-76156998D01*
X122615023Y-76087500D01*
X122646546Y-76025145D01*
X122665842Y-76008425D01*
X122697902Y-75985976D01*
X122851401Y-75878495D01*
X123018495Y-75711401D01*
X123154035Y-75517830D01*
X123253903Y-75303663D01*
X123315063Y-75075408D01*
X123335659Y-74840000D01*
X123315063Y-74604592D01*
X123262000Y-74406554D01*
X123253905Y-74376344D01*
X123253904Y-74376343D01*
X123253903Y-74376337D01*
X123154035Y-74162171D01*
X123058254Y-74025380D01*
X123018494Y-73968597D01*
X122851402Y-73801506D01*
X122851396Y-73801501D01*
X122665842Y-73671575D01*
X122622217Y-73616998D01*
X122615023Y-73547500D01*
X122646546Y-73485145D01*
X122665842Y-73468425D01*
X122767083Y-73397535D01*
X122851401Y-73338495D01*
X123018495Y-73171401D01*
X123154035Y-72977830D01*
X123253903Y-72763663D01*
X123315063Y-72535408D01*
X123335659Y-72300000D01*
X123315063Y-72064592D01*
X123262000Y-71866554D01*
X123253905Y-71836344D01*
X123253904Y-71836343D01*
X123253903Y-71836337D01*
X123154035Y-71622171D01*
X123058254Y-71485380D01*
X123018494Y-71428597D01*
X122851402Y-71261506D01*
X122851396Y-71261501D01*
X122665842Y-71131575D01*
X122622217Y-71076998D01*
X122615023Y-71007500D01*
X122646546Y-70945145D01*
X122665842Y-70928425D01*
X122688026Y-70912891D01*
X122851401Y-70798495D01*
X123018495Y-70631401D01*
X123154035Y-70437830D01*
X123253903Y-70223663D01*
X123315063Y-69995408D01*
X123335659Y-69760000D01*
X123335605Y-69759388D01*
X123323917Y-69625793D01*
X123315063Y-69524592D01*
X123262000Y-69326554D01*
X123253905Y-69296344D01*
X123253904Y-69296343D01*
X123253903Y-69296337D01*
X123154035Y-69082171D01*
X123140013Y-69062146D01*
X123018496Y-68888600D01*
X122993689Y-68863793D01*
X122896567Y-68766671D01*
X122863084Y-68705351D01*
X122868068Y-68635659D01*
X122909939Y-68579725D01*
X122940915Y-68562810D01*
X123072331Y-68513796D01*
X123187546Y-68427546D01*
X123273796Y-68312331D01*
X123324091Y-68177483D01*
X123330500Y-68117873D01*
X123330499Y-66322128D01*
X123324091Y-66262517D01*
X123319114Y-66249174D01*
X123273797Y-66127671D01*
X123273793Y-66127664D01*
X123187547Y-66012455D01*
X123187544Y-66012452D01*
X123072335Y-65926206D01*
X123072328Y-65926202D01*
X122937482Y-65875908D01*
X122937483Y-65875908D01*
X122877883Y-65869501D01*
X122877881Y-65869500D01*
X122877873Y-65869500D01*
X122877864Y-65869500D01*
X121082129Y-65869500D01*
X121082123Y-65869501D01*
X121022516Y-65875908D01*
X120887671Y-65926202D01*
X120887664Y-65926206D01*
X120772455Y-66012452D01*
X120772452Y-66012455D01*
X120686206Y-66127664D01*
X120686202Y-66127671D01*
X120635908Y-66262517D01*
X120629501Y-66322116D01*
X120629501Y-66322123D01*
X120629500Y-66322135D01*
X120629500Y-68117870D01*
X120629501Y-68117876D01*
X120635908Y-68177483D01*
X120686202Y-68312328D01*
X120686206Y-68312335D01*
X120772452Y-68427544D01*
X120772455Y-68427547D01*
X120887664Y-68513793D01*
X120887671Y-68513797D01*
X121019081Y-68562810D01*
X121075015Y-68604681D01*
X121099432Y-68670145D01*
X121084580Y-68738418D01*
X121063430Y-68766673D01*
X120941503Y-68888600D01*
X120805965Y-69082169D01*
X120805964Y-69082171D01*
X120706098Y-69296335D01*
X120706094Y-69296344D01*
X120644938Y-69524586D01*
X120644936Y-69524596D01*
X120624341Y-69759999D01*
X120624341Y-69760000D01*
X120644936Y-69995403D01*
X120644938Y-69995413D01*
X120706094Y-70223655D01*
X120706096Y-70223659D01*
X120706097Y-70223663D01*
X120726893Y-70268259D01*
X120805965Y-70437830D01*
X120805967Y-70437834D01*
X120941501Y-70631395D01*
X120941506Y-70631402D01*
X121108597Y-70798493D01*
X121108603Y-70798498D01*
X121294158Y-70928425D01*
X121337783Y-70983002D01*
X121344977Y-71052500D01*
X121313454Y-71114855D01*
X121294158Y-71131575D01*
X121108597Y-71261505D01*
X120941505Y-71428597D01*
X120805965Y-71622169D01*
X120805964Y-71622171D01*
X120706098Y-71836335D01*
X120706094Y-71836344D01*
X120644938Y-72064586D01*
X120644936Y-72064596D01*
X120624341Y-72299999D01*
X120624341Y-72300000D01*
X120644936Y-72535403D01*
X120644938Y-72535413D01*
X120706094Y-72763655D01*
X120706096Y-72763659D01*
X120706097Y-72763663D01*
X120797095Y-72958808D01*
X120805965Y-72977830D01*
X120805967Y-72977834D01*
X120941501Y-73171395D01*
X120941506Y-73171402D01*
X121108597Y-73338493D01*
X121108603Y-73338498D01*
X121294158Y-73468425D01*
X121337783Y-73523002D01*
X121344977Y-73592500D01*
X121313454Y-73654855D01*
X121294158Y-73671575D01*
X121108597Y-73801505D01*
X120941505Y-73968597D01*
X120805965Y-74162169D01*
X120805964Y-74162171D01*
X120706098Y-74376335D01*
X120706094Y-74376344D01*
X120644938Y-74604586D01*
X120644936Y-74604596D01*
X120624341Y-74839999D01*
X120624341Y-74840000D01*
X120644936Y-75075403D01*
X120644938Y-75075413D01*
X120706094Y-75303655D01*
X120706096Y-75303659D01*
X120706097Y-75303663D01*
X120741637Y-75379878D01*
X120805965Y-75517830D01*
X120805967Y-75517834D01*
X120941501Y-75711395D01*
X120941506Y-75711402D01*
X121108597Y-75878493D01*
X121108603Y-75878498D01*
X121294158Y-76008425D01*
X121337783Y-76063002D01*
X121344977Y-76132500D01*
X121313454Y-76194855D01*
X121294158Y-76211575D01*
X121108597Y-76341505D01*
X120941505Y-76508597D01*
X120805965Y-76702169D01*
X120805964Y-76702171D01*
X120706098Y-76916335D01*
X120706094Y-76916344D01*
X120644938Y-77144586D01*
X120644936Y-77144596D01*
X120624341Y-77379999D01*
X120624341Y-77380000D01*
X120644936Y-77615403D01*
X120644938Y-77615413D01*
X120706094Y-77843655D01*
X120706096Y-77843659D01*
X120706097Y-77843663D01*
X120766946Y-77974154D01*
X120805965Y-78057830D01*
X120805967Y-78057834D01*
X120901743Y-78194615D01*
X120925009Y-78227843D01*
X120941501Y-78251395D01*
X120941506Y-78251402D01*
X121108597Y-78418493D01*
X121108603Y-78418498D01*
X121294158Y-78548425D01*
X121337783Y-78603002D01*
X121344977Y-78672500D01*
X121313454Y-78734855D01*
X121294158Y-78751575D01*
X121108597Y-78881505D01*
X120941505Y-79048597D01*
X120805965Y-79242169D01*
X120805964Y-79242171D01*
X120706098Y-79456335D01*
X120706094Y-79456344D01*
X120644938Y-79684586D01*
X120644936Y-79684596D01*
X120624341Y-79919999D01*
X120624341Y-79920000D01*
X120644936Y-80155403D01*
X120644938Y-80155413D01*
X120706094Y-80383655D01*
X120706096Y-80383659D01*
X120706097Y-80383663D01*
X120785369Y-80553662D01*
X120805965Y-80597830D01*
X120805967Y-80597834D01*
X120941501Y-80791395D01*
X120941506Y-80791402D01*
X121108597Y-80958493D01*
X121108603Y-80958498D01*
X121294158Y-81088425D01*
X121337783Y-81143002D01*
X121344977Y-81212500D01*
X121313454Y-81274855D01*
X121294158Y-81291575D01*
X121108597Y-81421505D01*
X120941505Y-81588597D01*
X120805965Y-81782169D01*
X120805964Y-81782171D01*
X120706098Y-81996335D01*
X120706094Y-81996344D01*
X120644938Y-82224586D01*
X120644936Y-82224596D01*
X120624341Y-82459999D01*
X120624341Y-82460000D01*
X120644936Y-82695403D01*
X120644938Y-82695413D01*
X120706094Y-82923655D01*
X120706096Y-82923659D01*
X120706097Y-82923663D01*
X120782958Y-83088491D01*
X120805965Y-83137830D01*
X120805967Y-83137834D01*
X120941501Y-83331395D01*
X120941506Y-83331402D01*
X121108597Y-83498493D01*
X121108603Y-83498498D01*
X121294158Y-83628425D01*
X121337783Y-83683002D01*
X121344977Y-83752500D01*
X121313454Y-83814855D01*
X121294158Y-83831575D01*
X121108597Y-83961505D01*
X120941505Y-84128597D01*
X120805965Y-84322169D01*
X120805964Y-84322171D01*
X120706098Y-84536335D01*
X120706094Y-84536344D01*
X120644938Y-84764586D01*
X120644936Y-84764596D01*
X120624341Y-84999999D01*
X120624341Y-85000000D01*
X120644936Y-85235403D01*
X120644938Y-85235413D01*
X120706094Y-85463655D01*
X120706096Y-85463659D01*
X120706097Y-85463663D01*
X120714648Y-85482000D01*
X120805965Y-85677830D01*
X120805967Y-85677834D01*
X120941501Y-85871395D01*
X120941506Y-85871402D01*
X121108597Y-86038493D01*
X121108603Y-86038498D01*
X121294158Y-86168425D01*
X121337783Y-86223002D01*
X121344977Y-86292500D01*
X121313454Y-86354855D01*
X121294158Y-86371575D01*
X121108597Y-86501505D01*
X120941505Y-86668597D01*
X120805965Y-86862169D01*
X120805964Y-86862171D01*
X120706098Y-87076335D01*
X120706094Y-87076344D01*
X120644938Y-87304586D01*
X120644936Y-87304596D01*
X120624341Y-87539999D01*
X120624341Y-87540000D01*
X120644936Y-87775403D01*
X120644938Y-87775413D01*
X120706094Y-88003655D01*
X120706096Y-88003659D01*
X120706097Y-88003663D01*
X120785369Y-88173662D01*
X120805965Y-88217830D01*
X120805967Y-88217834D01*
X120941501Y-88411395D01*
X120941506Y-88411402D01*
X121108597Y-88578493D01*
X121108603Y-88578498D01*
X121294158Y-88708425D01*
X121337783Y-88763002D01*
X121344977Y-88832500D01*
X121313454Y-88894855D01*
X121294158Y-88911575D01*
X121108597Y-89041505D01*
X120941505Y-89208597D01*
X120805965Y-89402169D01*
X120805964Y-89402171D01*
X120706098Y-89616335D01*
X120706094Y-89616344D01*
X120644938Y-89844586D01*
X120644936Y-89844596D01*
X120624341Y-90079999D01*
X120624341Y-90080000D01*
X120644936Y-90315403D01*
X120644938Y-90315413D01*
X120706094Y-90543655D01*
X120706096Y-90543659D01*
X120706097Y-90543663D01*
X120801370Y-90747976D01*
X120805965Y-90757830D01*
X120805967Y-90757834D01*
X120941501Y-90951395D01*
X120941506Y-90951402D01*
X121108597Y-91118493D01*
X121108603Y-91118498D01*
X121294158Y-91248425D01*
X121337783Y-91303002D01*
X121344977Y-91372500D01*
X121313454Y-91434855D01*
X121294158Y-91451575D01*
X121108597Y-91581505D01*
X120941505Y-91748597D01*
X120805965Y-91942169D01*
X120805964Y-91942171D01*
X120706098Y-92156335D01*
X120706094Y-92156344D01*
X120644938Y-92384586D01*
X120644936Y-92384596D01*
X120624341Y-92619999D01*
X120624341Y-92620000D01*
X120644936Y-92855403D01*
X120644938Y-92855413D01*
X120706094Y-93083655D01*
X120706096Y-93083659D01*
X120706097Y-93083663D01*
X120785369Y-93253662D01*
X120805965Y-93297830D01*
X120805967Y-93297834D01*
X120914281Y-93452521D01*
X120937706Y-93485976D01*
X120941501Y-93491395D01*
X120941506Y-93491402D01*
X121108597Y-93658493D01*
X121108603Y-93658498D01*
X121294158Y-93788425D01*
X121337783Y-93843002D01*
X121344977Y-93912500D01*
X121313454Y-93974855D01*
X121294158Y-93991575D01*
X121108597Y-94121505D01*
X120941505Y-94288597D01*
X120805965Y-94482169D01*
X120805964Y-94482171D01*
X120706098Y-94696335D01*
X120706094Y-94696344D01*
X120644938Y-94924586D01*
X120644936Y-94924596D01*
X120624341Y-95159999D01*
X120624341Y-95160000D01*
X120644936Y-95395403D01*
X120644938Y-95395413D01*
X120706094Y-95623655D01*
X120706096Y-95623659D01*
X120706097Y-95623663D01*
X120754677Y-95727843D01*
X120805965Y-95837830D01*
X120805967Y-95837834D01*
X120941501Y-96031395D01*
X120941506Y-96031402D01*
X121108597Y-96198493D01*
X121108603Y-96198498D01*
X121294158Y-96328425D01*
X121337783Y-96383002D01*
X121344977Y-96452500D01*
X121313454Y-96514855D01*
X121294158Y-96531575D01*
X121108597Y-96661505D01*
X120941505Y-96828597D01*
X120805965Y-97022169D01*
X120805964Y-97022171D01*
X120706098Y-97236335D01*
X120706094Y-97236344D01*
X120644938Y-97464586D01*
X120644936Y-97464596D01*
X120624341Y-97699999D01*
X120624341Y-97700000D01*
X120644936Y-97935403D01*
X120644938Y-97935413D01*
X120706094Y-98163655D01*
X120706096Y-98163659D01*
X120706097Y-98163663D01*
X120779988Y-98322123D01*
X120805965Y-98377830D01*
X120805967Y-98377834D01*
X120941501Y-98571395D01*
X120941506Y-98571402D01*
X121108597Y-98738493D01*
X121108603Y-98738498D01*
X121192911Y-98797531D01*
X121279118Y-98857894D01*
X121294594Y-98868730D01*
X121338219Y-98923307D01*
X121345413Y-98992805D01*
X121313890Y-99055160D01*
X121294595Y-99071880D01*
X121108922Y-99201890D01*
X121108920Y-99201891D01*
X120941891Y-99368920D01*
X120941886Y-99368926D01*
X120806400Y-99562420D01*
X120806399Y-99562422D01*
X120706570Y-99776507D01*
X120706567Y-99776513D01*
X120649364Y-99989999D01*
X120649364Y-99990000D01*
X121546314Y-99990000D01*
X121520507Y-100030156D01*
X121480000Y-100168111D01*
X121480000Y-100311889D01*
X121520507Y-100449844D01*
X121546314Y-100490000D01*
X120649364Y-100490000D01*
X120706567Y-100703486D01*
X120706570Y-100703492D01*
X120806399Y-100917578D01*
X120941894Y-101111082D01*
X121108917Y-101278105D01*
X121294595Y-101408119D01*
X121338219Y-101462696D01*
X121345412Y-101532195D01*
X121313890Y-101594549D01*
X121294595Y-101611269D01*
X121108594Y-101741508D01*
X120941505Y-101908597D01*
X120805965Y-102102169D01*
X120805964Y-102102171D01*
X120706098Y-102316335D01*
X120706094Y-102316344D01*
X120644938Y-102544586D01*
X120644936Y-102544596D01*
X120624341Y-102779999D01*
X120624341Y-102780000D01*
X112156994Y-102780000D01*
X112179508Y-102722637D01*
X112236222Y-102474157D01*
X112255268Y-102220000D01*
X112236222Y-101965843D01*
X112179508Y-101717363D01*
X112086393Y-101480112D01*
X111958959Y-101259388D01*
X111800050Y-101060123D01*
X111613217Y-100886768D01*
X111402634Y-100743195D01*
X111402630Y-100743193D01*
X111402627Y-100743191D01*
X111402626Y-100743190D01*
X111173006Y-100632612D01*
X111173008Y-100632612D01*
X111029970Y-100588491D01*
X110971711Y-100549921D01*
X110943553Y-100485976D01*
X110954437Y-100416959D01*
X111000906Y-100364782D01*
X111029970Y-100351509D01*
X111173004Y-100307389D01*
X111402634Y-100196805D01*
X111613217Y-100053232D01*
X111800050Y-99879877D01*
X111958959Y-99680612D01*
X112086393Y-99459888D01*
X112179508Y-99222637D01*
X112236222Y-98974157D01*
X112255268Y-98720000D01*
X112251583Y-98670829D01*
X112236222Y-98465845D01*
X112216133Y-98377830D01*
X112179508Y-98217363D01*
X112086393Y-97980112D01*
X111958959Y-97759388D01*
X111800050Y-97560123D01*
X111613217Y-97386768D01*
X111402634Y-97243195D01*
X111402630Y-97243193D01*
X111402627Y-97243191D01*
X111402626Y-97243190D01*
X111173006Y-97132612D01*
X111173008Y-97132612D01*
X111029970Y-97088491D01*
X110971711Y-97049921D01*
X110943553Y-96985976D01*
X110954437Y-96916959D01*
X111000906Y-96864782D01*
X111029970Y-96851509D01*
X111173004Y-96807389D01*
X111402634Y-96696805D01*
X111613217Y-96553232D01*
X111800050Y-96379877D01*
X111958959Y-96180612D01*
X112086393Y-95959888D01*
X112179508Y-95722637D01*
X112236222Y-95474157D01*
X112255268Y-95220000D01*
X112250771Y-95159997D01*
X112236222Y-94965845D01*
X112226807Y-94924596D01*
X112179508Y-94717363D01*
X112086393Y-94480112D01*
X111958959Y-94259388D01*
X111800050Y-94060123D01*
X111613217Y-93886768D01*
X111402634Y-93743195D01*
X111402630Y-93743193D01*
X111402627Y-93743191D01*
X111402626Y-93743190D01*
X111173006Y-93632612D01*
X111173008Y-93632612D01*
X111037540Y-93590826D01*
X111029969Y-93588490D01*
X110971711Y-93549921D01*
X110943553Y-93485976D01*
X110954437Y-93416959D01*
X111000906Y-93364782D01*
X111029970Y-93351509D01*
X111173004Y-93307389D01*
X111402634Y-93196805D01*
X111613217Y-93053232D01*
X111800050Y-92879877D01*
X111958959Y-92680612D01*
X112086393Y-92459888D01*
X112179508Y-92222637D01*
X112236222Y-91974157D01*
X112255268Y-91720000D01*
X112249960Y-91649174D01*
X112236222Y-91465845D01*
X112224893Y-91416210D01*
X112179508Y-91217363D01*
X112086393Y-90980112D01*
X111958959Y-90759388D01*
X111800050Y-90560123D01*
X111613217Y-90386768D01*
X111402634Y-90243195D01*
X111402630Y-90243193D01*
X111402627Y-90243191D01*
X111402626Y-90243190D01*
X111173006Y-90132612D01*
X111173008Y-90132612D01*
X111029970Y-90088491D01*
X110971711Y-90049921D01*
X110943553Y-89985976D01*
X110954437Y-89916959D01*
X111000906Y-89864782D01*
X111029970Y-89851509D01*
X111173004Y-89807389D01*
X111402634Y-89696805D01*
X111613217Y-89553232D01*
X111800050Y-89379877D01*
X111958959Y-89180612D01*
X112086393Y-88959888D01*
X112179508Y-88722637D01*
X112236222Y-88474157D01*
X112255268Y-88220000D01*
X112255105Y-88217830D01*
X112239056Y-88003663D01*
X112236222Y-87965843D01*
X112179508Y-87717363D01*
X112086393Y-87480112D01*
X111958959Y-87259388D01*
X111800050Y-87060123D01*
X111613217Y-86886768D01*
X111402634Y-86743195D01*
X111402630Y-86743193D01*
X111402627Y-86743191D01*
X111402626Y-86743190D01*
X111173006Y-86632612D01*
X111173008Y-86632612D01*
X111029970Y-86588491D01*
X110971711Y-86549921D01*
X110943553Y-86485976D01*
X110954437Y-86416959D01*
X111000906Y-86364782D01*
X111029970Y-86351509D01*
X111173004Y-86307389D01*
X111402634Y-86196805D01*
X111613217Y-86053232D01*
X111800050Y-85879877D01*
X111958959Y-85680612D01*
X112086393Y-85459888D01*
X112179508Y-85222637D01*
X112236222Y-84974157D01*
X112244384Y-84865232D01*
X112255268Y-84720004D01*
X112255268Y-84719995D01*
X112236222Y-84465845D01*
X112213510Y-84366339D01*
X112179508Y-84217363D01*
X112086393Y-83980112D01*
X111958959Y-83759388D01*
X111800050Y-83560123D01*
X111613217Y-83386768D01*
X111402634Y-83243195D01*
X111402630Y-83243193D01*
X111402627Y-83243191D01*
X111402626Y-83243190D01*
X111173006Y-83132612D01*
X111173008Y-83132612D01*
X111029970Y-83088491D01*
X110971711Y-83049921D01*
X110943553Y-82985976D01*
X110954437Y-82916959D01*
X111000906Y-82864782D01*
X111029970Y-82851509D01*
X111173004Y-82807389D01*
X111402634Y-82696805D01*
X111613217Y-82553232D01*
X111800050Y-82379877D01*
X111958959Y-82180612D01*
X112086393Y-81959888D01*
X112179508Y-81722637D01*
X112236222Y-81474157D01*
X112244592Y-81362464D01*
X112255268Y-81220004D01*
X112255268Y-81219995D01*
X112240096Y-81017534D01*
X112236222Y-80965843D01*
X112179508Y-80717363D01*
X112086393Y-80480112D01*
X111958959Y-80259388D01*
X111800050Y-80060123D01*
X111613217Y-79886768D01*
X111402634Y-79743195D01*
X111402630Y-79743193D01*
X111402627Y-79743191D01*
X111402626Y-79743190D01*
X111173006Y-79632612D01*
X111173008Y-79632612D01*
X111029970Y-79588491D01*
X110971711Y-79549921D01*
X110943553Y-79485976D01*
X110954437Y-79416959D01*
X111000906Y-79364782D01*
X111029970Y-79351509D01*
X111173004Y-79307389D01*
X111402634Y-79196805D01*
X111613217Y-79053232D01*
X111800050Y-78879877D01*
X111958959Y-78680612D01*
X112086393Y-78459888D01*
X112179508Y-78222637D01*
X112236222Y-77974157D01*
X112248265Y-77813450D01*
X112255268Y-77720004D01*
X112255268Y-77719995D01*
X112236222Y-77465845D01*
X112216628Y-77380000D01*
X112179508Y-77217363D01*
X112086393Y-76980112D01*
X111958959Y-76759388D01*
X111800050Y-76560123D01*
X111613217Y-76386768D01*
X111402634Y-76243195D01*
X111402630Y-76243193D01*
X111402627Y-76243191D01*
X111402626Y-76243190D01*
X111173006Y-76132612D01*
X111173008Y-76132612D01*
X111029970Y-76088491D01*
X110971711Y-76049921D01*
X110943553Y-75985976D01*
X110954437Y-75916959D01*
X111000906Y-75864782D01*
X111029970Y-75851509D01*
X111173004Y-75807389D01*
X111402634Y-75696805D01*
X111613217Y-75553232D01*
X111800050Y-75379877D01*
X111958959Y-75180612D01*
X112086393Y-74959888D01*
X112179508Y-74722637D01*
X112236222Y-74474157D01*
X112255268Y-74220000D01*
X112254244Y-74206340D01*
X112240384Y-74021388D01*
X112236222Y-73965843D01*
X112179508Y-73717363D01*
X112086393Y-73480112D01*
X111958959Y-73259388D01*
X111800050Y-73060123D01*
X111613217Y-72886768D01*
X111402634Y-72743195D01*
X111402630Y-72743193D01*
X111402627Y-72743191D01*
X111402626Y-72743190D01*
X111173006Y-72632612D01*
X111173008Y-72632612D01*
X111029970Y-72588491D01*
X110971711Y-72549921D01*
X110943553Y-72485976D01*
X110954437Y-72416959D01*
X111000906Y-72364782D01*
X111029970Y-72351509D01*
X111173004Y-72307389D01*
X111402634Y-72196805D01*
X111613217Y-72053232D01*
X111800050Y-71879877D01*
X111958959Y-71680612D01*
X112086393Y-71459888D01*
X112179508Y-71222637D01*
X112220213Y-71044295D01*
X112254321Y-70983317D01*
X112315320Y-70950598D01*
X112359803Y-70941144D01*
X112532730Y-70864151D01*
X112685871Y-70752888D01*
X112812533Y-70612216D01*
X112907179Y-70448284D01*
X112965674Y-70268256D01*
X112985460Y-70080000D01*
X112965674Y-69891744D01*
X112907179Y-69711716D01*
X112812533Y-69547784D01*
X112685871Y-69407112D01*
X112657870Y-69386768D01*
X112532734Y-69295851D01*
X112532729Y-69295848D01*
X112359807Y-69218857D01*
X112359802Y-69218855D01*
X112214001Y-69187865D01*
X112174646Y-69179500D01*
X111985354Y-69179500D01*
X111952897Y-69186398D01*
X111800197Y-69218855D01*
X111800192Y-69218857D01*
X111627269Y-69295849D01*
X111626510Y-69296401D01*
X111625995Y-69296584D01*
X111621642Y-69299098D01*
X111621181Y-69298301D01*
X111560700Y-69319870D01*
X111492648Y-69304034D01*
X111483789Y-69298525D01*
X111402634Y-69243195D01*
X111402625Y-69243190D01*
X111222027Y-69156219D01*
X111170167Y-69109397D01*
X111151854Y-69041970D01*
X111172902Y-68975346D01*
X111226628Y-68930677D01*
X111275826Y-68920499D01*
X111797872Y-68920499D01*
X111857483Y-68914091D01*
X111992331Y-68863796D01*
X112107546Y-68777546D01*
X112193796Y-68662331D01*
X112244091Y-68527483D01*
X112250500Y-68467873D01*
X112250499Y-65972128D01*
X112244091Y-65912517D01*
X112193796Y-65777669D01*
X112193795Y-65777668D01*
X112193793Y-65777664D01*
X112107547Y-65662455D01*
X112107544Y-65662452D01*
X111992335Y-65576206D01*
X111992328Y-65576202D01*
X111857482Y-65525908D01*
X111857483Y-65525908D01*
X111797883Y-65519501D01*
X111797881Y-65519500D01*
X111797873Y-65519500D01*
X111797864Y-65519500D01*
X109302129Y-65519500D01*
X109302123Y-65519501D01*
X109242516Y-65525908D01*
X109107671Y-65576202D01*
X109107664Y-65576206D01*
X108992455Y-65662452D01*
X108992452Y-65662455D01*
X108906206Y-65777664D01*
X108906202Y-65777671D01*
X108855908Y-65912517D01*
X108849521Y-65971929D01*
X108849501Y-65972123D01*
X108849500Y-65972135D01*
X108849500Y-68467870D01*
X108849501Y-68467876D01*
X108855908Y-68527483D01*
X108906202Y-68662328D01*
X108906206Y-68662335D01*
X108992452Y-68777544D01*
X108992455Y-68777547D01*
X109107664Y-68863793D01*
X109107671Y-68863797D01*
X109242517Y-68914091D01*
X109242516Y-68914091D01*
X109249444Y-68914835D01*
X109302127Y-68920500D01*
X109824172Y-68920499D01*
X109891209Y-68940183D01*
X109936964Y-68992987D01*
X109946908Y-69062146D01*
X109917883Y-69125702D01*
X109877972Y-69156219D01*
X109697370Y-69243192D01*
X109486782Y-69386768D01*
X109299952Y-69560121D01*
X109299950Y-69560123D01*
X109141041Y-69759388D01*
X109013608Y-69980109D01*
X108920492Y-70217362D01*
X108920490Y-70217369D01*
X108863777Y-70465845D01*
X108844732Y-70719995D01*
X108844732Y-70720004D01*
X108863777Y-70974154D01*
X108915888Y-71202468D01*
X108920492Y-71222637D01*
X108962305Y-71329175D01*
X109013608Y-71459890D01*
X109028323Y-71485377D01*
X109141041Y-71680612D01*
X109299950Y-71879877D01*
X109486783Y-72053232D01*
X109697366Y-72196805D01*
X109697371Y-72196807D01*
X109697372Y-72196808D01*
X109697373Y-72196809D01*
X109819328Y-72255538D01*
X109926992Y-72307387D01*
X109926993Y-72307387D01*
X109926996Y-72307389D01*
X110033360Y-72340197D01*
X110070029Y-72351509D01*
X110128288Y-72390080D01*
X110156446Y-72454024D01*
X110145562Y-72523041D01*
X110099093Y-72575218D01*
X110070029Y-72588491D01*
X109926992Y-72632612D01*
X109697373Y-72743190D01*
X109697372Y-72743191D01*
X109486782Y-72886768D01*
X109299952Y-73060121D01*
X109299950Y-73060123D01*
X109141041Y-73259388D01*
X109013608Y-73480109D01*
X108920492Y-73717362D01*
X108920490Y-73717369D01*
X108863777Y-73965845D01*
X108844732Y-74219995D01*
X108844732Y-74220004D01*
X108863777Y-74474154D01*
X108920490Y-74722630D01*
X108920492Y-74722637D01*
X109013608Y-74959890D01*
X109040536Y-75006531D01*
X109141041Y-75180612D01*
X109299950Y-75379877D01*
X109486783Y-75553232D01*
X109697366Y-75696805D01*
X109697371Y-75696807D01*
X109697372Y-75696808D01*
X109697373Y-75696809D01*
X109819328Y-75755538D01*
X109926992Y-75807387D01*
X109926993Y-75807387D01*
X109926996Y-75807389D01*
X110033360Y-75840197D01*
X110070029Y-75851509D01*
X110128288Y-75890080D01*
X110156446Y-75954024D01*
X110145562Y-76023041D01*
X110099093Y-76075218D01*
X110070029Y-76088491D01*
X109926992Y-76132612D01*
X109697373Y-76243190D01*
X109697372Y-76243191D01*
X109486782Y-76386768D01*
X109299952Y-76560121D01*
X109299950Y-76560123D01*
X109141041Y-76759388D01*
X109013608Y-76980109D01*
X108920492Y-77217362D01*
X108920490Y-77217369D01*
X108863777Y-77465845D01*
X108844732Y-77719995D01*
X108844732Y-77720004D01*
X108863777Y-77974154D01*
X108914097Y-78194621D01*
X108920492Y-78222637D01*
X108997362Y-78418498D01*
X109013608Y-78459890D01*
X109040536Y-78506531D01*
X109141041Y-78680612D01*
X109299950Y-78879877D01*
X109486783Y-79053232D01*
X109697366Y-79196805D01*
X109697371Y-79196807D01*
X109697372Y-79196808D01*
X109697373Y-79196809D01*
X109791565Y-79242169D01*
X109926992Y-79307387D01*
X109926993Y-79307387D01*
X109926996Y-79307389D01*
X110033360Y-79340197D01*
X110070029Y-79351509D01*
X110128288Y-79390080D01*
X110156446Y-79454024D01*
X110145562Y-79523041D01*
X110099093Y-79575218D01*
X110070029Y-79588491D01*
X109926992Y-79632612D01*
X109697373Y-79743190D01*
X109697372Y-79743191D01*
X109486782Y-79886768D01*
X109299952Y-80060121D01*
X109299950Y-80060123D01*
X109141041Y-80259388D01*
X109013608Y-80480109D01*
X108920492Y-80717362D01*
X108920490Y-80717369D01*
X108863777Y-80965845D01*
X108844732Y-81219995D01*
X108844732Y-81220004D01*
X108863777Y-81474154D01*
X108920490Y-81722630D01*
X108920492Y-81722637D01*
X109013608Y-81959890D01*
X109034651Y-81996337D01*
X109141041Y-82180612D01*
X109299950Y-82379877D01*
X109486783Y-82553232D01*
X109697366Y-82696805D01*
X109697371Y-82696807D01*
X109697372Y-82696808D01*
X109697373Y-82696809D01*
X109819328Y-82755538D01*
X109926992Y-82807387D01*
X109926993Y-82807387D01*
X109926996Y-82807389D01*
X110033360Y-82840197D01*
X110070029Y-82851509D01*
X110128288Y-82890080D01*
X110156446Y-82954024D01*
X110145562Y-83023041D01*
X110099093Y-83075218D01*
X110070029Y-83088491D01*
X109926992Y-83132612D01*
X109697373Y-83243190D01*
X109697372Y-83243191D01*
X109486782Y-83386768D01*
X109299952Y-83560121D01*
X109299950Y-83560123D01*
X109141041Y-83759388D01*
X109013608Y-83980109D01*
X108920492Y-84217362D01*
X108920490Y-84217369D01*
X108863777Y-84465845D01*
X108844732Y-84719995D01*
X108844732Y-84720004D01*
X108863777Y-84974154D01*
X108920490Y-85222630D01*
X108920492Y-85222637D01*
X109013608Y-85459890D01*
X109040536Y-85506531D01*
X109141041Y-85680612D01*
X109299950Y-85879877D01*
X109486783Y-86053232D01*
X109697366Y-86196805D01*
X109697371Y-86196807D01*
X109697372Y-86196808D01*
X109697373Y-86196809D01*
X109802635Y-86247500D01*
X109926992Y-86307387D01*
X109926993Y-86307387D01*
X109926996Y-86307389D01*
X110025797Y-86337865D01*
X110070029Y-86351509D01*
X110128288Y-86390080D01*
X110156446Y-86454024D01*
X110145562Y-86523041D01*
X110099093Y-86575218D01*
X110070029Y-86588491D01*
X109926992Y-86632612D01*
X109697373Y-86743190D01*
X109697372Y-86743191D01*
X109486782Y-86886768D01*
X109299952Y-87060121D01*
X109299950Y-87060123D01*
X109141041Y-87259388D01*
X109013608Y-87480109D01*
X108920492Y-87717362D01*
X108920490Y-87717369D01*
X108863777Y-87965845D01*
X108844732Y-88219995D01*
X108844732Y-88220004D01*
X108863777Y-88474154D01*
X108918528Y-88714035D01*
X108920492Y-88722637D01*
X108994645Y-88911575D01*
X109013608Y-88959890D01*
X109026641Y-88982464D01*
X109141041Y-89180612D01*
X109299950Y-89379877D01*
X109486783Y-89553232D01*
X109697366Y-89696805D01*
X109697371Y-89696807D01*
X109697372Y-89696808D01*
X109697373Y-89696809D01*
X109819328Y-89755538D01*
X109926992Y-89807387D01*
X109926993Y-89807387D01*
X109926996Y-89807389D01*
X110033360Y-89840197D01*
X110070029Y-89851509D01*
X110128288Y-89890080D01*
X110156446Y-89954024D01*
X110145562Y-90023041D01*
X110099093Y-90075218D01*
X110070029Y-90088491D01*
X109926992Y-90132612D01*
X109697373Y-90243190D01*
X109697372Y-90243191D01*
X109486782Y-90386768D01*
X109299952Y-90560121D01*
X109299950Y-90560123D01*
X109141041Y-90759388D01*
X109013608Y-90980109D01*
X108920492Y-91217362D01*
X108920490Y-91217369D01*
X108863777Y-91465845D01*
X108844732Y-91719995D01*
X108844732Y-91720004D01*
X108863777Y-91974154D01*
X108920490Y-92222630D01*
X108920492Y-92222637D01*
X109013608Y-92459890D01*
X109040536Y-92506531D01*
X109141041Y-92680612D01*
X109299950Y-92879877D01*
X109486783Y-93053232D01*
X109697366Y-93196805D01*
X109697371Y-93196807D01*
X109697372Y-93196808D01*
X109697373Y-93196809D01*
X109815431Y-93253662D01*
X109926992Y-93307387D01*
X109926993Y-93307387D01*
X109926996Y-93307389D01*
X110033360Y-93340197D01*
X110070029Y-93351509D01*
X110128288Y-93390080D01*
X110156446Y-93454024D01*
X110145562Y-93523041D01*
X110099093Y-93575218D01*
X110070029Y-93588491D01*
X109926992Y-93632612D01*
X109697373Y-93743190D01*
X109697372Y-93743191D01*
X109486782Y-93886768D01*
X109299952Y-94060121D01*
X109299950Y-94060123D01*
X109141041Y-94259388D01*
X109013608Y-94480109D01*
X108920492Y-94717362D01*
X108920490Y-94717369D01*
X108863777Y-94965845D01*
X108844732Y-95219995D01*
X108844732Y-95220004D01*
X108863777Y-95474154D01*
X108920490Y-95722630D01*
X108920492Y-95722637D01*
X109013608Y-95959890D01*
X109040536Y-96006531D01*
X109141041Y-96180612D01*
X109299950Y-96379877D01*
X109486783Y-96553232D01*
X109697366Y-96696805D01*
X109697371Y-96696807D01*
X109697372Y-96696808D01*
X109697373Y-96696809D01*
X109819328Y-96755538D01*
X109926992Y-96807387D01*
X109926993Y-96807387D01*
X109926996Y-96807389D01*
X110033360Y-96840197D01*
X110070029Y-96851509D01*
X110128288Y-96890080D01*
X110156446Y-96954024D01*
X110145562Y-97023041D01*
X110099093Y-97075218D01*
X110070029Y-97088491D01*
X109926992Y-97132612D01*
X109697373Y-97243190D01*
X109697372Y-97243191D01*
X109486782Y-97386768D01*
X109299952Y-97560121D01*
X109299950Y-97560123D01*
X109141041Y-97759388D01*
X109013608Y-97980109D01*
X108920492Y-98217362D01*
X108920490Y-98217369D01*
X108863777Y-98465845D01*
X108844732Y-98719995D01*
X108844732Y-98720004D01*
X108863777Y-98974154D01*
X108920490Y-99222630D01*
X108920492Y-99222637D01*
X109013608Y-99459890D01*
X109040536Y-99506531D01*
X109141041Y-99680612D01*
X109299950Y-99879877D01*
X109486783Y-100053232D01*
X109697366Y-100196805D01*
X109697371Y-100196807D01*
X109697372Y-100196808D01*
X109697373Y-100196809D01*
X109787059Y-100239999D01*
X109926992Y-100307387D01*
X109926993Y-100307387D01*
X109926996Y-100307389D01*
X110015935Y-100334823D01*
X110070029Y-100351509D01*
X110128288Y-100390080D01*
X110156446Y-100454024D01*
X110145562Y-100523041D01*
X110099093Y-100575218D01*
X110070029Y-100588491D01*
X109926992Y-100632612D01*
X109697373Y-100743190D01*
X109697372Y-100743191D01*
X109486782Y-100886768D01*
X109299952Y-101060121D01*
X109299950Y-101060123D01*
X109141041Y-101259388D01*
X109013608Y-101480109D01*
X108920492Y-101717362D01*
X108920490Y-101717369D01*
X108863777Y-101965845D01*
X108844732Y-102219995D01*
X108844732Y-102220004D01*
X108863777Y-102474154D01*
X108920490Y-102722630D01*
X108920492Y-102722637D01*
X109013608Y-102959890D01*
X109036801Y-103000062D01*
X109141041Y-103180612D01*
X109299950Y-103379877D01*
X109486783Y-103553232D01*
X109697366Y-103696805D01*
X109697371Y-103696807D01*
X109697372Y-103696808D01*
X109697373Y-103696809D01*
X109809542Y-103750826D01*
X109926992Y-103807387D01*
X109926993Y-103807387D01*
X109926996Y-103807389D01*
X110033360Y-103840197D01*
X110070029Y-103851509D01*
X110128288Y-103890080D01*
X110156446Y-103954024D01*
X110145562Y-104023041D01*
X110099093Y-104075218D01*
X110070029Y-104088491D01*
X109926992Y-104132612D01*
X109697373Y-104243190D01*
X109697372Y-104243191D01*
X109486782Y-104386768D01*
X109299952Y-104560121D01*
X109299950Y-104560123D01*
X109141041Y-104759388D01*
X109013608Y-104980109D01*
X108920492Y-105217362D01*
X108920490Y-105217369D01*
X108863777Y-105465845D01*
X108844732Y-105719995D01*
X108844732Y-105720004D01*
X108863777Y-105974154D01*
X108920490Y-106222630D01*
X108920492Y-106222637D01*
X109013608Y-106459890D01*
X109040536Y-106506531D01*
X109141041Y-106680612D01*
X109299950Y-106879877D01*
X109486783Y-107053232D01*
X109697366Y-107196805D01*
X109697371Y-107196807D01*
X109697372Y-107196808D01*
X109697373Y-107196809D01*
X109819328Y-107255538D01*
X109926992Y-107307387D01*
X109926993Y-107307387D01*
X109926996Y-107307389D01*
X110033360Y-107340197D01*
X110070029Y-107351509D01*
X110128288Y-107390080D01*
X110156446Y-107454024D01*
X110145562Y-107523041D01*
X110099093Y-107575218D01*
X110070029Y-107588491D01*
X109926992Y-107632612D01*
X109697373Y-107743190D01*
X109697372Y-107743191D01*
X109486782Y-107886768D01*
X109299952Y-108060121D01*
X109299950Y-108060123D01*
X109141041Y-108259388D01*
X109013608Y-108480109D01*
X108920492Y-108717362D01*
X108920490Y-108717369D01*
X108863777Y-108965845D01*
X108844732Y-109219995D01*
X108844732Y-109220004D01*
X108863777Y-109474154D01*
X108920490Y-109722630D01*
X108920492Y-109722637D01*
X109013608Y-109959890D01*
X109040536Y-110006531D01*
X109141041Y-110180612D01*
X109299950Y-110379877D01*
X109486783Y-110553232D01*
X109697366Y-110696805D01*
X109697371Y-110696807D01*
X109697372Y-110696808D01*
X109697373Y-110696809D01*
X109819328Y-110755538D01*
X109926992Y-110807387D01*
X109926993Y-110807387D01*
X109926996Y-110807389D01*
X110070876Y-110851770D01*
X110129135Y-110890341D01*
X110157293Y-110954285D01*
X110146409Y-111023302D01*
X110099940Y-111075479D01*
X110070876Y-111088752D01*
X109927175Y-111133078D01*
X109697622Y-111243625D01*
X109697609Y-111243632D01*
X109536813Y-111353259D01*
X110340780Y-112157226D01*
X110247412Y-112195901D01*
X110122075Y-112292075D01*
X110025901Y-112417411D01*
X109987226Y-112510780D01*
X109183452Y-111707006D01*
X109141457Y-111759667D01*
X109014058Y-111980328D01*
X108920973Y-112217505D01*
X108920968Y-112217522D01*
X108864273Y-112465920D01*
X108845233Y-112719995D01*
X108845233Y-112720004D01*
X108864273Y-112974079D01*
X108920968Y-113222477D01*
X108920973Y-113222494D01*
X109014058Y-113459671D01*
X109014057Y-113459671D01*
X109141454Y-113680327D01*
X109141461Y-113680338D01*
X109183452Y-113732991D01*
X109183453Y-113732992D01*
X109987226Y-112929219D01*
X110025901Y-113022588D01*
X110122075Y-113147925D01*
X110247412Y-113244099D01*
X110340779Y-113282772D01*
X109536813Y-114086738D01*
X109697616Y-114196371D01*
X109697624Y-114196376D01*
X109927175Y-114306921D01*
X110070876Y-114351247D01*
X110129135Y-114389817D01*
X110157292Y-114453762D01*
X110146409Y-114522779D01*
X110099941Y-114574955D01*
X110070877Y-114588229D01*
X109926990Y-114632613D01*
X109697373Y-114743190D01*
X109697372Y-114743191D01*
X109486782Y-114886768D01*
X109299952Y-115060121D01*
X109299950Y-115060123D01*
X109141041Y-115259388D01*
X109013608Y-115480109D01*
X108920492Y-115717362D01*
X108920490Y-115717369D01*
X108863777Y-115965845D01*
X108844732Y-116219995D01*
X108844732Y-116220004D01*
X102080500Y-116220004D01*
X102080500Y-60080000D01*
X106374422Y-60080000D01*
X106394722Y-60467339D01*
X106455397Y-60850427D01*
X106455397Y-60850429D01*
X106555788Y-61225094D01*
X106694787Y-61587197D01*
X106870877Y-61932793D01*
X107082122Y-62258082D01*
X107082124Y-62258084D01*
X107326219Y-62559516D01*
X107600484Y-62833781D01*
X107600488Y-62833784D01*
X107901917Y-63077877D01*
X108227206Y-63289122D01*
X108227211Y-63289125D01*
X108572806Y-63465214D01*
X108934913Y-63604214D01*
X109309567Y-63704602D01*
X109692662Y-63765278D01*
X110058576Y-63784455D01*
X110079999Y-63785578D01*
X110080000Y-63785578D01*
X110080001Y-63785578D01*
X110100301Y-63784514D01*
X110467338Y-63765278D01*
X110850433Y-63704602D01*
X111225087Y-63604214D01*
X111587194Y-63465214D01*
X111932789Y-63289125D01*
X112258084Y-63077876D01*
X112559516Y-62833781D01*
X112833781Y-62559516D01*
X113077876Y-62258084D01*
X113289125Y-61932789D01*
X113465214Y-61587194D01*
X113604214Y-61225087D01*
X113704602Y-60850433D01*
X113765278Y-60467338D01*
X113785578Y-60080000D01*
X164974422Y-60080000D01*
X164994722Y-60467339D01*
X165055397Y-60850427D01*
X165055397Y-60850429D01*
X165155788Y-61225094D01*
X165294787Y-61587197D01*
X165470877Y-61932793D01*
X165682122Y-62258082D01*
X165682124Y-62258084D01*
X165926219Y-62559516D01*
X166200484Y-62833781D01*
X166200488Y-62833784D01*
X166501917Y-63077877D01*
X166827206Y-63289122D01*
X166827211Y-63289125D01*
X167172806Y-63465214D01*
X167534913Y-63604214D01*
X167909567Y-63704602D01*
X168292662Y-63765278D01*
X168658576Y-63784455D01*
X168679999Y-63785578D01*
X168680000Y-63785578D01*
X168680001Y-63785578D01*
X168700301Y-63784514D01*
X169067338Y-63765278D01*
X169450433Y-63704602D01*
X169825087Y-63604214D01*
X170187194Y-63465214D01*
X170532789Y-63289125D01*
X170858084Y-63077876D01*
X171159516Y-62833781D01*
X171433781Y-62559516D01*
X171677876Y-62258084D01*
X171889125Y-61932789D01*
X172065214Y-61587194D01*
X172204214Y-61225087D01*
X172304602Y-60850433D01*
X172365278Y-60467338D01*
X172385578Y-60080000D01*
X172365278Y-59692662D01*
X172304602Y-59309567D01*
X172204214Y-58934913D01*
X172065214Y-58572806D01*
X171889125Y-58227211D01*
X171677876Y-57901916D01*
X171433781Y-57600484D01*
X171159516Y-57326219D01*
X170858084Y-57082124D01*
X170858082Y-57082122D01*
X170532793Y-56870877D01*
X170187197Y-56694787D01*
X169825094Y-56555788D01*
X169825087Y-56555786D01*
X169450433Y-56455398D01*
X169450429Y-56455397D01*
X169450428Y-56455397D01*
X169067339Y-56394722D01*
X168680001Y-56374422D01*
X168679999Y-56374422D01*
X168292660Y-56394722D01*
X167909572Y-56455397D01*
X167909570Y-56455397D01*
X167534905Y-56555788D01*
X167172802Y-56694787D01*
X166827206Y-56870877D01*
X166501917Y-57082122D01*
X166200488Y-57326215D01*
X166200480Y-57326222D01*
X165926222Y-57600480D01*
X165926215Y-57600488D01*
X165682122Y-57901917D01*
X165470877Y-58227206D01*
X165294787Y-58572802D01*
X165155788Y-58934905D01*
X165055397Y-59309570D01*
X165055397Y-59309572D01*
X164994722Y-59692660D01*
X164974422Y-60079999D01*
X164974422Y-60080000D01*
X113785578Y-60080000D01*
X113765278Y-59692662D01*
X113704602Y-59309567D01*
X113604214Y-58934913D01*
X113465214Y-58572806D01*
X113289125Y-58227211D01*
X113077876Y-57901916D01*
X112833781Y-57600484D01*
X112559516Y-57326219D01*
X112258084Y-57082124D01*
X112258082Y-57082122D01*
X111932793Y-56870877D01*
X111587197Y-56694787D01*
X111225094Y-56555788D01*
X111225087Y-56555786D01*
X110850433Y-56455398D01*
X110850429Y-56455397D01*
X110850428Y-56455397D01*
X110467339Y-56394722D01*
X110080001Y-56374422D01*
X110079999Y-56374422D01*
X109692660Y-56394722D01*
X109309572Y-56455397D01*
X109309570Y-56455397D01*
X108934905Y-56555788D01*
X108572802Y-56694787D01*
X108227206Y-56870877D01*
X107901917Y-57082122D01*
X107600488Y-57326215D01*
X107600480Y-57326222D01*
X107326222Y-57600480D01*
X107326215Y-57600488D01*
X107082122Y-57901917D01*
X106870877Y-58227206D01*
X106694787Y-58572802D01*
X106555788Y-58934905D01*
X106455397Y-59309570D01*
X106455397Y-59309572D01*
X106394722Y-59692660D01*
X106374422Y-60079999D01*
X106374422Y-60080000D01*
X102080500Y-60080000D01*
X102080500Y-50204500D01*
X102100185Y-50137461D01*
X102152989Y-50091706D01*
X102204500Y-50080500D01*
X176955500Y-50080500D01*
X177022539Y-50100185D01*
G37*
%TD.AperFunction*%
%TD*%
M02*
