%TF.GenerationSoftware,KiCad,Pcbnew,7.0.10-7.0.10~ubuntu22.04.1*%
%TF.CreationDate,2024-02-12T01:26:09+01:00*%
%TF.ProjectId,screw_terminal_breakout_board_esp32,73637265-775f-4746-9572-6d696e616c5f,rev?*%
%TF.SameCoordinates,Original*%
%TF.FileFunction,AssemblyDrawing,Top*%
%FSLAX46Y46*%
G04 Gerber Fmt 4.6, Leading zero omitted, Abs format (unit mm)*
G04 Created by KiCad (PCBNEW 7.0.10-7.0.10~ubuntu22.04.1) date 2024-02-12 01:26:09*
%MOMM*%
%LPD*%
G01*
G04 APERTURE LIST*
%ADD10C,0.150000*%
%ADD11C,0.100000*%
G04 APERTURE END LIST*
D10*
X105294285Y-64734819D02*
X105294285Y-63734819D01*
X105294285Y-63734819D02*
X105627618Y-64449104D01*
X105627618Y-64449104D02*
X105960951Y-63734819D01*
X105960951Y-63734819D02*
X105960951Y-64734819D01*
X106579999Y-64734819D02*
X106484761Y-64687200D01*
X106484761Y-64687200D02*
X106437142Y-64639580D01*
X106437142Y-64639580D02*
X106389523Y-64544342D01*
X106389523Y-64544342D02*
X106389523Y-64258628D01*
X106389523Y-64258628D02*
X106437142Y-64163390D01*
X106437142Y-64163390D02*
X106484761Y-64115771D01*
X106484761Y-64115771D02*
X106579999Y-64068152D01*
X106579999Y-64068152D02*
X106722856Y-64068152D01*
X106722856Y-64068152D02*
X106818094Y-64115771D01*
X106818094Y-64115771D02*
X106865713Y-64163390D01*
X106865713Y-64163390D02*
X106913332Y-64258628D01*
X106913332Y-64258628D02*
X106913332Y-64544342D01*
X106913332Y-64544342D02*
X106865713Y-64639580D01*
X106865713Y-64639580D02*
X106818094Y-64687200D01*
X106818094Y-64687200D02*
X106722856Y-64734819D01*
X106722856Y-64734819D02*
X106579999Y-64734819D01*
X107770475Y-64068152D02*
X107770475Y-64734819D01*
X107341904Y-64068152D02*
X107341904Y-64591961D01*
X107341904Y-64591961D02*
X107389523Y-64687200D01*
X107389523Y-64687200D02*
X107484761Y-64734819D01*
X107484761Y-64734819D02*
X107627618Y-64734819D01*
X107627618Y-64734819D02*
X107722856Y-64687200D01*
X107722856Y-64687200D02*
X107770475Y-64639580D01*
X108246666Y-64068152D02*
X108246666Y-64734819D01*
X108246666Y-64163390D02*
X108294285Y-64115771D01*
X108294285Y-64115771D02*
X108389523Y-64068152D01*
X108389523Y-64068152D02*
X108532380Y-64068152D01*
X108532380Y-64068152D02*
X108627618Y-64115771D01*
X108627618Y-64115771D02*
X108675237Y-64211009D01*
X108675237Y-64211009D02*
X108675237Y-64734819D01*
X109008571Y-64068152D02*
X109389523Y-64068152D01*
X109151428Y-63734819D02*
X109151428Y-64591961D01*
X109151428Y-64591961D02*
X109199047Y-64687200D01*
X109199047Y-64687200D02*
X109294285Y-64734819D01*
X109294285Y-64734819D02*
X109389523Y-64734819D01*
X109722857Y-64734819D02*
X109722857Y-64068152D01*
X109722857Y-63734819D02*
X109675238Y-63782438D01*
X109675238Y-63782438D02*
X109722857Y-63830057D01*
X109722857Y-63830057D02*
X109770476Y-63782438D01*
X109770476Y-63782438D02*
X109722857Y-63734819D01*
X109722857Y-63734819D02*
X109722857Y-63830057D01*
X110199047Y-64068152D02*
X110199047Y-64734819D01*
X110199047Y-64163390D02*
X110246666Y-64115771D01*
X110246666Y-64115771D02*
X110341904Y-64068152D01*
X110341904Y-64068152D02*
X110484761Y-64068152D01*
X110484761Y-64068152D02*
X110579999Y-64115771D01*
X110579999Y-64115771D02*
X110627618Y-64211009D01*
X110627618Y-64211009D02*
X110627618Y-64734819D01*
X111532380Y-64068152D02*
X111532380Y-64877676D01*
X111532380Y-64877676D02*
X111484761Y-64972914D01*
X111484761Y-64972914D02*
X111437142Y-65020533D01*
X111437142Y-65020533D02*
X111341904Y-65068152D01*
X111341904Y-65068152D02*
X111199047Y-65068152D01*
X111199047Y-65068152D02*
X111103809Y-65020533D01*
X111532380Y-64687200D02*
X111437142Y-64734819D01*
X111437142Y-64734819D02*
X111246666Y-64734819D01*
X111246666Y-64734819D02*
X111151428Y-64687200D01*
X111151428Y-64687200D02*
X111103809Y-64639580D01*
X111103809Y-64639580D02*
X111056190Y-64544342D01*
X111056190Y-64544342D02*
X111056190Y-64258628D01*
X111056190Y-64258628D02*
X111103809Y-64163390D01*
X111103809Y-64163390D02*
X111151428Y-64115771D01*
X111151428Y-64115771D02*
X111246666Y-64068152D01*
X111246666Y-64068152D02*
X111437142Y-64068152D01*
X111437142Y-64068152D02*
X111532380Y-64115771D01*
X112008571Y-64734819D02*
X112008571Y-63734819D01*
X112008571Y-64211009D02*
X112579999Y-64211009D01*
X112579999Y-64734819D02*
X112579999Y-63734819D01*
X113199047Y-64734819D02*
X113103809Y-64687200D01*
X113103809Y-64687200D02*
X113056190Y-64639580D01*
X113056190Y-64639580D02*
X113008571Y-64544342D01*
X113008571Y-64544342D02*
X113008571Y-64258628D01*
X113008571Y-64258628D02*
X113056190Y-64163390D01*
X113056190Y-64163390D02*
X113103809Y-64115771D01*
X113103809Y-64115771D02*
X113199047Y-64068152D01*
X113199047Y-64068152D02*
X113341904Y-64068152D01*
X113341904Y-64068152D02*
X113437142Y-64115771D01*
X113437142Y-64115771D02*
X113484761Y-64163390D01*
X113484761Y-64163390D02*
X113532380Y-64258628D01*
X113532380Y-64258628D02*
X113532380Y-64544342D01*
X113532380Y-64544342D02*
X113484761Y-64639580D01*
X113484761Y-64639580D02*
X113437142Y-64687200D01*
X113437142Y-64687200D02*
X113341904Y-64734819D01*
X113341904Y-64734819D02*
X113199047Y-64734819D01*
X114103809Y-64734819D02*
X114008571Y-64687200D01*
X114008571Y-64687200D02*
X113960952Y-64591961D01*
X113960952Y-64591961D02*
X113960952Y-63734819D01*
X114865714Y-64687200D02*
X114770476Y-64734819D01*
X114770476Y-64734819D02*
X114580000Y-64734819D01*
X114580000Y-64734819D02*
X114484762Y-64687200D01*
X114484762Y-64687200D02*
X114437143Y-64591961D01*
X114437143Y-64591961D02*
X114437143Y-64211009D01*
X114437143Y-64211009D02*
X114484762Y-64115771D01*
X114484762Y-64115771D02*
X114580000Y-64068152D01*
X114580000Y-64068152D02*
X114770476Y-64068152D01*
X114770476Y-64068152D02*
X114865714Y-64115771D01*
X114865714Y-64115771D02*
X114913333Y-64211009D01*
X114913333Y-64211009D02*
X114913333Y-64306247D01*
X114913333Y-64306247D02*
X114437143Y-64401485D01*
X109318095Y-60534819D02*
X109318095Y-59534819D01*
X109318095Y-60011009D02*
X109889523Y-60011009D01*
X109889523Y-60534819D02*
X109889523Y-59534819D01*
X110794285Y-59868152D02*
X110794285Y-60534819D01*
X110556190Y-59487200D02*
X110318095Y-60201485D01*
X110318095Y-60201485D02*
X110937142Y-60201485D01*
X163894285Y-64734819D02*
X163894285Y-63734819D01*
X163894285Y-63734819D02*
X164227618Y-64449104D01*
X164227618Y-64449104D02*
X164560951Y-63734819D01*
X164560951Y-63734819D02*
X164560951Y-64734819D01*
X165179999Y-64734819D02*
X165084761Y-64687200D01*
X165084761Y-64687200D02*
X165037142Y-64639580D01*
X165037142Y-64639580D02*
X164989523Y-64544342D01*
X164989523Y-64544342D02*
X164989523Y-64258628D01*
X164989523Y-64258628D02*
X165037142Y-64163390D01*
X165037142Y-64163390D02*
X165084761Y-64115771D01*
X165084761Y-64115771D02*
X165179999Y-64068152D01*
X165179999Y-64068152D02*
X165322856Y-64068152D01*
X165322856Y-64068152D02*
X165418094Y-64115771D01*
X165418094Y-64115771D02*
X165465713Y-64163390D01*
X165465713Y-64163390D02*
X165513332Y-64258628D01*
X165513332Y-64258628D02*
X165513332Y-64544342D01*
X165513332Y-64544342D02*
X165465713Y-64639580D01*
X165465713Y-64639580D02*
X165418094Y-64687200D01*
X165418094Y-64687200D02*
X165322856Y-64734819D01*
X165322856Y-64734819D02*
X165179999Y-64734819D01*
X166370475Y-64068152D02*
X166370475Y-64734819D01*
X165941904Y-64068152D02*
X165941904Y-64591961D01*
X165941904Y-64591961D02*
X165989523Y-64687200D01*
X165989523Y-64687200D02*
X166084761Y-64734819D01*
X166084761Y-64734819D02*
X166227618Y-64734819D01*
X166227618Y-64734819D02*
X166322856Y-64687200D01*
X166322856Y-64687200D02*
X166370475Y-64639580D01*
X166846666Y-64068152D02*
X166846666Y-64734819D01*
X166846666Y-64163390D02*
X166894285Y-64115771D01*
X166894285Y-64115771D02*
X166989523Y-64068152D01*
X166989523Y-64068152D02*
X167132380Y-64068152D01*
X167132380Y-64068152D02*
X167227618Y-64115771D01*
X167227618Y-64115771D02*
X167275237Y-64211009D01*
X167275237Y-64211009D02*
X167275237Y-64734819D01*
X167608571Y-64068152D02*
X167989523Y-64068152D01*
X167751428Y-63734819D02*
X167751428Y-64591961D01*
X167751428Y-64591961D02*
X167799047Y-64687200D01*
X167799047Y-64687200D02*
X167894285Y-64734819D01*
X167894285Y-64734819D02*
X167989523Y-64734819D01*
X168322857Y-64734819D02*
X168322857Y-64068152D01*
X168322857Y-63734819D02*
X168275238Y-63782438D01*
X168275238Y-63782438D02*
X168322857Y-63830057D01*
X168322857Y-63830057D02*
X168370476Y-63782438D01*
X168370476Y-63782438D02*
X168322857Y-63734819D01*
X168322857Y-63734819D02*
X168322857Y-63830057D01*
X168799047Y-64068152D02*
X168799047Y-64734819D01*
X168799047Y-64163390D02*
X168846666Y-64115771D01*
X168846666Y-64115771D02*
X168941904Y-64068152D01*
X168941904Y-64068152D02*
X169084761Y-64068152D01*
X169084761Y-64068152D02*
X169179999Y-64115771D01*
X169179999Y-64115771D02*
X169227618Y-64211009D01*
X169227618Y-64211009D02*
X169227618Y-64734819D01*
X170132380Y-64068152D02*
X170132380Y-64877676D01*
X170132380Y-64877676D02*
X170084761Y-64972914D01*
X170084761Y-64972914D02*
X170037142Y-65020533D01*
X170037142Y-65020533D02*
X169941904Y-65068152D01*
X169941904Y-65068152D02*
X169799047Y-65068152D01*
X169799047Y-65068152D02*
X169703809Y-65020533D01*
X170132380Y-64687200D02*
X170037142Y-64734819D01*
X170037142Y-64734819D02*
X169846666Y-64734819D01*
X169846666Y-64734819D02*
X169751428Y-64687200D01*
X169751428Y-64687200D02*
X169703809Y-64639580D01*
X169703809Y-64639580D02*
X169656190Y-64544342D01*
X169656190Y-64544342D02*
X169656190Y-64258628D01*
X169656190Y-64258628D02*
X169703809Y-64163390D01*
X169703809Y-64163390D02*
X169751428Y-64115771D01*
X169751428Y-64115771D02*
X169846666Y-64068152D01*
X169846666Y-64068152D02*
X170037142Y-64068152D01*
X170037142Y-64068152D02*
X170132380Y-64115771D01*
X170608571Y-64734819D02*
X170608571Y-63734819D01*
X170608571Y-64211009D02*
X171179999Y-64211009D01*
X171179999Y-64734819D02*
X171179999Y-63734819D01*
X171799047Y-64734819D02*
X171703809Y-64687200D01*
X171703809Y-64687200D02*
X171656190Y-64639580D01*
X171656190Y-64639580D02*
X171608571Y-64544342D01*
X171608571Y-64544342D02*
X171608571Y-64258628D01*
X171608571Y-64258628D02*
X171656190Y-64163390D01*
X171656190Y-64163390D02*
X171703809Y-64115771D01*
X171703809Y-64115771D02*
X171799047Y-64068152D01*
X171799047Y-64068152D02*
X171941904Y-64068152D01*
X171941904Y-64068152D02*
X172037142Y-64115771D01*
X172037142Y-64115771D02*
X172084761Y-64163390D01*
X172084761Y-64163390D02*
X172132380Y-64258628D01*
X172132380Y-64258628D02*
X172132380Y-64544342D01*
X172132380Y-64544342D02*
X172084761Y-64639580D01*
X172084761Y-64639580D02*
X172037142Y-64687200D01*
X172037142Y-64687200D02*
X171941904Y-64734819D01*
X171941904Y-64734819D02*
X171799047Y-64734819D01*
X172703809Y-64734819D02*
X172608571Y-64687200D01*
X172608571Y-64687200D02*
X172560952Y-64591961D01*
X172560952Y-64591961D02*
X172560952Y-63734819D01*
X173465714Y-64687200D02*
X173370476Y-64734819D01*
X173370476Y-64734819D02*
X173180000Y-64734819D01*
X173180000Y-64734819D02*
X173084762Y-64687200D01*
X173084762Y-64687200D02*
X173037143Y-64591961D01*
X173037143Y-64591961D02*
X173037143Y-64211009D01*
X173037143Y-64211009D02*
X173084762Y-64115771D01*
X173084762Y-64115771D02*
X173180000Y-64068152D01*
X173180000Y-64068152D02*
X173370476Y-64068152D01*
X173370476Y-64068152D02*
X173465714Y-64115771D01*
X173465714Y-64115771D02*
X173513333Y-64211009D01*
X173513333Y-64211009D02*
X173513333Y-64306247D01*
X173513333Y-64306247D02*
X173037143Y-64401485D01*
X167918095Y-60534819D02*
X167918095Y-59534819D01*
X167918095Y-60011009D02*
X168489523Y-60011009D01*
X168489523Y-60534819D02*
X168489523Y-59534819D01*
X168870476Y-59534819D02*
X169489523Y-59534819D01*
X169489523Y-59534819D02*
X169156190Y-59915771D01*
X169156190Y-59915771D02*
X169299047Y-59915771D01*
X169299047Y-59915771D02*
X169394285Y-59963390D01*
X169394285Y-59963390D02*
X169441904Y-60011009D01*
X169441904Y-60011009D02*
X169489523Y-60106247D01*
X169489523Y-60106247D02*
X169489523Y-60344342D01*
X169489523Y-60344342D02*
X169441904Y-60439580D01*
X169441904Y-60439580D02*
X169394285Y-60487200D01*
X169394285Y-60487200D02*
X169299047Y-60534819D01*
X169299047Y-60534819D02*
X169013333Y-60534819D01*
X169013333Y-60534819D02*
X168918095Y-60487200D01*
X168918095Y-60487200D02*
X168870476Y-60439580D01*
X105597229Y-129037763D02*
X105597229Y-128037763D01*
X105597229Y-128037763D02*
X105930562Y-128752048D01*
X105930562Y-128752048D02*
X106263895Y-128037763D01*
X106263895Y-128037763D02*
X106263895Y-129037763D01*
X106882943Y-129037763D02*
X106787705Y-128990144D01*
X106787705Y-128990144D02*
X106740086Y-128942524D01*
X106740086Y-128942524D02*
X106692467Y-128847286D01*
X106692467Y-128847286D02*
X106692467Y-128561572D01*
X106692467Y-128561572D02*
X106740086Y-128466334D01*
X106740086Y-128466334D02*
X106787705Y-128418715D01*
X106787705Y-128418715D02*
X106882943Y-128371096D01*
X106882943Y-128371096D02*
X107025800Y-128371096D01*
X107025800Y-128371096D02*
X107121038Y-128418715D01*
X107121038Y-128418715D02*
X107168657Y-128466334D01*
X107168657Y-128466334D02*
X107216276Y-128561572D01*
X107216276Y-128561572D02*
X107216276Y-128847286D01*
X107216276Y-128847286D02*
X107168657Y-128942524D01*
X107168657Y-128942524D02*
X107121038Y-128990144D01*
X107121038Y-128990144D02*
X107025800Y-129037763D01*
X107025800Y-129037763D02*
X106882943Y-129037763D01*
X108073419Y-128371096D02*
X108073419Y-129037763D01*
X107644848Y-128371096D02*
X107644848Y-128894905D01*
X107644848Y-128894905D02*
X107692467Y-128990144D01*
X107692467Y-128990144D02*
X107787705Y-129037763D01*
X107787705Y-129037763D02*
X107930562Y-129037763D01*
X107930562Y-129037763D02*
X108025800Y-128990144D01*
X108025800Y-128990144D02*
X108073419Y-128942524D01*
X108549610Y-128371096D02*
X108549610Y-129037763D01*
X108549610Y-128466334D02*
X108597229Y-128418715D01*
X108597229Y-128418715D02*
X108692467Y-128371096D01*
X108692467Y-128371096D02*
X108835324Y-128371096D01*
X108835324Y-128371096D02*
X108930562Y-128418715D01*
X108930562Y-128418715D02*
X108978181Y-128513953D01*
X108978181Y-128513953D02*
X108978181Y-129037763D01*
X109311515Y-128371096D02*
X109692467Y-128371096D01*
X109454372Y-128037763D02*
X109454372Y-128894905D01*
X109454372Y-128894905D02*
X109501991Y-128990144D01*
X109501991Y-128990144D02*
X109597229Y-129037763D01*
X109597229Y-129037763D02*
X109692467Y-129037763D01*
X110025801Y-129037763D02*
X110025801Y-128371096D01*
X110025801Y-128037763D02*
X109978182Y-128085382D01*
X109978182Y-128085382D02*
X110025801Y-128133001D01*
X110025801Y-128133001D02*
X110073420Y-128085382D01*
X110073420Y-128085382D02*
X110025801Y-128037763D01*
X110025801Y-128037763D02*
X110025801Y-128133001D01*
X110501991Y-128371096D02*
X110501991Y-129037763D01*
X110501991Y-128466334D02*
X110549610Y-128418715D01*
X110549610Y-128418715D02*
X110644848Y-128371096D01*
X110644848Y-128371096D02*
X110787705Y-128371096D01*
X110787705Y-128371096D02*
X110882943Y-128418715D01*
X110882943Y-128418715D02*
X110930562Y-128513953D01*
X110930562Y-128513953D02*
X110930562Y-129037763D01*
X111835324Y-128371096D02*
X111835324Y-129180620D01*
X111835324Y-129180620D02*
X111787705Y-129275858D01*
X111787705Y-129275858D02*
X111740086Y-129323477D01*
X111740086Y-129323477D02*
X111644848Y-129371096D01*
X111644848Y-129371096D02*
X111501991Y-129371096D01*
X111501991Y-129371096D02*
X111406753Y-129323477D01*
X111835324Y-128990144D02*
X111740086Y-129037763D01*
X111740086Y-129037763D02*
X111549610Y-129037763D01*
X111549610Y-129037763D02*
X111454372Y-128990144D01*
X111454372Y-128990144D02*
X111406753Y-128942524D01*
X111406753Y-128942524D02*
X111359134Y-128847286D01*
X111359134Y-128847286D02*
X111359134Y-128561572D01*
X111359134Y-128561572D02*
X111406753Y-128466334D01*
X111406753Y-128466334D02*
X111454372Y-128418715D01*
X111454372Y-128418715D02*
X111549610Y-128371096D01*
X111549610Y-128371096D02*
X111740086Y-128371096D01*
X111740086Y-128371096D02*
X111835324Y-128418715D01*
X112311515Y-129037763D02*
X112311515Y-128037763D01*
X112311515Y-128513953D02*
X112882943Y-128513953D01*
X112882943Y-129037763D02*
X112882943Y-128037763D01*
X113501991Y-129037763D02*
X113406753Y-128990144D01*
X113406753Y-128990144D02*
X113359134Y-128942524D01*
X113359134Y-128942524D02*
X113311515Y-128847286D01*
X113311515Y-128847286D02*
X113311515Y-128561572D01*
X113311515Y-128561572D02*
X113359134Y-128466334D01*
X113359134Y-128466334D02*
X113406753Y-128418715D01*
X113406753Y-128418715D02*
X113501991Y-128371096D01*
X113501991Y-128371096D02*
X113644848Y-128371096D01*
X113644848Y-128371096D02*
X113740086Y-128418715D01*
X113740086Y-128418715D02*
X113787705Y-128466334D01*
X113787705Y-128466334D02*
X113835324Y-128561572D01*
X113835324Y-128561572D02*
X113835324Y-128847286D01*
X113835324Y-128847286D02*
X113787705Y-128942524D01*
X113787705Y-128942524D02*
X113740086Y-128990144D01*
X113740086Y-128990144D02*
X113644848Y-129037763D01*
X113644848Y-129037763D02*
X113501991Y-129037763D01*
X114406753Y-129037763D02*
X114311515Y-128990144D01*
X114311515Y-128990144D02*
X114263896Y-128894905D01*
X114263896Y-128894905D02*
X114263896Y-128037763D01*
X115168658Y-128990144D02*
X115073420Y-129037763D01*
X115073420Y-129037763D02*
X114882944Y-129037763D01*
X114882944Y-129037763D02*
X114787706Y-128990144D01*
X114787706Y-128990144D02*
X114740087Y-128894905D01*
X114740087Y-128894905D02*
X114740087Y-128513953D01*
X114740087Y-128513953D02*
X114787706Y-128418715D01*
X114787706Y-128418715D02*
X114882944Y-128371096D01*
X114882944Y-128371096D02*
X115073420Y-128371096D01*
X115073420Y-128371096D02*
X115168658Y-128418715D01*
X115168658Y-128418715D02*
X115216277Y-128513953D01*
X115216277Y-128513953D02*
X115216277Y-128609191D01*
X115216277Y-128609191D02*
X114740087Y-128704429D01*
X109621039Y-124837763D02*
X109621039Y-123837763D01*
X109621039Y-124313953D02*
X110192467Y-124313953D01*
X110192467Y-124837763D02*
X110192467Y-123837763D01*
X110621039Y-123933001D02*
X110668658Y-123885382D01*
X110668658Y-123885382D02*
X110763896Y-123837763D01*
X110763896Y-123837763D02*
X111001991Y-123837763D01*
X111001991Y-123837763D02*
X111097229Y-123885382D01*
X111097229Y-123885382D02*
X111144848Y-123933001D01*
X111144848Y-123933001D02*
X111192467Y-124028239D01*
X111192467Y-124028239D02*
X111192467Y-124123477D01*
X111192467Y-124123477D02*
X111144848Y-124266334D01*
X111144848Y-124266334D02*
X110573420Y-124837763D01*
X110573420Y-124837763D02*
X111192467Y-124837763D01*
X164894285Y-128734819D02*
X164894285Y-127734819D01*
X164894285Y-127734819D02*
X165227618Y-128449104D01*
X165227618Y-128449104D02*
X165560951Y-127734819D01*
X165560951Y-127734819D02*
X165560951Y-128734819D01*
X166179999Y-128734819D02*
X166084761Y-128687200D01*
X166084761Y-128687200D02*
X166037142Y-128639580D01*
X166037142Y-128639580D02*
X165989523Y-128544342D01*
X165989523Y-128544342D02*
X165989523Y-128258628D01*
X165989523Y-128258628D02*
X166037142Y-128163390D01*
X166037142Y-128163390D02*
X166084761Y-128115771D01*
X166084761Y-128115771D02*
X166179999Y-128068152D01*
X166179999Y-128068152D02*
X166322856Y-128068152D01*
X166322856Y-128068152D02*
X166418094Y-128115771D01*
X166418094Y-128115771D02*
X166465713Y-128163390D01*
X166465713Y-128163390D02*
X166513332Y-128258628D01*
X166513332Y-128258628D02*
X166513332Y-128544342D01*
X166513332Y-128544342D02*
X166465713Y-128639580D01*
X166465713Y-128639580D02*
X166418094Y-128687200D01*
X166418094Y-128687200D02*
X166322856Y-128734819D01*
X166322856Y-128734819D02*
X166179999Y-128734819D01*
X167370475Y-128068152D02*
X167370475Y-128734819D01*
X166941904Y-128068152D02*
X166941904Y-128591961D01*
X166941904Y-128591961D02*
X166989523Y-128687200D01*
X166989523Y-128687200D02*
X167084761Y-128734819D01*
X167084761Y-128734819D02*
X167227618Y-128734819D01*
X167227618Y-128734819D02*
X167322856Y-128687200D01*
X167322856Y-128687200D02*
X167370475Y-128639580D01*
X167846666Y-128068152D02*
X167846666Y-128734819D01*
X167846666Y-128163390D02*
X167894285Y-128115771D01*
X167894285Y-128115771D02*
X167989523Y-128068152D01*
X167989523Y-128068152D02*
X168132380Y-128068152D01*
X168132380Y-128068152D02*
X168227618Y-128115771D01*
X168227618Y-128115771D02*
X168275237Y-128211009D01*
X168275237Y-128211009D02*
X168275237Y-128734819D01*
X168608571Y-128068152D02*
X168989523Y-128068152D01*
X168751428Y-127734819D02*
X168751428Y-128591961D01*
X168751428Y-128591961D02*
X168799047Y-128687200D01*
X168799047Y-128687200D02*
X168894285Y-128734819D01*
X168894285Y-128734819D02*
X168989523Y-128734819D01*
X169322857Y-128734819D02*
X169322857Y-128068152D01*
X169322857Y-127734819D02*
X169275238Y-127782438D01*
X169275238Y-127782438D02*
X169322857Y-127830057D01*
X169322857Y-127830057D02*
X169370476Y-127782438D01*
X169370476Y-127782438D02*
X169322857Y-127734819D01*
X169322857Y-127734819D02*
X169322857Y-127830057D01*
X169799047Y-128068152D02*
X169799047Y-128734819D01*
X169799047Y-128163390D02*
X169846666Y-128115771D01*
X169846666Y-128115771D02*
X169941904Y-128068152D01*
X169941904Y-128068152D02*
X170084761Y-128068152D01*
X170084761Y-128068152D02*
X170179999Y-128115771D01*
X170179999Y-128115771D02*
X170227618Y-128211009D01*
X170227618Y-128211009D02*
X170227618Y-128734819D01*
X171132380Y-128068152D02*
X171132380Y-128877676D01*
X171132380Y-128877676D02*
X171084761Y-128972914D01*
X171084761Y-128972914D02*
X171037142Y-129020533D01*
X171037142Y-129020533D02*
X170941904Y-129068152D01*
X170941904Y-129068152D02*
X170799047Y-129068152D01*
X170799047Y-129068152D02*
X170703809Y-129020533D01*
X171132380Y-128687200D02*
X171037142Y-128734819D01*
X171037142Y-128734819D02*
X170846666Y-128734819D01*
X170846666Y-128734819D02*
X170751428Y-128687200D01*
X170751428Y-128687200D02*
X170703809Y-128639580D01*
X170703809Y-128639580D02*
X170656190Y-128544342D01*
X170656190Y-128544342D02*
X170656190Y-128258628D01*
X170656190Y-128258628D02*
X170703809Y-128163390D01*
X170703809Y-128163390D02*
X170751428Y-128115771D01*
X170751428Y-128115771D02*
X170846666Y-128068152D01*
X170846666Y-128068152D02*
X171037142Y-128068152D01*
X171037142Y-128068152D02*
X171132380Y-128115771D01*
X171608571Y-128734819D02*
X171608571Y-127734819D01*
X171608571Y-128211009D02*
X172179999Y-128211009D01*
X172179999Y-128734819D02*
X172179999Y-127734819D01*
X172799047Y-128734819D02*
X172703809Y-128687200D01*
X172703809Y-128687200D02*
X172656190Y-128639580D01*
X172656190Y-128639580D02*
X172608571Y-128544342D01*
X172608571Y-128544342D02*
X172608571Y-128258628D01*
X172608571Y-128258628D02*
X172656190Y-128163390D01*
X172656190Y-128163390D02*
X172703809Y-128115771D01*
X172703809Y-128115771D02*
X172799047Y-128068152D01*
X172799047Y-128068152D02*
X172941904Y-128068152D01*
X172941904Y-128068152D02*
X173037142Y-128115771D01*
X173037142Y-128115771D02*
X173084761Y-128163390D01*
X173084761Y-128163390D02*
X173132380Y-128258628D01*
X173132380Y-128258628D02*
X173132380Y-128544342D01*
X173132380Y-128544342D02*
X173084761Y-128639580D01*
X173084761Y-128639580D02*
X173037142Y-128687200D01*
X173037142Y-128687200D02*
X172941904Y-128734819D01*
X172941904Y-128734819D02*
X172799047Y-128734819D01*
X173703809Y-128734819D02*
X173608571Y-128687200D01*
X173608571Y-128687200D02*
X173560952Y-128591961D01*
X173560952Y-128591961D02*
X173560952Y-127734819D01*
X174465714Y-128687200D02*
X174370476Y-128734819D01*
X174370476Y-128734819D02*
X174180000Y-128734819D01*
X174180000Y-128734819D02*
X174084762Y-128687200D01*
X174084762Y-128687200D02*
X174037143Y-128591961D01*
X174037143Y-128591961D02*
X174037143Y-128211009D01*
X174037143Y-128211009D02*
X174084762Y-128115771D01*
X174084762Y-128115771D02*
X174180000Y-128068152D01*
X174180000Y-128068152D02*
X174370476Y-128068152D01*
X174370476Y-128068152D02*
X174465714Y-128115771D01*
X174465714Y-128115771D02*
X174513333Y-128211009D01*
X174513333Y-128211009D02*
X174513333Y-128306247D01*
X174513333Y-128306247D02*
X174037143Y-128401485D01*
X168918095Y-124534819D02*
X168918095Y-123534819D01*
X168918095Y-124011009D02*
X169489523Y-124011009D01*
X169489523Y-124534819D02*
X169489523Y-123534819D01*
X170489523Y-124534819D02*
X169918095Y-124534819D01*
X170203809Y-124534819D02*
X170203809Y-123534819D01*
X170203809Y-123534819D02*
X170108571Y-123677676D01*
X170108571Y-123677676D02*
X170013333Y-123772914D01*
X170013333Y-123772914D02*
X169918095Y-123820533D01*
X131593333Y-75851009D02*
X131926666Y-75851009D01*
X132069523Y-76374819D02*
X131593333Y-76374819D01*
X131593333Y-76374819D02*
X131593333Y-75374819D01*
X131593333Y-75374819D02*
X132069523Y-75374819D01*
X132450476Y-76327200D02*
X132593333Y-76374819D01*
X132593333Y-76374819D02*
X132831428Y-76374819D01*
X132831428Y-76374819D02*
X132926666Y-76327200D01*
X132926666Y-76327200D02*
X132974285Y-76279580D01*
X132974285Y-76279580D02*
X133021904Y-76184342D01*
X133021904Y-76184342D02*
X133021904Y-76089104D01*
X133021904Y-76089104D02*
X132974285Y-75993866D01*
X132974285Y-75993866D02*
X132926666Y-75946247D01*
X132926666Y-75946247D02*
X132831428Y-75898628D01*
X132831428Y-75898628D02*
X132640952Y-75851009D01*
X132640952Y-75851009D02*
X132545714Y-75803390D01*
X132545714Y-75803390D02*
X132498095Y-75755771D01*
X132498095Y-75755771D02*
X132450476Y-75660533D01*
X132450476Y-75660533D02*
X132450476Y-75565295D01*
X132450476Y-75565295D02*
X132498095Y-75470057D01*
X132498095Y-75470057D02*
X132545714Y-75422438D01*
X132545714Y-75422438D02*
X132640952Y-75374819D01*
X132640952Y-75374819D02*
X132879047Y-75374819D01*
X132879047Y-75374819D02*
X133021904Y-75422438D01*
X133450476Y-76374819D02*
X133450476Y-75374819D01*
X133450476Y-75374819D02*
X133831428Y-75374819D01*
X133831428Y-75374819D02*
X133926666Y-75422438D01*
X133926666Y-75422438D02*
X133974285Y-75470057D01*
X133974285Y-75470057D02*
X134021904Y-75565295D01*
X134021904Y-75565295D02*
X134021904Y-75708152D01*
X134021904Y-75708152D02*
X133974285Y-75803390D01*
X133974285Y-75803390D02*
X133926666Y-75851009D01*
X133926666Y-75851009D02*
X133831428Y-75898628D01*
X133831428Y-75898628D02*
X133450476Y-75898628D01*
X134355238Y-75374819D02*
X134974285Y-75374819D01*
X134974285Y-75374819D02*
X134640952Y-75755771D01*
X134640952Y-75755771D02*
X134783809Y-75755771D01*
X134783809Y-75755771D02*
X134879047Y-75803390D01*
X134879047Y-75803390D02*
X134926666Y-75851009D01*
X134926666Y-75851009D02*
X134974285Y-75946247D01*
X134974285Y-75946247D02*
X134974285Y-76184342D01*
X134974285Y-76184342D02*
X134926666Y-76279580D01*
X134926666Y-76279580D02*
X134879047Y-76327200D01*
X134879047Y-76327200D02*
X134783809Y-76374819D01*
X134783809Y-76374819D02*
X134498095Y-76374819D01*
X134498095Y-76374819D02*
X134402857Y-76327200D01*
X134402857Y-76327200D02*
X134355238Y-76279580D01*
X135355238Y-75470057D02*
X135402857Y-75422438D01*
X135402857Y-75422438D02*
X135498095Y-75374819D01*
X135498095Y-75374819D02*
X135736190Y-75374819D01*
X135736190Y-75374819D02*
X135831428Y-75422438D01*
X135831428Y-75422438D02*
X135879047Y-75470057D01*
X135879047Y-75470057D02*
X135926666Y-75565295D01*
X135926666Y-75565295D02*
X135926666Y-75660533D01*
X135926666Y-75660533D02*
X135879047Y-75803390D01*
X135879047Y-75803390D02*
X135307619Y-76374819D01*
X135307619Y-76374819D02*
X135926666Y-76374819D01*
X136117143Y-76470057D02*
X136879047Y-76470057D01*
X137117143Y-76374819D02*
X137117143Y-75374819D01*
X137117143Y-75374819D02*
X137355238Y-75374819D01*
X137355238Y-75374819D02*
X137498095Y-75422438D01*
X137498095Y-75422438D02*
X137593333Y-75517676D01*
X137593333Y-75517676D02*
X137640952Y-75612914D01*
X137640952Y-75612914D02*
X137688571Y-75803390D01*
X137688571Y-75803390D02*
X137688571Y-75946247D01*
X137688571Y-75946247D02*
X137640952Y-76136723D01*
X137640952Y-76136723D02*
X137593333Y-76231961D01*
X137593333Y-76231961D02*
X137498095Y-76327200D01*
X137498095Y-76327200D02*
X137355238Y-76374819D01*
X137355238Y-76374819D02*
X137117143Y-76374819D01*
X138498095Y-76327200D02*
X138402857Y-76374819D01*
X138402857Y-76374819D02*
X138212381Y-76374819D01*
X138212381Y-76374819D02*
X138117143Y-76327200D01*
X138117143Y-76327200D02*
X138069524Y-76231961D01*
X138069524Y-76231961D02*
X138069524Y-75851009D01*
X138069524Y-75851009D02*
X138117143Y-75755771D01*
X138117143Y-75755771D02*
X138212381Y-75708152D01*
X138212381Y-75708152D02*
X138402857Y-75708152D01*
X138402857Y-75708152D02*
X138498095Y-75755771D01*
X138498095Y-75755771D02*
X138545714Y-75851009D01*
X138545714Y-75851009D02*
X138545714Y-75946247D01*
X138545714Y-75946247D02*
X138069524Y-76041485D01*
X138879048Y-75708152D02*
X139117143Y-76374819D01*
X139117143Y-76374819D02*
X139355238Y-75708152D01*
X139736191Y-76374819D02*
X139736191Y-75374819D01*
X140307619Y-76374819D02*
X139879048Y-75803390D01*
X140307619Y-75374819D02*
X139736191Y-75946247D01*
X140736191Y-76374819D02*
X140736191Y-75708152D01*
X140736191Y-75374819D02*
X140688572Y-75422438D01*
X140688572Y-75422438D02*
X140736191Y-75470057D01*
X140736191Y-75470057D02*
X140783810Y-75422438D01*
X140783810Y-75422438D02*
X140736191Y-75374819D01*
X140736191Y-75374819D02*
X140736191Y-75470057D01*
X141069524Y-75708152D02*
X141450476Y-75708152D01*
X141212381Y-75374819D02*
X141212381Y-76231961D01*
X141212381Y-76231961D02*
X141260000Y-76327200D01*
X141260000Y-76327200D02*
X141355238Y-76374819D01*
X141355238Y-76374819D02*
X141450476Y-76374819D01*
X141545715Y-76470057D02*
X142307619Y-76470057D01*
X142402858Y-75374819D02*
X142736191Y-76374819D01*
X142736191Y-76374819D02*
X143069524Y-75374819D01*
X143926667Y-76374819D02*
X143355239Y-76374819D01*
X143640953Y-76374819D02*
X143640953Y-75374819D01*
X143640953Y-75374819D02*
X143545715Y-75517676D01*
X143545715Y-75517676D02*
X143450477Y-75612914D01*
X143450477Y-75612914D02*
X143355239Y-75660533D01*
X144117144Y-76470057D02*
X144879048Y-76470057D01*
X145117144Y-76374819D02*
X145117144Y-75374819D01*
X145117144Y-75374819D02*
X145355239Y-75374819D01*
X145355239Y-75374819D02*
X145498096Y-75422438D01*
X145498096Y-75422438D02*
X145593334Y-75517676D01*
X145593334Y-75517676D02*
X145640953Y-75612914D01*
X145640953Y-75612914D02*
X145688572Y-75803390D01*
X145688572Y-75803390D02*
X145688572Y-75946247D01*
X145688572Y-75946247D02*
X145640953Y-76136723D01*
X145640953Y-76136723D02*
X145593334Y-76231961D01*
X145593334Y-76231961D02*
X145498096Y-76327200D01*
X145498096Y-76327200D02*
X145355239Y-76374819D01*
X145355239Y-76374819D02*
X145117144Y-76374819D01*
X146307620Y-75374819D02*
X146498096Y-75374819D01*
X146498096Y-75374819D02*
X146593334Y-75422438D01*
X146593334Y-75422438D02*
X146688572Y-75517676D01*
X146688572Y-75517676D02*
X146736191Y-75708152D01*
X146736191Y-75708152D02*
X146736191Y-76041485D01*
X146736191Y-76041485D02*
X146688572Y-76231961D01*
X146688572Y-76231961D02*
X146593334Y-76327200D01*
X146593334Y-76327200D02*
X146498096Y-76374819D01*
X146498096Y-76374819D02*
X146307620Y-76374819D01*
X146307620Y-76374819D02*
X146212382Y-76327200D01*
X146212382Y-76327200D02*
X146117144Y-76231961D01*
X146117144Y-76231961D02*
X146069525Y-76041485D01*
X146069525Y-76041485D02*
X146069525Y-75708152D01*
X146069525Y-75708152D02*
X146117144Y-75517676D01*
X146117144Y-75517676D02*
X146212382Y-75422438D01*
X146212382Y-75422438D02*
X146307620Y-75374819D01*
X147164763Y-76374819D02*
X147164763Y-75374819D01*
X147498096Y-75374819D02*
X148069524Y-75374819D01*
X147783810Y-76374819D02*
X147783810Y-75374819D01*
X106297200Y-99958095D02*
X106344819Y-99815238D01*
X106344819Y-99815238D02*
X106344819Y-99577143D01*
X106344819Y-99577143D02*
X106297200Y-99481905D01*
X106297200Y-99481905D02*
X106249580Y-99434286D01*
X106249580Y-99434286D02*
X106154342Y-99386667D01*
X106154342Y-99386667D02*
X106059104Y-99386667D01*
X106059104Y-99386667D02*
X105963866Y-99434286D01*
X105963866Y-99434286D02*
X105916247Y-99481905D01*
X105916247Y-99481905D02*
X105868628Y-99577143D01*
X105868628Y-99577143D02*
X105821009Y-99767619D01*
X105821009Y-99767619D02*
X105773390Y-99862857D01*
X105773390Y-99862857D02*
X105725771Y-99910476D01*
X105725771Y-99910476D02*
X105630533Y-99958095D01*
X105630533Y-99958095D02*
X105535295Y-99958095D01*
X105535295Y-99958095D02*
X105440057Y-99910476D01*
X105440057Y-99910476D02*
X105392438Y-99862857D01*
X105392438Y-99862857D02*
X105344819Y-99767619D01*
X105344819Y-99767619D02*
X105344819Y-99529524D01*
X105344819Y-99529524D02*
X105392438Y-99386667D01*
X106297200Y-98529524D02*
X106344819Y-98624762D01*
X106344819Y-98624762D02*
X106344819Y-98815238D01*
X106344819Y-98815238D02*
X106297200Y-98910476D01*
X106297200Y-98910476D02*
X106249580Y-98958095D01*
X106249580Y-98958095D02*
X106154342Y-99005714D01*
X106154342Y-99005714D02*
X105868628Y-99005714D01*
X105868628Y-99005714D02*
X105773390Y-98958095D01*
X105773390Y-98958095D02*
X105725771Y-98910476D01*
X105725771Y-98910476D02*
X105678152Y-98815238D01*
X105678152Y-98815238D02*
X105678152Y-98624762D01*
X105678152Y-98624762D02*
X105725771Y-98529524D01*
X106344819Y-98100952D02*
X105678152Y-98100952D01*
X105868628Y-98100952D02*
X105773390Y-98053333D01*
X105773390Y-98053333D02*
X105725771Y-98005714D01*
X105725771Y-98005714D02*
X105678152Y-97910476D01*
X105678152Y-97910476D02*
X105678152Y-97815238D01*
X106297200Y-97100952D02*
X106344819Y-97196190D01*
X106344819Y-97196190D02*
X106344819Y-97386666D01*
X106344819Y-97386666D02*
X106297200Y-97481904D01*
X106297200Y-97481904D02*
X106201961Y-97529523D01*
X106201961Y-97529523D02*
X105821009Y-97529523D01*
X105821009Y-97529523D02*
X105725771Y-97481904D01*
X105725771Y-97481904D02*
X105678152Y-97386666D01*
X105678152Y-97386666D02*
X105678152Y-97196190D01*
X105678152Y-97196190D02*
X105725771Y-97100952D01*
X105725771Y-97100952D02*
X105821009Y-97053333D01*
X105821009Y-97053333D02*
X105916247Y-97053333D01*
X105916247Y-97053333D02*
X106011485Y-97529523D01*
X105678152Y-96719999D02*
X106344819Y-96529523D01*
X106344819Y-96529523D02*
X105868628Y-96339047D01*
X105868628Y-96339047D02*
X106344819Y-96148571D01*
X106344819Y-96148571D02*
X105678152Y-95958095D01*
X106440057Y-95815238D02*
X106440057Y-95053333D01*
X105344819Y-94958094D02*
X105344819Y-94386666D01*
X106344819Y-94672380D02*
X105344819Y-94672380D01*
X106297200Y-93672380D02*
X106344819Y-93767618D01*
X106344819Y-93767618D02*
X106344819Y-93958094D01*
X106344819Y-93958094D02*
X106297200Y-94053332D01*
X106297200Y-94053332D02*
X106201961Y-94100951D01*
X106201961Y-94100951D02*
X105821009Y-94100951D01*
X105821009Y-94100951D02*
X105725771Y-94053332D01*
X105725771Y-94053332D02*
X105678152Y-93958094D01*
X105678152Y-93958094D02*
X105678152Y-93767618D01*
X105678152Y-93767618D02*
X105725771Y-93672380D01*
X105725771Y-93672380D02*
X105821009Y-93624761D01*
X105821009Y-93624761D02*
X105916247Y-93624761D01*
X105916247Y-93624761D02*
X106011485Y-94100951D01*
X106344819Y-93196189D02*
X105678152Y-93196189D01*
X105868628Y-93196189D02*
X105773390Y-93148570D01*
X105773390Y-93148570D02*
X105725771Y-93100951D01*
X105725771Y-93100951D02*
X105678152Y-93005713D01*
X105678152Y-93005713D02*
X105678152Y-92910475D01*
X106344819Y-92577141D02*
X105678152Y-92577141D01*
X105773390Y-92577141D02*
X105725771Y-92529522D01*
X105725771Y-92529522D02*
X105678152Y-92434284D01*
X105678152Y-92434284D02*
X105678152Y-92291427D01*
X105678152Y-92291427D02*
X105725771Y-92196189D01*
X105725771Y-92196189D02*
X105821009Y-92148570D01*
X105821009Y-92148570D02*
X106344819Y-92148570D01*
X105821009Y-92148570D02*
X105725771Y-92100951D01*
X105725771Y-92100951D02*
X105678152Y-92005713D01*
X105678152Y-92005713D02*
X105678152Y-91862856D01*
X105678152Y-91862856D02*
X105725771Y-91767617D01*
X105725771Y-91767617D02*
X105821009Y-91719998D01*
X105821009Y-91719998D02*
X106344819Y-91719998D01*
X106344819Y-91243808D02*
X105678152Y-91243808D01*
X105344819Y-91243808D02*
X105392438Y-91291427D01*
X105392438Y-91291427D02*
X105440057Y-91243808D01*
X105440057Y-91243808D02*
X105392438Y-91196189D01*
X105392438Y-91196189D02*
X105344819Y-91243808D01*
X105344819Y-91243808D02*
X105440057Y-91243808D01*
X105678152Y-90767618D02*
X106344819Y-90767618D01*
X105773390Y-90767618D02*
X105725771Y-90719999D01*
X105725771Y-90719999D02*
X105678152Y-90624761D01*
X105678152Y-90624761D02*
X105678152Y-90481904D01*
X105678152Y-90481904D02*
X105725771Y-90386666D01*
X105725771Y-90386666D02*
X105821009Y-90339047D01*
X105821009Y-90339047D02*
X106344819Y-90339047D01*
X106344819Y-89434285D02*
X105821009Y-89434285D01*
X105821009Y-89434285D02*
X105725771Y-89481904D01*
X105725771Y-89481904D02*
X105678152Y-89577142D01*
X105678152Y-89577142D02*
X105678152Y-89767618D01*
X105678152Y-89767618D02*
X105725771Y-89862856D01*
X106297200Y-89434285D02*
X106344819Y-89529523D01*
X106344819Y-89529523D02*
X106344819Y-89767618D01*
X106344819Y-89767618D02*
X106297200Y-89862856D01*
X106297200Y-89862856D02*
X106201961Y-89910475D01*
X106201961Y-89910475D02*
X106106723Y-89910475D01*
X106106723Y-89910475D02*
X106011485Y-89862856D01*
X106011485Y-89862856D02*
X105963866Y-89767618D01*
X105963866Y-89767618D02*
X105963866Y-89529523D01*
X105963866Y-89529523D02*
X105916247Y-89434285D01*
X106344819Y-88815237D02*
X106297200Y-88910475D01*
X106297200Y-88910475D02*
X106201961Y-88958094D01*
X106201961Y-88958094D02*
X105344819Y-88958094D01*
X106440057Y-88672380D02*
X106440057Y-87910475D01*
X105344819Y-87481903D02*
X105344819Y-87386665D01*
X105344819Y-87386665D02*
X105392438Y-87291427D01*
X105392438Y-87291427D02*
X105440057Y-87243808D01*
X105440057Y-87243808D02*
X105535295Y-87196189D01*
X105535295Y-87196189D02*
X105725771Y-87148570D01*
X105725771Y-87148570D02*
X105963866Y-87148570D01*
X105963866Y-87148570D02*
X106154342Y-87196189D01*
X106154342Y-87196189D02*
X106249580Y-87243808D01*
X106249580Y-87243808D02*
X106297200Y-87291427D01*
X106297200Y-87291427D02*
X106344819Y-87386665D01*
X106344819Y-87386665D02*
X106344819Y-87481903D01*
X106344819Y-87481903D02*
X106297200Y-87577141D01*
X106297200Y-87577141D02*
X106249580Y-87624760D01*
X106249580Y-87624760D02*
X106154342Y-87672379D01*
X106154342Y-87672379D02*
X105963866Y-87719998D01*
X105963866Y-87719998D02*
X105725771Y-87719998D01*
X105725771Y-87719998D02*
X105535295Y-87672379D01*
X105535295Y-87672379D02*
X105440057Y-87624760D01*
X105440057Y-87624760D02*
X105392438Y-87577141D01*
X105392438Y-87577141D02*
X105344819Y-87481903D01*
X106344819Y-86196189D02*
X106344819Y-86767617D01*
X106344819Y-86481903D02*
X105344819Y-86481903D01*
X105344819Y-86481903D02*
X105487676Y-86577141D01*
X105487676Y-86577141D02*
X105582914Y-86672379D01*
X105582914Y-86672379D02*
X105630533Y-86767617D01*
X106344819Y-85862855D02*
X105678152Y-85339046D01*
X105678152Y-85862855D02*
X106344819Y-85339046D01*
X106344819Y-84434284D02*
X106344819Y-85005712D01*
X106344819Y-84719998D02*
X105344819Y-84719998D01*
X105344819Y-84719998D02*
X105487676Y-84815236D01*
X105487676Y-84815236D02*
X105582914Y-84910474D01*
X105582914Y-84910474D02*
X105630533Y-85005712D01*
X105344819Y-83529522D02*
X105344819Y-84005712D01*
X105344819Y-84005712D02*
X105821009Y-84053331D01*
X105821009Y-84053331D02*
X105773390Y-84005712D01*
X105773390Y-84005712D02*
X105725771Y-83910474D01*
X105725771Y-83910474D02*
X105725771Y-83672379D01*
X105725771Y-83672379D02*
X105773390Y-83577141D01*
X105773390Y-83577141D02*
X105821009Y-83529522D01*
X105821009Y-83529522D02*
X105916247Y-83481903D01*
X105916247Y-83481903D02*
X106154342Y-83481903D01*
X106154342Y-83481903D02*
X106249580Y-83529522D01*
X106249580Y-83529522D02*
X106297200Y-83577141D01*
X106297200Y-83577141D02*
X106344819Y-83672379D01*
X106344819Y-83672379D02*
X106344819Y-83910474D01*
X106344819Y-83910474D02*
X106297200Y-84005712D01*
X106297200Y-84005712D02*
X106249580Y-84053331D01*
X107104819Y-92053333D02*
X107819104Y-92053333D01*
X107819104Y-92053333D02*
X107961961Y-92100952D01*
X107961961Y-92100952D02*
X108057200Y-92196190D01*
X108057200Y-92196190D02*
X108104819Y-92339047D01*
X108104819Y-92339047D02*
X108104819Y-92434285D01*
X108104819Y-91053333D02*
X108104819Y-91624761D01*
X108104819Y-91339047D02*
X107104819Y-91339047D01*
X107104819Y-91339047D02*
X107247676Y-91434285D01*
X107247676Y-91434285D02*
X107342914Y-91529523D01*
X107342914Y-91529523D02*
X107390533Y-91624761D01*
X165225200Y-100720095D02*
X165272819Y-100577238D01*
X165272819Y-100577238D02*
X165272819Y-100339143D01*
X165272819Y-100339143D02*
X165225200Y-100243905D01*
X165225200Y-100243905D02*
X165177580Y-100196286D01*
X165177580Y-100196286D02*
X165082342Y-100148667D01*
X165082342Y-100148667D02*
X164987104Y-100148667D01*
X164987104Y-100148667D02*
X164891866Y-100196286D01*
X164891866Y-100196286D02*
X164844247Y-100243905D01*
X164844247Y-100243905D02*
X164796628Y-100339143D01*
X164796628Y-100339143D02*
X164749009Y-100529619D01*
X164749009Y-100529619D02*
X164701390Y-100624857D01*
X164701390Y-100624857D02*
X164653771Y-100672476D01*
X164653771Y-100672476D02*
X164558533Y-100720095D01*
X164558533Y-100720095D02*
X164463295Y-100720095D01*
X164463295Y-100720095D02*
X164368057Y-100672476D01*
X164368057Y-100672476D02*
X164320438Y-100624857D01*
X164320438Y-100624857D02*
X164272819Y-100529619D01*
X164272819Y-100529619D02*
X164272819Y-100291524D01*
X164272819Y-100291524D02*
X164320438Y-100148667D01*
X165225200Y-99291524D02*
X165272819Y-99386762D01*
X165272819Y-99386762D02*
X165272819Y-99577238D01*
X165272819Y-99577238D02*
X165225200Y-99672476D01*
X165225200Y-99672476D02*
X165177580Y-99720095D01*
X165177580Y-99720095D02*
X165082342Y-99767714D01*
X165082342Y-99767714D02*
X164796628Y-99767714D01*
X164796628Y-99767714D02*
X164701390Y-99720095D01*
X164701390Y-99720095D02*
X164653771Y-99672476D01*
X164653771Y-99672476D02*
X164606152Y-99577238D01*
X164606152Y-99577238D02*
X164606152Y-99386762D01*
X164606152Y-99386762D02*
X164653771Y-99291524D01*
X165272819Y-98862952D02*
X164606152Y-98862952D01*
X164796628Y-98862952D02*
X164701390Y-98815333D01*
X164701390Y-98815333D02*
X164653771Y-98767714D01*
X164653771Y-98767714D02*
X164606152Y-98672476D01*
X164606152Y-98672476D02*
X164606152Y-98577238D01*
X165225200Y-97862952D02*
X165272819Y-97958190D01*
X165272819Y-97958190D02*
X165272819Y-98148666D01*
X165272819Y-98148666D02*
X165225200Y-98243904D01*
X165225200Y-98243904D02*
X165129961Y-98291523D01*
X165129961Y-98291523D02*
X164749009Y-98291523D01*
X164749009Y-98291523D02*
X164653771Y-98243904D01*
X164653771Y-98243904D02*
X164606152Y-98148666D01*
X164606152Y-98148666D02*
X164606152Y-97958190D01*
X164606152Y-97958190D02*
X164653771Y-97862952D01*
X164653771Y-97862952D02*
X164749009Y-97815333D01*
X164749009Y-97815333D02*
X164844247Y-97815333D01*
X164844247Y-97815333D02*
X164939485Y-98291523D01*
X164606152Y-97481999D02*
X165272819Y-97291523D01*
X165272819Y-97291523D02*
X164796628Y-97101047D01*
X164796628Y-97101047D02*
X165272819Y-96910571D01*
X165272819Y-96910571D02*
X164606152Y-96720095D01*
X165368057Y-96577238D02*
X165368057Y-95815333D01*
X164272819Y-95720094D02*
X164272819Y-95148666D01*
X165272819Y-95434380D02*
X164272819Y-95434380D01*
X165225200Y-94434380D02*
X165272819Y-94529618D01*
X165272819Y-94529618D02*
X165272819Y-94720094D01*
X165272819Y-94720094D02*
X165225200Y-94815332D01*
X165225200Y-94815332D02*
X165129961Y-94862951D01*
X165129961Y-94862951D02*
X164749009Y-94862951D01*
X164749009Y-94862951D02*
X164653771Y-94815332D01*
X164653771Y-94815332D02*
X164606152Y-94720094D01*
X164606152Y-94720094D02*
X164606152Y-94529618D01*
X164606152Y-94529618D02*
X164653771Y-94434380D01*
X164653771Y-94434380D02*
X164749009Y-94386761D01*
X164749009Y-94386761D02*
X164844247Y-94386761D01*
X164844247Y-94386761D02*
X164939485Y-94862951D01*
X165272819Y-93958189D02*
X164606152Y-93958189D01*
X164796628Y-93958189D02*
X164701390Y-93910570D01*
X164701390Y-93910570D02*
X164653771Y-93862951D01*
X164653771Y-93862951D02*
X164606152Y-93767713D01*
X164606152Y-93767713D02*
X164606152Y-93672475D01*
X165272819Y-93339141D02*
X164606152Y-93339141D01*
X164701390Y-93339141D02*
X164653771Y-93291522D01*
X164653771Y-93291522D02*
X164606152Y-93196284D01*
X164606152Y-93196284D02*
X164606152Y-93053427D01*
X164606152Y-93053427D02*
X164653771Y-92958189D01*
X164653771Y-92958189D02*
X164749009Y-92910570D01*
X164749009Y-92910570D02*
X165272819Y-92910570D01*
X164749009Y-92910570D02*
X164653771Y-92862951D01*
X164653771Y-92862951D02*
X164606152Y-92767713D01*
X164606152Y-92767713D02*
X164606152Y-92624856D01*
X164606152Y-92624856D02*
X164653771Y-92529617D01*
X164653771Y-92529617D02*
X164749009Y-92481998D01*
X164749009Y-92481998D02*
X165272819Y-92481998D01*
X165272819Y-92005808D02*
X164606152Y-92005808D01*
X164272819Y-92005808D02*
X164320438Y-92053427D01*
X164320438Y-92053427D02*
X164368057Y-92005808D01*
X164368057Y-92005808D02*
X164320438Y-91958189D01*
X164320438Y-91958189D02*
X164272819Y-92005808D01*
X164272819Y-92005808D02*
X164368057Y-92005808D01*
X164606152Y-91529618D02*
X165272819Y-91529618D01*
X164701390Y-91529618D02*
X164653771Y-91481999D01*
X164653771Y-91481999D02*
X164606152Y-91386761D01*
X164606152Y-91386761D02*
X164606152Y-91243904D01*
X164606152Y-91243904D02*
X164653771Y-91148666D01*
X164653771Y-91148666D02*
X164749009Y-91101047D01*
X164749009Y-91101047D02*
X165272819Y-91101047D01*
X165272819Y-90196285D02*
X164749009Y-90196285D01*
X164749009Y-90196285D02*
X164653771Y-90243904D01*
X164653771Y-90243904D02*
X164606152Y-90339142D01*
X164606152Y-90339142D02*
X164606152Y-90529618D01*
X164606152Y-90529618D02*
X164653771Y-90624856D01*
X165225200Y-90196285D02*
X165272819Y-90291523D01*
X165272819Y-90291523D02*
X165272819Y-90529618D01*
X165272819Y-90529618D02*
X165225200Y-90624856D01*
X165225200Y-90624856D02*
X165129961Y-90672475D01*
X165129961Y-90672475D02*
X165034723Y-90672475D01*
X165034723Y-90672475D02*
X164939485Y-90624856D01*
X164939485Y-90624856D02*
X164891866Y-90529618D01*
X164891866Y-90529618D02*
X164891866Y-90291523D01*
X164891866Y-90291523D02*
X164844247Y-90196285D01*
X165272819Y-89577237D02*
X165225200Y-89672475D01*
X165225200Y-89672475D02*
X165129961Y-89720094D01*
X165129961Y-89720094D02*
X164272819Y-89720094D01*
X165368057Y-89434380D02*
X165368057Y-88672475D01*
X164272819Y-88243903D02*
X164272819Y-88148665D01*
X164272819Y-88148665D02*
X164320438Y-88053427D01*
X164320438Y-88053427D02*
X164368057Y-88005808D01*
X164368057Y-88005808D02*
X164463295Y-87958189D01*
X164463295Y-87958189D02*
X164653771Y-87910570D01*
X164653771Y-87910570D02*
X164891866Y-87910570D01*
X164891866Y-87910570D02*
X165082342Y-87958189D01*
X165082342Y-87958189D02*
X165177580Y-88005808D01*
X165177580Y-88005808D02*
X165225200Y-88053427D01*
X165225200Y-88053427D02*
X165272819Y-88148665D01*
X165272819Y-88148665D02*
X165272819Y-88243903D01*
X165272819Y-88243903D02*
X165225200Y-88339141D01*
X165225200Y-88339141D02*
X165177580Y-88386760D01*
X165177580Y-88386760D02*
X165082342Y-88434379D01*
X165082342Y-88434379D02*
X164891866Y-88481998D01*
X164891866Y-88481998D02*
X164653771Y-88481998D01*
X164653771Y-88481998D02*
X164463295Y-88434379D01*
X164463295Y-88434379D02*
X164368057Y-88386760D01*
X164368057Y-88386760D02*
X164320438Y-88339141D01*
X164320438Y-88339141D02*
X164272819Y-88243903D01*
X165272819Y-86958189D02*
X165272819Y-87529617D01*
X165272819Y-87243903D02*
X164272819Y-87243903D01*
X164272819Y-87243903D02*
X164415676Y-87339141D01*
X164415676Y-87339141D02*
X164510914Y-87434379D01*
X164510914Y-87434379D02*
X164558533Y-87529617D01*
X165272819Y-86624855D02*
X164606152Y-86101046D01*
X164606152Y-86624855D02*
X165272819Y-86101046D01*
X165272819Y-85196284D02*
X165272819Y-85767712D01*
X165272819Y-85481998D02*
X164272819Y-85481998D01*
X164272819Y-85481998D02*
X164415676Y-85577236D01*
X164415676Y-85577236D02*
X164510914Y-85672474D01*
X164510914Y-85672474D02*
X164558533Y-85767712D01*
X164272819Y-84291522D02*
X164272819Y-84767712D01*
X164272819Y-84767712D02*
X164749009Y-84815331D01*
X164749009Y-84815331D02*
X164701390Y-84767712D01*
X164701390Y-84767712D02*
X164653771Y-84672474D01*
X164653771Y-84672474D02*
X164653771Y-84434379D01*
X164653771Y-84434379D02*
X164701390Y-84339141D01*
X164701390Y-84339141D02*
X164749009Y-84291522D01*
X164749009Y-84291522D02*
X164844247Y-84243903D01*
X164844247Y-84243903D02*
X165082342Y-84243903D01*
X165082342Y-84243903D02*
X165177580Y-84291522D01*
X165177580Y-84291522D02*
X165225200Y-84339141D01*
X165225200Y-84339141D02*
X165272819Y-84434379D01*
X165272819Y-84434379D02*
X165272819Y-84672474D01*
X165272819Y-84672474D02*
X165225200Y-84767712D01*
X165225200Y-84767712D02*
X165177580Y-84815331D01*
X166032819Y-92815333D02*
X166747104Y-92815333D01*
X166747104Y-92815333D02*
X166889961Y-92862952D01*
X166889961Y-92862952D02*
X166985200Y-92958190D01*
X166985200Y-92958190D02*
X167032819Y-93101047D01*
X167032819Y-93101047D02*
X167032819Y-93196285D01*
X166128057Y-92386761D02*
X166080438Y-92339142D01*
X166080438Y-92339142D02*
X166032819Y-92243904D01*
X166032819Y-92243904D02*
X166032819Y-92005809D01*
X166032819Y-92005809D02*
X166080438Y-91910571D01*
X166080438Y-91910571D02*
X166128057Y-91862952D01*
X166128057Y-91862952D02*
X166223295Y-91815333D01*
X166223295Y-91815333D02*
X166318533Y-91815333D01*
X166318533Y-91815333D02*
X166461390Y-91862952D01*
X166461390Y-91862952D02*
X167032819Y-92434380D01*
X167032819Y-92434380D02*
X167032819Y-91815333D01*
X151452760Y-105469580D02*
X151405141Y-105517200D01*
X151405141Y-105517200D02*
X151262284Y-105564819D01*
X151262284Y-105564819D02*
X151167046Y-105564819D01*
X151167046Y-105564819D02*
X151024189Y-105517200D01*
X151024189Y-105517200D02*
X150928951Y-105421961D01*
X150928951Y-105421961D02*
X150881332Y-105326723D01*
X150881332Y-105326723D02*
X150833713Y-105136247D01*
X150833713Y-105136247D02*
X150833713Y-104993390D01*
X150833713Y-104993390D02*
X150881332Y-104802914D01*
X150881332Y-104802914D02*
X150928951Y-104707676D01*
X150928951Y-104707676D02*
X151024189Y-104612438D01*
X151024189Y-104612438D02*
X151167046Y-104564819D01*
X151167046Y-104564819D02*
X151262284Y-104564819D01*
X151262284Y-104564819D02*
X151405141Y-104612438D01*
X151405141Y-104612438D02*
X151452760Y-104660057D01*
X152024189Y-105564819D02*
X151928951Y-105517200D01*
X151928951Y-105517200D02*
X151881332Y-105469580D01*
X151881332Y-105469580D02*
X151833713Y-105374342D01*
X151833713Y-105374342D02*
X151833713Y-105088628D01*
X151833713Y-105088628D02*
X151881332Y-104993390D01*
X151881332Y-104993390D02*
X151928951Y-104945771D01*
X151928951Y-104945771D02*
X152024189Y-104898152D01*
X152024189Y-104898152D02*
X152167046Y-104898152D01*
X152167046Y-104898152D02*
X152262284Y-104945771D01*
X152262284Y-104945771D02*
X152309903Y-104993390D01*
X152309903Y-104993390D02*
X152357522Y-105088628D01*
X152357522Y-105088628D02*
X152357522Y-105374342D01*
X152357522Y-105374342D02*
X152309903Y-105469580D01*
X152309903Y-105469580D02*
X152262284Y-105517200D01*
X152262284Y-105517200D02*
X152167046Y-105564819D01*
X152167046Y-105564819D02*
X152024189Y-105564819D01*
X152786094Y-104898152D02*
X152786094Y-105564819D01*
X152786094Y-104993390D02*
X152833713Y-104945771D01*
X152833713Y-104945771D02*
X152928951Y-104898152D01*
X152928951Y-104898152D02*
X153071808Y-104898152D01*
X153071808Y-104898152D02*
X153167046Y-104945771D01*
X153167046Y-104945771D02*
X153214665Y-105041009D01*
X153214665Y-105041009D02*
X153214665Y-105564819D01*
X153690856Y-104898152D02*
X153690856Y-105564819D01*
X153690856Y-104993390D02*
X153738475Y-104945771D01*
X153738475Y-104945771D02*
X153833713Y-104898152D01*
X153833713Y-104898152D02*
X153976570Y-104898152D01*
X153976570Y-104898152D02*
X154071808Y-104945771D01*
X154071808Y-104945771D02*
X154119427Y-105041009D01*
X154119427Y-105041009D02*
X154119427Y-105564819D01*
X154357523Y-105660057D02*
X155119427Y-105660057D01*
X155547999Y-104564819D02*
X155643237Y-104564819D01*
X155643237Y-104564819D02*
X155738475Y-104612438D01*
X155738475Y-104612438D02*
X155786094Y-104660057D01*
X155786094Y-104660057D02*
X155833713Y-104755295D01*
X155833713Y-104755295D02*
X155881332Y-104945771D01*
X155881332Y-104945771D02*
X155881332Y-105183866D01*
X155881332Y-105183866D02*
X155833713Y-105374342D01*
X155833713Y-105374342D02*
X155786094Y-105469580D01*
X155786094Y-105469580D02*
X155738475Y-105517200D01*
X155738475Y-105517200D02*
X155643237Y-105564819D01*
X155643237Y-105564819D02*
X155547999Y-105564819D01*
X155547999Y-105564819D02*
X155452761Y-105517200D01*
X155452761Y-105517200D02*
X155405142Y-105469580D01*
X155405142Y-105469580D02*
X155357523Y-105374342D01*
X155357523Y-105374342D02*
X155309904Y-105183866D01*
X155309904Y-105183866D02*
X155309904Y-104945771D01*
X155309904Y-104945771D02*
X155357523Y-104755295D01*
X155357523Y-104755295D02*
X155405142Y-104660057D01*
X155405142Y-104660057D02*
X155452761Y-104612438D01*
X155452761Y-104612438D02*
X155547999Y-104564819D01*
X156833713Y-105564819D02*
X156262285Y-105564819D01*
X156547999Y-105564819D02*
X156547999Y-104564819D01*
X156547999Y-104564819D02*
X156452761Y-104707676D01*
X156452761Y-104707676D02*
X156357523Y-104802914D01*
X156357523Y-104802914D02*
X156262285Y-104850533D01*
X157167047Y-105564819D02*
X157690856Y-104898152D01*
X157167047Y-104898152D02*
X157690856Y-105564819D01*
X158595618Y-105564819D02*
X158024190Y-105564819D01*
X158309904Y-105564819D02*
X158309904Y-104564819D01*
X158309904Y-104564819D02*
X158214666Y-104707676D01*
X158214666Y-104707676D02*
X158119428Y-104802914D01*
X158119428Y-104802914D02*
X158024190Y-104850533D01*
X159500380Y-104564819D02*
X159024190Y-104564819D01*
X159024190Y-104564819D02*
X158976571Y-105041009D01*
X158976571Y-105041009D02*
X159024190Y-104993390D01*
X159024190Y-104993390D02*
X159119428Y-104945771D01*
X159119428Y-104945771D02*
X159357523Y-104945771D01*
X159357523Y-104945771D02*
X159452761Y-104993390D01*
X159452761Y-104993390D02*
X159500380Y-105041009D01*
X159500380Y-105041009D02*
X159547999Y-105136247D01*
X159547999Y-105136247D02*
X159547999Y-105374342D01*
X159547999Y-105374342D02*
X159500380Y-105469580D01*
X159500380Y-105469580D02*
X159452761Y-105517200D01*
X159452761Y-105517200D02*
X159357523Y-105564819D01*
X159357523Y-105564819D02*
X159119428Y-105564819D01*
X159119428Y-105564819D02*
X159024190Y-105517200D01*
X159024190Y-105517200D02*
X158976571Y-105469580D01*
X159738476Y-105660057D02*
X160500380Y-105660057D01*
X160690857Y-105517200D02*
X160833714Y-105564819D01*
X160833714Y-105564819D02*
X161071809Y-105564819D01*
X161071809Y-105564819D02*
X161167047Y-105517200D01*
X161167047Y-105517200D02*
X161214666Y-105469580D01*
X161214666Y-105469580D02*
X161262285Y-105374342D01*
X161262285Y-105374342D02*
X161262285Y-105279104D01*
X161262285Y-105279104D02*
X161214666Y-105183866D01*
X161214666Y-105183866D02*
X161167047Y-105136247D01*
X161167047Y-105136247D02*
X161071809Y-105088628D01*
X161071809Y-105088628D02*
X160881333Y-105041009D01*
X160881333Y-105041009D02*
X160786095Y-104993390D01*
X160786095Y-104993390D02*
X160738476Y-104945771D01*
X160738476Y-104945771D02*
X160690857Y-104850533D01*
X160690857Y-104850533D02*
X160690857Y-104755295D01*
X160690857Y-104755295D02*
X160738476Y-104660057D01*
X160738476Y-104660057D02*
X160786095Y-104612438D01*
X160786095Y-104612438D02*
X160881333Y-104564819D01*
X160881333Y-104564819D02*
X161119428Y-104564819D01*
X161119428Y-104564819D02*
X161262285Y-104612438D01*
X161833714Y-105564819D02*
X161738476Y-105517200D01*
X161738476Y-105517200D02*
X161690857Y-105469580D01*
X161690857Y-105469580D02*
X161643238Y-105374342D01*
X161643238Y-105374342D02*
X161643238Y-105088628D01*
X161643238Y-105088628D02*
X161690857Y-104993390D01*
X161690857Y-104993390D02*
X161738476Y-104945771D01*
X161738476Y-104945771D02*
X161833714Y-104898152D01*
X161833714Y-104898152D02*
X161976571Y-104898152D01*
X161976571Y-104898152D02*
X162071809Y-104945771D01*
X162071809Y-104945771D02*
X162119428Y-104993390D01*
X162119428Y-104993390D02*
X162167047Y-105088628D01*
X162167047Y-105088628D02*
X162167047Y-105374342D01*
X162167047Y-105374342D02*
X162119428Y-105469580D01*
X162119428Y-105469580D02*
X162071809Y-105517200D01*
X162071809Y-105517200D02*
X161976571Y-105564819D01*
X161976571Y-105564819D02*
X161833714Y-105564819D01*
X163024190Y-105517200D02*
X162928952Y-105564819D01*
X162928952Y-105564819D02*
X162738476Y-105564819D01*
X162738476Y-105564819D02*
X162643238Y-105517200D01*
X162643238Y-105517200D02*
X162595619Y-105469580D01*
X162595619Y-105469580D02*
X162548000Y-105374342D01*
X162548000Y-105374342D02*
X162548000Y-105088628D01*
X162548000Y-105088628D02*
X162595619Y-104993390D01*
X162595619Y-104993390D02*
X162643238Y-104945771D01*
X162643238Y-104945771D02*
X162738476Y-104898152D01*
X162738476Y-104898152D02*
X162928952Y-104898152D01*
X162928952Y-104898152D02*
X163024190Y-104945771D01*
X163452762Y-105564819D02*
X163452762Y-104564819D01*
X163548000Y-105183866D02*
X163833714Y-105564819D01*
X163833714Y-104898152D02*
X163452762Y-105279104D01*
X164643238Y-105517200D02*
X164548000Y-105564819D01*
X164548000Y-105564819D02*
X164357524Y-105564819D01*
X164357524Y-105564819D02*
X164262286Y-105517200D01*
X164262286Y-105517200D02*
X164214667Y-105421961D01*
X164214667Y-105421961D02*
X164214667Y-105041009D01*
X164214667Y-105041009D02*
X164262286Y-104945771D01*
X164262286Y-104945771D02*
X164357524Y-104898152D01*
X164357524Y-104898152D02*
X164548000Y-104898152D01*
X164548000Y-104898152D02*
X164643238Y-104945771D01*
X164643238Y-104945771D02*
X164690857Y-105041009D01*
X164690857Y-105041009D02*
X164690857Y-105136247D01*
X164690857Y-105136247D02*
X164214667Y-105231485D01*
X164976572Y-104898152D02*
X165357524Y-104898152D01*
X165119429Y-104564819D02*
X165119429Y-105421961D01*
X165119429Y-105421961D02*
X165167048Y-105517200D01*
X165167048Y-105517200D02*
X165262286Y-105564819D01*
X165262286Y-105564819D02*
X165357524Y-105564819D01*
X156994819Y-85333333D02*
X157709104Y-85333333D01*
X157709104Y-85333333D02*
X157851961Y-85380952D01*
X157851961Y-85380952D02*
X157947200Y-85476190D01*
X157947200Y-85476190D02*
X157994819Y-85619047D01*
X157994819Y-85619047D02*
X157994819Y-85714285D01*
X157328152Y-84428571D02*
X157994819Y-84428571D01*
X156947200Y-84666666D02*
X157661485Y-84904761D01*
X157661485Y-84904761D02*
X157661485Y-84285714D01*
X115384760Y-105469580D02*
X115337141Y-105517200D01*
X115337141Y-105517200D02*
X115194284Y-105564819D01*
X115194284Y-105564819D02*
X115099046Y-105564819D01*
X115099046Y-105564819D02*
X114956189Y-105517200D01*
X114956189Y-105517200D02*
X114860951Y-105421961D01*
X114860951Y-105421961D02*
X114813332Y-105326723D01*
X114813332Y-105326723D02*
X114765713Y-105136247D01*
X114765713Y-105136247D02*
X114765713Y-104993390D01*
X114765713Y-104993390D02*
X114813332Y-104802914D01*
X114813332Y-104802914D02*
X114860951Y-104707676D01*
X114860951Y-104707676D02*
X114956189Y-104612438D01*
X114956189Y-104612438D02*
X115099046Y-104564819D01*
X115099046Y-104564819D02*
X115194284Y-104564819D01*
X115194284Y-104564819D02*
X115337141Y-104612438D01*
X115337141Y-104612438D02*
X115384760Y-104660057D01*
X115956189Y-105564819D02*
X115860951Y-105517200D01*
X115860951Y-105517200D02*
X115813332Y-105469580D01*
X115813332Y-105469580D02*
X115765713Y-105374342D01*
X115765713Y-105374342D02*
X115765713Y-105088628D01*
X115765713Y-105088628D02*
X115813332Y-104993390D01*
X115813332Y-104993390D02*
X115860951Y-104945771D01*
X115860951Y-104945771D02*
X115956189Y-104898152D01*
X115956189Y-104898152D02*
X116099046Y-104898152D01*
X116099046Y-104898152D02*
X116194284Y-104945771D01*
X116194284Y-104945771D02*
X116241903Y-104993390D01*
X116241903Y-104993390D02*
X116289522Y-105088628D01*
X116289522Y-105088628D02*
X116289522Y-105374342D01*
X116289522Y-105374342D02*
X116241903Y-105469580D01*
X116241903Y-105469580D02*
X116194284Y-105517200D01*
X116194284Y-105517200D02*
X116099046Y-105564819D01*
X116099046Y-105564819D02*
X115956189Y-105564819D01*
X116718094Y-104898152D02*
X116718094Y-105564819D01*
X116718094Y-104993390D02*
X116765713Y-104945771D01*
X116765713Y-104945771D02*
X116860951Y-104898152D01*
X116860951Y-104898152D02*
X117003808Y-104898152D01*
X117003808Y-104898152D02*
X117099046Y-104945771D01*
X117099046Y-104945771D02*
X117146665Y-105041009D01*
X117146665Y-105041009D02*
X117146665Y-105564819D01*
X117622856Y-104898152D02*
X117622856Y-105564819D01*
X117622856Y-104993390D02*
X117670475Y-104945771D01*
X117670475Y-104945771D02*
X117765713Y-104898152D01*
X117765713Y-104898152D02*
X117908570Y-104898152D01*
X117908570Y-104898152D02*
X118003808Y-104945771D01*
X118003808Y-104945771D02*
X118051427Y-105041009D01*
X118051427Y-105041009D02*
X118051427Y-105564819D01*
X118289523Y-105660057D02*
X119051427Y-105660057D01*
X119479999Y-104564819D02*
X119575237Y-104564819D01*
X119575237Y-104564819D02*
X119670475Y-104612438D01*
X119670475Y-104612438D02*
X119718094Y-104660057D01*
X119718094Y-104660057D02*
X119765713Y-104755295D01*
X119765713Y-104755295D02*
X119813332Y-104945771D01*
X119813332Y-104945771D02*
X119813332Y-105183866D01*
X119813332Y-105183866D02*
X119765713Y-105374342D01*
X119765713Y-105374342D02*
X119718094Y-105469580D01*
X119718094Y-105469580D02*
X119670475Y-105517200D01*
X119670475Y-105517200D02*
X119575237Y-105564819D01*
X119575237Y-105564819D02*
X119479999Y-105564819D01*
X119479999Y-105564819D02*
X119384761Y-105517200D01*
X119384761Y-105517200D02*
X119337142Y-105469580D01*
X119337142Y-105469580D02*
X119289523Y-105374342D01*
X119289523Y-105374342D02*
X119241904Y-105183866D01*
X119241904Y-105183866D02*
X119241904Y-104945771D01*
X119241904Y-104945771D02*
X119289523Y-104755295D01*
X119289523Y-104755295D02*
X119337142Y-104660057D01*
X119337142Y-104660057D02*
X119384761Y-104612438D01*
X119384761Y-104612438D02*
X119479999Y-104564819D01*
X120765713Y-105564819D02*
X120194285Y-105564819D01*
X120479999Y-105564819D02*
X120479999Y-104564819D01*
X120479999Y-104564819D02*
X120384761Y-104707676D01*
X120384761Y-104707676D02*
X120289523Y-104802914D01*
X120289523Y-104802914D02*
X120194285Y-104850533D01*
X121099047Y-105564819D02*
X121622856Y-104898152D01*
X121099047Y-104898152D02*
X121622856Y-105564819D01*
X122527618Y-105564819D02*
X121956190Y-105564819D01*
X122241904Y-105564819D02*
X122241904Y-104564819D01*
X122241904Y-104564819D02*
X122146666Y-104707676D01*
X122146666Y-104707676D02*
X122051428Y-104802914D01*
X122051428Y-104802914D02*
X121956190Y-104850533D01*
X123432380Y-104564819D02*
X122956190Y-104564819D01*
X122956190Y-104564819D02*
X122908571Y-105041009D01*
X122908571Y-105041009D02*
X122956190Y-104993390D01*
X122956190Y-104993390D02*
X123051428Y-104945771D01*
X123051428Y-104945771D02*
X123289523Y-104945771D01*
X123289523Y-104945771D02*
X123384761Y-104993390D01*
X123384761Y-104993390D02*
X123432380Y-105041009D01*
X123432380Y-105041009D02*
X123479999Y-105136247D01*
X123479999Y-105136247D02*
X123479999Y-105374342D01*
X123479999Y-105374342D02*
X123432380Y-105469580D01*
X123432380Y-105469580D02*
X123384761Y-105517200D01*
X123384761Y-105517200D02*
X123289523Y-105564819D01*
X123289523Y-105564819D02*
X123051428Y-105564819D01*
X123051428Y-105564819D02*
X122956190Y-105517200D01*
X122956190Y-105517200D02*
X122908571Y-105469580D01*
X123670476Y-105660057D02*
X124432380Y-105660057D01*
X124622857Y-105517200D02*
X124765714Y-105564819D01*
X124765714Y-105564819D02*
X125003809Y-105564819D01*
X125003809Y-105564819D02*
X125099047Y-105517200D01*
X125099047Y-105517200D02*
X125146666Y-105469580D01*
X125146666Y-105469580D02*
X125194285Y-105374342D01*
X125194285Y-105374342D02*
X125194285Y-105279104D01*
X125194285Y-105279104D02*
X125146666Y-105183866D01*
X125146666Y-105183866D02*
X125099047Y-105136247D01*
X125099047Y-105136247D02*
X125003809Y-105088628D01*
X125003809Y-105088628D02*
X124813333Y-105041009D01*
X124813333Y-105041009D02*
X124718095Y-104993390D01*
X124718095Y-104993390D02*
X124670476Y-104945771D01*
X124670476Y-104945771D02*
X124622857Y-104850533D01*
X124622857Y-104850533D02*
X124622857Y-104755295D01*
X124622857Y-104755295D02*
X124670476Y-104660057D01*
X124670476Y-104660057D02*
X124718095Y-104612438D01*
X124718095Y-104612438D02*
X124813333Y-104564819D01*
X124813333Y-104564819D02*
X125051428Y-104564819D01*
X125051428Y-104564819D02*
X125194285Y-104612438D01*
X125765714Y-105564819D02*
X125670476Y-105517200D01*
X125670476Y-105517200D02*
X125622857Y-105469580D01*
X125622857Y-105469580D02*
X125575238Y-105374342D01*
X125575238Y-105374342D02*
X125575238Y-105088628D01*
X125575238Y-105088628D02*
X125622857Y-104993390D01*
X125622857Y-104993390D02*
X125670476Y-104945771D01*
X125670476Y-104945771D02*
X125765714Y-104898152D01*
X125765714Y-104898152D02*
X125908571Y-104898152D01*
X125908571Y-104898152D02*
X126003809Y-104945771D01*
X126003809Y-104945771D02*
X126051428Y-104993390D01*
X126051428Y-104993390D02*
X126099047Y-105088628D01*
X126099047Y-105088628D02*
X126099047Y-105374342D01*
X126099047Y-105374342D02*
X126051428Y-105469580D01*
X126051428Y-105469580D02*
X126003809Y-105517200D01*
X126003809Y-105517200D02*
X125908571Y-105564819D01*
X125908571Y-105564819D02*
X125765714Y-105564819D01*
X126956190Y-105517200D02*
X126860952Y-105564819D01*
X126860952Y-105564819D02*
X126670476Y-105564819D01*
X126670476Y-105564819D02*
X126575238Y-105517200D01*
X126575238Y-105517200D02*
X126527619Y-105469580D01*
X126527619Y-105469580D02*
X126480000Y-105374342D01*
X126480000Y-105374342D02*
X126480000Y-105088628D01*
X126480000Y-105088628D02*
X126527619Y-104993390D01*
X126527619Y-104993390D02*
X126575238Y-104945771D01*
X126575238Y-104945771D02*
X126670476Y-104898152D01*
X126670476Y-104898152D02*
X126860952Y-104898152D01*
X126860952Y-104898152D02*
X126956190Y-104945771D01*
X127384762Y-105564819D02*
X127384762Y-104564819D01*
X127480000Y-105183866D02*
X127765714Y-105564819D01*
X127765714Y-104898152D02*
X127384762Y-105279104D01*
X128575238Y-105517200D02*
X128480000Y-105564819D01*
X128480000Y-105564819D02*
X128289524Y-105564819D01*
X128289524Y-105564819D02*
X128194286Y-105517200D01*
X128194286Y-105517200D02*
X128146667Y-105421961D01*
X128146667Y-105421961D02*
X128146667Y-105041009D01*
X128146667Y-105041009D02*
X128194286Y-104945771D01*
X128194286Y-104945771D02*
X128289524Y-104898152D01*
X128289524Y-104898152D02*
X128480000Y-104898152D01*
X128480000Y-104898152D02*
X128575238Y-104945771D01*
X128575238Y-104945771D02*
X128622857Y-105041009D01*
X128622857Y-105041009D02*
X128622857Y-105136247D01*
X128622857Y-105136247D02*
X128146667Y-105231485D01*
X128908572Y-104898152D02*
X129289524Y-104898152D01*
X129051429Y-104564819D02*
X129051429Y-105421961D01*
X129051429Y-105421961D02*
X129099048Y-105517200D01*
X129099048Y-105517200D02*
X129194286Y-105564819D01*
X129194286Y-105564819D02*
X129289524Y-105564819D01*
X121434819Y-85333333D02*
X122149104Y-85333333D01*
X122149104Y-85333333D02*
X122291961Y-85380952D01*
X122291961Y-85380952D02*
X122387200Y-85476190D01*
X122387200Y-85476190D02*
X122434819Y-85619047D01*
X122434819Y-85619047D02*
X122434819Y-85714285D01*
X121434819Y-84952380D02*
X121434819Y-84333333D01*
X121434819Y-84333333D02*
X121815771Y-84666666D01*
X121815771Y-84666666D02*
X121815771Y-84523809D01*
X121815771Y-84523809D02*
X121863390Y-84428571D01*
X121863390Y-84428571D02*
X121911009Y-84380952D01*
X121911009Y-84380952D02*
X122006247Y-84333333D01*
X122006247Y-84333333D02*
X122244342Y-84333333D01*
X122244342Y-84333333D02*
X122339580Y-84380952D01*
X122339580Y-84380952D02*
X122387200Y-84428571D01*
X122387200Y-84428571D02*
X122434819Y-84523809D01*
X122434819Y-84523809D02*
X122434819Y-84809523D01*
X122434819Y-84809523D02*
X122387200Y-84904761D01*
X122387200Y-84904761D02*
X122339580Y-84952380D01*
D11*
%TO.C,J1*%
X111925000Y-116220000D02*
G75*
G03*
X109175000Y-116220000I-1375000J0D01*
G01*
X109175000Y-116220000D02*
G75*
G03*
X111925000Y-116220000I1375000J0D01*
G01*
X111925000Y-112720000D02*
G75*
G03*
X109175000Y-112720000I-1375000J0D01*
G01*
X109175000Y-112720000D02*
G75*
G03*
X111925000Y-112720000I1375000J0D01*
G01*
X111925000Y-109220000D02*
G75*
G03*
X109175000Y-109220000I-1375000J0D01*
G01*
X109175000Y-109220000D02*
G75*
G03*
X111925000Y-109220000I1375000J0D01*
G01*
X111925000Y-105720000D02*
G75*
G03*
X109175000Y-105720000I-1375000J0D01*
G01*
X109175000Y-105720000D02*
G75*
G03*
X111925000Y-105720000I1375000J0D01*
G01*
X111925000Y-102220000D02*
G75*
G03*
X109175000Y-102220000I-1375000J0D01*
G01*
X109175000Y-102220000D02*
G75*
G03*
X111925000Y-102220000I1375000J0D01*
G01*
X111925000Y-98720000D02*
G75*
G03*
X109175000Y-98720000I-1375000J0D01*
G01*
X109175000Y-98720000D02*
G75*
G03*
X111925000Y-98720000I1375000J0D01*
G01*
X111925000Y-95220000D02*
G75*
G03*
X109175000Y-95220000I-1375000J0D01*
G01*
X109175000Y-95220000D02*
G75*
G03*
X111925000Y-95220000I1375000J0D01*
G01*
X111925000Y-91720000D02*
G75*
G03*
X109175000Y-91720000I-1375000J0D01*
G01*
X109175000Y-91720000D02*
G75*
G03*
X111925000Y-91720000I1375000J0D01*
G01*
X111925000Y-88220000D02*
G75*
G03*
X109175000Y-88220000I-1375000J0D01*
G01*
X109175000Y-88220000D02*
G75*
G03*
X111925000Y-88220000I1375000J0D01*
G01*
X111925000Y-84720000D02*
G75*
G03*
X109175000Y-84720000I-1375000J0D01*
G01*
X109175000Y-84720000D02*
G75*
G03*
X111925000Y-84720000I1375000J0D01*
G01*
X111925000Y-81220000D02*
G75*
G03*
X109175000Y-81220000I-1375000J0D01*
G01*
X109175000Y-81220000D02*
G75*
G03*
X111925000Y-81220000I1375000J0D01*
G01*
X111925000Y-77720000D02*
G75*
G03*
X109175000Y-77720000I-1375000J0D01*
G01*
X109175000Y-77720000D02*
G75*
G03*
X111925000Y-77720000I1375000J0D01*
G01*
X111925000Y-74220000D02*
G75*
G03*
X109175000Y-74220000I-1375000J0D01*
G01*
X109175000Y-74220000D02*
G75*
G03*
X111925000Y-74220000I1375000J0D01*
G01*
X111925000Y-70720000D02*
G75*
G03*
X109175000Y-70720000I-1375000J0D01*
G01*
X109175000Y-70720000D02*
G75*
G03*
X111925000Y-70720000I1375000J0D01*
G01*
X111925000Y-67220000D02*
G75*
G03*
X109175000Y-67220000I-1375000J0D01*
G01*
X109175000Y-67220000D02*
G75*
G03*
X111925000Y-67220000I1375000J0D01*
G01*
X106950000Y-118320000D02*
X106950000Y-66620000D01*
X113950000Y-118320000D02*
X106950000Y-118320000D01*
X110481000Y-117320000D02*
X110481000Y-116289000D01*
X110619000Y-117320000D02*
X110481000Y-117320000D01*
X109450000Y-116289000D02*
X109450000Y-116151000D01*
X110481000Y-116289000D02*
X109450000Y-116289000D01*
X110619000Y-116289000D02*
X110619000Y-117320000D01*
X111650000Y-116289000D02*
X110619000Y-116289000D01*
X109450000Y-116151000D02*
X110481000Y-116151000D01*
X110481000Y-116151000D02*
X110481000Y-115120000D01*
X110619000Y-116151000D02*
X111650000Y-116151000D01*
X111650000Y-116151000D02*
X111650000Y-116289000D01*
X110481000Y-115120000D02*
X110619000Y-115120000D01*
X110619000Y-115120000D02*
X110619000Y-116151000D01*
X110481000Y-113820000D02*
X110481000Y-112789000D01*
X110619000Y-113820000D02*
X110481000Y-113820000D01*
X109450000Y-112789000D02*
X109450000Y-112651000D01*
X110481000Y-112789000D02*
X109450000Y-112789000D01*
X110619000Y-112789000D02*
X110619000Y-113820000D01*
X111650000Y-112789000D02*
X110619000Y-112789000D01*
X109450000Y-112651000D02*
X110481000Y-112651000D01*
X110481000Y-112651000D02*
X110481000Y-111620000D01*
X110619000Y-112651000D02*
X111650000Y-112651000D01*
X111650000Y-112651000D02*
X111650000Y-112789000D01*
X110481000Y-111620000D02*
X110619000Y-111620000D01*
X110619000Y-111620000D02*
X110619000Y-112651000D01*
X110481000Y-110320000D02*
X110481000Y-109289000D01*
X110619000Y-110320000D02*
X110481000Y-110320000D01*
X109450000Y-109289000D02*
X109450000Y-109151000D01*
X110481000Y-109289000D02*
X109450000Y-109289000D01*
X110619000Y-109289000D02*
X110619000Y-110320000D01*
X111650000Y-109289000D02*
X110619000Y-109289000D01*
X109450000Y-109151000D02*
X110481000Y-109151000D01*
X110481000Y-109151000D02*
X110481000Y-108120000D01*
X110619000Y-109151000D02*
X111650000Y-109151000D01*
X111650000Y-109151000D02*
X111650000Y-109289000D01*
X110481000Y-108120000D02*
X110619000Y-108120000D01*
X110619000Y-108120000D02*
X110619000Y-109151000D01*
X110481000Y-106820000D02*
X110481000Y-105789000D01*
X110619000Y-106820000D02*
X110481000Y-106820000D01*
X109450000Y-105789000D02*
X109450000Y-105651000D01*
X110481000Y-105789000D02*
X109450000Y-105789000D01*
X110619000Y-105789000D02*
X110619000Y-106820000D01*
X111650000Y-105789000D02*
X110619000Y-105789000D01*
X109450000Y-105651000D02*
X110481000Y-105651000D01*
X110481000Y-105651000D02*
X110481000Y-104620000D01*
X110619000Y-105651000D02*
X111650000Y-105651000D01*
X111650000Y-105651000D02*
X111650000Y-105789000D01*
X110481000Y-104620000D02*
X110619000Y-104620000D01*
X110619000Y-104620000D02*
X110619000Y-105651000D01*
X110481000Y-103320000D02*
X110481000Y-102289000D01*
X110619000Y-103320000D02*
X110481000Y-103320000D01*
X109450000Y-102289000D02*
X109450000Y-102151000D01*
X110481000Y-102289000D02*
X109450000Y-102289000D01*
X110619000Y-102289000D02*
X110619000Y-103320000D01*
X111650000Y-102289000D02*
X110619000Y-102289000D01*
X109450000Y-102151000D02*
X110481000Y-102151000D01*
X110481000Y-102151000D02*
X110481000Y-101120000D01*
X110619000Y-102151000D02*
X111650000Y-102151000D01*
X111650000Y-102151000D02*
X111650000Y-102289000D01*
X110481000Y-101120000D02*
X110619000Y-101120000D01*
X110619000Y-101120000D02*
X110619000Y-102151000D01*
X110481000Y-99820000D02*
X110481000Y-98789000D01*
X110619000Y-99820000D02*
X110481000Y-99820000D01*
X109450000Y-98789000D02*
X109450000Y-98651000D01*
X110481000Y-98789000D02*
X109450000Y-98789000D01*
X110619000Y-98789000D02*
X110619000Y-99820000D01*
X111650000Y-98789000D02*
X110619000Y-98789000D01*
X109450000Y-98651000D02*
X110481000Y-98651000D01*
X110481000Y-98651000D02*
X110481000Y-97620000D01*
X110619000Y-98651000D02*
X111650000Y-98651000D01*
X111650000Y-98651000D02*
X111650000Y-98789000D01*
X110481000Y-97620000D02*
X110619000Y-97620000D01*
X110619000Y-97620000D02*
X110619000Y-98651000D01*
X110481000Y-96320000D02*
X110481000Y-95289000D01*
X110619000Y-96320000D02*
X110481000Y-96320000D01*
X109450000Y-95289000D02*
X109450000Y-95151000D01*
X110481000Y-95289000D02*
X109450000Y-95289000D01*
X110619000Y-95289000D02*
X110619000Y-96320000D01*
X111650000Y-95289000D02*
X110619000Y-95289000D01*
X109450000Y-95151000D02*
X110481000Y-95151000D01*
X110481000Y-95151000D02*
X110481000Y-94120000D01*
X110619000Y-95151000D02*
X111650000Y-95151000D01*
X111650000Y-95151000D02*
X111650000Y-95289000D01*
X110481000Y-94120000D02*
X110619000Y-94120000D01*
X110619000Y-94120000D02*
X110619000Y-95151000D01*
X110481000Y-92820000D02*
X110481000Y-91789000D01*
X110619000Y-92820000D02*
X110481000Y-92820000D01*
X109450000Y-91789000D02*
X109450000Y-91651000D01*
X110481000Y-91789000D02*
X109450000Y-91789000D01*
X110619000Y-91789000D02*
X110619000Y-92820000D01*
X111650000Y-91789000D02*
X110619000Y-91789000D01*
X109450000Y-91651000D02*
X110481000Y-91651000D01*
X110481000Y-91651000D02*
X110481000Y-90620000D01*
X110619000Y-91651000D02*
X111650000Y-91651000D01*
X111650000Y-91651000D02*
X111650000Y-91789000D01*
X110481000Y-90620000D02*
X110619000Y-90620000D01*
X110619000Y-90620000D02*
X110619000Y-91651000D01*
X110481000Y-89320000D02*
X110481000Y-88289000D01*
X110619000Y-89320000D02*
X110481000Y-89320000D01*
X109450000Y-88289000D02*
X109450000Y-88151000D01*
X110481000Y-88289000D02*
X109450000Y-88289000D01*
X110619000Y-88289000D02*
X110619000Y-89320000D01*
X111650000Y-88289000D02*
X110619000Y-88289000D01*
X109450000Y-88151000D02*
X110481000Y-88151000D01*
X110481000Y-88151000D02*
X110481000Y-87120000D01*
X110619000Y-88151000D02*
X111650000Y-88151000D01*
X111650000Y-88151000D02*
X111650000Y-88289000D01*
X110481000Y-87120000D02*
X110619000Y-87120000D01*
X110619000Y-87120000D02*
X110619000Y-88151000D01*
X110481000Y-85820000D02*
X110481000Y-84789000D01*
X110619000Y-85820000D02*
X110481000Y-85820000D01*
X109450000Y-84789000D02*
X109450000Y-84651000D01*
X110481000Y-84789000D02*
X109450000Y-84789000D01*
X110619000Y-84789000D02*
X110619000Y-85820000D01*
X111650000Y-84789000D02*
X110619000Y-84789000D01*
X109450000Y-84651000D02*
X110481000Y-84651000D01*
X110481000Y-84651000D02*
X110481000Y-83620000D01*
X110619000Y-84651000D02*
X111650000Y-84651000D01*
X111650000Y-84651000D02*
X111650000Y-84789000D01*
X110481000Y-83620000D02*
X110619000Y-83620000D01*
X110619000Y-83620000D02*
X110619000Y-84651000D01*
X110481000Y-82320000D02*
X110481000Y-81289000D01*
X110619000Y-82320000D02*
X110481000Y-82320000D01*
X109450000Y-81289000D02*
X109450000Y-81151000D01*
X110481000Y-81289000D02*
X109450000Y-81289000D01*
X110619000Y-81289000D02*
X110619000Y-82320000D01*
X111650000Y-81289000D02*
X110619000Y-81289000D01*
X109450000Y-81151000D02*
X110481000Y-81151000D01*
X110481000Y-81151000D02*
X110481000Y-80120000D01*
X110619000Y-81151000D02*
X111650000Y-81151000D01*
X111650000Y-81151000D02*
X111650000Y-81289000D01*
X110481000Y-80120000D02*
X110619000Y-80120000D01*
X110619000Y-80120000D02*
X110619000Y-81151000D01*
X110481000Y-78820000D02*
X110481000Y-77789000D01*
X110619000Y-78820000D02*
X110481000Y-78820000D01*
X109450000Y-77789000D02*
X109450000Y-77651000D01*
X110481000Y-77789000D02*
X109450000Y-77789000D01*
X110619000Y-77789000D02*
X110619000Y-78820000D01*
X111650000Y-77789000D02*
X110619000Y-77789000D01*
X109450000Y-77651000D02*
X110481000Y-77651000D01*
X110481000Y-77651000D02*
X110481000Y-76620000D01*
X110619000Y-77651000D02*
X111650000Y-77651000D01*
X111650000Y-77651000D02*
X111650000Y-77789000D01*
X110481000Y-76620000D02*
X110619000Y-76620000D01*
X110619000Y-76620000D02*
X110619000Y-77651000D01*
X110481000Y-75320000D02*
X110481000Y-74289000D01*
X110619000Y-75320000D02*
X110481000Y-75320000D01*
X109450000Y-74289000D02*
X109450000Y-74151000D01*
X110481000Y-74289000D02*
X109450000Y-74289000D01*
X110619000Y-74289000D02*
X110619000Y-75320000D01*
X111650000Y-74289000D02*
X110619000Y-74289000D01*
X109450000Y-74151000D02*
X110481000Y-74151000D01*
X110481000Y-74151000D02*
X110481000Y-73120000D01*
X110619000Y-74151000D02*
X111650000Y-74151000D01*
X111650000Y-74151000D02*
X111650000Y-74289000D01*
X110481000Y-73120000D02*
X110619000Y-73120000D01*
X110619000Y-73120000D02*
X110619000Y-74151000D01*
X110481000Y-71820000D02*
X110481000Y-70789000D01*
X110619000Y-71820000D02*
X110481000Y-71820000D01*
X109450000Y-70789000D02*
X109450000Y-70651000D01*
X110481000Y-70789000D02*
X109450000Y-70789000D01*
X110619000Y-70789000D02*
X110619000Y-71820000D01*
X111650000Y-70789000D02*
X110619000Y-70789000D01*
X109450000Y-70651000D02*
X110481000Y-70651000D01*
X110481000Y-70651000D02*
X110481000Y-69620000D01*
X110619000Y-70651000D02*
X111650000Y-70651000D01*
X111650000Y-70651000D02*
X111650000Y-70789000D01*
X110481000Y-69620000D02*
X110619000Y-69620000D01*
X110619000Y-69620000D02*
X110619000Y-70651000D01*
X110481000Y-68320000D02*
X110481000Y-67289000D01*
X110619000Y-68320000D02*
X110481000Y-68320000D01*
X109450000Y-67289000D02*
X109450000Y-67151000D01*
X110481000Y-67289000D02*
X109450000Y-67289000D01*
X110619000Y-67289000D02*
X110619000Y-68320000D01*
X111650000Y-67289000D02*
X110619000Y-67289000D01*
X109450000Y-67151000D02*
X110481000Y-67151000D01*
X110481000Y-67151000D02*
X110481000Y-66120000D01*
X110619000Y-67151000D02*
X111650000Y-67151000D01*
X111650000Y-67151000D02*
X111650000Y-67289000D01*
X106950000Y-66620000D02*
X108450000Y-65120000D01*
X110481000Y-66120000D02*
X110619000Y-66120000D01*
X110619000Y-66120000D02*
X110619000Y-67151000D01*
X108450000Y-65120000D02*
X108450000Y-118320000D01*
X108450000Y-65120000D02*
X113950000Y-65120000D01*
X113950000Y-65120000D02*
X113950000Y-118320000D01*
%TO.C,J2*%
X172878000Y-65882000D02*
X172878000Y-119082000D01*
X167378000Y-65882000D02*
X172878000Y-65882000D01*
X167378000Y-65882000D02*
X167378000Y-119082000D01*
X169547000Y-66882000D02*
X169547000Y-67913000D01*
X169409000Y-66882000D02*
X169547000Y-66882000D01*
X165878000Y-67382000D02*
X167378000Y-65882000D01*
X170578000Y-67913000D02*
X170578000Y-68051000D01*
X169547000Y-67913000D02*
X170578000Y-67913000D01*
X169409000Y-67913000D02*
X169409000Y-66882000D01*
X168378000Y-67913000D02*
X169409000Y-67913000D01*
X170578000Y-68051000D02*
X169547000Y-68051000D01*
X169547000Y-68051000D02*
X169547000Y-69082000D01*
X169409000Y-68051000D02*
X168378000Y-68051000D01*
X168378000Y-68051000D02*
X168378000Y-67913000D01*
X169547000Y-69082000D02*
X169409000Y-69082000D01*
X169409000Y-69082000D02*
X169409000Y-68051000D01*
X169547000Y-70382000D02*
X169547000Y-71413000D01*
X169409000Y-70382000D02*
X169547000Y-70382000D01*
X170578000Y-71413000D02*
X170578000Y-71551000D01*
X169547000Y-71413000D02*
X170578000Y-71413000D01*
X169409000Y-71413000D02*
X169409000Y-70382000D01*
X168378000Y-71413000D02*
X169409000Y-71413000D01*
X170578000Y-71551000D02*
X169547000Y-71551000D01*
X169547000Y-71551000D02*
X169547000Y-72582000D01*
X169409000Y-71551000D02*
X168378000Y-71551000D01*
X168378000Y-71551000D02*
X168378000Y-71413000D01*
X169547000Y-72582000D02*
X169409000Y-72582000D01*
X169409000Y-72582000D02*
X169409000Y-71551000D01*
X169547000Y-73882000D02*
X169547000Y-74913000D01*
X169409000Y-73882000D02*
X169547000Y-73882000D01*
X170578000Y-74913000D02*
X170578000Y-75051000D01*
X169547000Y-74913000D02*
X170578000Y-74913000D01*
X169409000Y-74913000D02*
X169409000Y-73882000D01*
X168378000Y-74913000D02*
X169409000Y-74913000D01*
X170578000Y-75051000D02*
X169547000Y-75051000D01*
X169547000Y-75051000D02*
X169547000Y-76082000D01*
X169409000Y-75051000D02*
X168378000Y-75051000D01*
X168378000Y-75051000D02*
X168378000Y-74913000D01*
X169547000Y-76082000D02*
X169409000Y-76082000D01*
X169409000Y-76082000D02*
X169409000Y-75051000D01*
X169547000Y-77382000D02*
X169547000Y-78413000D01*
X169409000Y-77382000D02*
X169547000Y-77382000D01*
X170578000Y-78413000D02*
X170578000Y-78551000D01*
X169547000Y-78413000D02*
X170578000Y-78413000D01*
X169409000Y-78413000D02*
X169409000Y-77382000D01*
X168378000Y-78413000D02*
X169409000Y-78413000D01*
X170578000Y-78551000D02*
X169547000Y-78551000D01*
X169547000Y-78551000D02*
X169547000Y-79582000D01*
X169409000Y-78551000D02*
X168378000Y-78551000D01*
X168378000Y-78551000D02*
X168378000Y-78413000D01*
X169547000Y-79582000D02*
X169409000Y-79582000D01*
X169409000Y-79582000D02*
X169409000Y-78551000D01*
X169547000Y-80882000D02*
X169547000Y-81913000D01*
X169409000Y-80882000D02*
X169547000Y-80882000D01*
X170578000Y-81913000D02*
X170578000Y-82051000D01*
X169547000Y-81913000D02*
X170578000Y-81913000D01*
X169409000Y-81913000D02*
X169409000Y-80882000D01*
X168378000Y-81913000D02*
X169409000Y-81913000D01*
X170578000Y-82051000D02*
X169547000Y-82051000D01*
X169547000Y-82051000D02*
X169547000Y-83082000D01*
X169409000Y-82051000D02*
X168378000Y-82051000D01*
X168378000Y-82051000D02*
X168378000Y-81913000D01*
X169547000Y-83082000D02*
X169409000Y-83082000D01*
X169409000Y-83082000D02*
X169409000Y-82051000D01*
X169547000Y-84382000D02*
X169547000Y-85413000D01*
X169409000Y-84382000D02*
X169547000Y-84382000D01*
X170578000Y-85413000D02*
X170578000Y-85551000D01*
X169547000Y-85413000D02*
X170578000Y-85413000D01*
X169409000Y-85413000D02*
X169409000Y-84382000D01*
X168378000Y-85413000D02*
X169409000Y-85413000D01*
X170578000Y-85551000D02*
X169547000Y-85551000D01*
X169547000Y-85551000D02*
X169547000Y-86582000D01*
X169409000Y-85551000D02*
X168378000Y-85551000D01*
X168378000Y-85551000D02*
X168378000Y-85413000D01*
X169547000Y-86582000D02*
X169409000Y-86582000D01*
X169409000Y-86582000D02*
X169409000Y-85551000D01*
X169547000Y-87882000D02*
X169547000Y-88913000D01*
X169409000Y-87882000D02*
X169547000Y-87882000D01*
X170578000Y-88913000D02*
X170578000Y-89051000D01*
X169547000Y-88913000D02*
X170578000Y-88913000D01*
X169409000Y-88913000D02*
X169409000Y-87882000D01*
X168378000Y-88913000D02*
X169409000Y-88913000D01*
X170578000Y-89051000D02*
X169547000Y-89051000D01*
X169547000Y-89051000D02*
X169547000Y-90082000D01*
X169409000Y-89051000D02*
X168378000Y-89051000D01*
X168378000Y-89051000D02*
X168378000Y-88913000D01*
X169547000Y-90082000D02*
X169409000Y-90082000D01*
X169409000Y-90082000D02*
X169409000Y-89051000D01*
X169547000Y-91382000D02*
X169547000Y-92413000D01*
X169409000Y-91382000D02*
X169547000Y-91382000D01*
X170578000Y-92413000D02*
X170578000Y-92551000D01*
X169547000Y-92413000D02*
X170578000Y-92413000D01*
X169409000Y-92413000D02*
X169409000Y-91382000D01*
X168378000Y-92413000D02*
X169409000Y-92413000D01*
X170578000Y-92551000D02*
X169547000Y-92551000D01*
X169547000Y-92551000D02*
X169547000Y-93582000D01*
X169409000Y-92551000D02*
X168378000Y-92551000D01*
X168378000Y-92551000D02*
X168378000Y-92413000D01*
X169547000Y-93582000D02*
X169409000Y-93582000D01*
X169409000Y-93582000D02*
X169409000Y-92551000D01*
X169547000Y-94882000D02*
X169547000Y-95913000D01*
X169409000Y-94882000D02*
X169547000Y-94882000D01*
X170578000Y-95913000D02*
X170578000Y-96051000D01*
X169547000Y-95913000D02*
X170578000Y-95913000D01*
X169409000Y-95913000D02*
X169409000Y-94882000D01*
X168378000Y-95913000D02*
X169409000Y-95913000D01*
X170578000Y-96051000D02*
X169547000Y-96051000D01*
X169547000Y-96051000D02*
X169547000Y-97082000D01*
X169409000Y-96051000D02*
X168378000Y-96051000D01*
X168378000Y-96051000D02*
X168378000Y-95913000D01*
X169547000Y-97082000D02*
X169409000Y-97082000D01*
X169409000Y-97082000D02*
X169409000Y-96051000D01*
X169547000Y-98382000D02*
X169547000Y-99413000D01*
X169409000Y-98382000D02*
X169547000Y-98382000D01*
X170578000Y-99413000D02*
X170578000Y-99551000D01*
X169547000Y-99413000D02*
X170578000Y-99413000D01*
X169409000Y-99413000D02*
X169409000Y-98382000D01*
X168378000Y-99413000D02*
X169409000Y-99413000D01*
X170578000Y-99551000D02*
X169547000Y-99551000D01*
X169547000Y-99551000D02*
X169547000Y-100582000D01*
X169409000Y-99551000D02*
X168378000Y-99551000D01*
X168378000Y-99551000D02*
X168378000Y-99413000D01*
X169547000Y-100582000D02*
X169409000Y-100582000D01*
X169409000Y-100582000D02*
X169409000Y-99551000D01*
X169547000Y-101882000D02*
X169547000Y-102913000D01*
X169409000Y-101882000D02*
X169547000Y-101882000D01*
X170578000Y-102913000D02*
X170578000Y-103051000D01*
X169547000Y-102913000D02*
X170578000Y-102913000D01*
X169409000Y-102913000D02*
X169409000Y-101882000D01*
X168378000Y-102913000D02*
X169409000Y-102913000D01*
X170578000Y-103051000D02*
X169547000Y-103051000D01*
X169547000Y-103051000D02*
X169547000Y-104082000D01*
X169409000Y-103051000D02*
X168378000Y-103051000D01*
X168378000Y-103051000D02*
X168378000Y-102913000D01*
X169547000Y-104082000D02*
X169409000Y-104082000D01*
X169409000Y-104082000D02*
X169409000Y-103051000D01*
X169547000Y-105382000D02*
X169547000Y-106413000D01*
X169409000Y-105382000D02*
X169547000Y-105382000D01*
X170578000Y-106413000D02*
X170578000Y-106551000D01*
X169547000Y-106413000D02*
X170578000Y-106413000D01*
X169409000Y-106413000D02*
X169409000Y-105382000D01*
X168378000Y-106413000D02*
X169409000Y-106413000D01*
X170578000Y-106551000D02*
X169547000Y-106551000D01*
X169547000Y-106551000D02*
X169547000Y-107582000D01*
X169409000Y-106551000D02*
X168378000Y-106551000D01*
X168378000Y-106551000D02*
X168378000Y-106413000D01*
X169547000Y-107582000D02*
X169409000Y-107582000D01*
X169409000Y-107582000D02*
X169409000Y-106551000D01*
X169547000Y-108882000D02*
X169547000Y-109913000D01*
X169409000Y-108882000D02*
X169547000Y-108882000D01*
X170578000Y-109913000D02*
X170578000Y-110051000D01*
X169547000Y-109913000D02*
X170578000Y-109913000D01*
X169409000Y-109913000D02*
X169409000Y-108882000D01*
X168378000Y-109913000D02*
X169409000Y-109913000D01*
X170578000Y-110051000D02*
X169547000Y-110051000D01*
X169547000Y-110051000D02*
X169547000Y-111082000D01*
X169409000Y-110051000D02*
X168378000Y-110051000D01*
X168378000Y-110051000D02*
X168378000Y-109913000D01*
X169547000Y-111082000D02*
X169409000Y-111082000D01*
X169409000Y-111082000D02*
X169409000Y-110051000D01*
X169547000Y-112382000D02*
X169547000Y-113413000D01*
X169409000Y-112382000D02*
X169547000Y-112382000D01*
X170578000Y-113413000D02*
X170578000Y-113551000D01*
X169547000Y-113413000D02*
X170578000Y-113413000D01*
X169409000Y-113413000D02*
X169409000Y-112382000D01*
X168378000Y-113413000D02*
X169409000Y-113413000D01*
X170578000Y-113551000D02*
X169547000Y-113551000D01*
X169547000Y-113551000D02*
X169547000Y-114582000D01*
X169409000Y-113551000D02*
X168378000Y-113551000D01*
X168378000Y-113551000D02*
X168378000Y-113413000D01*
X169547000Y-114582000D02*
X169409000Y-114582000D01*
X169409000Y-114582000D02*
X169409000Y-113551000D01*
X169547000Y-115882000D02*
X169547000Y-116913000D01*
X169409000Y-115882000D02*
X169547000Y-115882000D01*
X170578000Y-116913000D02*
X170578000Y-117051000D01*
X169547000Y-116913000D02*
X170578000Y-116913000D01*
X169409000Y-116913000D02*
X169409000Y-115882000D01*
X168378000Y-116913000D02*
X169409000Y-116913000D01*
X170578000Y-117051000D02*
X169547000Y-117051000D01*
X169547000Y-117051000D02*
X169547000Y-118082000D01*
X169409000Y-117051000D02*
X168378000Y-117051000D01*
X168378000Y-117051000D02*
X168378000Y-116913000D01*
X169547000Y-118082000D02*
X169409000Y-118082000D01*
X169409000Y-118082000D02*
X169409000Y-117051000D01*
X172878000Y-119082000D02*
X165878000Y-119082000D01*
X165878000Y-119082000D02*
X165878000Y-67382000D01*
X170853000Y-67982000D02*
G75*
G03*
X168103000Y-67982000I-1375000J0D01*
G01*
X168103000Y-67982000D02*
G75*
G03*
X170853000Y-67982000I1375000J0D01*
G01*
X170853000Y-71482000D02*
G75*
G03*
X168103000Y-71482000I-1375000J0D01*
G01*
X168103000Y-71482000D02*
G75*
G03*
X170853000Y-71482000I1375000J0D01*
G01*
X170853000Y-74982000D02*
G75*
G03*
X168103000Y-74982000I-1375000J0D01*
G01*
X168103000Y-74982000D02*
G75*
G03*
X170853000Y-74982000I1375000J0D01*
G01*
X170853000Y-78482000D02*
G75*
G03*
X168103000Y-78482000I-1375000J0D01*
G01*
X168103000Y-78482000D02*
G75*
G03*
X170853000Y-78482000I1375000J0D01*
G01*
X170853000Y-81982000D02*
G75*
G03*
X168103000Y-81982000I-1375000J0D01*
G01*
X168103000Y-81982000D02*
G75*
G03*
X170853000Y-81982000I1375000J0D01*
G01*
X170853000Y-85482000D02*
G75*
G03*
X168103000Y-85482000I-1375000J0D01*
G01*
X168103000Y-85482000D02*
G75*
G03*
X170853000Y-85482000I1375000J0D01*
G01*
X170853000Y-88982000D02*
G75*
G03*
X168103000Y-88982000I-1375000J0D01*
G01*
X168103000Y-88982000D02*
G75*
G03*
X170853000Y-88982000I1375000J0D01*
G01*
X170853000Y-92482000D02*
G75*
G03*
X168103000Y-92482000I-1375000J0D01*
G01*
X168103000Y-92482000D02*
G75*
G03*
X170853000Y-92482000I1375000J0D01*
G01*
X170853000Y-95982000D02*
G75*
G03*
X168103000Y-95982000I-1375000J0D01*
G01*
X168103000Y-95982000D02*
G75*
G03*
X170853000Y-95982000I1375000J0D01*
G01*
X170853000Y-99482000D02*
G75*
G03*
X168103000Y-99482000I-1375000J0D01*
G01*
X168103000Y-99482000D02*
G75*
G03*
X170853000Y-99482000I1375000J0D01*
G01*
X170853000Y-102982000D02*
G75*
G03*
X168103000Y-102982000I-1375000J0D01*
G01*
X168103000Y-102982000D02*
G75*
G03*
X170853000Y-102982000I1375000J0D01*
G01*
X170853000Y-106482000D02*
G75*
G03*
X168103000Y-106482000I-1375000J0D01*
G01*
X168103000Y-106482000D02*
G75*
G03*
X170853000Y-106482000I1375000J0D01*
G01*
X170853000Y-109982000D02*
G75*
G03*
X168103000Y-109982000I-1375000J0D01*
G01*
X168103000Y-109982000D02*
G75*
G03*
X170853000Y-109982000I1375000J0D01*
G01*
X170853000Y-113482000D02*
G75*
G03*
X168103000Y-113482000I-1375000J0D01*
G01*
X168103000Y-113482000D02*
G75*
G03*
X170853000Y-113482000I1375000J0D01*
G01*
X170853000Y-116982000D02*
G75*
G03*
X168103000Y-116982000I-1375000J0D01*
G01*
X168103000Y-116982000D02*
G75*
G03*
X170853000Y-116982000I1375000J0D01*
G01*
%TO.C,J4*%
X156270000Y-66585000D02*
X156905000Y-65950000D01*
X156270000Y-104050000D02*
X156270000Y-66585000D01*
X156905000Y-65950000D02*
X158810000Y-65950000D01*
X158810000Y-65950000D02*
X158810000Y-104050000D01*
X158810000Y-104050000D02*
X156270000Y-104050000D01*
%TO.C,J3*%
X120710000Y-66585000D02*
X121345000Y-65950000D01*
X120710000Y-104050000D02*
X120710000Y-66585000D01*
X121345000Y-65950000D02*
X123250000Y-65950000D01*
X123250000Y-65950000D02*
X123250000Y-104050000D01*
X123250000Y-104050000D02*
X120710000Y-104050000D01*
%TD*%
M02*
